<svg width="140" height="225" viewBox="0 0 140 225" fill="none" xmlns="http://www.w3.org/2000/svg">
<path fill-rule="evenodd" clip-rule="evenodd" d="M89.9668 146.845C94.208 157.221 92.3439 209.78 96.4745 208.911C97.6155 208.674 101.158 209.943 102.056 208.418C104.886 203.635 103.929 191.258 104.232 187.322C104.703 181.255 107.745 144.858 101.306 144.858C96.6028 144.858 94.3628 145.662 89.9668 146.845" fill="#8E6334"/>
<path fill-rule="evenodd" clip-rule="evenodd" d="M16.9929 117.433C12.7406 126.82 11.9822 224.728 21.3004 224.728C24.9644 224.728 28.1309 225.429 29.3759 223.73C30.5235 222.16 29.8889 218.377 29.8889 213.705C29.8889 206.37 30.7027 159.699 37.8759 158.222C41.3454 157.508 35.2379 214.987 42.3692 224.434C43.9259 225.844 51.4862 224.372 51.7338 222.729C51.3314 215.735 52.5918 162.28 58.1907 163.231C76.3472 166.304 92.3589 163.35 105.251 157.985C107.274 157.143 109.251 211.394 112.809 211.394C120.039 211.394 117.919 215.365 122.113 199.15C124.962 188.142 128.183 119.43 122.868 108.938L122.83 108.858C124.389 106.114 126.133 100.657 126.145 99.677C126.286 88.8065 123.005 72.4566 121.231 74.0929C116.059 78.8559 111.179 92.4529 114.02 98.766C102.94 91.9244 87.7684 97.6051 75.5402 104.595C55.661 115.963 22.5343 105.194 16.9929 117.433" fill="#BC8039"/>
<path fill-rule="evenodd" clip-rule="evenodd" d="M4.30121 106.123C11.5099 113.601 30.6571 121.769 41.4369 122.614C56.8869 123.828 76.8502 117.99 86.0534 107.686C96.7116 95.754 90.4006 71.7862 91.5704 57.5635C102.742 47.1198 99.7409 38.1199 95.5329 29.5712C95.0796 30.4999 86.7897 51.3874 86.8162 51.7191C81.0515 51.7191 69.9024 38.3919 50.565 38.3919C40.8709 38.3919 23.1521 36.446 15.3133 40.8619C17.54 25.4229 12.8787 21.0667 8.01612 17.5707C4.33882 22.5372 -0.0792821 37.178 7.1117 48.8379C3.37911 67.6181 -5.14967 96.3002 4.30121 106.123" fill="#CA9862"/>
<path fill-rule="evenodd" clip-rule="evenodd" d="M10.0521 86.9691C12.8073 88.9658 15.6642 84.7556 13.6564 83.2431C10.0299 80.4989 7.82532 85.3526 10.0521 86.9691Z" fill="#31302F"/>
<path fill-rule="evenodd" clip-rule="evenodd" d="M44.5676 105.07C44.4039 106.337 44.7091 105.835 45.9319 105.912C45.9629 105.915 45.5936 101.616 45.6798 101.023C45.7285 100.685 46.2636 97.3459 45.9961 97.3459C44.4747 97.3459 44.8108 103.215 44.5676 105.07" fill="#31302F"/>
<path fill-rule="evenodd" clip-rule="evenodd" d="M45.5382 106.693C46.8185 106.669 49.3725 105.919 49.43 104.696C49.43 104.672 46.5155 105.625 45.149 105.689C45.0561 105.691 43.3556 105.472 40.8658 104.76C40.8547 106.273 43.4662 106.728 45.5382 106.693Z" fill="#31302F"/>
<path fill-rule="evenodd" clip-rule="evenodd" d="M78.7623 89.0164C81.0443 90.8429 83.4148 86.9953 81.7519 85.6067C78.7424 83.1013 76.9137 87.5393 78.7623 89.0164Z" fill="#31302F"/>
<path fill-rule="evenodd" clip-rule="evenodd" d="M12.7033 91.3756C8.62352 97.7352 20.007 101.859 23.1315 97.2002C28.779 88.7797 16.0025 86.2345 12.7033 91.3756Z" fill="#F4AFB3"/>
<path fill-rule="evenodd" clip-rule="evenodd" d="M64.6016 92.6607C60.5196 99.0181 71.9031 103.142 75.0276 98.4874C80.6774 90.067 67.9008 87.5174 64.6016 92.6607Z" fill="#F4AFB3"/>
<path fill-rule="evenodd" clip-rule="evenodd" d="M46.6279 91.1594C50.1659 91.5883 53.4806 95.2502 45.9579 98.9187C43.6427 100.046 36.5026 89.9277 46.6279 91.1594Z" fill="#694926"/>
<path fill-rule="evenodd" clip-rule="evenodd" d="M22.6824 46.1357C19.8675 43.5287 19.8741 32.5476 21.0947 29.3634C22.1186 26.6834 13.3731 16.0982 15.4693 7.16472C16.8116 1.41547 21.0616 19.7025 22.4768 15.7399C29.4068 -3.67045 33.8846 -1.59405 32.7922 3.4476C31.5495 9.16589 24.1861 19.4792 24.0932 20.8479C23.589 28.1826 34.1831 8.55339 34.0748 18.6588C34.035 22.1681 24.4647 26.617 25.0241 32.7311C25.2983 35.7318 24.3851 37.7087 25.2121 42.7659C25.661 45.5211 22.6647 46.1158 22.6824 46.1357" fill="#8E6334"/>
<path fill-rule="evenodd" clip-rule="evenodd" d="M76.3809 54.6226C79.9057 53.1145 83.5962 42.7769 83.5211 39.3649C83.4569 36.4992 95.2583 29.474 96.2932 20.357C96.961 14.4906 86.8025 30.2767 86.8069 26.0687C86.8158 5.46207 81.898 5.90879 81.2324 11.0256C80.4739 16.8257 83.9368 29.0163 83.5653 30.3342C81.5686 37.4146 78.2008 15.3641 74.9016 24.9145C73.7562 28.2292 81.2744 35.6456 78.6895 41.2113C77.418 43.9467 77.6104 46.1159 75.1316 50.5981C73.7805 53.0394 76.403 54.6137 76.3809 54.6226" fill="#8E6334"/>
<path fill-rule="evenodd" clip-rule="evenodd" d="M30.1701 46.651C30.1944 46.6422 36.5385 48.3779 34.1128 44.7913C33.0978 43.2921 26.9594 44.1921 30.1701 46.651Z" fill="#FBCF9E"/>
<path fill-rule="evenodd" clip-rule="evenodd" d="M47.6878 47.9976C47.7144 47.9844 54.0585 50.5495 51.6283 45.2536C50.6155 43.0401 44.4793 44.3646 47.6878 47.9976Z" fill="#FBCF9E"/>
<path fill-rule="evenodd" clip-rule="evenodd" d="M66.0073 50.901C65.9852 50.8899 59.6367 53.4506 62.0668 48.1546C63.0774 45.9456 69.218 47.2701 66.0073 50.901Z" fill="#FBCF9E"/>
<path fill-rule="evenodd" clip-rule="evenodd" d="M41.9292 53.0128C41.9004 52.9973 35.5564 55.5624 37.9866 50.2642C38.9993 48.0552 45.1377 49.3797 41.9292 53.0128Z" fill="#FBCF9E"/>
<path fill-rule="evenodd" clip-rule="evenodd" d="M52.9039 54.461C52.9305 54.4521 59.2723 56.1902 56.8421 52.5969C55.8316 51.1021 49.691 51.9998 52.9039 54.461Z" fill="#FBCF9E"/>
<path fill-rule="evenodd" clip-rule="evenodd" d="M45.4719 58.8083C45.4962 58.795 51.8403 60.5331 49.4146 56.942C48.3996 55.4472 42.2611 56.345 45.4719 58.8083Z" fill="#FBCF9E"/>
<path fill-rule="evenodd" clip-rule="evenodd" d="M37.5265 62.0546C37.553 62.0391 43.8971 64.6041 41.4692 59.3081C40.4586 57.0991 34.3136 58.4215 37.5265 62.0546Z" fill="#FBCF9E"/>
<path fill-rule="evenodd" clip-rule="evenodd" d="M56.825 62.5743C56.7984 62.561 50.4544 65.1217 52.8845 59.8257C53.8973 57.6167 60.0379 58.9434 56.825 62.5743Z" fill="#FBCF9E"/>
<path fill-rule="evenodd" clip-rule="evenodd" d="M48.2999 69.8757C48.28 69.8624 41.9315 72.4253 44.3594 67.1272C45.3744 64.9159 51.515 66.2426 48.2999 69.8757Z" fill="#FBCF9E"/>
<path fill-rule="evenodd" clip-rule="evenodd" d="M85.9309 111.394C85.953 111.388 90.5944 112.661 88.8188 110.032C88.0758 108.938 83.5847 109.594 85.9309 111.394Z" fill="#FBCF9E"/>
<path fill-rule="evenodd" clip-rule="evenodd" d="M100.596 99.6834C100.614 99.6746 105.257 101.55 103.477 97.6712C102.736 96.0548 98.241 97.0255 100.596 99.6834Z" fill="#FBCF9E"/>
<path fill-rule="evenodd" clip-rule="evenodd" d="M111.699 102.421C111.681 102.408 107.033 104.285 108.813 100.409C109.556 98.7899 114.05 99.7651 111.699 102.421Z" fill="#FBCF9E"/>
<path fill-rule="evenodd" clip-rule="evenodd" d="M94.0702 103.965C94.0503 103.953 89.4045 105.831 91.1845 101.955C91.9275 100.336 96.4207 101.307 94.0702 103.965Z" fill="#FBCF9E"/>
<path fill-rule="evenodd" clip-rule="evenodd" d="M103.411 104.226C103.431 104.219 108.077 105.49 106.294 102.866C105.558 101.767 101.06 102.426 103.411 104.226Z" fill="#FBCF9E"/>
<path fill-rule="evenodd" clip-rule="evenodd" d="M97.516 106.625C97.5315 106.616 102.18 107.887 100.399 105.26C99.6609 104.164 95.1632 104.822 97.516 106.625Z" fill="#FBCF9E"/>
<path fill-rule="evenodd" clip-rule="evenodd" d="M92.8324 111.166C92.8523 111.155 97.4959 113.033 95.7181 109.154C94.9751 107.538 90.484 108.506 92.8324 111.166Z" fill="#FBCF9E"/>
<path fill-rule="evenodd" clip-rule="evenodd" d="M104.974 110.963C104.957 110.952 100.311 112.829 102.091 108.951C102.832 107.334 107.325 108.305 104.974 110.963Z" fill="#FBCF9E"/>
<path fill-rule="evenodd" clip-rule="evenodd" d="M98.7367 116.308C98.719 116.297 94.0754 118.174 95.8532 114.298C96.594 112.677 101.089 113.65 98.7367 116.308Z" fill="#FBCF9E"/>
<path fill-rule="evenodd" clip-rule="evenodd" d="M114.843 73.031C117.551 74.0747 130.417 73.9487 131.978 77.8958C130.235 79.866 121.998 77.1374 120.068 76.2307C118.83 75.6426 113.929 75.7376 114.137 74.0482C114.157 73.889 114.157 72.7679 114.843 73.031Z" fill="#694926"/>
<path fill-rule="evenodd" clip-rule="evenodd" d="M111.843 70.4706C109.484 71.0257 109.013 75.8484 113.473 74.358C114.965 73.8583 114.727 69.7918 111.843 70.4706Z" fill="#694926"/>
<path fill-rule="evenodd" clip-rule="evenodd" d="M115.677 54.3593C122.324 51.2149 134.366 56.2942 132.356 64.1419C131.894 65.9397 127.677 72.7039 125.873 73.4402C123.772 74.296 123.1 74.8267 120.508 74.8267C113.762 74.8267 110.398 56.8558 115.677 54.3593Z" fill="#4CBAC9"/>
<path fill-rule="evenodd" clip-rule="evenodd" d="M124.334 74.5792C125.562 71.0279 132.549 63.6623 136.284 64.2571C144.342 65.5396 134.548 75.1652 127.682 75.3311C125.405 75.3819 124.246 74.8489 124.334 74.5792Z" fill="#92D0D8"/>
</svg>
