<svg width="237" height="225" viewBox="0 0 237 225" fill="none" xmlns="http://www.w3.org/2000/svg">
<path fill-rule="evenodd" clip-rule="evenodd" d="M158.88 190.355C157.852 184.139 174.167 155.728 167.418 178.76C169.643 176.775 180.688 163.048 189.096 165.647C188.431 170.745 189.126 172.005 196.694 169.194C199.826 168.027 209.786 166.002 209.169 168.338C209.013 168.916 208.625 171.599 204.48 172.884C199.274 174.502 226.018 169.224 218.34 174.971C228.011 173.821 233.495 173.982 235.24 175.62C237.71 177.93 238.167 183.12 228.733 183.255C219.589 183.379 240.812 191.561 217.639 186.595C215.773 186.191 220.858 189.808 221.375 190.148C221.375 193.579 197.27 183.831 210.54 191.19C217.656 195.132 195.813 191.291 195.91 191.365C202.264 195.975 197.688 197.196 188.183 194.142C171.8 188.874 191.929 196.326 181.315 197.874C175.045 198.79 149.831 196.272 158.88 190.355" fill="#6D6A66"/>
<path fill-rule="evenodd" clip-rule="evenodd" d="M46.1917 46.2197C53.9241 56.0797 67.8429 55.6434 75.9415 60.1411C80.0003 44.2643 84.6192 38.1479 70.3503 20.1812C66.6417 15.5084 64.2177 13.3026 58.6454 10.208C52.5478 4.79994 42.5989 2.44334 37.2797 7.49052C31.4596 13.0117 31.131 27.0194 46.1917 46.2197" fill="#7B7772"/>
<path fill-rule="evenodd" clip-rule="evenodd" d="M37.2794 7.49034C37.2363 7.5469 56.0164 11.7969 63.6491 30.6012C66.1243 36.7096 74.4195 54.8783 79.8248 39.0015C81.7074 33.4776 76.566 29.9791 72.4399 23.5395C69.8329 19.47 67.5032 16.5047 60.9532 11.7672C52.4586 5.61583 41.1307 2.31658 37.2794 7.49034" fill="#9F9990"/>
<path fill-rule="evenodd" clip-rule="evenodd" d="M166.483 41.5143C158.751 51.3743 144.832 50.9353 136.733 55.4385C132.672 39.5617 128.05 33.4426 142.322 15.4758C146.031 10.803 148.457 8.59454 154.03 5.50268C160.124 0.0946061 170.073 -2.2593 175.393 2.78249C181.215 8.30637 181.541 22.314 166.483 41.5143Z" fill="#7B7772"/>
<path fill-rule="evenodd" clip-rule="evenodd" d="M175.393 2.78247C175.433 2.83903 156.656 7.09168 149.028 25.8987C146.548 32.0044 138.253 50.1704 132.847 34.2963C130.965 28.7725 136.106 25.2712 140.232 18.8316C142.839 14.7621 145.172 11.7995 151.722 7.05938C160.216 0.910657 171.544 -2.39129 175.393 2.78247" fill="#9F9990"/>
<path fill-rule="evenodd" clip-rule="evenodd" d="M61.0588 203.67C56.4991 229.106 92.3249 233.075 69.9816 208.602C67.1698 205.526 68.6969 204.955 69.1413 203.074C67.6923 201.179 63.4235 204.818 61.0588 203.67Z" fill="#6D6A66"/>
<path fill-rule="evenodd" clip-rule="evenodd" d="M164.428 204.597C164.608 230.438 128.632 228.275 154.802 207.948C158.093 205.391 156.685 204.573 156.564 202.646C158.314 201.02 161.902 205.332 164.428 204.597Z" fill="#6D6A66"/>
<path fill-rule="evenodd" clip-rule="evenodd" d="M108.688 219.81C234.914 234.723 162.047 35.5673 67.9797 110.677C44.5698 129.379 11.6717 215.803 108.688 219.81Z" fill="#7B7772"/>
<path fill-rule="evenodd" clip-rule="evenodd" d="M107.983 119.366C127.496 120.136 152.67 129.016 164.189 120.489C177.76 116.204 186.246 93.9248 170.593 78.3475C148.525 56.3974 156.518 13.1921 104.929 15.2578C78.8364 16.2974 57.3657 28.8938 46.9536 80.6583C34.9282 91.1917 31.9763 110.707 47.9824 120.819C63.4875 130.61 98.201 118.975 107.983 119.366" fill="#BCB7AE"/>
<path fill-rule="evenodd" clip-rule="evenodd" d="M71.1719 97.849C66.623 104.933 79.3136 109.53 82.7933 104.342C89.0901 94.957 74.8509 92.1185 71.1719 97.849Z" fill="#EB606B"/>
<path fill-rule="evenodd" clip-rule="evenodd" d="M131.112 95.6893C126.564 102.775 139.251 107.372 142.734 102.183C149.028 92.8024 134.791 89.9575 131.112 95.6893Z" fill="#EB606B"/>
<path fill-rule="evenodd" clip-rule="evenodd" d="M72.6284 90.9033C76.1081 93.4241 79.7171 88.1106 77.1828 86.1984C72.6042 82.7376 69.8194 88.8701 72.6284 90.9033Z" fill="#31302F"/>
<path fill-rule="evenodd" clip-rule="evenodd" d="M141.837 90.9358C144.722 93.2442 147.711 88.3826 145.613 86.632C141.813 83.4701 139.505 89.0721 141.837 90.9358Z" fill="#31302F"/>
<path fill-rule="evenodd" clip-rule="evenodd" d="M107.832 106.524C107.738 107.954 108.042 107.372 109.418 107.372C109.453 107.372 108.737 102.584 108.793 101.916C108.826 101.537 109.187 97.7607 108.888 97.7795C107.18 97.8848 107.972 104.432 107.832 106.524" fill="#31302F"/>
<path fill-rule="evenodd" clip-rule="evenodd" d="M109.033 108.272C110.461 108.156 113.27 107.139 113.248 105.768C113.248 105.735 110.051 107.011 108.527 107.177C108.419 107.184 106.502 107.06 103.668 106.438C103.76 108.137 106.712 108.458 109.033 108.272Z" fill="#31302F"/>
<path fill-rule="evenodd" clip-rule="evenodd" d="M109.16 90.8067C113.149 91.038 117.118 94.9055 108.952 99.5409C106.445 100.971 97.7377 90.1439 109.16 90.8067Z" fill="#6B6A6A"/>
<path fill-rule="evenodd" clip-rule="evenodd" d="M107.051 207.042C173.108 214.845 134.972 110.623 85.7497 149.929C73.498 159.714 56.2854 204.942 107.051 207.042Z" fill="#9F9990"/>
<path fill-rule="evenodd" clip-rule="evenodd" d="M83.1108 135.172C86.639 121.787 107.878 123.324 96.1435 129.425C91.5784 131.797 106.216 127.954 90.1133 134.679C87.4632 135.786 88.2549 136.586 87.9883 137.89C86.5312 138.654 84.9234 135.14 83.1108 135.172Z" fill="#BCB7AE"/>
<path fill-rule="evenodd" clip-rule="evenodd" d="M135.425 141.97C131.894 128.588 110.658 130.12 122.393 136.223C126.963 138.596 112.323 134.755 128.423 141.483C131.073 142.585 130.284 143.384 130.548 144.687C132.005 145.45 133.613 141.937 135.425 141.97" fill="#BCB7AE"/>
<path fill-rule="evenodd" clip-rule="evenodd" d="M57.9718 92.5296C38.408 97.8437 29.3856 102.999 12.3291 114.179C4.97921 118.996 8.20574 117.349 21.3489 109.858C31.9145 103.834 46.003 96.6832 57.6325 94.4446C61.0987 93.7712 59.2161 92.193 57.9718 92.5296Z" fill="#EDECED"/>
<path fill-rule="evenodd" clip-rule="evenodd" d="M57.0639 97.1425C34.1011 105.39 23.7671 112.438 4.37019 127.483C-3.98701 133.971 -0.273022 131.685 14.7823 121.437C26.8805 113.203 43.0993 103.273 56.8457 99.473C60.9395 98.3334 58.529 96.6208 57.0639 97.1425" fill="#EDECED"/>
<path fill-rule="evenodd" clip-rule="evenodd" d="M64.3223 101.633C41.3596 109.877 31.0255 116.926 11.6286 131.976C3.27139 138.464 6.98544 136.174 22.0381 125.924C34.1389 117.687 50.3604 107.764 64.1068 103.957C68.1952 102.819 65.7875 101.11 64.3223 101.633" fill="#EDECED"/>
<path fill-rule="evenodd" clip-rule="evenodd" d="M157.07 92.8939C176.632 98.2026 185.654 103.36 202.713 114.542C210.06 119.362 206.834 117.715 193.691 110.217C183.125 104.2 169.037 97.0495 157.407 94.8085C153.938 94.1319 155.826 92.554 157.07 92.8939Z" fill="#EDECED"/>
<path fill-rule="evenodd" clip-rule="evenodd" d="M157.975 97.5071C180.938 105.754 191.272 112.8 210.669 127.849C219.024 134.332 215.315 132.046 200.257 121.8C188.159 113.567 171.94 103.637 158.193 99.8363C154.102 98.6981 156.513 96.9822 157.975 97.5071" fill="#EDECED"/>
<path fill-rule="evenodd" clip-rule="evenodd" d="M150.72 101.994C173.68 110.241 184.014 117.287 203.411 132.334C211.768 138.819 208.056 136.535 192.998 126.287C180.898 118.054 164.681 108.126 150.935 104.323C146.844 103.185 149.254 101.466 150.72 101.994Z" fill="#EDECED"/>
</svg>
