<svg width="200" height="225" viewBox="0 0 200 225" fill="none" xmlns="http://www.w3.org/2000/svg">
<path fill-rule="evenodd" clip-rule="evenodd" d="M17.9364 0.802732C17.2277 0.0623396 18.6684 -0.435464 18.525 0.549616C18.4997 0.714148 18.0061 0.874451 17.9364 0.802732Z" fill="#FFEB00"/>
<path fill-rule="evenodd" clip-rule="evenodd" d="M59.3452 117.96C63.5576 119.611 53.7152 134.609 44.4318 174.341C40.0949 192.917 27.4471 201.867 17.0584 201.055C10.6269 200.555 2.50368 198.627 0.514534 193.385C-2.85625 184.515 11.2449 174.715 16.3686 180.902C32.3155 167.823 42.7022 111.406 59.3452 117.96Z" fill="#A89D97"/>
<path fill-rule="evenodd" clip-rule="evenodd" d="M140.248 124.706C136.041 126.362 141.249 127.104 155.245 161.354C162.466 179.01 172.255 188.869 182.648 188.05C189.075 187.544 197.194 185.608 199.181 180.366C202.546 171.494 188.436 161.702 183.315 167.893C167.361 154.83 156.886 118.148 140.248 124.706" fill="#A89D97"/>
<path fill-rule="evenodd" clip-rule="evenodd" d="M56.7327 129.545C59.1078 123.904 15.2138 182.606 41.4165 194.212C49.4195 197.756 52.4992 205.244 67.2332 207.324C89.4239 210.46 93.4317 208.824 114.743 207.796C139.444 206.602 138.269 202.502 157.375 193.126C165.996 188.89 167.924 172.363 162.864 160.038C156.751 145.133 141.378 124.176 133.343 124.993C112.486 127.1 51.609 125.313 56.7327 129.545" fill="#958B85"/>
<path fill-rule="evenodd" clip-rule="evenodd" d="M77.9773 144.722C136.977 115.908 181.21 209.769 121.452 215.418C94.6097 217.96 52.8884 221.155 51.2241 180.832C50.5111 163.616 63.8655 151.615 77.9773 144.722" fill="#B9BABA"/>
<path fill-rule="evenodd" clip-rule="evenodd" d="M123.786 51.7125C123.449 36.1516 130.068 26.2312 146.272 30.3551C161.687 34.2764 158.013 66.3643 132.395 62.0211C131.331 61.8418 123.833 53.9337 123.786 51.7125Z" fill="#958B85"/>
<path fill-rule="evenodd" clip-rule="evenodd" d="M70.7562 50.5695C39.432 -0.161088 21.1606 89.1732 67.1282 63.0992C68.0415 62.5845 71.8932 52.4068 70.7562 50.5695Z" fill="#958B85"/>
<path fill-rule="evenodd" clip-rule="evenodd" d="M99.2224 140.138C124.792 139.309 149.019 129.494 156.652 110.887C171.926 73.6564 109.263 5.26182 72.3258 31.0216C47.2242 48.5231 3.45664 143.245 99.2224 140.138" fill="#AFA9A6"/>
<path fill-rule="evenodd" clip-rule="evenodd" d="M149.434 162.54C128.302 155.977 115.827 202.358 130.167 213.89C153.88 232.961 171.899 169.509 149.434 162.54Z" fill="#B0B1B2"/>
<path fill-rule="evenodd" clip-rule="evenodd" d="M143.905 179.246C131.07 175.261 123.491 203.43 132.203 210.435C146.606 222.022 157.553 183.477 143.905 179.246Z" fill="#696561"/>
<path fill-rule="evenodd" clip-rule="evenodd" d="M154.976 174.318C149.998 173.046 147.643 180.153 151.101 182.125C156.826 185.382 160.268 175.668 154.976 174.318Z" fill="#696561"/>
<path fill-rule="evenodd" clip-rule="evenodd" d="M146.219 168.049C141.238 166.773 138.886 173.881 142.346 175.856C148.069 179.113 151.513 169.399 146.219 168.049Z" fill="#696561"/>
<path fill-rule="evenodd" clip-rule="evenodd" d="M134.751 170.241C139.879 170.49 140.039 177.98 136.154 178.843C129.722 180.273 129.292 169.975 134.751 170.241Z" fill="#696561"/>
<path fill-rule="evenodd" clip-rule="evenodd" d="M105.789 167.936C103.026 166.069 100.033 169.899 101.714 171.863C104.501 175.103 108.73 169.923 105.789 167.936Z" fill="#3B3A39"/>
<path fill-rule="evenodd" clip-rule="evenodd" d="M38.1309 183.226C52.7342 169.171 82.0145 202.012 75.0114 217.347C63.4393 242.706 22.6059 198.169 38.1309 183.226Z" fill="#B0B1B2"/>
<path fill-rule="evenodd" clip-rule="evenodd" d="M49.5251 194.629C58.3929 186.093 76.1792 206.043 71.9246 215.358C64.894 230.761 40.0941 203.706 49.5251 194.629Z" fill="#696561"/>
<path fill-rule="evenodd" clip-rule="evenodd" d="M38.4365 195.148C41.9887 192.058 46.8381 196.914 44.8153 199.945C41.4698 204.97 34.6565 198.433 38.4365 195.148Z" fill="#696561"/>
<path fill-rule="evenodd" clip-rule="evenodd" d="M43.0245 186.418C46.5809 183.325 51.4303 188.177 49.4074 191.214C46.0598 196.235 39.2487 189.698 43.0245 186.418Z" fill="#696561"/>
<path fill-rule="evenodd" clip-rule="evenodd" d="M53.3199 183.496C49.2193 185.81 52.1661 192.005 55.7056 191.115C61.5591 189.641 57.6779 181.035 53.3199 183.496Z" fill="#696561"/>
<path fill-rule="evenodd" clip-rule="evenodd" d="M119.156 44.693C118.768 52.2867 126.676 59.9565 128.374 57.7437C129.783 55.9065 126.41 50.8524 123.685 45.1233C122.033 41.6407 122.801 43.9652 125.007 45.7076C129.54 49.2809 139.497 51.2953 132.512 45.773C130.245 43.98 126.285 42.5414 124.919 41.5352C148.55 45.1043 130.114 38.8985 126.617 38.0526C128.857 36.5023 133.662 28.6891 132.595 26.6557C131.323 24.232 126.444 27.3686 122.543 35.7808C124.077 19.0598 119.622 15.3494 118.061 32.7771C110.434 18.9881 108.419 27.5247 110.948 30.8154C111.507 31.5431 115.055 35.3379 115.081 35.3822C109.147 34.6038 103.5 35.6965 103.595 36.4558C103.776 37.9155 114.965 40.0777 114.808 40.1789C109.324 43.8028 109.075 51.5253 110.123 51.5105C113.998 51.4641 118.977 48.1629 119.156 44.693" fill="#FBBF26"/>
<path fill-rule="evenodd" clip-rule="evenodd" d="M121.681 37.0547C121.776 37.0821 125.558 41.497 120.468 41.6257C117.456 41.708 114.876 35.171 121.681 37.0547Z" fill="#E95707"/>
<path fill-rule="evenodd" clip-rule="evenodd" d="M137.476 91.0717C140.655 92.8225 142.741 87.6166 140.417 86.2771C136.209 83.8471 134.911 89.6584 137.476 91.0717Z" fill="#3B3A39"/>
<path fill-rule="evenodd" clip-rule="evenodd" d="M102.713 82.1153C76.7779 79.3857 59.019 140.513 112.275 132.656C125.954 130.637 148.277 86.9162 102.713 82.1153Z" fill="#D4D4D4"/>
<path fill-rule="evenodd" clip-rule="evenodd" d="M105.308 119.59C105.323 119.995 105.35 120.291 105.394 120.506C104.144 120.514 101.878 120.459 98.9629 120.145C99.3869 122.708 103.924 122.716 107.419 122.05C109.573 121.643 113.676 119.635 113.416 117.548C113.414 117.513 110.147 119.23 107.742 120.086C107.339 118.413 106.031 113.285 106.01 112.435C106 111.847 105.924 106.05 105.481 106.128C102.903 106.569 105.179 116.386 105.308 119.59" fill="#3B3A39"/>
<path fill-rule="evenodd" clip-rule="evenodd" d="M103.26 80.8666C113.574 80.3541 121.286 114.402 102.66 112.999C95.2248 112.44 73.7472 82.3284 103.26 80.8666Z" fill="#696561"/>
<path fill-rule="evenodd" clip-rule="evenodd" d="M66.0441 101.032C69.8283 102.888 72.4356 97.1445 69.6638 95.7165C64.6541 93.1325 62.9834 99.5302 66.0441 101.032Z" fill="#3B3A39"/>
<path fill-rule="evenodd" clip-rule="evenodd" d="M137.934 103.924C144.646 107.379 149.059 97.1001 144.14 94.4486C135.251 89.6561 132.507 101.127 137.934 103.924Z" fill="#F5B0B4"/>
<path fill-rule="evenodd" clip-rule="evenodd" d="M65.2213 116.618C71.9313 120.071 76.342 109.801 71.425 107.149C62.5361 102.354 59.7918 113.827 65.2213 116.618Z" fill="#F5B0B4"/>
</svg>
