<svg width="114" height="225" viewBox="0 0 114 225" fill="none" xmlns="http://www.w3.org/2000/svg">
<path fill-rule="evenodd" clip-rule="evenodd" d="M15.9391 126.498C5.672 146.245 5.42919 178.745 21.192 193.561C22.1509 194.462 22.211 223.695 32.1274 224.957C34.3772 225.244 38.5135 224.046 39.6072 222.722C42.1164 219.687 38.5924 215.459 35.996 215.773C33.4578 216.076 32.7335 200.66 33.6695 200.969C49.397 206.16 56.1733 205.644 66.9011 200.552C67.4221 200.305 68.4182 214.984 65.5811 213.581C61.5901 213.294 59.6143 216.829 59.6891 218.654C59.8592 222.583 66.0688 222.956 67.8163 222.946C82.1637 222.877 78.7123 194.08 79.5674 193.105C91.3662 179.692 92.0552 157.178 87.6657 138.626C87.1531 136.463 118.494 121.39 112.828 114.189C107.312 107.184 84.4613 128.854 83.6996 127.257C78.9116 117.243 71.1848 110.742 60.0439 108.5C40.8214 104.627 30.8801 104.67 21.6257 117.166C20.6565 118.465 8.21236 86.6664 0.363113 97.661C-2.98247 102.346 17.9025 122.895 17.4853 123.633C16.9727 124.547 16.4559 125.499 15.9391 126.498" fill="#E7D29A"/>
<path fill-rule="evenodd" clip-rule="evenodd" d="M15.7106 101.81C25.9715 131.936 75.3812 140.209 92.6881 115.078C99.5329 105.135 106.554 75.4727 105.122 58.2595C104.586 51.8209 106.411 6.36248 104.3 3.49604C101.828 0.145973 90.9863 -7.65418 88.8403 21.7201C88.5518 25.7448 89.4151 54.5856 87.9686 59.5879C77.5499 50.5319 48.3695 48.4873 35.6285 53.9649C31.2265 47.1735 37.1477 6.71748 31.9177 4.39277C12.471 -4.25845 7.73063 78.3931 15.7106 101.81Z" fill="#F1DCA8"/>
<path fill-rule="evenodd" clip-rule="evenodd" d="M58.4377 115.773C58.2717 117.043 58.5768 116.539 59.7992 116.618C59.8324 116.618 59.4588 112.319 59.5481 111.728C59.6 111.391 60.1312 108.052 59.8656 108.052C58.3401 108.052 58.6785 113.919 58.4377 115.773" fill="#3B3A39"/>
<path fill-rule="evenodd" clip-rule="evenodd" d="M59.4078 117.398C60.6863 117.373 63.2412 116.624 63.3014 115.401C63.3014 115.374 60.3833 116.331 59.0177 116.392C58.9243 116.4 57.2245 116.176 54.7319 115.466C54.7257 116.981 57.3345 117.431 59.4078 117.398" fill="#3B3A39"/>
<path fill-rule="evenodd" clip-rule="evenodd" d="M26.125 13.2762C30.9213 15.1215 29.2692 24.7524 28.6902 34.2256C27.9596 46.1148 27.3412 58.1264 25.4339 58.3859C19.3736 59.2037 19.4235 12.4729 26.125 13.2762Z" fill="#F5B0B4"/>
<path fill-rule="evenodd" clip-rule="evenodd" d="M98.4448 13.2265C93.5385 14.7604 94.5638 24.4805 94.5347 33.9682C94.4994 45.8823 94.3397 57.9085 96.2283 58.2884C102.228 59.4922 105.184 12.855 98.4448 13.2265Z" fill="#F5B0B4"/>
<path fill-rule="evenodd" clip-rule="evenodd" d="M33.5201 102.078C29.4398 108.436 40.8277 112.562 43.9491 107.906C49.5984 99.4834 36.8221 96.9345 33.5201 102.078Z" fill="#F5B0B4"/>
<path fill-rule="evenodd" clip-rule="evenodd" d="M74.8581 103.195C70.7779 109.554 82.1636 113.683 85.2871 109.023C90.9364 100.6 78.1581 98.0532 74.8581 103.195Z" fill="#F5B0B4"/>
<path fill-rule="evenodd" clip-rule="evenodd" d="M60.495 101.862C64.0336 102.292 67.3501 105.953 59.8267 109.623C57.5147 110.752 50.3711 100.633 60.495 101.862Z" fill="#D79EA3"/>
<path fill-rule="evenodd" clip-rule="evenodd" d="M37.5069 187.268C64.2404 211.366 94.4544 156.702 59.6787 141.81C47.6308 136.652 4.57413 157.587 37.5069 187.268Z" fill="#FFF3D5"/>
<path fill-rule="evenodd" clip-rule="evenodd" d="M41.3775 42.3331C40.7507 45.2244 41.3132 47.5574 42.0354 49.2179C42.2886 49.7908 42.5501 50.2744 42.7846 50.6438C42.658 50.5587 42.5211 50.4716 42.3717 50.3823C40.5619 49.2739 38.9118 47.3914 38.2892 45.3386C37.8243 43.8151 37.3284 44.2011 37.4384 44.5768C38.281 47.4162 39.8894 49.1889 41.3256 50.2993C41.7345 50.6107 42.1184 50.8659 42.4567 51.0672C42.3156 51.0756 42.1703 51.0839 42.0085 51.0943C39.8978 51.2687 37.4528 50.7248 35.7385 49.4338C34.4642 48.479 34.294 49.083 34.6053 49.3196C36.9589 51.115 39.3042 51.5966 41.1181 51.6443C42.0458 51.6713 42.7991 51.5861 43.2744 51.4741L43.3865 51.5136C45.6694 53.1762 47.9255 53.6307 49.6834 53.6764C52.4208 53.7511 53.6598 52.8731 50.5758 53.1284C48.4609 53.3007 46.0202 52.7548 44.3038 51.4659C43.9676 51.2147 43.7062 51.0694 43.5131 50.9988C43.4114 50.7249 43.2183 50.3263 42.9112 49.7929C41.8589 47.9539 41.3173 45.5088 41.7552 43.4103C42.0811 41.8495 41.4605 41.9532 41.3775 42.3331" fill="#6D4F33"/>
<path fill-rule="evenodd" clip-rule="evenodd" d="M39.9878 39.4396C39.1535 39.8755 38.9355 41.1354 39.6267 42.0902C43.1715 46.9845 45.0394 36.8264 39.9878 39.4396Z" fill="#E95707"/>
<path fill-rule="evenodd" clip-rule="evenodd" d="M37.4929 44.9378C38.5825 44.504 38.4248 42.1628 36.9325 41.2266C33.6326 39.1427 33.0225 46.7187 37.4929 44.9378Z" fill="#E95707"/>
<path fill-rule="evenodd" clip-rule="evenodd" d="M33.4537 50.3488C37.7809 51.1811 36.1932 44.5827 32.2395 45.8177C32.0424 45.8799 30.2015 49.7219 33.4537 50.3488Z" fill="#E95707"/>
<path fill-rule="evenodd" clip-rule="evenodd" d="M52.3062 56.1276C52.1837 56.2147 49.7452 55.5006 47.1405 55.235C46.5615 55.1748 45.9264 55.1395 45.2498 55.1208C46.2169 53.0535 43.0125 49.6598 42.6244 49.7387C40.3559 50.1808 42.1678 53.7717 44.3387 55.1042C42.8942 55.098 41.3397 55.1665 39.8578 55.2744C40.3103 53.0244 36.3234 50.5316 35.9644 50.706C33.9595 51.6691 36.3483 54.5023 38.7039 55.374C37.8654 55.4529 37.0685 55.5484 36.3525 55.6501C36.0121 55.6999 35.3998 55.7581 34.6651 55.8287C34.9079 53.423 30.23 51.7209 29.9062 51.97C28.1753 53.3109 30.9875 55.5297 33.4489 55.9407C32.3095 56.0486 31.0602 56.1752 30.0453 56.3164C27.7499 55.1374 23.2213 55.8681 24.3254 58.062C24.5039 58.4149 29.1362 58.8694 30.1843 56.8436C30.67 56.7564 31.2511 56.6713 31.9048 56.5924C29.6032 57.7382 27.4821 61.5263 29.819 62.0431C30.2154 62.1303 33.7167 58.5955 32.4756 56.5219C33.7022 56.3828 35.1259 56.2582 36.5849 56.1482C34.2832 57.3002 32.1642 61.0779 34.497 61.5989C34.8975 61.6861 38.3656 58.1782 37.1681 56.1026C39.0007 55.9719 40.852 55.8701 42.4085 55.8016C40.2024 57.076 38.2909 60.6296 40.5511 61.1319C40.9413 61.219 44.2806 57.8565 43.2886 55.7663C43.8966 55.7456 44.4383 55.729 44.8949 55.7186C46.2024 55.6916 52.0343 56.8416 52.2232 56.3787C52.2855 56.2292 52.3747 56.0777 52.3062 56.1276" fill="#728442"/>
<path fill-rule="evenodd" clip-rule="evenodd" d="M52.9941 54.6499C53.1103 54.6707 54.5984 53.3464 56.3625 52.2858C56.7506 52.0471 57.1927 51.8105 57.6638 51.5676C56.2857 50.426 57.421 46.9431 57.722 46.8663C59.4819 46.4222 59.3989 49.575 58.3072 51.2521C59.3304 50.7602 60.4573 50.2848 61.5469 49.8697C60.4677 48.4251 62.4622 45.3138 62.7777 45.3179C64.5231 45.3283 63.7739 48.1407 62.3958 49.5542C63.0205 49.3259 63.6161 49.1246 64.1578 48.9586C64.4172 48.8797 64.8717 48.7178 65.4134 48.5185C64.4379 46.8912 67.1838 44.114 67.4992 44.1825C69.1782 44.5561 67.9247 47.0739 66.3162 48.1885C67.163 47.8813 68.0907 47.5534 68.8586 47.3147C70.0914 45.7082 73.5511 44.7056 73.5055 46.6338C73.4972 46.9431 70.3612 48.8216 68.9416 47.736C68.5659 47.8356 68.1219 47.9706 67.6321 48.1325C69.6473 48.1761 72.4284 50.1521 70.9403 51.302C70.6871 51.4992 67.0198 50.1624 67.2045 48.2757C66.2851 48.5891 65.2329 48.9772 64.1619 49.3882C66.1792 49.4339 68.9562 51.4078 67.4701 52.5577C67.2149 52.7549 63.5787 51.4286 63.7344 49.5563C62.3854 50.0773 61.0384 50.6253 59.9115 51.0986C61.9039 51.2646 64.4525 53.143 63.0163 54.2576C62.7714 54.4486 59.2702 53.1845 59.2702 51.3704C58.8344 51.5572 58.4442 51.7275 58.1163 51.8728C57.1802 52.2921 53.4299 55.0651 53.1373 54.8015C53.0418 54.7164 52.9298 54.6396 52.9941 54.6499" fill="#789F3D"/>
<path fill-rule="evenodd" clip-rule="evenodd" d="M49.9685 51.2167C48.5468 45.6997 53.2124 38.8813 54.7897 40.2533C56.1034 41.3907 54.3808 45.6104 53.2331 50.2266C52.5379 53.0329 52.7558 51.2084 54.1193 49.6019C56.9149 46.2954 63.9257 43.3293 59.6192 48.4291C58.2224 50.0834 55.5306 51.7356 54.6735 52.678C71.5051 46.5258 58.8866 53.8403 56.4397 54.9861C58.32 55.7893 63.0167 60.8124 62.5373 62.4667C61.9644 64.4385 57.9112 62.8631 53.7894 57.261C57.4151 69.3224 54.6963 72.714 50.9481 60.1378C47.4054 71.4105 44.6451 65.4409 46.0149 62.6472C46.3158 62.0245 48.358 58.7056 48.3622 58.6703C44.12 60.1274 39.8094 60.173 39.7658 59.5981C39.6828 58.498 47.5777 55.2372 47.449 55.1853C42.8768 53.3422 41.5403 47.7089 42.3123 47.5616C45.164 47.0157 49.321 48.6969 49.9685 51.2167" fill="#62C2CF"/>
<path fill-rule="evenodd" clip-rule="evenodd" d="M52.9665 56.4555C53.0308 56.4223 55.1499 52.6136 51.3871 53.2757C49.1623 53.6701 48.249 58.857 52.9665 56.4555Z" fill="#FBBF26"/>
<path fill-rule="evenodd" clip-rule="evenodd" d="M62.1486 57.6448C62.7422 59.9446 60.7976 62.7881 60.1355 62.2152C59.5938 61.7399 60.3078 59.984 60.7872 58.0558C61.0778 56.8851 60.9865 57.6469 60.4199 58.3152C59.2556 59.6955 56.3292 60.9325 58.1265 58.8071C58.7076 58.1159 59.8325 57.4309 60.1874 57.0345C53.1725 59.5979 58.4316 56.5509 59.4485 56.0735C58.6682 55.7393 56.709 53.6471 56.9103 52.9559C57.149 52.1318 58.8405 52.7919 60.5548 55.1249C59.0459 50.0998 60.177 48.6842 61.7418 53.9252C63.2195 49.228 64.3673 51.7167 63.7966 52.879C63.6721 53.1406 62.8211 54.523 62.817 54.5375C64.5873 53.9314 66.3825 53.9128 66.3991 54.1515C66.4344 54.6081 63.1448 55.9676 63.1988 55.9905C65.1061 56.7564 65.6582 59.106 65.3386 59.1683C64.1494 59.3966 62.4184 58.693 62.1486 57.6448" fill="#E95707"/>
<path fill-rule="evenodd" clip-rule="evenodd" d="M60.8988 55.4594C60.8719 55.476 59.9898 57.0618 61.5547 56.7899C62.4824 56.6239 62.8684 54.459 60.8988 55.4594Z" fill="#FBBF26"/>
<path fill-rule="evenodd" clip-rule="evenodd" d="M53.2182 176.157C54.1231 176.879 55.0653 175.354 54.4032 174.806C53.2099 173.809 52.4835 175.572 53.2182 176.157Z" fill="#6D4F33"/>
<path fill-rule="evenodd" clip-rule="evenodd" d="M28.139 98.4121C31.3393 100.735 34.6662 95.8342 32.3334 94.0741C28.112 90.888 25.5468 96.5337 28.139 98.4121Z" fill="#3B3A39"/>
<path fill-rule="evenodd" clip-rule="evenodd" d="M85.2172 97.3746C88.4196 99.6973 91.7464 94.8009 89.4095 93.0366C85.1902 89.8526 82.625 95.4983 85.2172 97.3746Z" fill="#3B3A39"/>
</svg>
