<svg width="153" height="225" viewBox="0 0 153 225" fill="none" xmlns="http://www.w3.org/2000/svg">
<path fill-rule="evenodd" clip-rule="evenodd" d="M121.412 124.677C126.459 121.247 140.671 110.042 147.395 96.6744C166.724 127.772 121.935 160.001 122.4 145.544C122.472 143.206 121.321 134.857 121.321 130.577C121.321 128.298 120.139 125.537 121.412 124.677Z" fill="#694926"/>
<path fill-rule="evenodd" clip-rule="evenodd" d="M30.8294 121.637C25.7873 118.205 11.5723 107.005 4.84331 93.6349C-14.4839 124.732 30.3034 156.966 29.8438 142.507C29.7668 140.166 30.9197 131.817 30.9197 127.535C30.9197 125.258 32.0992 122.495 30.8294 121.637Z" fill="#694926"/>
<path fill-rule="evenodd" clip-rule="evenodd" d="M99.2991 198.207C101.693 200.691 91.4703 216.359 96.701 219.223C101.424 221.805 102.729 226.425 94.1933 219.725C93.3086 219.031 89.5682 224.028 88.5774 223.803C87.7379 223.603 89.5975 219.664 93.1147 217.488C95.4179 210.337 95.5135 194.289 99.2991 198.207" fill="#694926"/>
<path fill-rule="evenodd" clip-rule="evenodd" d="M65.3909 199.407C63 201.883 73.2223 217.559 67.989 220.42C63.271 222.997 61.9613 227.622 70.502 220.925C71.3813 220.229 75.127 225.223 76.1179 224.992C76.9574 224.801 75.0978 220.864 71.5806 218.68C69.2774 211.534 69.1764 195.478 65.3909 199.407" fill="#694926"/>
<path fill-rule="evenodd" clip-rule="evenodd" d="M27.673 111.256C29.7 111.546 11.6542 217.504 95.8605 205.892C135.512 200.428 125.475 109.439 123.804 109.601C114.788 110.465 118.138 113.249 100.321 113.249C89.6337 113.249 39.2369 113.267 29.9709 109.038C28.4727 108.355 28.6028 111.389 27.673 111.256" fill="#C57801"/>
<path fill-rule="evenodd" clip-rule="evenodd" d="M49.4176 125.774C50.6476 125.952 39.6815 190.346 90.8593 183.29C114.957 179.964 108.855 124.674 107.84 124.77C102.362 125.293 104.394 126.985 93.5663 126.985C87.0738 126.985 56.4415 127.001 50.815 124.427C49.9011 124.008 49.9808 125.854 49.4176 125.774Z" fill="#FBCF9E"/>
<path fill-rule="evenodd" clip-rule="evenodd" d="M21.7308 108.921C31.5095 119.082 58.8477 135.215 73.4851 136.365C94.453 138.012 120.2 125.033 132.694 111.043C139.364 103.573 139.221 90.2267 142.331 72.8212C142.717 70.6827 151.143 -4.9669 138.889 20.2328C138.272 21.5 133.695 34.6313 133.732 35.0829C125.904 35.0829 110.775 16.9945 84.5176 16.9945C71.3652 16.9945 47.3397 14.3939 36.6791 20.3445C21.335 28.9091 41.8752 -18.3689 22.8758 8.19094C17.0739 16.3013 4.24563 90.7554 21.7308 108.921" fill="#DA8000"/>
<path fill-rule="evenodd" clip-rule="evenodd" d="M93.5426 61.9248C72.3595 93.8323 100.338 127.118 123.009 101.889C155.07 66.2204 109.652 37.6602 93.5426 61.9248Z" fill="#FBCF9E"/>
<path fill-rule="evenodd" clip-rule="evenodd" d="M62.1849 60.9949C76.5859 93.9198 39.5115 120.121 27.5837 96.6215C5.87996 53.8595 50.5148 34.3076 62.1849 60.9949Z" fill="#FBCF9E"/>
<path fill-rule="evenodd" clip-rule="evenodd" d="M36.873 87.5277C31.985 95.1493 45.6262 100.096 49.3719 94.5117C56.1433 84.4222 40.8312 81.3699 36.873 87.5277Z" fill="#F4AFB3"/>
<path fill-rule="evenodd" clip-rule="evenodd" d="M105.837 87.7269C100.946 95.3485 114.59 100.295 118.336 94.7109C125.107 84.6188 109.792 81.5665 105.837 87.7269Z" fill="#F4AFB3"/>
<path fill-rule="evenodd" clip-rule="evenodd" d="M79.5767 138.225C81.0537 141.448 94.0122 148.405 97.4683 149.035C99.5112 149.401 104.527 150.833 103.116 147.268C101.472 143.105 88.8612 140.951 84.5896 139.482C84.1087 139.314 79.497 138.061 79.5767 138.225Z" fill="#96BA34"/>
<path fill-rule="evenodd" clip-rule="evenodd" d="M79.5765 138.225C79.38 136.004 79.5075 131.698 80.3124 129.756C81.3059 127.36 81.4202 126.512 85.033 125.814C87.2698 125.378 101.968 122.801 102.935 124.743C104.505 127.891 105.438 140.632 104.885 144.715C104.8 145.339 103.748 149.459 102.959 147.504C102.343 145.987 94.5115 142.021 92.442 141.774C90.8827 141.588 84.6983 140.441 83.6623 139.665C83.564 139.59 79.5951 138.477 79.5765 138.225" fill="#9FC243"/>
<path fill-rule="evenodd" clip-rule="evenodd" d="M73.7853 139.885C72.3082 143.105 59.3498 150.063 55.8936 150.684C53.8534 151.056 48.8353 152.485 50.2459 148.928C51.8903 144.765 64.5034 142.611 68.7724 141.139C69.2559 140.975 73.865 139.718 73.7853 139.885Z" fill="#96BA34"/>
<path fill-rule="evenodd" clip-rule="evenodd" d="M73.7852 139.885C73.9818 137.659 73.8543 133.356 73.0494 131.414C72.0532 129.015 71.9443 128.17 68.3261 127.469C66.092 127.033 51.3934 124.456 50.4238 126.401C48.8565 129.549 47.924 142.29 48.4766 146.373C48.5616 146.997 49.6109 151.12 50.3999 149.162C51.0189 147.645 58.853 143.679 60.9224 143.437C62.4764 143.246 68.6635 142.098 69.6995 141.32C69.7978 141.246 73.7666 140.132 73.7852 139.885" fill="#9FC243"/>
<path fill-rule="evenodd" clip-rule="evenodd" d="M82.0981 130.938C83.0013 133.348 82.6134 137.266 80.8628 139.383C79.7816 140.709 77.6245 141.007 75.9642 141.007C74.1923 141.007 72.091 141.424 70.7733 140.297C68.7092 138.528 69.0067 132.075 69.9711 129.815C71.4003 126.47 80.6795 127.126 82.0981 130.938Z" fill="#759D35"/>
<path fill-rule="evenodd" clip-rule="evenodd" d="M37.0542 80.8602C40.7892 83.5699 44.6704 77.8558 41.9475 75.7996C37.0223 72.0832 34.0337 78.6686 37.0542 80.8602Z" fill="#31302F"/>
<path fill-rule="evenodd" clip-rule="evenodd" d="M115.979 83.416C119.082 85.8919 122.299 80.6665 120.041 78.7857C115.953 75.3827 113.471 81.413 115.979 83.416Z" fill="#31302F"/>
<path fill-rule="evenodd" clip-rule="evenodd" d="M73.2433 94.9502C77.4699 95.5931 79.1196 97.4207 71.2191 104.864C68.4377 103.055 61.1588 93.1198 73.2433 94.9502Z" fill="#FBBF04"/>
</svg>
