<svg width="195" height="225" viewBox="0 0 195 225" fill="none" xmlns="http://www.w3.org/2000/svg">
<path fill-rule="evenodd" clip-rule="evenodd" d="M142.595 201.575C146.092 202.227 147.666 201.522 148.735 204.405C147.113 206.297 143.466 204.217 142.236 204.861C141.189 205.413 146.369 205.971 146.018 208.882C145.924 209.681 137.063 211.419 137.063 206.005C137.063 204.469 133.302 208.424 131.578 207.359C131.048 207.03 134.741 204.965 135.388 201.361C136.21 196.772 134.135 190.389 134.364 189.562C136.205 182.892 141.141 185.459 142.559 189.784C144.126 194.546 142.114 201.486 142.595 201.575" fill="#6F813A"/>
<path fill-rule="evenodd" clip-rule="evenodd" d="M149.816 100.76C149.831 100.773 157.005 104.007 159.679 106.071C163.125 108.729 176.511 115.162 178.951 111.467C180.909 108.5 180.876 106.773 183.948 106.916C185.058 109.145 181.722 111.691 181.839 113.076C181.938 114.258 185.315 114.304 187.865 115.761C188.56 116.158 185.868 120.396 180.876 118.284C179.465 117.687 181.645 122.696 179.993 123.867C178.834 124.69 176.02 119.459 170.916 115.904C167.743 113.701 155.245 110.95 149.721 106.714C143.986 102.319 151.03 101.728 149.816 100.76" fill="#96BA34"/>
<path fill-rule="evenodd" clip-rule="evenodd" d="M143.071 82.4693C171.702 107.803 164.905 173.408 130.144 199.067C80.7336 235.537 -4.57124 206.616 0.191266 170.169C10.7273 175.166 29.4106 210.013 54.6315 182.169C60.9476 175.195 53.8879 155.308 59.1648 130.102C68.3613 86.1553 106.023 49.69 143.071 82.4693" fill="#6D952C"/>
<path fill-rule="evenodd" clip-rule="evenodd" d="M76.0199 105.5C75.9996 105.507 69.5409 110.002 66.393 111.238C62.3462 112.825 49.9484 121.005 51.8661 125C53.4044 128.202 54.9019 129.063 53.2058 131.63C50.7226 131.436 50.254 127.26 49.0035 126.654C47.9364 126.132 46.1639 129.005 43.6069 130.44C42.9091 130.833 40.6552 126.35 45.028 123.152C46.2658 122.245 40.8462 121.544 40.6934 119.523C40.5839 118.109 46.5179 118.379 52.187 115.825C55.7092 114.24 64.488 104.926 70.962 102.357C77.6728 99.6987 74.5657 106.048 76.0199 105.5Z" fill="#6D952C"/>
<path fill-rule="evenodd" clip-rule="evenodd" d="M104.521 95.9165C107.682 101.181 105.237 144.079 103.681 150.869C93.7307 194.307 67.0097 208.436 42.1556 205.264C19.9934 202.431 4.13957 186.587 2.39502 183.585C17.1995 220.345 93.122 233.43 134.994 195.071C142.104 188.556 147.646 179.982 152.365 170.407C162.451 149.954 163.357 124.148 157.299 105.367C149.345 80.7532 129.582 68.238 104.521 95.9165Z" fill="#83AE3D"/>
<path fill-rule="evenodd" clip-rule="evenodd" d="M118.841 93.4007C157.379 103.687 205.417 73.7695 192.938 56.0056C188.117 49.1425 164.424 51.1494 155.273 51.6027C146.777 10.691 118.232 -9.31657 84.5919 4.19416C47.3858 19.1311 50.8545 64.8081 72.3673 85.4241C83.5222 96.1176 100.351 98.6185 118.841 93.4007Z" fill="#759D35"/>
<path fill-rule="evenodd" clip-rule="evenodd" d="M193.196 69.4199C168.125 88.0902 129.5 94.2888 115.523 82.0642C120.449 96.3115 172.276 90.255 193.196 69.4199Z" fill="#6F813A"/>
<path fill-rule="evenodd" clip-rule="evenodd" d="M98.3806 74.9891C102.196 76.2834 102.998 69.9243 100.186 68.9028C95.1029 67.0642 95.2939 73.9406 98.3806 74.9891Z" fill="#31302F"/>
<path fill-rule="evenodd" clip-rule="evenodd" d="M148.04 49.7942C150.748 51.5999 151.68 46.0937 149.683 44.7057C146.082 42.1997 145.845 48.3323 148.04 49.7942Z" fill="#31302F"/>
<path fill-rule="evenodd" clip-rule="evenodd" d="M102.894 77.503C99.6415 82.5737 108.713 85.8619 111.206 82.1489C115.709 75.4378 105.525 73.4083 102.894 77.503Z" fill="#F4AFB3"/>
<path fill-rule="evenodd" clip-rule="evenodd" d="M155.161 51.0395C147.89 51.7882 152.181 51.3171 144.793 52.4198C141.895 52.8502 152.418 51.6889 156.361 51.5947C155.833 51.452 155.161 51.0395 155.161 51.0395Z" fill="#6F813A"/>
<path fill-rule="evenodd" clip-rule="evenodd" d="M98.579 216.535C102.076 217.188 103.65 216.484 104.717 219.364C103.094 221.256 99.4525 219.176 98.2199 219.823C97.1731 220.376 102.865 221.343 102.516 224.255C102.42 225.049 93.0474 226.379 93.0474 220.964C93.0474 219.431 87.4317 221.743 85.71 220.673C85.1803 220.345 89.9199 218.667 91.3716 216.326C92.128 213.764 89.4462 208.23 90.3452 204.522C91.9726 197.798 97.1247 200.418 98.5433 204.746C100.11 209.503 98.0977 216.446 98.579 216.535" fill="#6F813A"/>
<path fill-rule="evenodd" clip-rule="evenodd" d="M131.311 50.6298C131.975 48.8139 131.746 37.4756 127.883 38.8229C126.935 42.9563 129.849 46.7179 129.714 49.8097C129.678 50.7648 131.239 50.8335 131.311 50.6298" fill="#96BA34"/>
<path fill-rule="evenodd" clip-rule="evenodd" d="M126.325 54.3353C129.788 49.6136 127.43 48.9335 125.51 43.5573C124.995 42.1158 122.994 35.2242 121.542 39.2914C119.925 43.8247 124.394 56.9684 126.325 54.3353" fill="#96BA34"/>
<path fill-rule="evenodd" clip-rule="evenodd" d="M124.317 55.4633C117.494 63.5445 111.649 37.9365 117.339 42.1336C117.377 42.1642 122.641 57.447 124.317 55.4633" fill="#96BA34"/>
<path fill-rule="evenodd" clip-rule="evenodd" d="M112.903 49.8096C109.638 48.959 106.394 45.9564 106.569 42.4061C106.577 42.2482 109.796 39.4773 110.005 39.7218C111.969 42.0496 110.214 44.66 113.372 48.7909C114.143 49.7944 113.555 49.9828 112.903 49.8096" fill="#96BA34"/>
<path fill-rule="evenodd" clip-rule="evenodd" d="M118.376 40.226C107.529 37.4016 110.071 27.5328 111.884 27.571C115.389 27.6346 119.191 34.2537 118.847 39.2072C118.763 40.4705 119.033 40.3991 118.376 40.226" fill="#96BA34"/>
<path fill-rule="evenodd" clip-rule="evenodd" d="M125.621 37.567C127.834 27.8943 119.509 25.5258 118.793 26.9596C117.415 29.7433 121.337 34.9973 124.625 37.5212C125.517 38.2012 125.489 38.1477 125.621 37.567Z" fill="#96BA34"/>
<path fill-rule="evenodd" clip-rule="evenodd" d="M108.324 36.9152C102.856 37.2743 102.296 32.5245 103.139 32.2622C104.776 31.7478 107.3 34.3557 108.385 36.3676C108.683 36.9152 108.655 36.8923 108.324 36.9152Z" fill="#96BA34"/>
<path fill-rule="evenodd" clip-rule="evenodd" d="M107.824 32.3435C101.32 29.8731 103.179 24.0918 104.292 24.237C106.449 24.5146 107.993 28.8493 108.184 31.7424C108.237 32.5294 108.217 32.4912 107.824 32.3435" fill="#96BA34"/>
<path fill-rule="evenodd" clip-rule="evenodd" d="M114.962 26.6515C111.87 25.4774 109.02 22.7855 108.728 21.1071C108.409 19.2556 111.356 18.1121 111.942 18.1859C114.101 18.4661 116.773 24.8509 116.966 27.7542C117.017 28.5361 115.349 26.8017 114.962 26.6515Z" fill="#96BA34"/>
<path fill-rule="evenodd" clip-rule="evenodd" d="M100.9 28.8478C95.5746 27.554 96.4634 22.8552 97.3472 22.8603C99.0611 22.8629 100.689 26.0998 101.124 28.3461C101.241 28.9548 101.223 28.9319 100.9 28.8478Z" fill="#96BA34"/>
<path fill-rule="evenodd" clip-rule="evenodd" d="M110.985 22.3075C115.893 24.7549 113.983 29.1431 113.119 28.9444C111.449 28.5547 110.583 25.0351 110.657 22.7506C110.68 22.1317 110.692 22.1623 110.985 22.3075Z" fill="#96BA34"/>
<path fill-rule="evenodd" clip-rule="evenodd" d="M100.905 26.7994C97.6425 25.9462 94.3979 22.9435 94.5711 19.3958C94.5813 19.2379 97.803 16.4645 98.0093 16.709C99.9754 19.0393 98.2181 21.6447 101.379 25.7807C102.148 26.7867 101.562 26.97 100.905 26.7994Z" fill="#96BA34"/>
<path fill-rule="evenodd" clip-rule="evenodd" d="M100.021 22.3991C89.1743 19.5747 91.716 9.70584 93.5267 9.73895C97.0337 9.80517 100.831 16.4243 100.495 21.3778C100.406 22.641 100.676 22.5646 100.021 22.3991Z" fill="#96BA34"/>
<path fill-rule="evenodd" clip-rule="evenodd" d="M107.264 19.7328C109.475 10.0651 101.149 7.69661 100.436 9.13046C99.056 11.909 102.983 17.1707 106.271 19.6895C107.16 20.3694 107.129 20.316 107.264 19.7328Z" fill="#96BA34"/>
<path fill-rule="evenodd" clip-rule="evenodd" d="M90.621 20.4252C85.1505 20.7843 84.5851 16.0345 85.4332 15.7748C87.0708 15.2654 89.5947 17.8631 90.6796 19.8776C90.9776 20.4252 90.9496 20.3997 90.621 20.4252Z" fill="#96BA34"/>
<path fill-rule="evenodd" clip-rule="evenodd" d="M89.5232 14.5269C84.0018 12.4283 85.5782 7.52064 86.5282 7.64289C88.3593 7.87719 89.6658 11.5573 89.8288 14.0201C89.8747 14.6822 89.8594 14.6517 89.5232 14.5269Z" fill="#96BA34"/>
<path fill-rule="evenodd" clip-rule="evenodd" d="M84.9436 27.2433C79.6207 25.9495 80.507 21.2456 81.3933 21.2507C83.1048 21.2557 84.7321 24.4978 85.1676 26.7415C85.2848 27.3502 85.2644 27.3197 84.9436 27.2433Z" fill="#96BA34"/>
<path fill-rule="evenodd" clip-rule="evenodd" d="M96.504 27.1327C101.414 29.5802 99.5041 33.9657 98.6382 33.7646C96.9701 33.38 96.099 29.8603 96.1805 27.5733C96.2009 26.9544 96.2136 26.9824 96.504 27.1327Z" fill="#96BA34"/>
<path fill-rule="evenodd" clip-rule="evenodd" d="M80.5816 19.0397C77.2758 18.9557 73.6976 17.3487 72.8725 15.8613C71.9582 14.2212 74.3649 12.1685 74.9404 12.0463C77.0696 11.5955 81.7022 16.7451 82.838 19.4167C83.1462 20.1425 81.0018 19.0525 80.5816 19.0397Z" fill="#96BA34"/>
<path fill-rule="evenodd" clip-rule="evenodd" d="M74.3875 20.0507C68.9323 20.5855 68.2191 15.8535 69.057 15.5657C70.6768 15.008 73.2822 17.5217 74.4333 19.5006C74.744 20.0379 74.716 20.0201 74.3875 20.0507" fill="#96BA34"/>
<path fill-rule="evenodd" clip-rule="evenodd" d="M79.692 9.2624C85.132 9.95768 84.7754 14.7253 83.8917 14.8195C82.1879 15.008 80.2116 11.9697 79.5265 9.78451C79.3431 9.19875 79.366 9.21911 79.692 9.2624Z" fill="#96BA34"/>
<path fill-rule="evenodd" clip-rule="evenodd" d="M126.25 60.9895C123.296 62.5665 121.788 60.0655 122.196 59.7034C122.978 59.0089 125.036 59.8208 126.151 60.6694C126.447 60.8981 126.429 60.8932 126.25 60.9895Z" fill="#96BA34"/>
<path fill-rule="evenodd" clip-rule="evenodd" d="M134.891 53.8923C131.937 55.4685 130.429 52.9652 130.832 52.6087C131.616 51.9134 133.674 52.7258 134.789 53.5739C135.09 53.8031 135.07 53.798 134.891 53.8923Z" fill="#96BA34"/>
<path fill-rule="evenodd" clip-rule="evenodd" d="M136.106 135.193C130.984 133.237 132.448 128.689 133.327 128.801C135.026 129.02 136.238 132.435 136.388 134.722C136.429 135.338 136.411 135.305 136.106 135.193Z" fill="#759D35"/>
<path fill-rule="evenodd" clip-rule="evenodd" d="M137.556 130.828C132.671 125.872 136.767 121.394 137.722 121.985C139.568 123.139 139.163 127.72 138.132 130.435C137.852 131.169 137.852 131.129 137.556 130.828Z" fill="#759D35"/>
<path fill-rule="evenodd" clip-rule="evenodd" d="M146.411 128.628C144.088 126.274 142.624 122.638 143.059 120.987C143.538 119.174 146.696 119.368 147.201 119.675C149.042 120.824 148.813 127.748 147.776 130.464C147.498 131.195 146.706 128.925 146.411 128.628" fill="#759D35"/>
<path fill-rule="evenodd" clip-rule="evenodd" d="M140.658 122.706C136.356 119.311 139.122 115.409 139.924 115.781C141.483 116.502 141.61 120.124 141.068 122.347C140.923 122.945 140.918 122.912 140.658 122.706" fill="#759D35"/>
<path fill-rule="evenodd" clip-rule="evenodd" d="M152.551 120.966C155.991 125.231 152.428 128.427 151.726 127.879C150.368 126.837 151.046 123.275 152.069 121.226C152.347 120.671 152.342 120.707 152.551 120.966Z" fill="#759D35"/>
<path fill-rule="evenodd" clip-rule="evenodd" d="M133.578 122.904C130.962 120.77 129.264 116.688 130.904 113.533C130.975 113.395 135.06 112.219 135.147 112.526C135.959 115.463 133.28 117.1 134.431 122.174C134.709 123.412 134.1 123.33 133.578 122.904Z" fill="#759D35"/>
<path fill-rule="evenodd" clip-rule="evenodd" d="M142.548 116.474C133.863 109.387 140.286 101.474 141.916 102.261C145.077 103.784 145.775 111.383 143.401 115.746C142.795 116.856 143.073 116.902 142.548 116.474Z" fill="#759D35"/>
<path fill-rule="evenodd" clip-rule="evenodd" d="M150.241 117.072C156.282 109.2 149.698 103.579 148.453 104.59C146.041 106.544 147.416 112.957 149.354 116.617C149.879 117.608 149.874 117.549 150.241 117.072Z" fill="#759D35"/>
<path fill-rule="evenodd" clip-rule="evenodd" d="M134.823 110.765C129.701 108.811 131.168 104.262 132.047 104.372C133.746 104.594 134.958 108.011 135.108 110.296C135.146 110.912 135.131 110.882 134.823 110.765Z" fill="#759D35"/>
<path fill-rule="evenodd" clip-rule="evenodd" d="M136.287 104.948C132.141 100.738 135.617 96.9353 136.427 97.4398C137.993 98.4176 137.652 102.306 136.773 104.616C136.536 105.238 136.536 105.199 136.287 104.948" fill="#759D35"/>
<path fill-rule="evenodd" clip-rule="evenodd" d="M145.776 103.784C144.686 102.681 140.726 100.203 140.932 99.4334C141.159 98.5807 145.911 99.4334 146.148 99.5786C147.011 100.117 146.904 103.371 146.415 104.642C146.285 104.988 145.916 103.924 145.776 103.784" fill="#759D35"/>
<path fill-rule="evenodd" clip-rule="evenodd" d="M126.823 114.602C122.519 111.205 125.285 107.3 126.09 107.669C127.646 108.387 127.778 112.015 127.236 114.238C127.086 114.834 127.081 114.806 126.823 114.602Z" fill="#759D35"/>
<path fill-rule="evenodd" clip-rule="evenodd" d="M129.437 121.374C132.88 125.645 129.315 128.832 128.614 128.292C127.257 127.245 127.932 123.684 128.955 121.637C129.231 121.084 129.228 121.117 129.437 121.374Z" fill="#759D35"/>
<path fill-rule="evenodd" clip-rule="evenodd" d="M126.276 105.324C123.306 103.867 120.721 100.918 120.586 99.2223C120.441 97.3478 123.487 96.4845 124.062 96.6146C126.184 97.0931 128.249 103.702 128.168 106.605C128.148 107.392 126.65 105.507 126.276 105.324" fill="#759D35"/>
<path fill-rule="evenodd" clip-rule="evenodd" d="M120.224 103.664C115.039 101.874 116.361 97.2764 117.247 97.3658C118.951 97.526 120.27 100.906 120.492 103.18C120.55 103.796 120.535 103.769 120.224 103.664" fill="#759D35"/>
<path fill-rule="evenodd" clip-rule="evenodd" d="M129.54 96.0646C134.196 98.9626 131.886 103.147 131.043 102.864C129.415 102.327 128.881 98.7408 129.173 96.4716C129.25 95.8578 129.263 95.8904 129.54 96.0646Z" fill="#759D35"/>
<path fill-rule="evenodd" clip-rule="evenodd" d="M142.545 149.75C146.844 146.351 144.078 142.446 143.275 142.821C141.719 143.538 141.587 147.163 142.132 149.386C142.277 149.985 142.282 149.952 142.545 149.75Z" fill="#759D35"/>
<path fill-rule="evenodd" clip-rule="evenodd" d="M142.578 134.014C144.906 136.905 142.494 139.069 142.02 138.698C141.096 137.994 141.557 135.578 142.249 134.192C142.443 133.815 142.44 133.836 142.578 134.014Z" fill="#759D35"/>
<path fill-rule="evenodd" clip-rule="evenodd" d="M134.761 152.261C137.092 155.152 134.677 157.315 134.201 156.948C133.282 156.24 133.74 153.825 134.435 152.437C134.621 152.065 134.619 152.086 134.761 152.261" fill="#759D35"/>
</svg>
