<svg width="209" height="225" viewBox="0 0 209 225" fill="none" xmlns="http://www.w3.org/2000/svg">
<path fill-rule="evenodd" clip-rule="evenodd" d="M208.479 171.454C209.681 173.416 196.816 182.855 186.3 190.343C175.339 181.971 172.813 177.144 159.15 163.115C140.526 143.996 120.322 121.951 127.477 116.771C131.106 114.139 137.594 106.861 139.107 103.158C162.15 117.438 191.53 143.716 208.479 171.454Z" fill="#D4D4D4"/>
<path fill-rule="evenodd" clip-rule="evenodd" d="M207.618 172.227C207.284 171.075 200.713 167.961 200.321 173.434C200.266 174.268 200.983 178.904 202.251 178.091C203.165 177.503 208.734 173.336 207.802 172.411L207.618 172.227Z" fill="#A09F9F"/>
<path fill-rule="evenodd" clip-rule="evenodd" d="M200.736 178.187C200.501 177.013 194.202 173.376 193.369 178.806C193.25 179.63 193.588 184.307 194.919 183.602C195.879 183.09 201.766 179.38 200.91 178.39L200.736 178.187" fill="#A09F9F"/>
<path fill-rule="evenodd" clip-rule="evenodd" d="M192.634 184.306C192.399 183.132 186.101 179.503 185.267 184.928C185.143 185.754 185.487 190.433 186.818 189.726C187.778 189.216 193.665 185.504 192.803 184.511L192.634 184.306" fill="#A09F9F"/>
<path fill-rule="evenodd" clip-rule="evenodd" d="M4.18639 190.81C3.53227 193.015 18.3901 198.834 30.4749 203.365C38.9179 192.464 40.1225 187.151 49.7247 170.083C62.8096 146.823 76.6724 120.327 68.4315 117.157C64.2441 115.551 56.1042 110.184 53.6898 106.987C35.0891 126.707 13.4426 159.655 4.18639 190.81Z" fill="#D4D4D4"/>
<path fill-rule="evenodd" clip-rule="evenodd" d="M5.21971 191.335C5.2475 190.135 10.7961 185.438 12.5817 190.628C12.8519 191.421 13.3469 196.085 11.9099 195.628C10.877 195.295 4.42416 192.693 5.08838 191.562L5.21971 191.335Z" fill="#A09F9F"/>
<path fill-rule="evenodd" clip-rule="evenodd" d="M13.3981 195.331C13.3274 194.133 18.4846 189.004 20.6767 194.037C21.0126 194.8 21.8814 199.417 20.4166 199.071C19.3559 198.818 12.7137 196.747 13.287 195.565L13.3981 195.331Z" fill="#A09F9F"/>
<path fill-rule="evenodd" clip-rule="evenodd" d="M22.8029 199.164C22.7297 197.97 27.8869 192.843 30.0791 197.871C30.4124 198.636 31.2812 203.245 29.8164 202.907C28.7607 202.66 22.1185 200.584 22.6868 199.402L22.8029 199.164Z" fill="#A69B94"/>
<path fill-rule="evenodd" clip-rule="evenodd" d="M40.0221 177.796C42.3204 230.322 167.641 210.13 168.98 194.891C180.019 69.4163 36.4636 96.263 40.0221 177.796Z" fill="#BDBDBE"/>
<path fill-rule="evenodd" clip-rule="evenodd" d="M151.747 24.7722C161.932 5.42645 206.908 7.67168 204.859 33.748C200.599 29.8637 180.541 10.9271 160.619 28.7651C157.447 31.6089 154.909 33.7329 152.123 28.4419C151.297 28.313 151.689 24.8859 151.747 24.7722" fill="#A09F9F"/>
<path fill-rule="evenodd" clip-rule="evenodd" d="M204.86 33.7478C207.27 43.7743 189.336 89.4515 173.086 96.7175C156.016 104.345 154.112 97.3767 156.263 84.6428C157.956 74.6315 151.47 35.7708 156.097 31.6718C184.11 6.8936 202.847 25.3605 204.86 33.7478" fill="#F4AFB3"/>
<path fill-rule="evenodd" clip-rule="evenodd" d="M4.60107 30.7252C4.79302 30.7252 13.6476 23.7168 16.3196 23.0803C38.1834 17.8827 45.6464 37.6629 50.2202 29.3866C55.6375 19.59 15.2362 -1.43524 4.60107 30.7252Z" fill="#A09F9F"/>
<path fill-rule="evenodd" clip-rule="evenodd" d="M49.7282 37.097C45.3943 12.3793 0 10.9398 0 48.4368C0 54.7027 10.0239 74.1014 12.4636 79.2637C15.474 85.6306 12.0368 95.4424 21.3359 103.347C30.6299 111.245 38.7269 115.983 47.9275 106.727C55.6986 98.9125 59.588 71.2678 57.8352 61.5823C56.4108 53.7101 49.6852 36.8469 49.7282 37.097Z" fill="#F4AFB3"/>
<path fill-rule="evenodd" clip-rule="evenodd" d="M53.8595 116.597C41.1408 105.27 31.9983 75.0689 35.029 56.7587C38.4814 35.9026 51.3845 5.80554 93.4198 0.229109C156.738 -3.55165 167.161 40.1026 161.461 87.1082C159.056 106.909 137.322 117.046 116.597 121.211C114.814 121.567 113.043 121.883 111.293 122.153C109.629 122.408 107.98 122.633 106.358 122.817C101.805 123.337 97.4759 123.572 93.632 123.572C86.8837 123.572 66.4823 127.833 53.8595 116.597" fill="#B1B1B2"/>
<path fill-rule="evenodd" clip-rule="evenodd" d="M137.678 88.843C133.73 90.9797 130.717 84.9764 133.606 83.3449C138.829 80.3875 140.875 87.1231 137.678 88.843Z" fill="#31302F"/>
<path fill-rule="evenodd" clip-rule="evenodd" d="M56.6528 87.6109C53.0336 89.7981 50.3591 83.8251 53.0109 82.1532C57.8044 79.1301 59.5849 85.8456 56.6528 87.6109Z" fill="#31302F"/>
<path fill-rule="evenodd" clip-rule="evenodd" d="M113.746 111.689C98.9938 135.435 73.7787 135.351 62.7193 128.088C35.7817 110.394 55.3042 73.4752 72.4325 93.6973C77.2614 99.395 67.5305 109.219 66.543 102.931C66.2551 101.112 59.532 109.131 69.9575 112.129C75.1223 113.619 79.1051 112.851 79.6278 106.403C81.5826 82.2616 119.413 102.58 113.746 111.689Z" fill="#A09F9F"/>
<path fill-rule="evenodd" clip-rule="evenodd" d="M60.9369 187.189C62.2906 226.544 136.161 211.411 136.951 199.998C143.454 105.987 58.8381 126.095 60.9369 187.189Z" fill="#D4D4D4"/>
<path fill-rule="evenodd" clip-rule="evenodd" d="M38.6832 220.647C54.5362 225.069 73.104 221.945 75.9225 202.73C78.4026 185.812 75.6447 175.217 59.8954 166.499C26.7828 148.178 4.7625 211.206 38.6832 220.647Z" fill="#A09F9F"/>
<path fill-rule="evenodd" clip-rule="evenodd" d="M44.5099 217.505C54.4909 220.286 66.1817 218.321 67.9546 206.226C69.5204 195.565 67.7829 188.901 57.865 183.407C37.014 171.873 23.1513 211.56 44.5099 217.505Z" fill="#F4AFB3"/>
<path fill-rule="evenodd" clip-rule="evenodd" d="M57.3491 182.628C61.2764 183.726 65.8855 182.951 66.5826 178.188C67.1963 173.993 66.5119 171.364 62.6099 169.204C54.3968 164.661 48.939 180.286 57.3491 182.628" fill="#F4AFB3"/>
<path fill-rule="evenodd" clip-rule="evenodd" d="M37.9583 182.086C42.0927 183.238 46.9317 182.422 47.6666 177.419C48.3081 173.01 47.5908 170.249 43.4893 167.974C34.8595 163.2 29.1214 179.627 37.9583 182.086Z" fill="#F4AFB3"/>
<path fill-rule="evenodd" clip-rule="evenodd" d="M26.7477 197.172C30.3163 198.167 34.491 197.462 35.1249 193.144C35.6831 189.338 35.0618 186.956 31.5235 184.994C24.0731 180.872 19.1205 195.05 26.7477 197.172Z" fill="#F4AFB3"/>
<path fill-rule="evenodd" clip-rule="evenodd" d="M156.953 224.98C140.506 225.438 123.244 217.929 125.146 198.603C126.823 181.584 132.058 171.969 149.444 167.309C186.002 157.525 192.154 224.003 156.953 224.98" fill="#A09F9F"/>
<path fill-rule="evenodd" clip-rule="evenodd" d="M152.063 220.523C141.701 220.816 130.834 216.083 132.028 203.917C133.087 193.199 136.382 187.143 147.331 184.208C170.349 178.048 174.228 219.909 152.063 220.523Z" fill="#F4AFB3"/>
<path fill-rule="evenodd" clip-rule="evenodd" d="M148.02 183.576C143.944 183.693 139.66 181.831 140.135 177.038C140.547 172.818 141.85 170.436 146.159 169.279C155.223 166.852 156.748 183.339 148.02 183.576" fill="#F4AFB3"/>
<path fill-rule="evenodd" clip-rule="evenodd" d="M166.967 187.739C162.681 187.855 158.18 185.893 158.678 180.859C159.117 176.422 160.481 173.919 165.012 172.707C174.536 170.153 176.14 187.479 166.967 187.739" fill="#F4AFB3"/>
<path fill-rule="evenodd" clip-rule="evenodd" d="M174.207 205.079C170.504 205.18 166.623 203.491 167.054 199.147C167.428 195.321 168.608 193.156 172.517 192.105C180.735 189.908 182.119 204.86 174.207 205.079" fill="#F4AFB3"/>
<path fill-rule="evenodd" clip-rule="evenodd" d="M96.4881 174.242C94.5156 175.313 93.0105 172.31 94.4525 171.492C97.0665 170.017 98.0868 173.381 96.4881 174.242Z" fill="#31302F"/>
<path fill-rule="evenodd" clip-rule="evenodd" d="M141.311 25.8106C134.038 24.0377 136.727 47.0631 147.292 36.4482C150.295 33.4378 149.479 31.6017 149.875 32.3291C151.85 35.981 154.56 39.4461 158.589 39.2945C162.326 39.1581 168.395 33.1802 162.95 26.4773C161.402 24.5756 166.324 27.3083 169.656 22.4693C173.358 17.0949 162.915 16.4408 163.41 15.1755C168.903 1.2647 154.783 4.29287 151.974 9.77586C150.777 7.40941 149.12 1.32785 143.551 4.13374C137.293 7.28564 143.685 14.0718 138.854 13.847C133.904 13.6172 132.386 18.5193 134.199 21.6131C135.939 24.5705 140.9 25.7172 141.311 25.8106" fill="#EE7A00"/>
<path fill-rule="evenodd" clip-rule="evenodd" d="M146.022 23.5803C144.726 24.04 146.54 26.2448 147.229 25.0603C147.737 24.1915 146.499 23.4111 146.022 23.5803Z" fill="#FFEB00"/>
<path fill-rule="evenodd" clip-rule="evenodd" d="M149.417 23.1306C147.518 25.1157 151.392 26.4593 151.003 23.81C150.935 23.3731 149.599 22.9412 149.417 23.1306Z" fill="#FFEB00"/>
<path fill-rule="evenodd" clip-rule="evenodd" d="M147.959 26.0448C147.113 25.166 148.838 24.5649 148.664 25.7468C148.634 25.9388 148.04 26.1307 147.959 26.0448Z" fill="#FFEB00"/>
<path fill-rule="evenodd" clip-rule="evenodd" d="M150.118 26.5122C149.371 27.6639 152.157 28.3003 151.977 26.9365C151.846 25.9389 150.391 26.0829 150.118 26.5122Z" fill="#FFEB00"/>
<path fill-rule="evenodd" clip-rule="evenodd" d="M152.525 24.075C152.242 26.8026 156.126 25.4918 154.194 23.638C153.874 23.3299 152.553 23.8073 152.525 24.075Z" fill="#FFEB00"/>
<path fill-rule="evenodd" clip-rule="evenodd" d="M153.159 27.2727C151.952 27.0884 152.944 25.5604 153.53 26.6034C153.624 26.7726 153.275 27.2853 153.159 27.2727Z" fill="#FFEB00"/>
<path fill-rule="evenodd" clip-rule="evenodd" d="M152.319 29.2273C151.47 28.3433 153.195 27.7499 153.021 28.9268C152.99 29.1238 152.397 29.3132 152.319 29.2273Z" fill="#FFEB00"/>
<path fill-rule="evenodd" clip-rule="evenodd" d="M150.815 21.3607C150.535 24.0908 154.419 22.7801 152.485 20.9314C152.161 20.6207 150.846 21.093 150.815 21.3607Z" fill="#FFEB00"/>
<path fill-rule="evenodd" clip-rule="evenodd" d="M149.323 28.6441C148.474 27.7601 150.202 27.1641 150.022 28.3385C150 28.5355 149.401 28.7274 149.323 28.6441Z" fill="#FFEB00"/>
<path fill-rule="evenodd" clip-rule="evenodd" d="M147.235 27.8638C146.389 26.9773 148.111 26.3838 147.937 27.5607C147.906 27.7552 147.315 27.9471 147.235 27.8638Z" fill="#FFEB00"/>
<path fill-rule="evenodd" clip-rule="evenodd" d="M147.744 23.7825C146.901 22.901 148.623 22.3025 148.446 23.4819C148.421 23.6789 147.825 23.8683 147.744 23.7825Z" fill="#FFEB00"/>
<path fill-rule="evenodd" clip-rule="evenodd" d="M148.086 21.7516C147.242 20.8702 148.962 20.2741 148.79 21.451C148.76 21.6455 148.167 21.8425 148.086 21.7516Z" fill="#FFEB00"/>
<path fill-rule="evenodd" clip-rule="evenodd" d="M148.529 16.6248C147.234 17.0844 149.045 19.2893 149.742 18.1048C150.247 17.2385 149.012 16.4556 148.529 16.6248Z" fill="#FFEB00"/>
<path fill-rule="evenodd" clip-rule="evenodd" d="M151.927 16.1778C150.028 18.1629 153.907 19.5091 153.51 16.8597C153.445 16.4178 152.111 15.9859 151.927 16.1778Z" fill="#FFEB00"/>
<path fill-rule="evenodd" clip-rule="evenodd" d="M150.467 19.0925C149.623 18.2111 151.346 17.6151 151.171 18.7945C151.141 18.989 150.548 19.1784 150.467 19.0925Z" fill="#FFEB00"/>
<path fill-rule="evenodd" clip-rule="evenodd" d="M152.627 19.5568C151.885 20.711 154.668 21.3474 154.486 19.9811C154.357 18.9835 152.9 19.1275 152.627 19.5568Z" fill="#FFEB00"/>
<path fill-rule="evenodd" clip-rule="evenodd" d="M155.033 17.1196C154.751 19.8497 158.637 18.5414 156.703 16.6851C156.379 16.3795 155.061 16.8569 155.033 17.1196Z" fill="#FFEB00"/>
<path fill-rule="evenodd" clip-rule="evenodd" d="M155.67 20.3174C154.46 20.1381 155.455 18.6102 156.036 19.6457C156.137 19.8199 155.786 20.3351 155.67 20.3174Z" fill="#FFEB00"/>
<path fill-rule="evenodd" clip-rule="evenodd" d="M154.824 22.2773C153.98 21.3959 155.7 20.7923 155.528 21.9742C155.495 22.1712 154.907 22.3632 154.824 22.2773Z" fill="#FFEB00"/>
<path fill-rule="evenodd" clip-rule="evenodd" d="M144.975 21.289C144.689 24.0191 148.573 22.7109 146.641 20.8546C146.318 20.5465 145.002 21.0238 144.975 21.289Z" fill="#FFEB00"/>
<path fill-rule="evenodd" clip-rule="evenodd" d="M155.884 23.8805C155.038 22.9991 156.763 22.4031 156.586 23.5775C156.558 23.777 155.962 23.9639 155.884 23.8805Z" fill="#FFEB00"/>
<path fill-rule="evenodd" clip-rule="evenodd" d="M149.742 20.9079C148.901 20.0265 150.624 19.4279 150.447 20.6099C150.417 20.8044 149.823 20.9938 149.742 20.9079Z" fill="#FFEB00"/>
<path fill-rule="evenodd" clip-rule="evenodd" d="M147.105 20.0571C146.257 19.1782 147.982 18.5771 147.805 19.7565C147.78 19.951 147.184 20.1429 147.105 20.0571Z" fill="#FFEB00"/>
<path fill-rule="evenodd" clip-rule="evenodd" d="M154.203 26.707C153.918 29.4371 157.807 28.1239 155.875 26.2726C155.549 25.962 154.231 26.4393 154.203 26.707Z" fill="#FFEB00"/>
<path fill-rule="evenodd" clip-rule="evenodd" d="M156.938 21.7493C156.089 20.8629 157.816 20.2668 157.642 21.4463C157.612 21.6382 157.021 21.8352 156.938 21.7493Z" fill="#FFEB00"/>
<path fill-rule="evenodd" clip-rule="evenodd" d="M157.105 26.179C156.259 25.295 157.984 24.699 157.807 25.8784C157.777 26.0754 157.186 26.2648 157.105 26.179Z" fill="#FFEB00"/>
</svg>
