<svg width="183" height="225" viewBox="0 0 183 225" fill="none" xmlns="http://www.w3.org/2000/svg">
<path fill-rule="evenodd" clip-rule="evenodd" d="M97.6946 204.008C97.9206 208.719 110.274 214.35 116.094 216.832C135.312 225.027 149.169 215.356 155.12 195.842C163.318 168.956 153.231 150.907 157.994 141.049C165.415 125.694 183.794 126.796 182.388 116.574C181.057 106.903 172.555 105.996 161.795 107.929C150.362 109.982 136.668 115.698 136.525 133.534C136.255 167.428 141.369 194.94 106.093 205.126C104.315 205.643 97.5906 201.883 97.6946 204.008Z" fill="#B1B1B2"/>
<path fill-rule="evenodd" clip-rule="evenodd" d="M47.2125 223.637C86.1241 227.012 132.35 226.947 132.35 188.942C132.35 142.794 105.88 122.191 91.2248 105.741C84.7937 98.5248 93.6569 105.535 75.8733 110.795C32.7653 123.548 -8.58617 218.788 47.2125 223.637Z" fill="#BDBDBE"/>
<path fill-rule="evenodd" clip-rule="evenodd" d="M19.4952 217.736C10.7385 206.513 33.5034 201.064 37.9857 187.399C42.1224 174.779 52.303 123.777 68.3665 123.61C98.0042 123.306 38.9835 242.71 19.4952 217.736" fill="#D4D4D4"/>
<path fill-rule="evenodd" clip-rule="evenodd" d="M118.547 210.089C99.716 234.08 5.21628 223.232 1.07698 213.15C-1.74751 206.277 1.39399 199.422 5.75156 197.991C15.5321 194.779 36.8132 204.222 48.6516 198.118C55.5635 194.55 65.0062 169.803 85.157 161.82C107.779 152.858 146.379 174.636 118.547 210.089Z" fill="#B1B1B2"/>
<path fill-rule="evenodd" clip-rule="evenodd" d="M147.689 26.2964C143.227 27.0551 111.708 43.129 110.552 41.8012C104.087 34.3697 59.9581 28.4272 49.0759 26.8135C33.584 10.459 25.5289 -0.049144 25.5185 0.000226149C22.2809 14.9334 19.446 30.5787 24.2583 45.5924C4.19578 73.4346 18.326 121.225 64.5366 128.802C100.026 134.617 139.538 121.716 137.264 66.3564C142.009 53.2083 144.194 42.9082 147.689 26.2964" fill="#B1B1B2"/>
<path fill-rule="evenodd" clip-rule="evenodd" d="M32.3363 82.4253C35.8883 86.1176 41.2463 80.6401 38.6765 77.8597C34.0253 72.8344 29.465 79.4397 32.3363 82.4253Z" fill="#31302F"/>
<path fill-rule="evenodd" clip-rule="evenodd" d="M29.943 87.5467C25.9726 91.8237 34.0641 96.5191 37.0783 93.4036C42.522 87.7676 33.1547 84.0882 29.943 87.5467Z" fill="#F4AFB3"/>
<path fill-rule="evenodd" clip-rule="evenodd" d="M100.098 100.677C95.6238 105.504 104.744 110.784 108.14 107.277C114.273 100.929 103.715 96.7789 100.098 100.677Z" fill="#F4AFB3"/>
<path fill-rule="evenodd" clip-rule="evenodd" d="M71.6117 87.3262C49.0547 83.2778 39.3496 99.0737 46.6823 107.973C74.3193 141.519 111.856 94.542 76.3278 88.1707C74.7532 87.8875 73.1837 87.6042 71.6117 87.3262" fill="#FFF3D5"/>
<path fill-rule="evenodd" clip-rule="evenodd" d="M58.9522 102.992C58.4248 101.347 51.0816 106.243 48.452 107.796C42.1352 111.528 40.6671 113.726 42.6835 113.266C44.6375 112.824 47.1242 109.953 50.4216 108.012C54.5167 105.606 59.2796 104.005 58.9522 102.992" fill="#31302F"/>
<path fill-rule="evenodd" clip-rule="evenodd" d="M58.2949 101.23C58.3417 99.5022 49.7902 101.677 46.7916 102.272C39.5966 103.688 37.4815 105.276 39.5342 105.512C41.5246 105.741 44.8272 103.862 48.5846 103.127C53.2461 102.22 58.2663 102.293 58.2949 101.23" fill="#31302F"/>
<path fill-rule="evenodd" clip-rule="evenodd" d="M58.2556 99.4242C58.7363 97.7664 49.9121 97.7144 46.8641 97.5273C39.5417 97.0804 37.094 98.086 39.022 98.8317C40.8929 99.5593 44.5593 98.5745 48.3764 98.8109C53.1185 99.1071 57.9594 100.448 58.2556 99.4242Z" fill="#31302F"/>
<path fill-rule="evenodd" clip-rule="evenodd" d="M78.7211 106.282C79.7891 104.928 84.973 112.068 86.901 114.438C91.5288 120.131 92.1368 122.704 90.4063 121.573C88.7277 120.477 87.3921 116.925 84.9781 113.957C81.9744 110.278 78.0611 107.123 78.7211 106.282" fill="#31302F"/>
<path fill-rule="evenodd" clip-rule="evenodd" d="M79.9527 104.86C80.5087 103.223 87.7713 108.241 90.3776 109.831C96.632 113.666 98.0638 115.888 96.0552 115.397C94.1063 114.921 91.6664 112.011 88.4028 110.018C84.344 107.544 79.6097 105.868 79.9527 104.86" fill="#31302F"/>
<path fill-rule="evenodd" clip-rule="evenodd" d="M80.6126 103.182C80.7399 101.459 89.0341 104.478 91.9574 105.362C98.9783 107.49 100.925 109.28 98.8562 109.309C96.8528 109.342 93.7529 107.144 90.0917 106.04C85.5419 104.67 80.5398 104.244 80.6126 103.182" fill="#31302F"/>
<path fill-rule="evenodd" clip-rule="evenodd" d="M65.5806 110.608C65.1025 112.113 65.5806 111.567 67.0513 111.928C67.0877 111.936 67.5736 106.638 67.81 105.939C67.9425 105.541 69.3171 101.602 68.9975 101.545C67.1448 101.212 66.2744 108.405 65.5806 110.608Z" fill="#31302F"/>
<path fill-rule="evenodd" clip-rule="evenodd" d="M66.405 112.788C67.9588 113.04 71.2276 112.686 71.5628 111.213C71.568 111.182 67.8237 111.707 66.1477 111.483C66.0334 111.468 64.017 110.829 61.1509 109.425C60.8079 111.265 63.8741 112.382 66.405 112.788" fill="#31302F"/>
<path fill-rule="evenodd" clip-rule="evenodd" d="M71.1074 94.1675C75.3117 95.4615 78.5363 100.625 68.6025 103.444C65.5494 104.307 59.0845 90.4725 71.1074 94.1675Z" fill="#31302F"/>
<path fill-rule="evenodd" clip-rule="evenodd" d="M28.3213 11.9764C27.4638 13.3224 26.5959 24.4462 26.4296 26.5691C25.8918 33.3926 28.3993 29.3625 33.9755 28.6297C36.9533 28.2399 43.1661 28.5258 39.783 23.6537C38.4734 21.7699 31.2082 7.47851 28.3213 11.9764" fill="#F4AFB3"/>
<path fill-rule="evenodd" clip-rule="evenodd" d="M140.785 34.1958C141.125 35.7574 138.077 46.489 137.495 48.5417C135.624 55.121 134.673 50.4724 129.697 47.848C127.042 46.45 121.12 44.5558 125.984 41.1649C127.868 39.8553 139.647 28.9755 140.785 34.1958Z" fill="#F4AFB3"/>
<path fill-rule="evenodd" clip-rule="evenodd" d="M105.308 94.1517C108.863 97.844 114.216 92.3639 111.646 89.5861C106.995 84.5582 102.437 91.1661 105.308 94.1517Z" fill="#31302F"/>
<path fill-rule="evenodd" clip-rule="evenodd" d="M92.6983 77.4622C92.771 77.5219 59.2044 72.1692 50.362 74.5545C44.6844 76.0902 44.6506 74.1388 44.7572 72.0107C44.9261 68.734 54.5455 68.4481 65.1705 69.264C71.6562 69.7681 87.0181 72.9721 92.6983 77.4622V77.4622ZM52.9864 62.729C52.9033 62.7654 86.3685 66.6917 94.1638 71.3506C99.1631 74.344 99.7218 72.4939 100.192 70.4281C100.914 67.2554 91.8148 64.3946 81.4574 62.3184C75.1302 61.053 59.6176 59.9747 52.9864 62.729V62.729ZM95.0654 60.3619C87.8392 56.2823 68.5926 50.2228 61.1611 50.8022C48.9796 51.7507 38.139 53.7749 38.5288 57.514C38.7808 59.9487 39.1654 62.1522 45.3237 59.4083C54.9145 55.1442 95.1564 60.4164 95.0654 60.3619ZM51.4066 45.2285C59.9268 41.6869 79.8724 43.0718 88.0003 44.6985C101.32 47.367 113.018 51.0465 112.088 55.1209C111.485 57.7739 110.768 60.1566 104.337 56.3083C94.3144 50.3215 51.2974 45.2727 51.4066 45.2285V45.2285ZM49.424 81.0167C55.2133 78.1065 69.2396 78.065 75.0159 78.7926C84.4716 79.9879 92.8438 81.9704 92.3994 84.8729C92.111 86.762 91.7316 88.4613 87.0337 86.0915C79.7165 82.4096 49.3538 81.0531 49.424 81.0167" fill="#BDBDBE"/>
<path fill-rule="evenodd" clip-rule="evenodd" d="M60.4564 36.4772C59.7055 35.4638 58.479 34.5439 56.9304 33.7514C56.4808 38.5195 50.6967 41.0426 50.7929 38.2857C50.8474 36.8228 54.4333 33.9852 55.917 33.4058C55.9741 33.385 56.0391 33.3669 56.1067 33.3591C54.506 32.6393 52.63 32.0468 50.6136 31.6233C51.1878 36.4304 46.0871 40.2163 45.544 37.4697C45.253 36.0016 48.1607 32.3379 49.5067 31.4102C47.3941 31.0335 45.1595 30.8437 42.956 30.8671C44.3747 35.1337 40.5135 39.5667 39.4637 37.171C38.9154 35.9211 40.7214 32.1456 41.7841 30.9062C41.6698 30.914 41.5606 30.9191 41.4515 30.9243C39.8249 31.0231 38.2216 31.3011 36.6938 31.683C38.6712 35.2663 35.7194 39.8032 34.5085 37.7972C33.8693 36.7448 35.0906 33.0888 35.8701 31.9974C35.9013 31.9533 35.9376 31.9118 35.987 31.8702C34.4279 32.3015 32.9572 32.8393 31.6294 33.4006C33.3964 36.0951 31.4346 39.8578 30.3198 38.3715C29.743 37.6023 30.3718 34.7388 30.8993 33.7176C28.9427 34.5881 27.3472 35.4768 26.3156 36.103C26.339 36.2615 26.2897 36.5161 26.1935 36.6538C25.5907 37.5425 23.1845 39.4836 22.2153 39.2965C20.3678 38.9457 22.9637 35.4533 26.2143 35.9496C26.8249 35.4845 27.4511 35.0506 28.0878 34.6504C26.76 34.7206 24.4967 34.4556 24.0056 33.7826C22.9091 32.2755 27.1108 31.5011 29.1609 34.006C30.4809 33.2577 31.8503 32.6366 33.2431 32.117C31.9257 32.0312 29.6416 31.457 29.2389 30.7113C28.3424 29.0587 32.687 28.856 34.3604 31.6909C34.3656 31.7013 34.3708 31.7142 34.3708 31.7272C35.5193 31.353 36.6808 31.0517 37.8371 30.8152C36.5457 30.4358 34.6332 29.529 34.3864 28.7677C33.8121 26.9981 38.0268 27.5567 39.2117 30.5631C41.0799 30.2617 42.9274 30.1292 44.6944 30.137C42.917 29.0899 40.2874 26.8604 40.2251 25.5898C40.0899 22.7211 46.1313 25.2623 46.6822 30.2123C48.8622 30.3604 50.8656 30.7268 52.5676 31.2569L52.6923 31.2933C51.0397 29.8849 48.6673 27.0033 48.8492 25.6573C49.2546 22.6145 55.1842 26.5303 54.6593 31.8727C54.6593 31.9039 54.6489 31.9299 54.6255 31.9533C56.4652 32.6367 58.2608 33.4785 59.8614 34.6011C62.9613 36.7682 61.0879 37.3269 60.4564 36.4772" fill="#6F813A"/>
<path fill-rule="evenodd" clip-rule="evenodd" d="M92.0641 37.688C92.8125 36.672 94.0389 35.7523 95.5902 34.9623C96.0397 39.7305 101.824 42.2535 101.728 39.494C101.673 38.0337 98.0847 35.1988 96.601 34.6167C96.5464 34.5933 96.4814 34.5777 96.4139 34.5699C98.0171 33.8501 99.8906 33.2578 101.907 32.8342C101.333 37.6413 106.433 41.4299 106.979 38.6807C107.265 37.21 104.363 33.5487 103.011 32.6211C105.129 32.2469 107.361 32.0521 109.565 32.0781C108.146 36.3447 112.004 40.775 113.054 38.3845C113.603 37.1294 111.797 33.3539 110.739 32.1145C110.848 32.1223 110.96 32.1275 111.069 32.1353C112.698 32.234 114.299 32.5068 115.827 32.8913C113.847 36.4772 116.799 41.0167 118.012 39.0107C118.651 37.9584 117.427 34.3049 116.648 33.2084C116.619 33.1642 116.578 33.1227 116.534 33.0837C118.093 33.5176 119.561 34.0503 120.891 34.6115C119.124 37.3087 121.086 41.066 122.201 39.5823C122.778 38.8132 122.151 35.9498 121.626 34.9286C123.578 35.7991 125.171 36.6929 126.205 37.3113C126.179 37.475 126.231 37.7296 126.324 37.8648C126.93 38.756 129.333 40.6919 130.305 40.5048C132.153 40.1566 129.557 36.6616 126.306 37.1579C125.696 36.698 125.072 36.2615 124.43 35.8614C125.761 35.9315 128.021 35.6639 128.512 34.9909C129.611 33.4864 125.407 32.7095 123.357 35.217C122.037 34.4712 120.67 33.8476 119.277 33.3279C120.595 33.2422 122.879 32.6653 123.284 31.9221C124.178 30.2695 119.831 30.0695 118.163 32.9044C118.155 32.9122 118.15 32.9251 118.15 32.9355C117.001 32.5639 115.84 32.2599 114.683 32.026C115.975 31.6493 117.887 30.7425 118.134 29.9812C118.711 28.209 114.491 28.7677 113.306 31.7741C111.441 31.4726 109.591 31.3427 107.826 31.3531C109.604 30.3007 112.231 28.0687 112.293 26.8006C112.431 23.932 106.389 26.4759 105.836 31.4207C103.658 31.5688 101.655 31.9378 99.953 32.4653L99.8283 32.5016C101.478 31.0932 103.853 28.2142 103.671 26.863C103.263 23.8255 97.3363 27.7438 97.8612 33.0862C97.8612 33.1148 97.8716 33.1409 97.8924 33.1642C96.0553 33.8476 94.2598 34.6894 92.6566 35.8146C89.554 37.9817 91.4327 38.5429 92.0641 37.688" fill="#6F813A"/>
<path fill-rule="evenodd" clip-rule="evenodd" d="M50.7439 28.4276C45.2301 26.2579 45.8147 10.4646 57.0347 17.2439C60.1866 20.4166 59.3344 22.3472 59.7475 21.5832C61.8263 17.7454 64.6741 14.1024 68.907 14.2583C72.8332 14.4038 79.2149 20.6895 73.4932 27.7286C71.8666 29.732 77.0582 26.8477 80.5401 31.9432C87.1116 41.5522 73.8336 39.4033 74.3585 40.7337C75.8916 44.6132 76.445 47.7729 74.4806 49.5242C72.8514 50.9794 65.1886 49.4775 64.0089 47.4767C61.7171 52.8399 46.5709 55.7293 50.4035 40.4453C45.2041 40.6922 41.3636 36.0956 43.2761 32.8449C45.1002 29.7346 50.3152 28.5315 50.7439 28.4276" fill="#FBBF04"/>
<path fill-rule="evenodd" clip-rule="evenodd" d="M55.6933 30.0693C53.3963 30.8826 56.6105 34.7984 57.8396 32.6911C58.736 31.1476 56.543 29.7705 55.6933 30.0693Z" fill="#EE7A00"/>
<path fill-rule="evenodd" clip-rule="evenodd" d="M61.7147 29.2716C58.3497 32.7951 65.2226 35.1778 64.5236 30.4799C64.4093 29.6977 62.0421 28.9312 61.7147 29.2716Z" fill="#EE7A00"/>
<path fill-rule="evenodd" clip-rule="evenodd" d="M59.1312 34.4427C57.6319 32.8784 60.6877 31.8157 60.3784 33.9074C60.3265 34.2582 59.2741 34.5934 59.1312 34.4427Z" fill="#EE7A00"/>
<path fill-rule="evenodd" clip-rule="evenodd" d="M62.9567 35.2637C61.6419 37.3139 66.5763 38.439 66.2593 36.0173C66.028 34.2503 63.4452 34.5076 62.9567 35.2637Z" fill="#EE7A00"/>
<path fill-rule="evenodd" clip-rule="evenodd" d="M67.2286 30.9453C66.7246 35.7861 73.6208 33.4631 70.1909 30.1761C69.6166 29.6279 67.278 30.4749 67.2286 30.9453Z" fill="#EE7A00"/>
<path fill-rule="evenodd" clip-rule="evenodd" d="M68.3508 36.6148C66.2123 36.2926 67.9766 33.585 69.0108 35.4247C69.1849 35.7313 68.5613 36.6434 68.3508 36.6148Z" fill="#EE7A00"/>
<path fill-rule="evenodd" clip-rule="evenodd" d="M66.854 40.0864C65.3573 38.5248 68.4131 37.4647 68.1039 39.5513C68.0519 39.8969 66.9996 40.2397 66.854 40.0864Z" fill="#EE7A00"/>
<path fill-rule="evenodd" clip-rule="evenodd" d="M61.545 39.0496C60.0483 37.4827 63.104 36.4226 62.7948 38.5118C62.7429 38.8599 61.6905 39.2029 61.545 39.0496Z" fill="#EE7A00"/>
<path fill-rule="evenodd" clip-rule="evenodd" d="M57.8399 37.6622C56.3432 36.0979 59.399 35.0378 59.0897 37.1269C59.0404 37.4751 57.9854 37.8155 57.8399 37.6622Z" fill="#EE7A00"/>
<path fill-rule="evenodd" clip-rule="evenodd" d="M58.7496 30.4281C57.2529 28.8664 60.3086 27.8036 59.9968 29.8928C59.9501 30.2384 58.8951 30.584 58.7496 30.4281Z" fill="#EE7A00"/>
<path fill-rule="evenodd" clip-rule="evenodd" d="M43.6965 40.3696C43.4107 45.8991 49.174 51.4935 50.4134 49.8747C51.4398 48.5391 48.9843 44.8544 46.9991 40.6762C45.7934 38.1401 46.3521 39.8318 47.9605 41.0998C51.2631 43.7086 58.5205 45.1741 53.4302 41.1543C51.7802 39.8473 48.8933 38.7975 47.8981 38.0648C65.1205 40.6606 51.6867 36.1419 49.1324 35.5261C50.7642 34.3958 54.2669 28.7 53.4874 27.2163C52.5597 25.452 49.0051 27.7386 46.165 33.8709C47.2823 21.6842 44.0369 18.9767 42.9014 31.6805C37.3407 21.6323 35.87 27.8529 37.7149 30.2539C38.1229 30.7814 40.7083 33.5461 40.7239 33.5773C36.4001 33.0108 32.2868 33.8085 32.3543 34.362C32.4869 35.4248 40.6407 37.002 40.5264 37.0748C36.53 39.7148 36.3481 45.343 37.1146 45.3352C39.9391 45.3014 43.5666 42.8927 43.6965 40.3696" fill="#4CBAC9"/>
<path fill-rule="evenodd" clip-rule="evenodd" d="M46.7084 34.7286C46.7734 34.7494 49.5303 37.9611 45.8198 38.0624C43.6267 38.1222 41.7428 33.354 46.7084 34.7286Z" fill="#FBBF04"/>
<path fill-rule="evenodd" clip-rule="evenodd" d="M78.8693 37.6413C74.5481 39.3458 75.0054 51.73 83.8037 46.411C86.28 43.9243 85.607 42.4119 85.9318 43.0095C87.5636 46.0185 89.7957 48.8769 93.1191 48.7548C96.1956 48.6404 101.198 43.7112 96.7101 38.187C95.4369 36.6201 99.506 38.8806 102.24 34.8842C107.392 27.3488 96.9829 29.0326 97.3909 27.9907C98.5914 24.9453 99.0929 22.3937 97.4871 21.0971C93.2932 17.7113 90.1984 23.4902 89.2708 25.0622C88.26 19.2807 75.5979 16.2301 78.6042 28.2141C74.5247 28.027 71.5157 31.6259 73.0124 34.1775C74.4441 36.6175 78.5367 37.5607 78.8693 37.6413" fill="#EA5C05"/>
<path fill-rule="evenodd" clip-rule="evenodd" d="M89.369 29.6564C89.5041 29.6798 95.0128 33.3644 89.6054 37.961C84.3124 42.4563 79.6275 28.0428 89.369 29.6564Z" fill="#FBBF04"/>
<path fill-rule="evenodd" clip-rule="evenodd" d="M99.2923 35.1988C96.7277 31.7559 98.0425 25.6703 99.534 26.177C100.776 26.598 100.773 30.0305 101.291 33.5773C101.605 35.734 101.236 34.401 101.73 32.8913C102.738 29.7862 106.786 25.7197 105.235 30.5034C104.731 32.0572 103.32 33.975 102.995 34.8792C112.986 25.7899 106.267 34.4894 104.884 35.9809C106.422 36.0121 111.133 38.1766 111.269 39.4654C111.43 41.0037 108.156 41.0608 103.684 38.3299C109.644 45.7094 108.717 48.8457 102.517 41.144C103.258 50.0202 99.6327 46.6397 99.7886 44.2985C99.825 43.7788 100.303 40.8842 100.298 40.8556C97.7541 43.0825 94.7581 44.34 94.5658 43.9555C94.1916 43.2123 98.7727 38.6859 98.6687 38.6859C94.9504 38.7041 92.4143 35.152 92.9132 34.8272C94.7477 33.6345 98.1256 33.6268 99.2923 35.1988" fill="#4CBAC9"/>
<path fill-rule="evenodd" clip-rule="evenodd" d="M103.663 37.5399C103.697 37.5009 104.092 34.2373 101.657 35.773C100.215 36.6773 101.052 40.5619 103.663 37.5399Z" fill="#FBBF04"/>
</svg>
