<svg width="124" height="225" viewBox="0 0 124 225" fill="none" xmlns="http://www.w3.org/2000/svg">
<path fill-rule="evenodd" clip-rule="evenodd" d="M90.0586 151.841C94.0074 161.505 92.2722 210.469 96.1203 209.659C97.1816 209.435 100.482 210.62 101.32 209.202C103.954 204.746 103.059 193.211 103.344 189.543C103.784 183.892 106.621 149.989 100.621 149.989C96.2365 149.989 94.1488 150.739 90.0586 151.841Z" fill="#F7C643"/>
<path fill-rule="evenodd" clip-rule="evenodd" d="M27.3152 224.961C30.7295 224.961 35.8636 225.337 37.0217 223.753C39.5083 220.36 34.1186 155.875 39.2178 153.648C42.239 152.331 39.0726 215.319 45.7133 224.121C47.1639 225.434 54.2094 224.064 54.4418 222.533C54.0622 216.014 54.7749 158.358 59.9922 159.239C76.9069 162.105 90.9224 157.521 102.934 152.523C104.82 151.736 108.019 211.974 111.337 211.974C118.072 211.974 116.097 215.671 120.005 200.567C122.658 190.312 125.658 126.299 120.704 116.524L120.667 116.455C126.925 105.452 120.89 82.4896 119.18 84.066C113.971 88.8651 110.196 100.243 112.464 107.05C97.389 97.7426 72.8012 117.4 48.4343 118.06C45.816 118.132 52.2321 82.4354 49.4375 76.3214C44.1814 64.8332 29.8134 79.3619 26.5405 80.2489C24.9621 80.6769 19.9966 111.778 20.3549 146.463C20.7364 183.623 26.7167 223.226 27.3152 224.961" fill="#FDCA45"/>
<path fill-rule="evenodd" clip-rule="evenodd" d="M53.6279 86.9961C45.6702 89.7229 31.1085 90.1993 23.0327 86.8199C11.4554 81.9802 3.45509 71.7799 0.637268 60.954C-2.62598 48.4142 7.48525 32.3091 11.9086 21.6343C7.72152 9.97757 13.2139 4.60725 19.4073 -3.49588e-05C19.3879 0.838534 17.6333 18.95 17.4919 19.1786C21.648 21.3127 34.6042 15.8359 48.5384 22.9899C55.5219 26.5766 69.0068 31.728 73.0156 37.8072C77.1233 25.858 82.0947 24.4462 86.8898 23.7277C87.7032 28.6661 85.4722 40.8477 75.9768 46.5879C71.7181 61.4982 64.0683 83.4191 53.6279 86.9961" fill="#F7C643"/>
<path fill-rule="evenodd" clip-rule="evenodd" d="M59.7558 72.9688C57.0329 73.3871 56.5313 69.2988 58.5357 68.9482C62.1611 68.3169 61.9559 72.6279 59.7558 72.9688Z" fill="#31302F"/>
<path fill-rule="evenodd" clip-rule="evenodd" d="M9.49897 49.0279C7.17887 49.5005 6.89421 45.8499 8.6062 45.4645C11.701 44.7731 11.3775 48.6484 9.49897 49.0279Z" fill="#31302F"/>
<path fill-rule="evenodd" clip-rule="evenodd" d="M56.215 75.1591C56.8018 81.2518 47.074 80.0123 46.5472 75.5019C45.5925 67.3466 55.7405 70.238 56.215 75.1591Z" fill="#F9D4D4"/>
<path fill-rule="evenodd" clip-rule="evenodd" d="M18.3517 56.891C18.9424 62.9799 9.21459 61.7442 8.68394 57.2318C7.72918 49.0747 17.8772 51.9661 18.3517 56.891Z" fill="#F9D4D4"/>
<path fill-rule="evenodd" clip-rule="evenodd" d="M65.7588 38.8818C68.7509 38.0394 72.142 29.9753 73.1045 27.384C75.6977 20.4334 71.4351 21.5295 68.9136 25.1626C66.3921 28.7822 65.6136 34.9331 65.1836 35.5179C63.8415 37.3345 65.7801 38.8741 65.7588 38.8818" fill="#8E6334"/>
<path fill-rule="evenodd" clip-rule="evenodd" d="M67.878 132.908C63.5922 133.22 48.163 128.123 53.9206 120.69C55.6423 118.465 66.2222 116.51 68.4784 116.017C71.2497 118.918 70.1884 132.74 67.878 132.908" fill="#BC8039"/>
<path fill-rule="evenodd" clip-rule="evenodd" d="M86.7586 126.918C84.3145 127.096 77.4433 136.617 73.7481 133.851C70.9594 131.765 70.328 117.895 72.8031 114.7C74.5248 112.476 84.9884 109.25 87.2466 108.752C90.014 111.657 89.069 126.75 86.7586 126.918" fill="#BC8039"/>
<path fill-rule="evenodd" clip-rule="evenodd" d="M89.9715 120.432C90.1981 117.181 88.8153 110.424 88.6274 108.731C89.7546 107.315 93.8351 106.593 96.0932 106.097C115.247 126.174 89.466 127.584 89.9715 120.432Z" fill="#BC8039"/>
<path fill-rule="evenodd" clip-rule="evenodd" d="M102.341 113.493C100.691 110.681 98.3533 107.65 97.1855 106.302C98.3107 104.887 101.353 105.32 103.148 105.576C109.925 110.737 106.003 119.723 102.341 113.493Z" fill="#BC8039"/>
<path fill-rule="evenodd" clip-rule="evenodd" d="M51.8699 122.905C53.5219 120.093 52.418 121.426 53.5858 120.078C52.4606 118.66 49.422 119.096 47.6248 119.351C40.8465 124.511 48.2096 129.137 51.8699 122.905Z" fill="#BC8039"/>
<path fill-rule="evenodd" clip-rule="evenodd" d="M73.2213 136.115C71.5732 130.152 70.7037 132.848 67.8568 134.748C66.0034 142.334 75.216 143.32 73.2213 136.115Z" fill="#BC8039"/>
<path fill-rule="evenodd" clip-rule="evenodd" d="M94.6793 125.181C85.1374 118.467 88.0734 134.291 90.7498 131.306C91.5826 130.381 96.798 126.67 94.6793 125.181Z" fill="#BC8039"/>
<path fill-rule="evenodd" clip-rule="evenodd" d="M107.762 117.512C106.094 115.951 104.539 116.065 103.778 116.352C103.158 118.548 103.079 123.722 105.579 122.208C106.237 121.807 108.937 118.61 107.762 117.512Z" fill="#BC8039"/>
<path fill-rule="evenodd" clip-rule="evenodd" d="M87.3124 131.055C83.3636 133.832 84.5779 127.284 85.6857 128.518C86.0323 128.901 88.1878 130.435 87.3124 131.055Z" fill="#BC8039"/>
<path fill-rule="evenodd" clip-rule="evenodd" d="M51.6567 125.458C45.5736 124.577 52.1912 130.896 53.1924 127.925C53.448 127.162 52.2648 125.545 51.6567 125.458Z" fill="#BC8039"/>
<path fill-rule="evenodd" clip-rule="evenodd" d="M66.8052 133.727C62.0295 133.032 66.0732 138.325 66.5031 136.721C66.6367 136.226 67.8665 133.878 66.8052 133.727Z" fill="#BC8039"/>
<path fill-rule="evenodd" clip-rule="evenodd" d="M37.3193 31.0405C35.9597 30.4615 29.6366 33.6802 28.4146 31.1761C27.4927 29.284 30.9787 21.6555 33.1884 20.6194C34.7299 19.899 41.2448 21.0552 42.5966 21.4096C43.2822 23.7355 38.6091 31.5867 37.3193 31.0405" fill="#BC8039"/>
<path fill-rule="evenodd" clip-rule="evenodd" d="M39.6494 29.8725C41.1445 28.023 43.1334 23.4118 43.7299 22.3234C44.9906 21.9477 47.7329 23.2182 49.288 23.8631C52.3518 43.8454 36.3648 33.9376 39.6494 29.8725Z" fill="#BC8039"/>
<path fill-rule="evenodd" clip-rule="evenodd" d="M60.2727 35.667C60.1372 33.2947 59.6317 30.5523 59.3237 29.2896C60.5245 28.7474 62.3507 30.0411 63.4294 30.8022C66.1059 36.4029 60.571 40.9231 60.2727 35.667" fill="#BC8039"/>
<path fill-rule="evenodd" clip-rule="evenodd" d="M39.8858 34.1971C35.937 26.6694 32.5749 37.9039 35.3036 36.862C36.148 36.5366 40.765 35.8665 39.8858 34.1971Z" fill="#BC8039"/>
<path fill-rule="evenodd" clip-rule="evenodd" d="M62.4477 40.0746C61.888 38.5079 60.8383 38.0625 60.2515 37.9966C59.1205 39.2148 57.3465 42.542 59.471 42.3929C60.0307 42.3522 62.8428 41.1805 62.4477 40.0746" fill="#BC8039"/>
<path fill-rule="evenodd" clip-rule="evenodd" d="M59.1395 38.6785C57.5049 35.5644 56.1144 40.2123 57.2435 39.7805C57.594 39.6468 59.5036 39.3699 59.1395 38.6785Z" fill="#BC8039"/>
<path fill-rule="evenodd" clip-rule="evenodd" d="M28.6687 26.3287C25.8025 24.2874 26.6624 29.0632 27.4719 28.1666C27.7275 27.8896 29.3059 26.7799 28.6687 26.3287Z" fill="#BC8039"/>
<path fill-rule="evenodd" clip-rule="evenodd" d="M58.6342 37.5163C57.2728 36.9392 50.5274 37.375 49.3054 34.8689C48.86 33.9548 50.051 31.8826 50.2776 29.793C50.5236 27.5426 49.8419 25.2806 50.3938 24.7248C51.1898 24.2929 57.5536 28.2262 58.9034 28.5806C59.591 30.9065 59.9221 38.0644 58.6342 37.5163Z" fill="#BC8039"/>
<path fill-rule="evenodd" clip-rule="evenodd" d="M49.1509 37.7897C45.6669 38.2758 48.6339 34.4354 48.9418 35.6051C49.0367 35.9673 49.9256 37.6832 49.1509 37.7897Z" fill="#BC8039"/>
<path fill-rule="evenodd" clip-rule="evenodd" d="M32.5323 32.7913C33.9074 36.0275 35.6736 31.5093 34.5135 31.8463C34.1514 31.9508 32.2263 32.0709 32.5323 32.7913Z" fill="#BC8039"/>
<path fill-rule="evenodd" clip-rule="evenodd" d="M44.0625 37.2705C45.819 41.4072 48.0752 35.6321 46.5898 36.064C46.1327 36.1995 43.6713 36.3525 44.0625 37.2705Z" fill="#BC8039"/>
<path fill-rule="evenodd" clip-rule="evenodd" d="M8.84668 76.4797C9.68331 70.1837 24.367 57.3708 32.2026 57.4734C42.248 57.6051 39.3702 86.1649 37.2883 89.1938C29.5068 88.8724 25.1223 88.0202 20.453 85.6265C17.1142 83.9145 13.4385 81.7145 9.11779 76.9678L8.84668 76.4797" fill="#F3DEA7"/>
<path fill-rule="evenodd" clip-rule="evenodd" d="M30.2077 69.9207C29.7991 71.0575 29.7584 70.5056 28.701 70.0408C28.6719 70.0311 30.8351 66.5801 31.0153 66.0494C31.1218 65.7434 32.1114 62.7087 32.3341 62.8249C33.6162 63.4814 30.8042 68.261 30.2077 69.9207" fill="#31302F"/>
<path fill-rule="evenodd" clip-rule="evenodd" d="M28.6918 70.8675C27.6305 70.2961 25.8043 68.5648 26.2865 67.5132C26.2962 67.4919 28.3316 69.5486 29.4529 70.1916C29.5304 70.2342 31.0526 70.7822 33.4463 71.2587C32.8033 72.533 30.4193 71.7932 28.6918 70.8675" fill="#31302F"/>
<path fill-rule="evenodd" clip-rule="evenodd" d="M34.4726 57.3595C31.3198 56.1955 26.9585 57.8359 31.6936 64.159C33.1461 66.1054 43.5013 60.6886 34.4726 57.3595Z" fill="#694926"/>
<path fill-rule="evenodd" clip-rule="evenodd" d="M38.1212 96.009C39.0333 94.0278 46.993 89.7537 49.1175 89.3663C50.3724 89.1397 53.4555 88.2625 52.5879 90.4528C51.577 93.0092 43.8285 94.3319 41.2043 95.2363C40.908 95.337 38.0747 96.1097 38.1212 96.009" fill="#4CBAC9"/>
<path fill-rule="evenodd" clip-rule="evenodd" d="M38.1215 96.0092C38.0034 97.3726 38.0828 100.016 38.5766 101.211C39.1886 102.685 39.2564 103.206 41.4777 103.638C42.8528 103.903 51.8814 105.485 52.4779 104.292C53.4404 102.356 54.0137 94.5296 53.6767 92.0216C53.6244 91.6382 52.9775 89.107 52.4914 90.3077C52.1138 91.2412 47.2993 93.6736 46.0289 93.8285C45.0722 93.9409 41.2705 94.6477 40.6353 95.1241C40.5752 95.1706 38.1389 95.8543 38.1215 96.0092" fill="#92D0D8"/>
<path fill-rule="evenodd" clip-rule="evenodd" d="M34.5653 94.9884C33.659 93.0111 25.6955 88.735 23.5748 88.3515C22.3179 88.123 19.2328 87.2438 20.1024 89.4322C21.1133 91.9886 28.8599 93.3132 31.488 94.2196C31.7804 94.3203 34.6137 95.0911 34.5653 94.9884" fill="#4CBAC9"/>
<path fill-rule="evenodd" clip-rule="evenodd" d="M34.5658 94.9884C34.6859 96.3537 34.6084 99.0011 34.1145 100.196C33.5026 101.666 33.4328 102.187 31.2096 102.617C29.8384 102.884 20.8078 104.468 20.2113 103.275C19.2469 101.341 18.6775 93.5107 19.0164 91.0027C19.0649 90.6173 19.7117 88.0881 20.1978 89.2888C20.5793 90.2242 25.3899 92.6566 26.6623 92.8096C27.619 92.9239 31.4206 93.6269 32.0559 94.1072C32.1159 94.1517 34.5542 94.8354 34.5658 94.9884Z" fill="#92D0D8"/>
<path fill-rule="evenodd" clip-rule="evenodd" d="M39.6724 100.49C40.2262 99.0051 39.9919 96.5998 38.9171 95.2925C38.2489 94.483 36.9262 94.301 35.9037 94.301C34.8153 94.301 33.5255 94.0414 32.7159 94.7367C31.4474 95.8232 31.6295 99.7855 32.2221 101.176C33.1013 103.229 38.8028 102.83 39.6724 100.49" fill="#5DC0CD"/>
</svg>
