<svg width="204" height="225" viewBox="0 0 204 225" fill="none" xmlns="http://www.w3.org/2000/svg">
<path fill-rule="evenodd" clip-rule="evenodd" d="M173.384 60.9085C177.742 61.7552 189.777 60.3396 197.242 58.3034C191.838 41.2375 182.035 27.7242 162.389 41.7085C153.623 47.9915 169.401 60.1327 173.384 60.9085" fill="#4CBAC9"/>
<path fill-rule="evenodd" clip-rule="evenodd" d="M89.2634 142.048C87.8233 146.248 87.4966 155.414 84.1074 157.243C92.7098 160.673 114.444 152.352 103.308 130.963C98.2959 121.416 90.5864 138.212 89.2634 142.048Z" fill="#008C9E"/>
<path fill-rule="evenodd" clip-rule="evenodd" d="M82.5475 17.8667C32.3354 35.2483 29.9725 68.9281 38.9804 89.4676C41.9314 96.1889 26.2212 115.384 31.1321 124.348C42.582 145.252 79.5231 131.97 93.3168 131.137C105.583 127.032 127.914 164.175 86.6527 187.246C50.0355 207.723 33.7346 176.373 33.7646 176.801C36.2854 211.907 75.2356 235.264 115.974 220.496C136.359 213.11 173.915 188.697 185.256 154.516C208.806 83.5276 165.694 -10.9104 82.5475 17.8667" fill="#4CBAC9"/>
<path fill-rule="evenodd" clip-rule="evenodd" d="M35.7959 187.69C35.8395 186.601 19.5739 190.393 9.04967 181.497C2.69863 176.126 -0.25501 160.334 0.0172167 152.54C7.10327 147.446 27.885 170.24 32.4285 175.657C33.8141 177.312 39.7133 187.333 36.7977 187.483L35.7959 187.69" fill="#008C9E"/>
<path fill-rule="evenodd" clip-rule="evenodd" d="M40.0346 186.522C39.3295 185.697 54.4598 178.619 57.2338 165.119C58.9053 156.977 51.4626 142.731 46.4319 136.775C37.7152 137.151 35.4639 167.918 35.2461 174.982C35.1808 177.144 36.7379 188.664 39.1199 186.979L40.0346 186.522Z" fill="#008C9E"/>
<path fill-rule="evenodd" clip-rule="evenodd" d="M73.9755 97.4791C77.019 99.3493 79.3139 94.3241 77.0898 92.8922C73.0663 90.3033 71.5119 95.9655 73.9755 97.4791Z" fill="#31302F"/>
<path fill-rule="evenodd" clip-rule="evenodd" d="M73.8209 110.151C80.2726 113.865 85.091 103.958 80.3733 101.113C71.8499 95.9792 68.6077 107.143 73.8209 110.151Z" fill="#F4AFB3"/>
<path fill-rule="evenodd" clip-rule="evenodd" d="M91.7759 131.203C144.895 106.514 157.796 142.66 145.851 166.145C134.001 189.432 110.965 199.18 84.2788 188.517C88.6399 186.641 97.8656 180.775 103.223 173.686C110.396 164.202 112.814 152.27 108.109 142.377C105.224 136.301 99.6623 130.811 91.7759 131.203" fill="#92D0D8"/>
<path fill-rule="evenodd" clip-rule="evenodd" d="M66.987 126.803C66.2738 127.062 66.2248 128.935 65.1631 129.888C64.0551 130.89 62.0407 131.698 60.5924 131.437C58.8094 131.11 57.4401 130.375 55.9945 127.084C55.1289 126.929 56.0435 129.621 56.7105 130.479C58.7195 133.081 64.1858 133.413 66.2357 130.062C66.7447 129.226 67.6349 126.564 66.987 126.803Z" fill="#31302F"/>
<path fill-rule="evenodd" clip-rule="evenodd" d="M41.8042 85.9422C47.4584 84.5512 53.1424 32.7466 114.709 27.0026C136.874 28.7421 157.969 39.9496 169.789 59.1606C179.287 74.6068 183.914 91.3324 189.582 112.324C188.254 52.4557 147.308 -3.91965 80.5311 19.1951C53.0798 28.6958 41.4013 48.3641 38.8206 63.5462C36.6101 76.5286 41.7416 85.9586 41.8042 85.9422Z" fill="#6EC5D2"/>
<path fill-rule="evenodd" clip-rule="evenodd" d="M64.4254 8.18898C64.831 11.5537 66.3064 13.865 67.7138 15.3894C68.2011 15.9121 68.6639 16.3395 69.0587 16.6471C68.8899 16.609 68.7102 16.5655 68.5115 16.5219C66.1404 16.002 63.6495 14.5836 62.2067 12.5991C61.1369 11.1209 60.7448 11.7252 61.0062 12.09C62.9771 14.8422 65.3836 16.1571 67.3518 16.8186C67.9044 17.0064 68.4189 17.1425 68.8572 17.2296C68.7129 17.2868 68.5551 17.3521 68.3863 17.4283C66.1703 18.4111 63.3201 18.7323 60.9871 17.9782C59.2531 17.4202 59.2912 18.1362 59.7158 18.2805C62.9336 19.3395 65.6504 18.9801 67.6267 18.354C68.6422 18.0355 69.4262 17.6571 69.8971 17.3631H70.0332C73.123 18.3077 75.7364 17.9538 77.6528 17.3467C80.6364 16.3966 81.6491 14.9865 78.4151 16.4184C76.1883 17.3957 73.3435 17.7224 71.0078 16.9711C70.5477 16.8241 70.2156 16.7641 69.9815 16.7587C69.761 16.4973 69.4044 16.1408 68.8735 15.6834C67.0469 14.0855 65.5442 11.6463 65.2366 9.21528C65.0052 7.40225 64.3709 7.74525 64.4254 8.18898" fill="#694926"/>
<path fill-rule="evenodd" clip-rule="evenodd" d="M61.8401 5.58648C61.0997 6.36777 61.3365 7.81064 62.4472 8.58376C68.1068 12.5447 66.3237 0.87152 61.8401 5.58648Z" fill="#EA5C05"/>
<path fill-rule="evenodd" clip-rule="evenodd" d="M61.1948 12.4603C62.213 11.581 61.1676 9.11461 59.2049 8.65455C54.8547 7.64186 57.0352 16.0591 61.1948 12.4603Z" fill="#EA5C05"/>
<path fill-rule="evenodd" clip-rule="evenodd" d="M58.8537 19.8216C63.8463 19.1029 59.6622 12.5641 55.8511 15.3762C55.6605 15.515 55.1052 20.3633 58.8537 19.8216Z" fill="#EA5C05"/>
<path fill-rule="evenodd" clip-rule="evenodd" d="M81.4048 19.0127C81.3068 19.1515 78.4021 19.2931 75.4839 19.9818C74.8387 20.1342 74.1363 20.3329 73.3986 20.5643C73.6708 17.97 68.9368 15.5036 68.5421 15.7296C66.2581 17.0581 69.563 20.2594 72.405 20.891C70.8451 21.4218 69.1873 22.0751 67.6274 22.753C67.2708 20.1505 62.025 18.95 61.7065 19.2685C59.8989 21.0598 63.5413 23.2266 66.416 23.292C65.5395 23.6922 64.7146 24.0896 63.9796 24.4653C63.6257 24.6477 62.9914 24.939 62.2183 25.2874C61.5786 22.6005 55.889 22.508 55.6304 22.9C54.2638 24.9989 58.1322 26.3463 60.947 25.8672C59.7573 26.409 58.4479 27.0134 57.4053 27.547C54.4816 27.1359 49.8592 29.6158 51.8764 31.5759C52.2004 31.8917 57.3808 30.6476 57.7565 28.0696C58.2465 27.792 58.8454 27.4844 59.5205 27.1495C57.4625 29.2538 56.5832 34.1403 59.3028 33.8272C59.7683 33.7727 62.2264 28.6386 60.1085 26.8664C61.3853 26.2539 62.8771 25.5842 64.4151 24.9227C62.3571 27.0243 61.4778 31.9053 64.2028 31.5922C64.6602 31.5378 67.102 26.4471 65.0304 24.6531C66.9659 23.8283 68.9259 23.0225 70.5865 22.3664C68.6755 24.5687 67.9378 29.1258 70.5675 28.8209C71.0194 28.7719 73.3741 23.8854 71.5175 21.9989C72.1682 21.7457 72.7507 21.5253 73.238 21.3456C74.6481 20.8229 81.3748 19.8893 81.4075 19.3176C81.4211 19.1297 81.4592 18.931 81.4048 19.0127" fill="#6F813A"/>
<path fill-rule="evenodd" clip-rule="evenodd" d="M81.5929 17.1559C81.729 17.1341 82.8452 15.1469 84.3479 13.3393C84.6854 12.9391 85.0692 12.5145 85.4885 12.0789C83.5774 11.3575 83.4985 7.16802 83.7952 6.97202C85.5293 5.83139 86.6209 9.27774 86.0683 11.4937C86.9857 10.5844 88.031 9.64799 89.0492 8.7932C87.3478 7.63351 88.3414 3.52289 88.6762 3.41128C90.5709 2.76882 90.8159 6.08728 89.8523 8.12898C90.443 7.64986 91.0092 7.20885 91.5346 6.83046C91.7878 6.64534 92.2124 6.29683 92.7297 5.88032C91.0637 4.48925 92.9965 0.454832 93.3613 0.413998C95.3158 0.18805 94.8994 3.37589 93.5845 5.1862C94.3849 4.54102 95.2614 3.83318 96.0046 3.28872C96.7369 1.09186 100.102 -1.28736 100.769 0.814229C100.877 1.15179 98.1905 4.35866 96.2441 3.7162C95.882 3.96393 95.4519 4.27424 94.9837 4.6363C97.1779 3.92579 100.924 5.0228 99.7477 6.82222C99.5462 7.12983 95.079 7.05908 94.5754 4.94933C93.6988 5.63534 92.7052 6.44932 91.7007 7.2905C93.8975 6.58544 97.6406 7.67708 96.4646 9.47921C96.2659 9.78683 91.8286 9.71325 91.2978 7.63344C90.0401 8.69785 88.7851 9.79775 87.7398 10.7315C89.9611 10.1625 93.4211 11.2405 92.2832 12.9828C92.0899 13.285 87.8351 13.2223 87.1572 11.2622C86.7543 11.627 86.395 11.9592 86.0955 12.2368C85.2353 13.0453 82.2217 17.4446 81.8107 17.2649C81.6773 17.2132 81.5194 17.1668 81.5929 17.1559" fill="#759D35"/>
<path fill-rule="evenodd" clip-rule="evenodd" d="M77.0378 14.5839C73.4335 9.1475 75.9271 0.0305913 78.1485 0.923494C79.9915 1.66123 79.7056 6.86347 80.1984 12.2889C80.5005 15.5829 80.0486 13.5304 80.917 11.2818C82.7028 6.66483 89.1791 0.825577 86.4296 7.95246C85.5394 10.2664 83.2419 13.0566 82.6756 14.3987C98.5682 1.44889 87.6628 14.0802 85.4496 16.2308C87.7771 16.3996 94.7407 20.0693 94.8387 22.0402C94.953 24.3868 89.9849 24.1961 83.4324 19.6853C91.8632 31.3638 90.1945 36.0489 81.4343 23.8614C81.8208 37.3719 76.605 31.9519 77.0378 28.4157C77.1331 27.6317 78.0968 23.2815 78.0941 23.2379C74.0515 26.4094 69.4046 28.0618 69.1433 27.4575C68.6424 26.3005 75.9571 19.8187 75.8019 19.816C70.1641 19.5329 66.6143 13.9386 67.3929 13.4867C70.2703 11.8343 75.3936 12.1012 77.0378 14.5839" fill="#FBBF04"/>
<path fill-rule="evenodd" clip-rule="evenodd" d="M82.24 19.1192C82.2972 19.0593 83.1602 14.1509 79.3436 16.277C77.0868 17.532 78.0341 23.4884 82.24 19.1192Z" fill="#92D0D8"/>
<path fill-rule="evenodd" clip-rule="evenodd" d="M92.6149 16.9711C94.1149 19.2361 93.0722 23.0363 92.1467 22.6606C91.379 22.3557 91.5015 20.1861 91.2919 17.9239C91.1694 16.5546 91.3572 17.4067 90.9979 18.3432C90.252 20.2732 87.5542 22.7015 88.6949 19.7315C89.0732 18.7679 90.026 17.6026 90.2629 17.0418C83.6396 22.4428 88.1831 17.1779 89.1059 16.2823C88.1341 16.2143 85.2349 14.6817 85.1967 13.8623C85.145 12.885 87.2167 12.9612 89.9471 14.8422C86.4326 9.97211 87.1268 8.02299 90.7801 13.1C90.6195 7.47037 92.7891 9.72986 92.6149 11.2053C92.5714 11.532 92.1712 13.3424 92.1739 13.3641C93.859 12.0438 95.789 11.3497 95.9034 11.6001C96.113 12.0847 93.0613 14.7851 93.1294 14.7879C95.4787 14.9076 96.9597 17.2379 96.633 17.4257C95.4325 18.1145 93.2955 18.0029 92.6149 16.9711" fill="#EA5C05"/>
<path fill-rule="evenodd" clip-rule="evenodd" d="M90.4447 15.079C90.4202 15.1035 90.0609 17.1479 91.648 16.2632C92.5926 15.7432 92.1979 13.2578 90.4447 15.079Z" fill="#FBBF04"/>
<path fill-rule="evenodd" clip-rule="evenodd" d="M188.838 106.498C193.039 109.213 199.705 117.096 203.979 116.356C198.758 125.38 173.732 133.147 168.696 106.463C166.48 94.5258 185 104.018 188.838 106.498" fill="#008C9E"/>
</svg>
