<svg width="140" height="225" viewBox="0 0 140 225" fill="none" xmlns="http://www.w3.org/2000/svg">
<path fill-rule="evenodd" clip-rule="evenodd" d="M39.8635 0.00212611C28.6787 0.413676 31.536 23.8121 36.1595 33.7388C45.4349 26.047 47.7949 11.5386 43.5049 2.336C42.5151 0.202713 40.611 -0.0265261 39.8635 0.00212611Z" fill="#F7B068"/>
<path fill-rule="evenodd" clip-rule="evenodd" d="M106.345 1.28116C95.5222 1.6849 98.2883 24.3149 102.761 33.9238C111.737 26.4769 114.018 12.4425 109.869 3.53688C108.91 1.47392 107.072 1.25512 106.345 1.28116" fill="#F7B068"/>
<path fill-rule="evenodd" clip-rule="evenodd" d="M29.2671 204.873C35.8389 229.809 69.9272 218.326 39.4126 205.584C35.5706 203.982 36.7167 202.823 36.3286 200.934C34.2188 199.827 31.8875 204.917 29.2671 204.873Z" fill="#BB803E"/>
<path fill-rule="evenodd" clip-rule="evenodd" d="M114.216 210.238C107.637 235.174 73.5511 223.692 104.068 210.948C107.908 209.345 106.764 208.189 107.15 206.301C109.26 205.191 111.591 210.28 114.216 210.238" fill="#BB803E"/>
<path fill-rule="evenodd" clip-rule="evenodd" d="M71.3805 216.711C197.362 231.592 124.634 32.8297 30.7569 107.797C7.38977 126.455 -25.4404 212.711 71.3805 216.711Z" fill="#F7B068"/>
<path fill-rule="evenodd" clip-rule="evenodd" d="M70.6813 116.463C90.1596 117.234 115.282 126.095 126.774 117.583C140.319 113.306 143.671 94.9036 133.164 75.5295C125.639 61.6514 123.508 44.7779 117.397 36.0207C70.9678 -30.4653 19.6335 28.8212 9.76668 77.8321C3.49967 83.3281 -1.2201 97.7896 0.280228 106.948C1.3612 113.548 7.21416 115.648 10.8035 117.919C26.2705 127.684 60.9187 116.08 70.6813 116.463" fill="#FBCF9E"/>
<path fill-rule="evenodd" clip-rule="evenodd" d="M30.8635 84.8307C26.3287 91.9052 38.9904 96.4947 42.4677 91.3139C48.7478 81.9472 34.5388 79.1133 30.8635 84.8307Z" fill="#E9868C"/>
<path fill-rule="evenodd" clip-rule="evenodd" d="M94.8735 85.0208C90.3334 92.0901 102.992 96.677 106.472 91.5014C112.755 82.1321 98.541 79.2956 94.8735 85.0208Z" fill="#E9868C"/>
<path fill-rule="evenodd" clip-rule="evenodd" d="M32.3205 77.9073C35.7926 80.4157 39.3924 75.115 36.8684 73.2058C32.2971 69.7545 29.5178 75.873 32.3205 77.9073Z" fill="#31302F"/>
<path fill-rule="evenodd" clip-rule="evenodd" d="M105.576 80.2748C108.455 82.5721 111.44 77.7247 109.345 75.9796C105.553 72.8226 103.25 78.415 105.576 80.2748Z" fill="#31302F"/>
<path fill-rule="evenodd" clip-rule="evenodd" d="M70.527 103.647C70.4332 105.077 70.7407 104.494 72.1134 104.494C72.1446 104.494 71.4335 99.7167 71.4908 99.0524C71.5221 98.6696 71.8842 94.9031 71.5872 94.9187C69.8811 95.0281 70.6703 101.561 70.527 103.647Z" fill="#31302F"/>
<path fill-rule="evenodd" clip-rule="evenodd" d="M71.7252 105.393C73.1526 105.278 75.9578 104.26 75.937 102.89C75.937 102.858 72.7463 104.135 71.2225 104.299C71.1183 104.309 69.2038 104.184 66.375 103.562C66.4688 105.255 69.4147 105.578 71.7252 105.393" fill="#31302F"/>
<path fill-rule="evenodd" clip-rule="evenodd" d="M71.8526 87.9642C75.8379 88.1934 79.797 92.0484 71.6494 96.677C69.1436 98.1044 60.4568 87.3026 71.8526 87.9642Z" fill="#31302F"/>
<path fill-rule="evenodd" clip-rule="evenodd" d="M69.7539 203.964C135.677 211.754 97.6221 107.735 48.4914 146.97C36.2647 156.735 19.0838 201.873 69.7539 203.964Z" fill="#FBCF9E"/>
<path fill-rule="evenodd" clip-rule="evenodd" d="M56.7112 118.388C54.2575 128.565 65.3589 185.144 76.3405 169.005C85.4519 155.617 90.3618 142.208 90.6483 120.576C90.8619 104.614 59.2925 107.685 56.7112 118.388Z" fill="black"/>
<path d="M56.7112 118.388C54.2575 128.565 65.3589 185.144 76.3405 169.005C85.4519 155.617 90.3618 142.208 90.6483 120.576C90.8619 104.614 59.2925 107.685 56.7112 118.388Z" stroke="black" stroke-width="0.7892" stroke-miterlimit="22.9256"/>
<path fill-rule="evenodd" clip-rule="evenodd" d="M60.9879 118.742C60.9696 127.476 64.2255 134.011 65.1267 143.852C65.8274 151.518 65.778 162.319 70.3936 168.709C70.6957 168.482 68.4947 159.032 68.3957 157.612C67.6143 146.482 69.3334 130.271 64.7673 120.039C63.4258 117.028 60.9827 119.448 60.9879 118.742Z" fill="#6B6A6A"/>
<path fill-rule="evenodd" clip-rule="evenodd" d="M87.9007 119.456C87.2833 128.163 83.5586 134.449 81.9515 144.195C80.696 151.793 79.9562 162.571 74.8899 168.604C74.6086 168.36 77.4895 159.092 77.6875 157.688C79.2764 146.647 83.0559 130.956 85.757 119.073C86.4837 115.858 87.9554 118.752 87.9007 119.456" fill="#6B6A6A"/>
<path fill-rule="evenodd" clip-rule="evenodd" d="M77.072 111.925C78.0983 120.599 75.0559 130.661 75.306 140.538C75.5039 148.235 74.6757 161.389 72.9644 165.841C72.6388 165.65 73.7249 156.006 73.6598 154.588C73.1389 143.445 72.6491 125.277 73.0659 113.095C73.1779 109.797 76.9887 111.227 77.072 111.925" fill="#6B6A6A"/>
<path fill-rule="evenodd" clip-rule="evenodd" d="M45.8599 132.24C49.3789 118.882 70.5763 120.417 58.8679 126.501C54.307 128.874 68.9144 125.04 52.8457 131.747C50.2019 132.852 50.9859 133.654 50.7254 134.951C49.2668 135.714 47.665 132.208 45.8599 132.24" fill="#BB803E"/>
<path fill-rule="evenodd" clip-rule="evenodd" d="M98.0703 139.023C94.546 125.668 73.3513 127.202 85.0622 133.29C89.6205 135.66 75.0105 131.821 91.0792 138.536C93.7282 139.638 92.9389 140.435 93.202 141.734C94.6555 142.5 96.26 138.994 98.0703 139.023Z" fill="#BB803E"/>
</svg>
