<svg width="172" height="225" viewBox="0 0 172 225" fill="none" xmlns="http://www.w3.org/2000/svg">
<path fill-rule="evenodd" clip-rule="evenodd" d="M155.038 187.363C167.798 184.804 173.563 216.344 136.81 218.85C125.522 219.615 115.933 220.513 104.293 220.086C104.194 220.081 101.936 223.641 104.873 223.869C135.519 226.287 160.576 223.223 169.563 207.412C173.215 200.994 172.59 190.636 164.061 184.486C158.577 180.533 155.95 178.839 155.424 186.834L155.038 187.363" fill="#8E6334"/>
<path fill-rule="evenodd" clip-rule="evenodd" d="M105.794 220.132C102.883 216.267 97.3405 218.205 93.2056 218.877C90.5399 219.309 90.0759 219.788 86.9047 219.788C85.8722 219.788 86.0627 219.834 86.9348 221.067C90.8802 226.669 105.358 224.959 105.227 223.901L105.794 220.132Z" fill="#F0882E"/>
<path fill-rule="evenodd" clip-rule="evenodd" d="M74.9143 22.3131C73.0445 13.7009 76.4996 4.53743 85.0598 1.49996C100.077 -3.82715 106.212 5.79522 106.212 18.3822C106.212 18.9843 111.999 13.1643 114.936 11.3238C120.974 7.54582 131.894 6.59887 136.832 13.9218C143.83 24.2992 134.213 31.7145 146.154 26.924C150.671 25.1126 160.339 25.387 164.136 30.2576C172.855 41.4363 160.914 53.2973 161.674 53.5328C164.73 54.4749 171.115 58.5224 171.595 63.427C172.11 68.64 166.478 74.7101 161.363 74.9481C161.14 74.9578 179.689 85.5586 164.798 104.026C159.723 110.322 149.609 105.772 154.157 110.572C177.302 135.008 143.333 152.06 130.07 138.468C129.038 142.661 117.649 147.631 113.435 146.832C104.609 145.16 104.048 143.491 98.5168 139.099C84.1903 154.656 78.6015 137.633 77.6518 139.349C75.8773 142.552 46.8992 151.281 47.646 127.454C39.2384 129.088 25.3015 127.721 19.7153 120.913C15.985 116.365 17.9973 107.508 20.433 102.438C25.1026 92.7237 31.8637 99.2575 21.5664 94.1684C9.73789 88.3265 9.40886 62.8273 29.674 62.8273C6.20479 42.4925 30.5312 23.2115 43.6977 31.9354C44.6039 32.5351 42.0683 28.5289 42.0683 25.0592C42.0683 9.69222 71.27 5.53055 74.9143 22.3131" fill="#F0882E"/>
<path fill-rule="evenodd" clip-rule="evenodd" d="M57.9641 110.332C62.0753 111.961 52.4619 126.687 43.3981 165.72C39.1604 183.971 26.8066 192.758 16.6594 191.962C10.3795 191.469 2.45001 189.575 0.501934 184.428C-2.78808 175.714 10.9839 166.086 15.9871 172.161C31.5621 159.315 41.7102 103.9 57.9641 110.332" fill="#CA9862"/>
<path fill-rule="evenodd" clip-rule="evenodd" d="M49.3988 126.401C38.0975 138.269 17.5823 183.838 34.4435 189.925C42.4869 192.832 45.2678 200.764 59.6556 202.811C81.3285 205.892 85.2399 204.28 106.058 203.267C130.183 202.097 131.607 202.092 147.692 188.857C155.963 182.059 150.666 162.564 145.41 150.431C130.353 115.676 71.8978 86.5518 49.3988 126.401" fill="#8E6334"/>
<path fill-rule="evenodd" clip-rule="evenodd" d="M70.148 141.311C127.772 113.005 170.973 205.21 112.61 210.763C86.3933 213.254 45.6461 216.391 44.0157 176.785C43.3226 159.874 56.3675 148.083 70.148 141.311Z" fill="#FBCF9E"/>
<path fill-rule="evenodd" clip-rule="evenodd" d="M159.603 159.766C134.766 146.22 112.202 187.604 131.063 205.363C152.759 225.794 179.798 170.782 159.603 159.766Z" fill="#BC8039"/>
<path fill-rule="evenodd" clip-rule="evenodd" d="M151.026 174.745C134.771 166.179 121.776 191.688 133.689 202.441C147.125 214.567 163.383 181.267 151.026 174.745Z" fill="#F4AFB3"/>
<path fill-rule="evenodd" clip-rule="evenodd" d="M162.587 172.198C158.075 169.986 154.42 176.364 157.343 178.945C162.176 183.209 167.386 174.546 162.587 172.198Z" fill="#F4AFB3"/>
<path fill-rule="evenodd" clip-rule="evenodd" d="M155.446 164.431C150.932 162.221 147.279 168.595 150.2 171.178C155.033 175.449 160.242 166.781 155.446 164.431Z" fill="#F4AFB3"/>
<path fill-rule="evenodd" clip-rule="evenodd" d="M141.129 161.366C145.992 162.627 144.671 169.857 140.781 169.923C134.348 170.027 135.963 160.031 141.129 161.366Z" fill="#F4AFB3"/>
<path fill-rule="evenodd" clip-rule="evenodd" d="M97.3123 164.113C94.6135 162.282 91.6904 166.038 93.3319 167.966C96.0496 171.156 100.184 166.065 97.3123 164.113Z" fill="#31302F"/>
<path fill-rule="evenodd" clip-rule="evenodd" d="M27.834 175.376C51.1581 155.843 83.6958 190.299 67.1555 211.964C49.0507 235.674 10.1817 190.158 27.834 175.376" fill="#BC8039"/>
<path fill-rule="evenodd" clip-rule="evenodd" d="M39.9831 187.604C54.2739 172.776 73.1847 194.225 63.8646 209.83C54.5698 225.394 30.2697 197.678 39.9831 187.604Z" fill="#F4AFB3"/>
<path fill-rule="evenodd" clip-rule="evenodd" d="M28.162 188.157C31.9488 184.843 37.122 190.049 34.9634 193.307C31.3953 198.69 24.1317 191.678 28.162 188.157Z" fill="#F4AFB3"/>
<path fill-rule="evenodd" clip-rule="evenodd" d="M33.0567 178.79C36.8437 175.485 42.0176 180.684 39.8564 183.942C36.2883 189.325 29.0265 182.313 33.0567 178.79Z" fill="#F4AFB3"/>
<path fill-rule="evenodd" clip-rule="evenodd" d="M45.4378 172.691C41.0663 175.175 44.2081 181.815 47.9809 180.861C54.2177 179.285 50.0827 170.052 45.4378 172.691Z" fill="#F4AFB3"/>
<path fill-rule="evenodd" clip-rule="evenodd" d="M136.483 59.7411C138.68 50.1406 144.247 45.0806 153.496 50.1261C162.292 54.919 155.103 74.0398 140.148 67.4015C139.526 67.1272 136.171 61.1153 136.483 59.7411Z" fill="#FBCF9E"/>
<path fill-rule="evenodd" clip-rule="evenodd" d="M60.4942 44.6169C48.8798 7.56027 23.2115 61.0839 56.2256 51.9521C56.8827 51.7724 60.9176 45.9596 60.4942 44.6169Z" fill="#FBCF9E"/>
<path fill-rule="evenodd" clip-rule="evenodd" d="M84.5178 134.172C109.068 138.829 129.471 137.623 141.157 121.741C161.72 93.782 143.368 37.9057 107.046 29.8349C47.6771 16.6385 -11.6981 115.923 84.5178 134.172" fill="#FBCF9E"/>
<path fill-rule="evenodd" clip-rule="evenodd" d="M82.7611 118.449C82.68 118.837 82.6338 119.129 82.6254 119.342C81.4363 119.051 79.3023 118.451 76.6187 117.453C76.4094 119.995 80.7036 121.098 84.1718 121.304C86.3077 121.43 90.6755 120.508 90.928 118.458C90.9348 118.424 87.4297 119.274 84.9488 119.51C84.9706 117.817 84.9573 112.624 85.1432 111.806C85.2694 111.247 86.5906 105.706 86.1493 105.672C83.5994 105.471 83.4061 115.37 82.7611 118.449" fill="#31302F"/>
<path fill-rule="evenodd" clip-rule="evenodd" d="M89.3181 89.3074C99.2079 91.3033 107.765 102.412 85.734 111.179C78.9607 113.872 61.0255 83.5918 89.3181 89.3074Z" fill="#CA9862"/>
<path fill-rule="evenodd" clip-rule="evenodd" d="M52.6159 88.7756C55.7569 91.4537 59.6024 86.6098 57.3224 84.5824C53.194 80.9136 50.0795 86.6074 52.6159 88.7756Z" fill="#31302F"/>
<path fill-rule="evenodd" clip-rule="evenodd" d="M122.601 100.585C125.186 103.013 128.41 98.5605 126.528 96.7225C123.129 93.396 120.507 98.6163 122.601 100.585Z" fill="#31302F"/>
<path fill-rule="evenodd" clip-rule="evenodd" d="M70.8073 43.6043C71.7473 49.7448 78.4717 79.9228 80.4792 85.7331C87.7967 88.2801 85.5372 81.7147 85.5372 75.3484C85.5372 62.861 85.7711 54.9821 86.764 42.8734C87.4674 34.2564 86.5293 35.8929 78.3452 39.2727C76.7621 39.9259 70.7668 43.3663 70.8073 43.6043" fill="#FDE3C4"/>
<path fill-rule="evenodd" clip-rule="evenodd" d="M125.312 46.7631C124.12 49.4971 103.321 85.6481 100.119 90.4289C92.3936 91.0068 96.254 85.2426 97.8731 79.0852C101.055 67.0203 104.794 53.7462 106.919 41.7905C109.418 27.7249 125.487 46.3577 125.312 46.7631" fill="#FDE3C4"/>
<path fill-rule="evenodd" clip-rule="evenodd" d="M90.2233 34.7689C89.367 40.9167 87.9271 79.3282 88.1834 85.4663C94.4627 90.0285 94.1769 83.0843 95.997 76.9875C99.5707 65.0294 100.549 50.7478 104.961 39.4429C110.155 26.1397 90.2817 34.327 90.2233 34.7689Z" fill="#FDE3C4"/>
</svg>
