<svg width="172" height="225" viewBox="0 0 172 225" fill="none" xmlns="http://www.w3.org/2000/svg">
<path fill-rule="evenodd" clip-rule="evenodd" d="M61.5304 24.7109C47.4712 -0.151099 27.7316 -9.58603 6.04126 12.1193C-14.5778 32.7533 21.3013 79.9035 57.6213 49.0422C59.1311 47.7591 63.5409 28.2562 61.5304 24.7109" fill="#90673E"/>
<path fill-rule="evenodd" clip-rule="evenodd" d="M119.989 50.8358C135.553 32.2024 153.501 27.3316 168.312 48.7978C182.401 69.2076 145.187 103.148 119.54 71.7788C118.474 70.4758 117.769 53.4967 119.989 50.8358" fill="#90673E"/>
<path fill-rule="evenodd" clip-rule="evenodd" d="M128.147 53.7955C138.511 41.3857 150.47 38.1443 160.336 52.4401C169.719 66.0309 144.931 88.6407 127.845 67.745C127.138 66.8805 126.667 55.5744 128.147 53.7955" fill="#F5B0B4"/>
<path fill-rule="evenodd" clip-rule="evenodd" d="M51.8434 26.9133C42.4756 10.3577 29.3308 4.0718 14.883 18.5321C1.14779 32.2723 25.0456 63.6843 49.2399 43.1175C50.2464 42.2704 53.1838 29.2776 51.8434 26.9133Z" fill="#F5B0B4"/>
<path fill-rule="evenodd" clip-rule="evenodd" d="M18.3413 186.312C1.47677 194.145 7.90465 207.108 26.2441 214.348C37.6025 218.83 50.2191 216.003 57.5663 216.038C72.3579 216.102 88.7191 213.815 89.1227 219.852C89.3694 223.402 72.2259 224.122 70.7509 224.237C38.7361 226.748 12.5562 223.562 3.16099 207.141C-0.648402 200.474 -0.000668875 189.718 8.91366 183.325C14.644 179.219 17.3895 177.455 17.9326 185.764L18.3413 186.312" fill="#90673E"/>
<path fill-rule="evenodd" clip-rule="evenodd" d="M108.379 100.749C104.084 102.439 115.806 111.724 130.383 147.469C137.736 165.492 146.02 181.068 156.621 180.241C163.185 179.73 168.412 177.717 168.412 177.717C171.851 168.663 157.463 158.663 152.233 164.974C135.962 151.632 125.361 94.0649 108.379 100.749" fill="#CA9965"/>
<path fill-rule="evenodd" clip-rule="evenodd" d="M132.954 183.424C124.548 186.446 121.643 194.683 106.613 196.808C83.9679 200.005 79.8795 198.333 58.1318 197.284C32.9285 196.068 31.4361 196.066 14.6289 182.316C5.9936 175.255 11.5271 155.01 17.0157 142.401C43.1035 82.5365 90.767 80.4886 112.881 109.222C134.763 137.634 152.744 176.324 132.954 183.424Z" fill="#90673E"/>
<path fill-rule="evenodd" clip-rule="evenodd" d="M95.6477 132.931C35.4473 103.527 -9.68744 199.303 51.2853 205.07C78.6761 207.659 121.25 210.915 122.949 169.774C123.676 152.21 110.048 139.962 95.6477 132.931Z" fill="#FBD0A1"/>
<path fill-rule="evenodd" clip-rule="evenodd" d="M67.2675 156.614C70.0903 154.714 73.1423 158.618 71.4257 160.618C68.588 163.932 64.2703 158.64 67.2675 156.614Z" fill="#3B3A39"/>
<path fill-rule="evenodd" clip-rule="evenodd" d="M138.012 167.562C117.124 150.172 87.9791 180.856 102.798 200.15C119.01 221.262 153.83 180.727 138.012 167.562Z" fill="#BD8342"/>
<path fill-rule="evenodd" clip-rule="evenodd" d="M127.137 178.452C114.336 165.249 97.3943 184.349 105.741 198.246C114.064 212.103 135.835 187.426 127.137 178.452Z" fill="#F5B0B4"/>
<path fill-rule="evenodd" clip-rule="evenodd" d="M137.728 178.947C134.33 175.995 129.7 180.629 131.634 183.532C134.828 188.323 141.333 182.082 137.728 178.947Z" fill="#F5B0B4"/>
<path fill-rule="evenodd" clip-rule="evenodd" d="M133.343 170.609C129.949 167.659 125.315 172.291 127.249 175.188C130.443 179.987 136.95 173.743 133.343 170.609Z" fill="#F5B0B4"/>
<path fill-rule="evenodd" clip-rule="evenodd" d="M122.251 165.175C126.168 167.385 123.353 173.299 119.972 172.45C114.383 171.047 118.091 162.825 122.251 165.175Z" fill="#F5B0B4"/>
<path fill-rule="evenodd" clip-rule="evenodd" d="M63.9697 126.645C38.9059 119.348 20.4644 108.58 17.0512 88.3471C11.0369 52.7221 54.4126 9.65266 92.0432 19.3543C153.554 35.2122 162.174 155.252 63.9697 126.645Z" fill="#CA9965"/>
<path fill-rule="evenodd" clip-rule="evenodd" d="M89.559 49.4132C93.1765 45.0083 100.955 40.4315 106.742 42.9653C124.165 50.6015 132.01 71.7588 132.055 87.0462C132.09 99.3339 123.408 112.464 112.677 119.188C104.196 124.5 87.4512 127.913 71.4363 124.739C53.1293 121.114 35.642 109.987 30.4125 102.309C10.055 72.4265 31.8724 30.5007 73.6861 35.2244C87.7078 36.809 89.3073 49.7196 89.559 49.4132" fill="#FBD0A1"/>
<path fill-rule="evenodd" clip-rule="evenodd" d="M72.991 112.917C72.8864 113.313 72.7942 113.602 72.702 113.809C73.9428 114.096 76.2174 114.554 79.1847 114.898C78.1857 117.349 73.6687 116.335 70.3377 114.893C68.2897 113.996 64.6572 111.073 65.3797 109.06C65.3947 109.026 68.2523 111.47 70.4573 112.865C71.2346 111.285 73.6887 106.482 73.9004 105.635C74.0449 105.054 75.4202 99.299 75.8487 99.4784C78.3128 100.495 73.8381 109.753 72.991 112.917" fill="#3B3A39"/>
<path fill-rule="evenodd" clip-rule="evenodd" d="M77.6024 91.2192C70.9951 89.3806 62.4072 93.4416 73.0805 105.508C76.3667 109.22 96.5074 96.4861 77.6024 91.2192Z" fill="#90673E"/>
<path fill-rule="evenodd" clip-rule="evenodd" d="M115.029 99.683C110.841 100.685 109.543 94.3812 112.622 93.579C118.186 92.1365 118.415 98.8783 115.029 99.683Z" fill="#3B3A39"/>
<path fill-rule="evenodd" clip-rule="evenodd" d="M44.2817 77.5239C40.7265 78.5504 39.8196 72.9048 42.4406 72.0901C47.1668 70.6201 47.1593 76.6943 44.2817 77.5239Z" fill="#3B3A39"/>
<path fill-rule="evenodd" clip-rule="evenodd" d="M30.7168 119.372C34.1799 120.733 21.3814 135.589 27.4157 147.077C35.6498 162.758 61.5757 154.07 59.8815 165.357C57.268 182.754 23.7956 167.803 18.3842 159.734C6.74676 142.376 26.6857 117.783 30.7168 119.372Z" fill="#CA9965"/>
<path fill-rule="evenodd" clip-rule="evenodd" d="M9.13573 161.839C30.2307 150.396 49.3922 185.34 33.3748 200.334C14.9532 217.587 -8.01278 171.137 9.13573 161.839Z" fill="#BD8342"/>
<path fill-rule="evenodd" clip-rule="evenodd" d="M16.423 174.488C30.228 167.25 41.2675 188.793 31.1448 197.87C19.7341 208.109 5.92415 179.989 16.423 174.488Z" fill="#F5B0B4"/>
<path fill-rule="evenodd" clip-rule="evenodd" d="M6.60431 172.338C10.4361 170.469 13.538 175.85 11.0565 178.03C6.94815 181.636 2.52833 174.321 6.60431 172.338Z" fill="#F5B0B4"/>
<path fill-rule="evenodd" clip-rule="evenodd" d="M12.6708 165.776C16.5026 163.912 19.6069 169.289 17.1204 171.474C13.0146 175.079 8.5948 167.759 12.6708 165.776Z" fill="#F5B0B4"/>
<path fill-rule="evenodd" clip-rule="evenodd" d="M24.8267 163.192C20.6959 164.251 21.8195 170.365 25.1256 170.414C30.5868 170.499 29.2141 162.061 24.8267 163.192Z" fill="#F5B0B4"/>
<path fill-rule="evenodd" clip-rule="evenodd" d="M113.875 114.532C103.219 118.341 96.2179 107.013 104.024 104.088C118.133 98.8033 122.495 111.452 113.875 114.532Z" fill="#F5B0B4"/>
<path fill-rule="evenodd" clip-rule="evenodd" d="M49.6207 97.779C38.9598 101.586 31.9614 90.2599 39.7646 87.335C53.8785 82.0481 58.236 94.6971 49.6207 97.779Z" fill="#F5B0B4"/>
</svg>
