<svg width="158" height="225" viewBox="0 0 158 225" fill="none" xmlns="http://www.w3.org/2000/svg">
<path fill-rule="evenodd" clip-rule="evenodd" d="M36.3803 110.522C29.8812 103.932 19.5813 116.374 25.9655 123.249C26.8491 124.201 16.2832 123.565 14.4256 131.518C12.1961 141.061 20.3207 145.747 19.863 145.797C16.574 146.151 12.2142 148.076 10.1875 151.683C8.5667 154.557 8.93645 162.456 12.5952 164.801C3.11584 164.007 -1.28233 183.299 16.2291 185.396C4.80203 200.991 23.8464 220.737 42.6788 203.09C47.8863 232.531 74.2819 223.313 82.3591 210.615C91.6896 217.858 110.094 224.035 113.556 208.471C127.269 220.214 138.178 203.622 136.275 196.451C142.159 198.331 158.539 194.346 147.301 175.256C149.156 172.472 169.984 165.067 146.408 149.487C156.697 139.744 150.162 124.591 138.419 124.189C146.532 112.476 133.904 100.323 121.627 109.805C118.991 99.8069 101.762 96.6643 92.5372 111.513C89.9087 115.74 78.281 97.8546 62.3476 113.786C60.9274 109.135 46.0107 90.9204 36.3803 110.522" fill="#FDE2C4"/>
<path fill-rule="evenodd" clip-rule="evenodd" d="M123.951 64.2902C122.112 40.2007 121.625 23.7714 86.6649 19.3102C19.0629 10.6875 7.92441 79.7119 39.2457 109.086C67.8956 135.957 128.597 125.01 123.951 64.2902" fill="#E7D29A"/>
<path fill-rule="evenodd" clip-rule="evenodd" d="M75.5753 108.391C77.2592 108.36 80.6226 107.377 80.697 105.767C80.6993 105.74 78.0054 106.615 76.0757 106.944C75.99 105.63 75.6654 101.583 75.7624 100.934C75.8278 100.49 76.5288 96.092 76.1816 96.092C74.1731 96.092 74.6149 103.815 74.2993 106.259C74.2565 106.563 74.2407 106.793 74.2452 106.958C73.2962 106.804 71.5874 106.466 69.4278 105.851C69.4142 107.841 72.843 108.441 75.5753 108.391" fill="#3B3A39"/>
<path fill-rule="evenodd" clip-rule="evenodd" d="M71.0359 97.9989C67.8078 93.0056 63.8267 86.6237 71.1937 82.2278C80.9526 76.405 90.9797 87.4375 77.7538 99.8339C75.1365 102.289 72.4719 100.219 71.0359 97.9989" fill="#D79EA3"/>
<path fill-rule="evenodd" clip-rule="evenodd" d="M116.947 84.3268C113.802 86.6195 110.522 81.8087 112.815 80.0662C116.963 76.9237 119.495 82.4738 116.947 84.3268Z" fill="#3B3A39"/>
<path fill-rule="evenodd" clip-rule="evenodd" d="M38.3505 86.7996C35.7423 88.8938 33.0213 84.4934 34.9217 82.9064C38.3595 80.0344 40.4605 85.1134 38.3505 86.7996Z" fill="#3B3A39"/>
<path fill-rule="evenodd" clip-rule="evenodd" d="M114.537 90.5981C119.219 97.8637 106.2 102.604 102.616 97.2821C96.1393 87.663 110.752 84.7234 114.537 90.5981Z" fill="#F9D4D5"/>
<path fill-rule="evenodd" clip-rule="evenodd" d="M52.719 91.9125C57.399 99.1781 44.3848 103.917 40.8005 98.5965C34.3216 88.9752 48.934 86.0333 52.719 91.9125Z" fill="#F9D4D5"/>
<path fill-rule="evenodd" clip-rule="evenodd" d="M26.8556 51.4794C25.5729 48.4857 13.208 61.7207 11.4632 72.3227C9.87168 81.9914 9.35545 93.849 0.0316619 99.2796C-0.930925 105.112 20.3474 92.679 23.9859 79.7912C25.7172 73.6595 29.6194 57.9222 26.8556 51.4794Z" fill="#E7D29A"/>
<path fill-rule="evenodd" clip-rule="evenodd" d="M24.7052 55.1763C24.6624 55.0771 7.42374 75.1652 15.0726 87.7217C16.2336 86.3984 20.51 81.5584 23.0348 73.9186C25.7783 65.6115 25.2012 56.2944 24.7052 55.1763Z" fill="#D79EA3"/>
<path fill-rule="evenodd" clip-rule="evenodd" d="M120.394 45.4467C117.31 44.3962 118.883 62.4463 125.603 70.8369C131.719 78.4812 140.193 86.7951 137.993 97.361C141.683 101.971 146.674 77.8432 139.524 66.5199C136.124 61.1299 127.032 47.7055 120.394 45.4467Z" fill="#E7D29A"/>
<path fill-rule="evenodd" clip-rule="evenodd" d="M121.706 49.5224C121.6 49.4885 125.011 75.7377 139.463 78.4451C139.253 76.7002 138.516 70.2823 134.524 63.2984C130.182 55.7014 122.867 49.9033 121.706 49.5224Z" fill="#D79EA3"/>
<path fill-rule="evenodd" clip-rule="evenodd" d="M22.4419 30.9446C16.5289 35.5096 17.3675 46.9614 28.5939 46.3302C32.3586 46.1183 32.0295 38.9925 32.2752 45.9402C32.3812 48.8731 36.9168 51.9186 40.8122 50.0318C40.7018 53.6432 43.1612 57.1351 48.9051 56.8127C50.42 56.7293 51.1302 55.2911 51.4909 54.4976C51.6194 54.5674 51.7524 54.6351 51.8809 54.6937C51.9012 55.0905 51.9237 55.6721 51.9507 56.4859C52.0747 59.9575 59.6762 63.614 62.5437 55.3114C67.3183 70.5888 76.8788 63.0166 77.5596 55.9629C79.602 59.9575 90.1544 58.6545 90.1544 52.1554C89.8771 55.4895 100.874 56.0643 100.556 47.6941C104.386 53.0841 113.006 53.5823 113.151 43.8235C113.178 41.9637 114.571 46.1499 117.513 47.8293C125.626 52.4574 132.513 48.2419 127.943 39.547C136.674 40.336 134.927 26.3684 125.615 29.6777C125.362 28.404 124.853 26.9996 124.052 25.4802C136.593 26.6073 131.246 2.56069 113.928 18.3115C117.177 8.57292 97.9092 0.414617 93.4637 11.2849C76.5181 -3.71301 70.8418 16.3052 70.5645 19.0554C66.9418 9.1072 51.4526 5.32671 49.692 24.1028C44.2681 7.28344 32.3338 14.5784 31.8244 23.6948C28.7675 13.5256 13.5667 23.8706 22.4419 30.9446" fill="#FDE2C4"/>
<path fill-rule="evenodd" clip-rule="evenodd" d="M46.4976 164.032C47.4872 176.927 56.164 216.886 63.1095 224.799C68.8535 224.414 72.3274 224.725 74.5772 222.791C74.5772 219.765 67.0748 166.32 65.7583 165.933C63.7159 165.335 46.475 163.714 46.4976 164.032" fill="#F1DCA8"/>
<path fill-rule="evenodd" clip-rule="evenodd" d="M59.2752 217.818C61.3604 217.876 72.2938 216.979 73.7433 215.415C74.0612 215.484 74.4083 220.87 74.5594 222.419C74.7104 223.992 64.1625 225.899 62.5687 224.531C62.0548 224.091 59.0926 217.811 59.2752 217.818" fill="#CA9965"/>
<path fill-rule="evenodd" clip-rule="evenodd" d="M115.008 161.582C114.021 174.479 105.342 214.436 98.3938 222.349C92.652 221.961 89.1759 222.27 86.9307 220.342C86.9307 217.315 94.4307 163.87 95.745 163.487C97.7941 162.887 115.031 161.264 115.008 161.582Z" fill="#F1DCA8"/>
<path fill-rule="evenodd" clip-rule="evenodd" d="M102.235 215.369C100.145 215.428 89.2118 214.529 87.7645 212.969C87.4467 213.032 87.0972 218.422 86.9484 219.968C86.7951 221.542 97.3476 223.451 98.9368 222.083C99.4531 221.643 102.413 215.36 102.235 215.369Z" fill="#CA9965"/>
<path fill-rule="evenodd" clip-rule="evenodd" d="M60.2172 20.0566C59.5409 19.1391 58.4295 18.3095 57.0341 17.5972C56.6261 21.9006 51.4096 24.1775 51.4953 21.6887C51.5449 20.3677 54.7798 17.8091 56.1188 17.2861C56.1707 17.2613 56.227 17.25 56.2902 17.241C54.8451 16.594 53.1522 16.062 51.3352 15.6765C51.8492 20.0138 47.2482 23.4335 46.7568 20.9493C46.4953 19.6238 49.1192 16.3235 50.3343 15.4826C48.4249 15.1445 46.4073 14.9686 44.4235 14.9934C45.7017 18.8415 42.2211 22.8452 41.2698 20.6833C40.7761 19.5539 42.4037 16.1454 43.364 15.0273C43.2626 15.0341 43.1611 15.0385 43.0619 15.043C41.5966 15.131 40.1516 15.3834 38.772 15.7306C40.5551 18.9633 37.8928 23.0593 36.7972 21.2491C36.2224 20.2978 37.3248 16.9975 38.0259 16.0124C38.0529 15.9741 38.0912 15.9335 38.1295 15.8997C36.7251 16.2874 35.3973 16.7699 34.2003 17.2793C35.7986 19.7117 34.0244 23.1067 33.019 21.7654C32.496 21.0733 33.0641 18.4853 33.5375 17.5656C31.7769 18.3478 30.3364 19.1549 29.4053 19.7162C29.4256 19.8627 29.3806 20.0927 29.2949 20.2166C28.7516 21.0169 26.5807 22.7685 25.7061 22.5995C24.0356 22.2839 26.3801 19.1279 29.3129 19.5787C29.863 19.1594 30.4266 18.7649 31.0059 18.4087C29.8089 18.4674 27.7642 18.2306 27.3201 17.6242C26.3305 16.2649 30.1245 15.5615 31.973 17.8271C33.1633 17.1553 34.4009 16.5872 35.6566 16.1229C34.4686 16.0462 32.4081 15.5255 32.0407 14.8515C31.2336 13.3591 35.1561 13.1787 36.6642 15.7351C36.671 15.7464 36.6732 15.7554 36.6755 15.7689C37.7124 15.4308 38.7562 15.1558 39.8 14.9461C38.6367 14.6057 36.9122 13.7852 36.689 13.0976C36.166 11.4993 39.9758 12.0042 41.0421 14.7207C42.7306 14.4457 44.3987 14.3239 45.9903 14.3375C44.3875 13.3861 42.0137 11.3753 41.9619 10.2301C41.8356 7.64219 47.2865 9.93482 47.7869 14.4006C49.7504 14.5336 51.5584 14.8672 53.1003 15.3429L53.2085 15.3767C51.7184 14.1075 49.5769 11.5061 49.7392 10.2887C50.1089 7.54526 55.4561 11.08 54.985 15.9019C54.9827 15.929 54.9714 15.9515 54.9534 15.9741C56.6148 16.585 58.2334 17.3469 59.6784 18.3614C62.4805 20.3203 60.7853 20.8231 60.2172 20.0566" fill="#728442"/>
<path fill-rule="evenodd" clip-rule="evenodd" d="M88.741 21.15C89.4173 20.2347 90.5241 19.4029 91.9241 18.6883C92.3298 22.9895 97.5508 25.2663 97.4606 22.7821C97.4155 21.4611 94.1761 18.9002 92.8393 18.3749C92.7875 18.3569 92.7289 18.3434 92.6657 18.3344C94.1107 17.6851 95.8037 17.1509 97.6229 16.7676C97.109 21.1072 101.71 24.5247 102.199 22.0404C102.463 20.7171 99.8366 17.4123 98.6216 16.5737C100.533 16.2401 102.549 16.0665 104.535 16.0891C103.256 19.9349 106.737 23.9386 107.686 21.7789C108.184 20.6428 106.55 17.2365 105.594 16.1206C105.696 16.1229 105.795 16.1319 105.894 16.1364C107.359 16.2266 108.807 16.4723 110.188 16.8195C108.403 20.0567 111.063 24.1527 112.161 22.3403C112.736 21.3912 111.629 18.0954 110.928 17.1035C110.905 17.0652 110.867 17.0291 110.822 16.9908C112.231 17.3831 113.561 17.8654 114.756 18.3727C113.16 20.8028 114.934 24.2001 115.939 22.8565C116.46 22.1644 115.892 19.5765 115.421 18.6612C117.181 19.4435 118.62 20.2505 119.553 20.8096C119.533 20.9584 119.573 21.186 119.661 21.3078C120.209 22.1103 122.375 23.8619 123.252 23.6928C124.92 23.3772 122.576 20.2234 119.643 20.672H119.645C119.095 20.2527 118.527 19.8628 117.954 19.4976C119.152 19.5652 121.192 19.3217 121.634 18.7176C122.628 17.3537 118.836 16.6549 116.983 18.916C115.793 18.2487 114.555 17.6806 113.304 17.2185C114.487 17.1351 116.55 16.6166 116.915 15.9425C117.727 14.4524 113.802 14.2721 112.292 16.8308C112.287 16.8398 112.283 16.8465 112.283 16.8623C111.246 16.5241 110.2 16.2469 109.154 16.035C110.321 15.7013 112.044 14.8762 112.269 14.1932C112.79 12.5949 108.985 13.0976 107.914 15.8096C106.225 15.5368 104.559 15.424 102.968 15.4308C104.571 14.4817 106.944 12.4686 106.999 11.3212C107.123 8.73326 101.667 11.0281 101.171 15.4939C99.21 15.6269 97.3975 15.9583 95.8578 16.4385L95.7496 16.4723C97.2374 15.1964 99.3813 12.6017 99.2213 11.3843C98.847 8.63634 93.4998 12.1734 93.9687 16.9931C93.9732 17.0201 93.9845 17.0449 94.0025 17.0652C92.3433 17.6806 90.7225 18.4426 89.2753 19.457C86.4799 21.4137 88.1729 21.9164 88.741 21.15" fill="#728442"/>
<path fill-rule="evenodd" clip-rule="evenodd" d="M51.4526 12.7911C46.4774 10.8343 47.0004 -3.41961 57.1267 2.69857C59.9762 5.56378 59.2029 7.30187 59.5771 6.61206C61.455 3.14945 64.0248 -0.141843 67.8436 0.00468623C71.3896 0.135436 77.1449 5.80499 71.9826 12.1599C70.5105 13.9701 75.1994 11.3619 78.3442 15.9652C84.2707 24.6352 72.2914 22.6987 72.7625 23.8935C74.1422 27.3967 74.6449 30.2506 72.873 31.8309C71.4032 33.1429 64.4847 31.7858 63.4207 29.9824C61.3535 34.8246 47.6857 37.4329 51.1461 23.6365C46.4503 23.8575 42.9855 19.7118 44.7078 16.7745C46.3579 13.9701 51.0649 12.888 51.4526 12.7911" fill="#FBBF26"/>
<path fill-rule="evenodd" clip-rule="evenodd" d="M56.5223 14.6039C54.4484 15.3365 57.3497 18.8668 58.4566 16.9709C59.2681 15.5778 57.2866 14.3356 56.5223 14.6039Z" fill="#EE7A10"/>
<path fill-rule="evenodd" clip-rule="evenodd" d="M61.9578 13.8866C58.919 17.0607 65.1205 19.2157 64.4938 14.9754C64.3879 14.2653 62.2508 13.5733 61.9578 13.8866Z" fill="#EE7A10"/>
<path fill-rule="evenodd" clip-rule="evenodd" d="M59.622 18.5507C58.2694 17.1395 61.0332 16.1814 60.7514 18.0637C60.704 18.3793 59.755 18.6859 59.622 18.5507Z" fill="#EE7A10"/>
<path fill-rule="evenodd" clip-rule="evenodd" d="M62.4739 18.9631C61.2859 20.8094 65.7404 21.826 65.4563 19.6416C65.2444 18.0478 62.9135 18.2755 62.4739 18.9631Z" fill="#EE7A10"/>
<path fill-rule="evenodd" clip-rule="evenodd" d="M66.9348 15.3902C66.4772 19.7636 72.6991 17.658 69.604 14.6959C69.0877 14.2022 66.9754 14.9642 66.9348 15.3902Z" fill="#EE7A10"/>
<path fill-rule="evenodd" clip-rule="evenodd" d="M67.9476 20.5075C66.0157 20.219 67.6072 17.7753 68.545 19.4322C68.6961 19.7118 68.1347 20.5368 67.9476 20.5075Z" fill="#EE7A10"/>
<path fill-rule="evenodd" clip-rule="evenodd" d="M65.9881 23.3138C64.6401 21.9026 67.3971 20.9445 67.1175 22.8314C67.0702 23.1425 66.1211 23.4513 65.9881 23.3138Z" fill="#EE7A10"/>
<path fill-rule="evenodd" clip-rule="evenodd" d="M64.1983 11.0487C63.7429 15.4221 69.9648 13.3233 66.8651 10.3566C66.3489 9.86067 64.2389 10.6249 64.1983 11.0487Z" fill="#EE7A10"/>
<path fill-rule="evenodd" clip-rule="evenodd" d="M61.2004 22.3763C59.8456 20.9674 62.6071 20.0093 62.3276 21.8939C62.2802 22.205 61.3312 22.5138 61.2004 22.3763Z" fill="#EE7A10"/>
<path fill-rule="evenodd" clip-rule="evenodd" d="M57.8547 21.1271C56.5044 19.7114 59.2637 18.7579 58.9819 20.6425C58.9345 20.9581 57.9877 21.2646 57.8547 21.1271Z" fill="#EE7A10"/>
<path fill-rule="evenodd" clip-rule="evenodd" d="M59.2816 14.9237C57.929 13.5147 60.6883 12.5589 60.4065 14.4435C60.3592 14.7546 59.4101 15.0634 59.2816 14.9237Z" fill="#EE7A10"/>
<path fill-rule="evenodd" clip-rule="evenodd" d="M59.83 11.6797C58.4774 10.2663 61.2366 9.31041 60.9548 11.195C60.912 11.5084 59.9584 11.8195 59.83 11.6797Z" fill="#EE7A10"/>
<path fill-rule="evenodd" clip-rule="evenodd" d="M45.0883 23.5664C44.8313 28.5597 50.0365 33.6026 51.1502 32.1463C52.0812 30.938 49.8607 27.6196 48.0708 23.8459C46.9864 21.5556 47.4869 23.084 48.9409 24.2292C51.9234 26.5804 58.4699 27.9082 53.8756 24.2742C52.3832 23.0997 49.7795 22.1485 48.8823 21.4857C64.4257 23.8324 52.2998 19.7522 49.9959 19.1953C51.468 18.1764 54.633 13.0366 53.9297 11.6998C53.0888 10.106 49.8833 12.1664 47.3156 17.7007C48.3255 6.69972 45.3949 4.25831 44.3715 15.7237C39.3534 6.65689 38.0256 12.2679 39.6915 14.4365C40.0612 14.9144 42.3945 17.4122 42.4035 17.4415C38.5035 16.9275 34.7907 17.6444 34.8538 18.1471C34.9756 19.1029 42.3313 20.5276 42.2299 20.5953C38.6208 22.9781 38.4607 28.0592 39.1483 28.0502C41.6979 28.0209 44.9734 25.8455 45.0883 23.5664" fill="#52BBC9"/>
<path fill-rule="evenodd" clip-rule="evenodd" d="M47.8071 18.4763C47.8679 18.4943 50.3567 21.3956 47.0068 21.4858C45.0252 21.5399 43.3278 17.2387 47.8071 18.4763Z" fill="#FBBF26"/>
<path fill-rule="evenodd" clip-rule="evenodd" d="M76.8365 21.107C72.932 22.6422 73.3468 33.8212 81.2865 29.0218C83.5227 26.7765 82.9141 25.4105 83.2071 25.9537C84.6792 28.6702 86.6945 31.2468 89.6905 31.1341C92.4701 31.0327 96.9877 26.5827 92.9344 21.6029C91.7847 20.1827 95.4593 22.2251 97.9277 18.6182C102.576 11.817 93.1801 13.3386 93.5498 12.3986C94.6342 9.65061 95.0873 7.34674 93.6355 6.1745C89.8506 3.11993 87.0574 8.33409 86.2234 9.7498C85.3104 4.53334 73.8811 1.78538 76.593 12.6015C72.914 12.4302 70.1953 15.6809 71.5501 17.9757C72.8396 20.1804 76.5299 21.0326 76.8365 21.107Z" fill="#E95707"/>
<path fill-rule="evenodd" clip-rule="evenodd" d="M86.308 13.9024C86.432 13.9205 91.4005 17.2479 86.5222 21.3935C81.7476 25.4513 77.5207 12.4417 86.308 13.9024Z" fill="#FBBF26"/>
<path fill-rule="evenodd" clip-rule="evenodd" d="M95.2668 18.9022C92.9539 15.7935 94.1374 10.2997 95.4832 10.7596C96.6036 11.1383 96.6036 14.238 97.0702 17.4414C97.3543 19.3846 97.0206 18.1831 97.4647 16.8192C98.3732 14.0171 102.027 10.3471 100.628 14.6641C100.174 16.0685 98.9007 17.7976 98.6077 18.6136C107.623 10.4102 101.559 18.2597 100.31 19.61C101.701 19.637 105.95 21.587 106.074 22.7525C106.22 24.1434 103.261 24.193 99.2253 21.7268C104.611 28.3883 103.772 31.2197 98.1771 24.2697C98.8443 32.2747 95.5711 29.2291 95.7154 27.1123C95.7469 26.6479 96.1775 24.0307 96.173 24.0081C93.8759 26.019 91.173 27.1507 90.9994 26.8013C90.6635 26.1295 94.7956 22.0492 94.7032 22.0492C91.3488 22.0627 89.0584 18.8593 89.5048 18.5663C91.1639 17.4887 94.2118 17.482 95.2668 18.9022" fill="#52BBC9"/>
<path fill-rule="evenodd" clip-rule="evenodd" d="M99.2099 21.0167C99.2415 20.9784 99.5976 18.0366 97.3974 19.4207C96.1012 20.239 96.8542 23.7422 99.2099 21.0167Z" fill="#FBBF26"/>
</svg>
