<svg width="180" height="225" viewBox="0 0 180 225" fill="none" xmlns="http://www.w3.org/2000/svg">
<path fill-rule="evenodd" clip-rule="evenodd" d="M76.3842 200.835C76.9447 219.1 82.3008 208.468 73.2188 221.857C73.2105 221.874 75.5845 220.196 77.5073 221.542C78.1029 221.96 77.565 223.908 78.2925 224.701C79.4816 225.999 79.5084 222.659 82.3399 222.471C83.0942 222.42 83.9762 224.466 85.2189 224.65C85.6228 224.709 85.1302 222.409 86.0576 220.971C86.985 219.528 89.3405 218.939 89.3013 218.904C84.986 215.172 83.9309 215.603 83.0323 213.9C82.2513 212.421 81.6454 207.873 81.8618 200.594C81.9525 197.603 76.38 200.61 76.3842 200.835" fill="#E64112"/>
<path fill-rule="evenodd" clip-rule="evenodd" d="M112.226 200.604C111.666 218.869 106.314 208.237 115.392 221.629C115.402 221.643 113.026 219.966 111.103 221.313C110.507 221.732 111.047 223.677 110.32 224.473C109.131 225.771 109.1 222.43 106.27 222.241C105.518 222.191 104.638 224.236 103.392 224.419C102.986 224.479 103.48 222.179 102.555 220.743C101.625 219.3 99.2699 218.708 99.3111 218.673C103.624 214.941 104.68 215.374 105.578 213.674C106.359 212.192 106.967 207.644 106.747 200.363C106.658 197.375 112.232 200.384 112.226 200.604" fill="#E64112"/>
<path fill-rule="evenodd" clip-rule="evenodd" d="M12.6065 79.8013C18.6879 85.0543 34.5541 90.2764 50.8902 90.5052C53.5466 90.5402 55.931 102.946 58.847 133.457C82.7854 133.457 86.4825 134.551 94.0663 130.945C88.2754 101.032 82.2929 82.2558 82.7545 81.9158C96.1869 71.9641 98.2477 37.7422 87.5871 22.4757C36.6521 -41.3539 -27.5588 47.7804 12.6065 79.8013Z" fill="#FCE387"/>
<path fill-rule="evenodd" clip-rule="evenodd" d="M7.14738 64.1861C3.27717 70.216 14.0738 74.1296 17.0393 69.7132C22.3974 61.7255 10.2778 59.3081 7.14738 64.1861Z" fill="#F4AFB3"/>
<path fill-rule="evenodd" clip-rule="evenodd" d="M61.726 64.3432C57.8558 70.3731 68.6524 74.2887 71.6179 69.8703C76.9719 61.8846 64.8564 59.4653 61.726 64.3432Z" fill="#F4AFB3"/>
<path fill-rule="evenodd" clip-rule="evenodd" d="M8.38754 58.278C11.3469 60.4213 14.4175 55.8999 12.2639 54.2718C8.36488 51.331 5.997 56.5428 8.38754 58.278Z" fill="#31302F"/>
<path fill-rule="evenodd" clip-rule="evenodd" d="M70.8548 60.2995C73.3092 62.2594 75.8523 58.1254 74.0635 56.6375C70.8342 53.944 68.8661 58.7127 70.8548 60.2995Z" fill="#31302F"/>
<path fill-rule="evenodd" clip-rule="evenodd" d="M35.1577 59.6897C26.1396 64.5408 8.17961 68.7943 9.30276 71.7598C10.3661 74.612 25.6059 83.6116 43.6792 79.8115C51.2115 68.0958 41.1609 56.4604 35.1577 59.6897" fill="#EF7E00"/>
<path fill-rule="evenodd" clip-rule="evenodd" d="M53.1859 127.01C28.9363 151.897 34.2429 187.188 61.8764 199.44C106.46 219.205 143.501 197.09 159.911 168.591C175.153 142.116 171.712 109.423 162.306 117.549C144.931 132.562 113.38 120.535 92.6258 115.886C79.9662 113.048 61.9897 117.978 53.1859 127.01Z" fill="#FCE387"/>
<path fill-rule="evenodd" clip-rule="evenodd" d="M156.336 113.448C158.862 114.419 170.854 114.303 172.309 117.982C170.683 119.818 163.004 117.277 161.205 116.428C160.051 115.882 155.487 115.969 155.68 114.398C155.699 114.248 155.699 113.205 156.336 113.448Z" fill="#694926"/>
<path fill-rule="evenodd" clip-rule="evenodd" d="M153.541 111.061C151.344 111.575 150.901 116.071 155.06 114.684C156.451 114.219 156.228 110.429 153.541 111.061Z" fill="#694926"/>
<path fill-rule="evenodd" clip-rule="evenodd" d="M157.115 96.0486C163.31 93.114 174.533 97.8518 172.66 105.161C172.229 106.839 168.299 113.141 166.615 113.827C164.662 114.625 164.033 115.119 161.616 115.119C155.33 115.119 152.196 98.3711 157.115 96.0486" fill="#4CBAC9"/>
<path fill-rule="evenodd" clip-rule="evenodd" d="M165.185 114.888C166.329 111.581 172.837 104.716 176.317 105.269C183.831 106.466 174.704 115.437 168.301 115.589C166.178 115.639 165.098 115.142 165.185 114.888Z" fill="#92D0D8"/>
<path fill-rule="evenodd" clip-rule="evenodd" d="M159.079 128.315C162.683 126.984 160.375 130.658 158.304 135.134C133.756 188.237 91.7953 162.197 88.4177 136.9C84.735 109.252 126.372 140.367 159.079 128.315Z" fill="#FFF0B1"/>
</svg>
