<svg width="268" height="225" viewBox="0 0 268 225" fill="none" xmlns="http://www.w3.org/2000/svg">
<path fill-rule="evenodd" clip-rule="evenodd" d="M130.791 175.792C131.483 176.138 130.384 215.908 131.176 215.902C134.12 215.954 137.778 216.064 137.581 216.694C137.355 217.608 133.218 218.028 130.197 217.98C130.119 224.524 129.964 225.439 128.219 224.85C126.958 224.45 128.733 219.861 127.621 218.612C125.982 216.81 121.762 218.161 121.868 216.946C122.072 215.453 125.139 216.59 127.055 216.112C131.619 214.939 124.832 184.54 128.561 175.808C129.243 175.44 129.97 175.356 130.791 175.792" fill="#421700"/>
<path fill-rule="evenodd" clip-rule="evenodd" d="M101.452 174.758C100.715 174.977 92.7812 213.924 92.0088 213.711C89.1874 213.103 85.5031 212.412 85.5904 213.064C85.6486 214.005 89.5591 215.366 92.4516 215.979C91.0974 222.337 91.0845 223.27 92.8943 223.145C94.2 223.044 93.5568 218.164 94.8625 217.201C96.8597 215.798 100.689 218.084 100.796 216.868C101 215.381 97.7226 215.805 95.9354 214.852C91.8116 212.689 105.25 184.599 103.64 175.246C103.104 174.761 102.409 174.557 101.452 174.758" fill="#421700"/>
<path fill-rule="evenodd" clip-rule="evenodd" d="M205.155 172.968C226.016 156.737 256.502 216.354 267.218 195.684C274.073 182.489 220.952 143.39 209.663 134.024C197.77 124.145 155.588 106.502 142.05 70.5775C121.273 15.4396 93.2889 -9.38394 50.0861 3.21688C-10.2809 18.5971 -16.1563 109.194 42.9373 115.681C28.6753 168.259 81.1308 244.235 205.155 172.968" fill="#6B6A6A"/>
<path fill-rule="evenodd" clip-rule="evenodd" d="M95.0952 17.944C95.134 18.6453 93.3049 17.4108 91.6049 16.8387C90.1086 16.3443 89.2328 16.6255 89.6076 15.8466C90.8163 13.4712 95.1017 16.7192 95.0952 17.944ZM29.9614 38.6405C30.6077 38.967 28.6525 40.0658 27.4923 41.3068C26.3741 42.4185 26.2836 43.4559 25.6986 42.7708C24.0666 40.6151 28.8076 38.0555 29.9614 38.647V38.6405ZM20.7992 30.0859C21.4456 30.4059 19.5162 31.44 18.3301 32.7457C17.2119 33.8542 17.1214 34.8981 16.5397 34.2097C14.9076 32.0541 19.6454 29.4913 20.7992 30.0859ZM21.5328 36.8113C22.1113 37.1054 20.2498 38.1622 18.9926 39.4453C17.9455 40.5829 17.7872 41.5912 17.2733 40.9351C15.5734 38.7504 20.3791 36.2134 21.5328 36.8113V36.8113ZM41.5442 36.2361C42.0677 36.6723 39.8927 37.1442 38.377 38.1008C37.0067 38.8797 36.6771 39.749 36.341 39.0057C35.3165 36.4687 40.5811 35.3376 41.5442 36.2361ZM94.52 37.7389C94.4877 38.4208 92.6843 37.1216 90.9844 36.5495C89.5495 36.0777 88.5831 36.4009 88.9871 35.5541C90.1991 33.1788 94.5523 36.4526 94.52 37.7421V37.7389V37.7389ZM54.8237 40.2338C55.3505 40.6636 53.1722 41.1387 51.6597 42.0986C50.2862 42.8742 49.9533 43.7468 49.5558 42.9808C48.5992 40.4697 53.8671 39.3321 54.8237 40.2338ZM78.7261 38.3141H78.7294C78.2801 37.0666 73.1028 35.5542 72.7893 38.1945C72.6826 39.0736 73.4615 38.4499 74.9999 38.4272C76.7968 38.34 78.9491 38.9346 78.7261 38.3141V38.3141ZM66.3483 36.5786C65.9637 35.3635 60.7508 33.7508 60.4115 36.4591C60.2984 37.3381 61.074 36.7144 62.6188 36.6918C64.4189 36.6045 66.5649 37.2024 66.3483 36.5786V36.5786ZM90.4738 30.4446C90.4415 31.1233 88.706 29.8468 87.0093 29.278C85.5129 28.777 84.6113 29.1293 84.9861 28.3504C86.2239 25.9072 90.5093 29.1584 90.4738 30.4446V30.4446ZM53.7669 33.1561C54.1999 33.6312 52.0896 34.1289 50.5092 35.0629C49.2327 35.7998 48.806 36.7079 48.5022 35.9064C47.4487 33.4308 52.7812 32.3191 53.7669 33.1594V33.1561ZM60.9189 31.899C61.3519 32.374 59.1608 32.6843 57.5643 33.4567C56.1164 34.0514 55.6866 34.9627 55.4022 34.0901C54.6363 31.4918 60.0527 30.9553 60.9189 31.9022V31.899V31.899ZM48.8513 30.9747C49.3522 31.4659 47.174 31.941 45.655 32.8976C44.3138 33.6118 43.9551 34.5555 43.6481 33.7443C42.5945 31.272 47.8624 30.1344 48.8513 30.9747V30.9747ZM55.3795 28.9354V28.9386C54.4197 28.0402 49.1486 29.1681 50.115 31.6857C50.4834 32.5195 50.8389 31.5823 52.2124 30.7969C53.7281 29.8436 55.8999 29.3685 55.3795 28.9354ZM61.869 27.8107V27.814C61.0029 26.8671 55.6187 27.4972 56.3943 30.0956C56.7014 30.9003 57.0989 30.0536 58.5144 29.3685C60.1756 28.6284 62.3441 28.3731 61.869 27.8107ZM67.8059 32.151C67.4019 31.0005 62.2536 29.4202 61.9111 32.122C61.827 32.9364 62.6059 32.3094 64.1474 32.2868C65.9185 32.2706 68.0062 32.833 67.8059 32.151ZM69.2085 28.4668C68.8336 27.2484 63.6174 25.6422 63.3395 28.3731C63.2652 29.181 64.0376 28.5638 65.5792 28.5379C67.3534 28.5217 69.4379 29.0905 69.2085 28.4668ZM74.8835 32.7037C75.0128 33.3662 72.938 32.5712 71.196 32.5227C69.6318 32.387 68.8206 32.9202 68.9887 32.0605C69.5316 29.4331 74.5765 31.5079 74.8835 32.7037ZM76.6222 29.1519C76.3378 27.8883 71.3027 25.8102 70.7565 28.4442C70.582 29.2974 71.4029 28.7641 72.9606 28.9031C74.6799 29.0227 76.7547 29.8112 76.6222 29.1519V29.1519ZM82.0258 34.8948C82 35.5735 80.2354 34.3584 78.5613 33.7217C77.0617 33.2305 76.1601 33.573 76.535 32.7974C77.776 30.3574 82.0614 33.6021 82.0258 34.8948ZM84.2493 32.29C84.2784 30.9941 79.9284 27.7235 78.7197 30.1021C78.3448 30.8777 79.282 30.6256 80.7137 31.091C82.4136 31.663 84.217 32.9655 84.2493 32.29V32.29ZM46.5632 27.717C45.5742 26.8864 40.3096 28.0208 41.36 30.4931C41.6637 31.3011 42.0193 30.3639 43.3669 29.6464C44.9538 28.7189 47.0609 28.2244 46.5632 27.717V27.717ZM53.4243 25.8135C53.922 26.3079 51.7502 26.7862 50.2571 27.675C48.8836 28.4539 48.5281 29.3943 48.1565 28.5637C47.174 26.1108 52.4386 24.9797 53.4243 25.8135ZM60.5763 24.5595C61.0158 25.0281 58.8214 25.3449 57.2217 26.114C55.8353 26.7378 55.344 27.6233 55.1307 26.7701C54.3583 24.1749 59.7134 23.6126 60.5763 24.5595V24.5595ZM48.5055 23.632C49.0032 24.1297 46.8961 24.6274 45.3416 25.4935C44.0327 26.2982 43.6093 27.2064 43.3055 26.4016C42.2519 23.9228 47.5844 22.8208 48.5055 23.632ZM55.0305 21.5992C54.1418 20.7201 48.8093 21.8287 49.8338 24.3689C50.1634 25.1089 50.5642 24.2622 51.873 23.4575C53.4534 22.5267 55.5605 22.0258 55.0305 21.5992ZM61.5911 20.4972C60.7249 19.5502 55.344 20.1772 56.1196 22.7756C56.3556 23.5577 56.8242 22.7432 58.2365 22.0516C59.833 21.2825 62.0274 20.9625 61.5911 20.4972ZM67.5311 24.831V24.8375C67.0625 23.6514 61.911 22.0743 61.5911 24.7146C61.4877 25.5937 62.2633 24.97 63.8049 24.9473C65.5727 24.9279 67.7283 25.5258 67.5311 24.831V24.831ZM68.9628 21.0853C69.1632 21.7672 67.0044 21.179 65.2398 21.1984C63.695 21.2211 62.9226 21.8448 63.0228 20.9625C63.3395 18.3254 68.491 19.9025 68.9628 21.0853V21.0853ZM74.5377 25.361C74.6735 26.0268 72.6633 25.2576 70.8502 25.1768C69.2925 25.0411 68.4749 25.5743 68.6494 24.7244C69.2602 22.1163 74.2275 24.1685 74.5377 25.361ZM76.2829 21.8093C75.992 20.5489 70.9601 18.4708 70.4139 21.1047C70.2426 21.9547 71.0603 21.4214 72.6212 21.5572C74.4052 21.6994 76.438 22.4007 76.2829 21.8093V21.8093ZM81.7511 27.5748C81.7188 28.2535 79.9187 26.9543 78.2188 26.379C76.7838 25.9104 75.8207 26.2304 76.1956 25.4547C77.4334 23.0147 81.7834 26.2853 81.7511 27.5748ZM83.9035 24.9473C83.939 23.6514 79.6537 20.4099 78.4417 22.7853C77.999 23.5318 78.9394 23.2765 80.439 23.7774C82.1389 24.3494 83.9003 25.5581 83.9035 24.9473V24.9473ZM37.6854 29.8532C38.1863 30.3574 36.0792 30.8551 34.4988 31.7858C33.1253 32.5647 32.7924 33.4373 32.4887 32.6293C31.4351 30.157 36.6997 29.0259 37.6854 29.8532ZM37.5464 25.1994C38.0506 25.6971 35.8724 26.1722 34.3857 27.0577C33.0122 27.8366 32.6535 28.7803 32.2786 27.9497C31.2993 25.5032 36.5898 24.2977 37.5497 25.2027L37.5464 25.1994ZM29.399 28.4571C30.0454 28.7803 28.0902 29.8791 26.9008 31.1847C25.7859 32.2932 25.7245 33.2692 25.1395 32.5841C23.4816 30.4963 28.2194 27.9303 29.399 28.4603V28.4571ZM27.0657 21.5055C27.6409 21.8028 25.76 22.9242 24.4996 24.2073C23.4525 25.3449 23.3265 26.2918 22.8029 25.6357C21.1483 23.5415 25.8861 20.9787 27.0657 21.5055ZM32.2592 20.5747C31.0764 20.0447 26.345 22.6108 27.9964 24.6985C28.5135 25.3578 28.6428 24.4076 29.6899 23.2733C30.9471 21.9967 32.8345 20.8688 32.2592 20.5747ZM101.914 30.8195C101.911 31.4368 100.085 30.2022 98.382 29.6335C96.9471 29.1616 96.0066 29.4169 96.3815 28.6348C97.5967 26.2595 101.95 29.5365 101.911 30.8228L101.914 30.8195V30.8195ZM104.167 27.5392C104.199 26.2498 99.9139 23.0018 98.7052 25.3804C98.3303 26.1528 99.2029 25.8781 100.702 26.3758C102.396 26.9446 104.164 28.1533 104.167 27.5392V27.5392ZM109.286 32.4096C109.351 33.0527 107.518 31.8117 105.822 31.2397C104.325 30.7485 103.453 31.0296 103.821 30.2507C105.033 27.8721 109.318 31.1201 109.286 32.4128V32.4096V32.4096ZM101.594 23.4155C101.572 24.0909 99.8072 22.8855 98.1073 22.307C96.6078 21.8157 95.7319 22.0969 96.11 21.318C97.322 18.9426 101.604 22.1874 101.594 23.4155ZM103.915 20.1546H103.918C103.925 18.9329 99.5745 15.6624 98.3561 18.0345C97.9812 18.8102 98.954 18.4902 100.357 19.0299C102.06 19.6052 103.886 20.8333 103.915 20.1546ZM109.041 25.0281C109.008 25.7036 107.182 24.469 105.482 23.9002C104.073 23.3637 103.104 23.6869 103.479 22.9048C104.697 20.5327 109.047 23.8 109.041 25.0281ZM40.8235 20.2354C41.3471 20.6684 39.1753 21.1403 37.6628 22.0969C36.286 22.879 35.9564 23.7516 35.5556 22.9824C34.5926 20.4681 39.8604 19.3369 40.8235 20.2354ZM46.0655 20.7816C45.1024 19.8799 39.8378 21.0078 40.8655 23.548C41.1952 24.2913 41.528 23.422 42.8983 22.6399C44.4787 21.7091 46.5923 21.2114 46.0655 20.7816ZM52.9299 18.8716C53.3855 19.2788 51.2816 19.7765 49.7627 20.7395C48.3891 21.5119 48.0595 22.3878 47.662 21.6251C46.7054 19.1042 51.97 17.9699 52.9299 18.8748V18.8716ZM60.1077 17.5498C60.5375 18.0184 58.3496 18.3351 56.7531 19.1042C55.3666 19.7312 54.8754 20.6167 54.6589 19.7635C53.8606 17.233 59.2448 16.6061 60.1077 17.5498V17.5498ZM48.011 16.6901C48.5346 17.1199 46.4274 17.6176 44.8439 18.5484C43.5414 19.3531 43.1407 20.1998 42.8078 19.4662C41.7866 16.9195 47.1158 15.8143 48.011 16.6901ZM54.5651 14.5894C53.6085 13.6845 48.3374 14.8188 49.3619 17.359C49.6689 18.1638 50.0277 17.2266 51.398 16.4509C52.9557 15.5848 55.0919 15.0225 54.5651 14.5894ZM61.0999 13.552C60.2564 12.5405 54.8075 13.148 55.5799 15.7431C55.8643 16.619 56.3523 15.7335 57.7679 15.0419C59.3417 14.3438 61.5362 14.0239 61.0999 13.552ZM67.0367 17.8858C66.5907 16.6481 61.4392 15.0645 61.0999 17.7727C61.0158 18.5839 61.7688 18.028 63.333 17.9376C65.1073 17.9214 67.2565 18.5128 67.0367 17.8858V17.8858ZM68.3973 14.1143C68.6203 14.7413 66.539 14.1725 64.7421 14.2533C63.1973 14.2759 62.4217 14.8997 62.5283 14.0238C62.8709 11.3188 68.0192 12.896 68.4005 14.1176L68.3973 14.1143V14.1143ZM74.0465 18.4191L74.0432 18.4223C73.7621 17.1587 68.7204 15.0839 68.1807 17.7146C68.003 18.5678 68.8207 18.0345 70.3816 18.1702C72.1688 18.3157 74.2016 19.017 74.0465 18.4191V18.4191ZM75.811 14.7962C75.9403 15.4652 73.9334 14.6961 72.1494 14.5506C70.5626 14.4795 69.7482 15.016 69.9195 14.1596C70.485 11.4643 75.5234 13.5391 75.811 14.7995V14.7962ZM81.2534 20.6329C81.2534 21.2469 79.421 20.0124 77.7243 19.4404C76.2894 18.9685 75.3489 19.227 75.7238 18.4449C76.939 16.076 81.289 19.3434 81.2534 20.6329V20.6329ZM83.4349 17.9376V17.9408C83.4672 16.6481 79.1172 13.3742 77.9441 15.8433C77.5045 16.5964 78.4708 16.2699 79.9704 16.7676C81.6671 17.3429 83.4058 18.6195 83.4349 17.9376V17.9376ZM87.9756 23.7386C88.0111 24.4399 86.2078 23.1408 84.5078 22.5687C83.0115 22.0743 82.1325 22.3522 82.5106 21.5733C83.7225 19.2012 88.0725 22.4718 87.9756 23.7419V23.7386V23.7386ZM90.2896 20.481C90.3251 19.1883 85.9718 15.9177 84.8246 18.3157C84.3883 19.0687 85.3255 18.8134 86.8251 19.3111C88.4571 19.8605 90.2637 21.1564 90.2896 20.481V20.481ZM95.412 25.3513C95.4443 24.0553 91.0975 20.7848 89.947 23.186C89.5075 23.939 90.4479 23.6837 91.9475 24.1782C93.5763 24.7276 95.3829 26.0268 95.412 25.3513ZM40.4842 12.8927C41.0077 13.329 38.8973 13.8267 37.3137 14.7542C36.0113 15.5622 35.6106 16.4057 35.2809 15.6656C34.2565 13.1286 39.5857 12.0169 40.4842 12.8927ZM45.7229 13.4356C44.8277 12.563 39.4984 13.6716 40.5229 16.2085C40.8526 16.9486 41.2501 16.1083 42.5558 15.3004C44.1393 14.3632 46.2465 13.8687 45.7229 13.4356ZM52.6131 11.4642C53.1108 11.9619 51.0037 12.4661 49.4233 13.3936C48.0498 14.1725 47.717 15.0419 47.4099 14.2307C46.3628 11.7648 51.6274 10.6272 52.6131 11.4642ZM59.7684 10.2071C60.2693 10.7048 58.0781 11.0215 56.4073 11.7648C55.0208 12.3853 54.5296 13.2741 54.3163 12.4209C53.5439 9.82896 58.9022 9.26014 59.7684 10.2071V10.2071ZM47.759 9.30541C48.192 9.78048 46.0849 10.2782 44.5013 11.2121C43.2183 11.9458 42.7981 12.8572 42.4879 12.0524C41.4408 9.58011 46.77 8.46837 47.759 9.30541ZM54.284 7.27259C53.3338 6.37091 47.9981 7.47942 49.0194 10.0196C49.3296 10.8276 49.7497 9.91299 51.0586 9.10827C52.6196 8.24215 54.7493 7.67656 54.284 7.27259ZM60.7831 6.14792C61.1871 6.6844 59.0606 7.02372 57.4221 7.7024C56.013 8.39078 55.5411 9.20843 55.3052 8.42956C54.5328 5.82795 59.9105 5.201 60.7831 6.14792ZM66.6941 10.5561C66.3128 9.33126 61.0966 7.72503 60.8219 10.4559C60.7444 11.2703 61.4909 10.7145 63.0616 10.6175C64.8294 10.6046 66.9171 11.1702 66.6941 10.5561ZM68.1258 6.80399C68.3456 7.42127 66.1932 6.82985 64.4286 6.84601C62.858 6.93973 62.1082 7.49237 62.1858 6.68442C62.5283 3.97293 67.6831 5.55974 68.1258 6.80399ZM73.7007 11.0797C73.4195 9.81603 68.4457 7.76707 67.9028 10.3978C67.6604 11.2251 68.5492 10.7209 70.039 10.8308C71.8294 10.973 73.9269 11.7002 73.7007 11.0797V11.0797ZM75.4717 7.45359C75.6656 8.14519 73.594 7.35016 71.8036 7.20473C70.2459 7.07546 69.4024 7.67011 69.6415 6.84277C70.2135 4.14098 75.1841 6.19641 75.4717 7.45359V7.45359ZM80.9367 13.2256C80.9723 11.9361 76.5964 8.73013 75.3812 11.1055C75.0096 11.8811 75.9759 11.558 77.4431 12.1203C79.0816 12.6729 80.9076 13.9075 80.9367 13.2256V13.2256ZM83.0955 10.5949C83.1311 11.3027 81.3277 10.0002 79.6278 9.42822C78.1283 8.93375 77.2266 9.2763 77.6273 8.43603C78.8425 6.05742 83.1279 9.30864 83.0955 10.5981V10.5949V10.5949ZM87.6944 16.4186C87.6944 17.0294 85.8652 15.8013 84.1653 15.2293C82.7336 14.7542 81.7899 15.0095 82.1648 14.2274C83.3799 11.8553 87.7332 15.1323 87.6976 16.4251L87.6944 16.4186V16.4186ZM89.947 13.1416C89.9825 11.8424 85.6939 8.59438 84.4885 10.973C84.1136 11.7551 84.9861 11.4707 86.4825 11.9652C88.1824 12.5404 90.0116 13.7718 89.947 13.1416Z" fill="#525051"/>
<path fill-rule="evenodd" clip-rule="evenodd" d="M90.749 105.707C70.5922 149.637 191.843 192.119 233.097 184.608C224.287 180.665 143.912 -9.87558 90.749 105.707" fill="#838382"/>
<path fill-rule="evenodd" clip-rule="evenodd" d="M25.9833 88.1554C24.18 100.12 43.5223 98.6976 45.0445 89.8456C47.7883 73.8385 27.4409 78.4729 25.9833 88.1554Z" fill="#F4AFB3"/>
<path fill-rule="evenodd" clip-rule="evenodd" d="M35.9989 77.3545C41.1343 78.6795 42.204 70.5483 38.4228 69.485C31.5843 67.5686 31.8461 76.275 35.9989 77.3545Z" fill="#31302F"/>
<path fill-rule="evenodd" clip-rule="evenodd" d="M42.3818 116.76C43.5065 110.212 47.9599 129.128 49.5758 129.099C51.2305 129.066 47.4493 110.707 50.1155 110.884C51.1529 110.946 56.5856 121.769 58.0011 128.607C61.0907 124.619 55.0699 93.3 67.3184 128.788C69.1185 134.001 73.9404 103.461 75.9926 120.202C77.9091 135.769 88.7841 163.385 111.701 174.315C138.069 186.877 177.688 181.532 193.175 179.512C164.518 192.222 129.279 210.343 93.3022 199.507C60.7094 189.685 43.4224 169.202 40.9081 138.94C40.2229 130.698 41.2474 124.131 42.3818 116.76" fill="#F18D18"/>
<path fill-rule="evenodd" clip-rule="evenodd" d="M15.7163 93.0544C18.3793 99.5665 17.19 103.441 0 98.5549C0.210068 93.0996 8.10861 74.423 15.7163 93.0544Z" fill="#FBBF04"/>
</svg>
