<svg width="136" height="225" viewBox="0 0 136 225" fill="none" xmlns="http://www.w3.org/2000/svg">
<path fill-rule="evenodd" clip-rule="evenodd" d="M104.218 195.488C105.494 206.221 109.862 202.465 118.028 201.496C121.72 201.061 112.512 159.744 111.296 156.029C105.714 139.015 104.248 114.487 89.216 118.727C72.9865 123.305 102.386 180.05 104.218 195.488" fill="#EE7A10"/>
<path fill-rule="evenodd" clip-rule="evenodd" d="M28.4136 117.681C11.9209 150.003 -4.61277 208.211 45.3474 212.546C50.4194 212.986 107.508 215.574 107.639 210.911C107.813 204.793 109.365 198.629 109.365 189.888C109.366 145.886 101.29 115.821 87.3138 100.137C81.1822 93.2529 77.1369 101.715 59.4874 100.547C36.969 99.0532 39.262 96.4323 28.4136 117.681" fill="#EF8A39"/>
<path fill-rule="evenodd" clip-rule="evenodd" d="M134.056 -0.000238338C129.993 1.46008 103.08 26.8466 101.771 25.7911C94.4484 19.9037 52.0378 21.756 41.5527 22.0737C24.2604 9.33043 14.9323 0.82726 14.9323 0.878499C13.8063 31.9834 11.8508 56.4451 19.9261 74.8118C41.5999 124.112 94.2453 131.208 120.775 81.1091C130.518 62.7116 133.037 34.0842 134.056 -0.000238338" fill="#EE7A10"/>
<path fill-rule="evenodd" clip-rule="evenodd" d="M35.2059 77.0818C39.1608 79.9512 43.2641 73.9101 40.3836 71.735C35.1757 67.7973 32.0093 74.7683 35.2059 77.0818Z" fill="#3B3A39"/>
<path fill-rule="evenodd" clip-rule="evenodd" d="M33.8184 82.2953C30.8112 86.9786 39.1986 90.0171 41.5015 86.5892C45.6627 80.3841 36.2495 78.5062 33.8184 82.2953Z" fill="#F5B0B4"/>
<path fill-rule="evenodd" clip-rule="evenodd" d="M101.874 82.808C98.4832 88.0856 107.936 91.5135 110.53 87.6449C115.22 80.6559 104.611 78.5372 101.874 82.808Z" fill="#F5B0B4"/>
<path fill-rule="evenodd" clip-rule="evenodd" d="M72.8887 75.0683C51.0369 75.0683 44.5899 91.5289 52.9686 98.6461C84.5559 125.48 111.871 75.0683 77.4582 75.0683C75.9351 75.0683 74.413 75.0683 72.8887 75.0683" fill="#FFF3D5"/>
<path fill-rule="evenodd" clip-rule="evenodd" d="M63.6479 91.9028C62.8734 90.4501 56.8067 96.2812 54.6001 98.1796C49.296 102.745 48.2933 105.058 50.1077 104.287C51.867 103.539 53.7182 100.429 56.4865 98.054C59.9241 95.1052 64.1224 92.8046 63.6479 91.9028Z" fill="#3B3A39"/>
<path fill-rule="evenodd" clip-rule="evenodd" d="M62.733 90.3633C62.4847 88.7313 54.8249 92.213 52.1128 93.2736C45.5936 95.8151 43.8794 97.6598 45.847 97.5394C47.7544 97.4189 50.5336 95.1004 53.9362 93.7784C58.1583 92.1413 62.8831 91.365 62.733 90.3633" fill="#3B3A39"/>
<path fill-rule="evenodd" clip-rule="evenodd" d="M62.3932 88.6748C62.5644 87.0377 54.2718 88.4724 51.3816 88.8132C44.4303 89.6253 42.3077 90.9806 44.2402 91.3546C46.1176 91.7235 49.3941 90.1813 53.0159 89.7662C57.5173 89.2436 62.2851 89.6842 62.3932 88.6748Z" fill="#3B3A39"/>
<path fill-rule="evenodd" clip-rule="evenodd" d="M82.7553 91.6697C83.5269 90.2145 89.5955 96.0429 91.8013 97.9439C97.1043 102.507 98.1102 104.82 96.2948 104.049C94.5344 103.304 92.6839 100.188 89.9147 97.8184C86.4763 94.8644 82.28 92.5663 82.7553 91.6697" fill="#3B3A39"/>
<path fill-rule="evenodd" clip-rule="evenodd" d="M83.6666 90.1299C83.9148 88.4928 91.5756 91.977 94.2877 93.0351C100.806 95.5766 102.521 97.4238 100.555 97.3008C98.6462 97.183 95.8649 94.8618 92.4662 93.545C88.241 91.9027 83.5164 91.1291 83.6666 90.1299" fill="#3B3A39"/>
<path fill-rule="evenodd" clip-rule="evenodd" d="M84.0091 88.4387C83.8348 86.799 92.1282 88.2337 95.0194 88.5744C101.967 89.3891 104.095 90.7418 102.16 91.1185C100.287 91.4848 97.0059 89.9451 93.3851 89.5224C88.8817 89.0023 84.1151 89.4429 84.0091 88.4387Z" fill="#3B3A39"/>
<path fill-rule="evenodd" clip-rule="evenodd" d="M71.1462 97.9387C70.952 99.4272 71.3122 98.838 72.7484 98.9251C72.7863 98.9276 72.3511 93.8754 72.454 93.1786C72.5132 92.784 73.1386 88.854 72.8263 88.854C71.0329 88.854 71.4303 95.7534 71.1462 97.9387Z" fill="#3B3A39"/>
<path fill-rule="evenodd" clip-rule="evenodd" d="M72.2874 99.8425C73.7885 99.8169 76.7978 98.9381 76.8649 97.5008C76.8669 97.4701 73.4372 98.5922 71.828 98.664C71.7179 98.6717 69.7175 98.4103 66.793 97.5751C66.7812 99.3532 69.8464 99.8886 72.2874 99.8425Z" fill="#3B3A39"/>
<path fill-rule="evenodd" clip-rule="evenodd" d="M73.5672 81.5784C77.7304 82.0857 81.6285 86.3847 72.7787 90.7041C70.0586 92.0312 61.661 80.1283 73.5672 81.5784Z" fill="#3B3A39"/>
<path fill-rule="evenodd" clip-rule="evenodd" d="M19.5788 11.6418C18.9995 13.0484 20.0563 23.637 20.2585 25.6584C20.9028 32.1478 22.5781 27.9437 27.6892 26.3168C30.4151 25.4534 36.2967 24.6746 32.2997 20.6754C30.7505 19.1254 21.5295 6.93807 19.5788 11.6418Z" fill="#F5B0B4"/>
<path fill-rule="evenodd" clip-rule="evenodd" d="M128.865 13.5629C129.449 14.972 128.391 25.5606 128.189 27.5794C127.546 34.074 125.867 29.8673 120.756 28.243C118.03 27.3745 112.152 26.5982 116.147 22.5989C117.695 21.0489 126.918 8.8591 128.865 13.5629Z" fill="#F5B0B4"/>
<path fill-rule="evenodd" clip-rule="evenodd" d="M42.6504 25.4405C42.8787 32.9394 61.622 63.4934 65.9612 72.5422C67.1592 75.0427 62.2395 55.2643 58.1524 47.8269C56.2698 44.3965 54.4296 34.684 50.1933 28.2637C46.6425 22.8759 48.2427 23.7983 42.6504 25.4405" fill="#EF8A39"/>
<path fill-rule="evenodd" clip-rule="evenodd" d="M65.2769 27.1926C65.2769 32.2372 69.9993 71.0177 71.7018 71.156C74.3096 71.3738 73.1618 60.1678 73.1618 57.7006C73.1618 55.897 70.7689 25.5274 70.0493 25.5351C69.9763 25.5351 65.2769 27.2003 65.2769 27.1926" fill="#EF8A39"/>
<path fill-rule="evenodd" clip-rule="evenodd" d="M87.8744 27.0466C87.8744 27.0466 83.1366 50.6423 81.9399 54.493C81.2092 56.8372 76.976 70.2517 77.6183 72.1065C78.7973 72.5164 85.1141 65.8194 85.9409 62.617C88.1296 54.1343 91.2549 41.8676 91.8913 33.3004C92.5469 24.518 93.853 29.9416 87.8744 27.0466" fill="#EF8A39"/>
<path fill-rule="evenodd" clip-rule="evenodd" d="M56.6957 197.728C57.8658 208.47 62.269 204.76 70.4453 203.874C74.1401 203.472 65.3413 162.065 64.1605 158.34C58.7504 141.27 57.5204 116.729 42.4548 120.82C26.1763 125.237 55.0145 182.271 56.6957 197.728" fill="#EE7A10"/>
<path fill-rule="evenodd" clip-rule="evenodd" d="M12.9371 163.284C8.46855 163.815 3.94412 175.943 1.97268 181.643C-4.53549 200.471 5.58941 213.007 24.5521 217.362C125.966 240.638 120.383 205.444 135.058 182.179C104.218 195.488 103.868 182.212 79.7164 183.718C47.4525 185.735 24.4898 204.217 12.4327 171.352C11.8252 169.692 14.9516 163.048 12.9371 163.284" fill="#DA6C00"/>
<path fill-rule="evenodd" clip-rule="evenodd" d="M93.7891 224.216C124.294 219.269 125.145 197.869 135.044 182.174C111.753 192.224 106.012 187.149 94.1165 184.695L99.5676 191.1L94.2274 194.138L105.317 200.231L93.7891 210.627L102.257 213.837L93.7891 224.216" fill="#FFF9E8"/>
<path fill-rule="evenodd" clip-rule="evenodd" d="M75.1927 15.2899C76.3956 12.6639 86.9447 6.99936 89.7578 6.49209C91.422 6.18978 95.5043 5.02411 94.3563 7.92682C93.0163 11.3163 82.7505 13.0687 79.2719 14.2651C78.8794 14.3983 75.1277 15.4257 75.1927 15.2899" fill="#52BBC9"/>
<path fill-rule="evenodd" clip-rule="evenodd" d="M75.1924 15.29C75.0323 17.0962 75.1353 20.6035 75.7937 22.1842C76.6025 24.139 76.6904 24.8256 79.6346 25.397C81.4572 25.748 93.4234 27.8462 94.212 26.2655C95.4888 23.7035 96.2464 13.3301 95.797 10.0073C95.7291 9.49487 94.8714 6.13866 94.2299 7.7322C93.7285 8.97219 87.3487 12.1951 85.6634 12.4001C84.3963 12.5461 79.3625 13.4838 78.5178 14.1192C78.4389 14.1755 75.2062 15.0851 75.1924 15.29" fill="#92D0D8"/>
<path fill-rule="evenodd" clip-rule="evenodd" d="M70.4767 13.9369C69.2718 11.316 58.7226 5.65147 55.9095 5.14164C54.2484 4.84189 50.162 3.67365 51.3111 6.5738C52.651 9.96328 62.917 11.7182 66.3977 12.9172C66.7869 13.0505 70.5397 14.0752 70.4767 13.9369" fill="#52BBC9"/>
<path fill-rule="evenodd" clip-rule="evenodd" d="M70.477 13.9371C70.6361 15.7459 70.5331 19.2532 69.8778 20.8365C69.0669 22.7887 68.978 23.4779 66.0317 24.0466C64.2112 24.3951 52.246 26.4985 51.4605 24.9177C50.1795 22.3506 49.4199 11.9772 49.8703 8.65692C49.9403 8.14709 50.7949 4.79088 51.4395 6.38186C51.9419 7.62442 58.3187 10.8448 60.0032 11.0472C61.2721 11.1984 66.3069 12.1335 67.1526 12.7688C67.2325 12.8278 70.4611 13.7296 70.477 13.9371Z" fill="#92D0D8"/>
<path fill-rule="evenodd" clip-rule="evenodd" d="M77.2456 21.2237C77.9763 19.2612 77.665 16.0716 76.2408 14.3448C75.3582 13.2688 73.601 13.0228 72.2477 13.0228C70.8066 13.0228 69.0955 12.6821 68.0205 13.6069C66.3462 15.0416 66.5865 20.2937 67.3731 22.1332C68.536 24.8565 76.0889 24.3236 77.2456 21.2237" fill="#62C2CF"/>
<path fill-rule="evenodd" clip-rule="evenodd" d="M105.664 75.8064C109.617 78.6732 113.724 72.6295 110.842 70.4519C105.633 66.5193 102.469 73.4903 105.664 75.8064Z" fill="#3B3A39"/>
</svg>
