<svg width="274" height="225" viewBox="0 0 274 225" fill="none" xmlns="http://www.w3.org/2000/svg">
<path fill-rule="evenodd" clip-rule="evenodd" d="M74.9176 210.913C82.5621 186.057 92.6724 154.584 107.572 160.022C132.337 169.059 120.319 199.811 116.966 217.423C115.175 226.844 74.8391 211.177 74.9176 210.913" fill="#59660F"/>
<path fill-rule="evenodd" clip-rule="evenodd" d="M75.5273 210.387C75.6698 206.261 85.6376 199.483 87.4724 208.073C88.179 211.373 88.2109 213.455 87.7893 214.673C83.6516 213.49 77.9815 211.402 75.5273 210.387Z" fill="#BECA22"/>
<path fill-rule="evenodd" clip-rule="evenodd" d="M101.37 218.123C99.454 206.884 116.557 209.769 115.275 219.547C110.986 219.222 103.981 218.62 101.37 218.123Z" fill="#BECA22"/>
<path fill-rule="evenodd" clip-rule="evenodd" d="M194.824 222.835C196.339 196.877 198.677 163.906 214.443 165.642C240.647 168.533 236.283 201.259 237.213 219.165C237.708 228.74 194.807 223.12 194.824 222.835" fill="#59660F"/>
<path fill-rule="evenodd" clip-rule="evenodd" d="M194.824 222.835C193.978 218.796 202.047 209.846 205.874 217.752C207.342 220.788 207.903 222.998 207.784 224.28C203.484 224.115 197.447 223.239 194.824 222.835Z" fill="#BEC918"/>
<path fill-rule="evenodd" clip-rule="evenodd" d="M208.162 224.306C207.156 220.305 214.359 210.579 218.496 218.325C220.081 221.303 221.075 223.428 221.006 224.713C216.702 224.716 210.794 224.609 208.162 224.306Z" fill="#BEC918"/>
<path fill-rule="evenodd" clip-rule="evenodd" d="M221.747 224.699C217.214 214.237 234.497 212.251 235.579 222.05C233.709 223.329 230.935 223.792 228.417 224.216C225.731 224.67 223.114 224.626 221.747 224.699" fill="#BEC918"/>
<path fill-rule="evenodd" clip-rule="evenodd" d="M131.47 221.887C133.061 195.93 135.494 162.968 151.257 164.75C177.456 167.719 172.993 200.434 173.868 218.34C174.339 227.918 131.453 222.163 131.47 221.887Z" fill="#6A7C0D"/>
<path fill-rule="evenodd" clip-rule="evenodd" d="M131.471 221.887C130.636 217.84 138.734 208.916 142.534 216.834C143.997 219.872 144.515 221.893 144.39 223.175C140.092 222.995 134.09 222.291 131.471 221.887" fill="#BECA22"/>
<path fill-rule="evenodd" clip-rule="evenodd" d="M144.297 222.928C143.305 218.921 151.046 209.684 155.157 217.444C156.736 220.428 157.335 222.419 157.26 223.71C152.956 223.699 146.934 223.236 144.297 222.928Z" fill="#BECA22"/>
<path fill-rule="evenodd" clip-rule="evenodd" d="M158.405 223.335C153.901 212.861 171.207 211.649 172.26 221.454C168.009 222.146 161.057 223.21 158.405 223.335Z" fill="#BECA22"/>
<path fill-rule="evenodd" clip-rule="evenodd" d="M226.778 224.975C223.713 199.158 220.226 166.285 236.05 165.227C262.359 163.474 263.802 196.459 267.864 213.926C270.033 223.26 226.81 225.255 226.778 224.975Z" fill="#6A7C0D"/>
<path fill-rule="evenodd" clip-rule="evenodd" d="M226.777 224.975C225.236 221.145 231.607 210.919 236.765 218.031C238.743 220.761 239.682 222.837 239.789 224.123C235.53 224.713 229.429 224.914 226.777 224.975Z" fill="#BEC918"/>
<path fill-rule="evenodd" clip-rule="evenodd" d="M240.162 224.085C238.469 220.32 243.86 209.474 249.292 216.38C251.374 219.032 252.726 220.951 252.88 222.23C248.644 222.986 242.814 223.914 240.162 224.085Z" fill="#BEC918"/>
<path fill-rule="evenodd" clip-rule="evenodd" d="M253.608 222.082C247.307 212.582 263.98 207.592 266.762 217.048C265.14 218.633 262.497 219.575 260.092 220.436C257.525 221.352 254.943 221.776 253.608 222.082" fill="#BEC918"/>
<path fill-rule="evenodd" clip-rule="evenodd" d="M195.079 200.32C223.087 199.349 287.438 177.997 259.608 169.082C241.068 163.142 186.528 144.134 163.074 149.19C131.874 155.922 123.511 142.947 101.261 138.368C76.7895 206.162 129.42 202.585 195.079 200.32" fill="#6A7C0D"/>
<path fill-rule="evenodd" clip-rule="evenodd" d="M87.5569 148.926C85.6378 94.1736 118.405 61.2783 177.514 61.8861C220.103 62.3193 289.276 105.145 269.648 181.095C259.358 220.931 94.265 151.029 87.5569 148.926" fill="#C98C14"/>
<path fill-rule="evenodd" clip-rule="evenodd" d="M180.436 66.945C179.096 69.626 172.324 81.7135 173.539 83.8768C173.772 84.2897 183.074 98.7673 183.181 98.8865C184.472 97.517 191.625 85.415 190.471 83.2197C187.65 77.8723 184.644 71.6498 180.843 67.0119L180.436 66.945ZM253.307 117.191C253.499 118.909 254.017 126.862 255.282 127.525C255.526 127.656 264.549 131.729 264.636 131.75C264.831 130.689 264.496 122.605 263.252 121.907C260.213 120.212 256.814 118.145 253.523 117.098L253.307 117.191V117.191ZM236.995 128.168C237.181 129.886 237.698 137.839 238.963 138.502C239.205 138.63 248.23 142.706 248.315 142.729C248.515 141.665 248.178 133.585 246.934 132.884C243.895 131.186 240.496 129.121 237.207 128.077L236.995 128.168V128.168ZM217.365 135.265C217.001 136.955 214.963 144.663 215.954 145.693C216.143 145.89 223.407 152.619 223.483 152.671C224.006 151.726 226.254 143.951 225.294 142.898C222.953 140.325 220.386 137.283 217.6 135.248L217.365 135.265V135.265ZM193.722 137.08L193.954 137.112C196.214 139.72 198.043 143.253 199.755 146.283C200.453 147.524 196.539 154.599 195.812 155.407C195.751 155.343 190.169 147.167 190.026 146.931C189.293 145.707 192.992 138.644 193.722 137.08ZM171.733 137.92L171.966 137.955C174.231 140.56 176.06 144.09 177.77 147.123C178.471 148.365 174.548 155.442 173.83 156.25C173.763 156.181 168.183 148.007 168.044 147.774C167.308 146.547 171.007 139.487 171.733 137.92ZM149.946 128.522C148.419 129.331 141.202 132.718 141.051 134.137C141.019 134.413 140.525 144.297 140.533 144.39C141.598 144.183 148.995 140.912 149.187 139.502C149.661 136.05 150.338 132.134 150.112 128.694L149.946 128.522V128.522ZM128.955 118.188L129.074 118.389C128.402 121.776 126.736 125.385 125.393 128.595C124.84 129.909 116.85 131.16 115.771 131.084C115.783 130.994 118.813 121.57 118.912 121.314C119.429 119.982 127.271 118.572 128.955 118.188ZM115.777 107.395C114.053 107.517 106.085 107.717 105.373 108.953C105.236 109.189 100.805 118.046 100.776 118.13C101.834 118.368 109.921 118.351 110.668 117.138C112.485 114.173 114.681 110.852 115.861 107.616L115.777 107.395ZM160.271 110.951C158.925 113.635 152.156 125.722 153.374 127.888C153.607 128.298 162.903 142.776 163.007 142.895C164.307 141.529 171.46 129.424 170.3 127.231C167.48 121.884 164.473 115.661 160.675 111.021L160.271 110.951V110.951ZM156.282 108.921C153.287 109.133 139.437 109.485 138.193 111.634C137.957 112.041 130.257 127.432 130.211 127.58C132.046 127.999 146.105 127.97 147.399 125.856C150.559 120.7 154.377 114.937 156.427 109.299L156.282 108.921ZM208.31 110.233C209.24 113.091 212.907 126.449 215.294 127.132C215.748 127.266 232.534 131.043 232.694 131.055C232.656 129.174 229.249 115.533 226.888 114.783C221.124 112.954 214.611 110.634 208.65 110L208.31 110.233ZM203.402 109.59C201.887 112.184 194.367 123.818 195.443 126.054C195.653 126.478 204.018 141.517 204.117 141.642C205.492 140.36 213.396 128.729 212.381 126.467C209.906 120.953 207.295 114.553 203.797 109.683L203.402 109.59ZM182.338 110.026C180.826 112.623 173.304 124.254 174.38 126.49C174.589 126.917 182.954 141.956 183.053 142.078C184.429 140.796 192.332 129.168 191.32 126.908C188.843 121.393 186.234 114.993 182.733 110.122L182.338 110.026V110.026ZM223.2 100.151L223.541 99.9159C229.499 100.553 236.015 102.87 241.775 104.699C244.139 105.446 247.547 119.09 247.585 120.974C247.425 120.959 230.636 117.182 230.182 117.051C227.798 116.368 224.131 103.007 223.2 100.151V100.151ZM140.94 96.9762L141.083 97.36C139.036 102.992 135.218 108.758 132.06 113.914C130.763 116.028 116.702 116.054 114.873 115.641C114.916 115.487 122.622 100.102 122.857 99.6862C124.093 97.5374 137.946 97.1914 140.94 96.9762ZM151.612 76.1219C148.62 76.3371 134.77 76.6801 133.532 78.8348C133.293 79.2448 125.593 94.6326 125.544 94.7838C127.382 95.1967 141.438 95.1705 142.738 93.0566C145.895 87.9041 149.71 82.138 151.76 76.5028L151.612 76.1219V76.1219ZM213.64 79.9078C214.605 82.7486 218.423 96.0661 220.813 96.7261C221.27 96.8541 238.103 100.436 238.26 100.448C238.204 98.5638 234.634 84.9643 232.267 84.2403C226.483 82.4811 219.944 80.2334 213.974 79.6693L213.64 79.9078V79.9078ZM192.024 90.7682C190.509 93.3648 182.989 104.999 184.065 107.232C184.272 107.662 192.64 122.698 192.736 122.82C194.117 121.538 202.015 109.91 201.003 107.653C198.525 102.137 195.917 95.7317 192.419 90.8612L192.024 90.7682ZM197.58 89.89L197.918 89.6545C203.882 90.2913 210.395 92.6117 216.158 94.4407C218.516 95.188 221.93 108.825 221.968 110.709C221.805 110.701 205.021 106.924 204.565 106.79C202.178 106.104 198.511 92.7483 197.58 89.89V89.89ZM166.177 87.494C163.182 87.7092 149.332 88.0553 148.094 90.207C147.861 90.6199 140.158 106.005 140.109 106.159C141.944 106.575 156.003 106.546 157.3 104.429C160.457 99.2762 164.275 93.5102 166.325 87.8779L166.177 87.494ZM171.251 87.6365L171.658 87.7063C175.458 92.347 178.468 98.5696 181.283 103.917C182.44 106.109 175.29 118.211 173.996 119.578C173.885 119.462 164.586 104.984 164.357 104.571C163.138 102.408 169.91 90.3233 171.251 87.6365ZM186.958 68.9601L187.293 68.7245C193.268 69.2886 199.805 71.5334 205.591 73.2984C207.955 74.0195 211.523 87.6191 211.581 89.4975C211.421 89.4946 194.594 85.9064 194.132 85.7814C191.742 85.1243 187.924 71.8068 186.958 68.9601ZM175.362 66.7997L175.511 67.1835C173.461 72.8187 169.643 78.5847 166.488 83.7343C165.188 85.8512 151.129 85.8773 149.294 85.4615C149.341 85.3132 157.044 69.9255 157.282 69.5126C158.518 67.3638 172.367 67.0119 175.362 66.7997" fill="#9D6F00"/>
<path fill-rule="evenodd" clip-rule="evenodd" d="M130.767 165.366C125.364 132.989 151.513 74.4354 128.327 47.7743C109.401 26.0127 50.0042 3.15498 17.1554 41.0138C-4.44913 65.907 -6.61831 104.403 16.2104 135.021C39.5537 166.332 88.4706 149.81 88.1246 149.9C89.1191 164.59 98.8803 189.922 110.139 193.662C124.599 198.465 134.547 188.035 130.767 165.366" fill="#6A7C0D"/>
<path fill-rule="evenodd" clip-rule="evenodd" d="M77.0747 111.407C80.1715 114.865 84.8965 109.456 82.6547 106.845C78.5955 102.132 74.5653 108.61 77.0747 111.407Z" fill="#31302F"/>
<path fill-rule="evenodd" clip-rule="evenodd" d="M70.0094 118.18C61.9521 127.069 78.7065 136.51 84.8215 130.035C95.868 118.322 76.5228 110.986 70.0094 118.18Z" fill="#F5C3C6"/>
<path fill-rule="evenodd" clip-rule="evenodd" d="M48.8259 124.954C47.026 125.408 45.2872 125.257 43.8711 124.527C42.3881 123.768 41.2455 122.396 40.7047 121.552C40.2685 120.872 40.2394 120.296 40.7366 120.354C40.9052 120.378 41.5856 121.506 42.5684 122.457C43.3971 123.259 44.5981 123.611 45.2 123.838C46.9825 124.515 48.8521 124.225 50.0094 122.64C50.3642 122.151 50.6897 121.605 50.9107 121.058C51.2044 120.308 51.5563 119.793 51.5941 119.508C51.6493 119.011 51.9459 118.45 52.2949 119.072C52.8619 120.087 51.1521 124.361 48.8259 124.954" fill="black"/>
<path fill-rule="evenodd" clip-rule="evenodd" d="M17.4048 106.497C20.5045 109.954 25.2267 104.543 22.9819 101.937C18.9256 97.2237 14.8954 103.699 17.4048 106.497Z" fill="#31302F"/>
<path fill-rule="evenodd" clip-rule="evenodd" d="M10.3399 113.271C2.28547 122.16 19.037 131.604 25.1491 125.126C36.2014 113.413 16.8562 106.083 10.3399 113.271Z" fill="#F5C3C6"/>
<path fill-rule="evenodd" clip-rule="evenodd" d="M44.6713 26.3241C41.0134 27.4145 24.1544 25.9519 21.709 30.9707C23.7997 33.7272 34.8781 30.9794 37.4921 29.9878C39.1786 29.3452 45.5961 29.9587 45.4914 27.7227C45.4827 27.5133 45.5902 26.045 44.6713 26.3241Z" fill="#694926"/>
<path fill-rule="evenodd" clip-rule="evenodd" d="M48.8617 23.2678C51.8945 24.2245 52.0341 30.6011 46.3349 28.1935C44.4274 27.391 45.1485 22.0873 48.8617 23.2678Z" fill="#694926"/>
<path fill-rule="evenodd" clip-rule="evenodd" d="M45.4589 1.75648C37.0613 -3.03548 20.7606 2.40485 22.6012 12.896C23.0257 15.3007 27.8787 24.5881 30.17 25.7395C32.8306 27.0771 33.6651 27.836 37.0614 28.1006C45.9038 28.781 52.1234 5.5569 45.4589 1.75648Z" fill="#F0882E"/>
<path fill-rule="evenodd" clip-rule="evenodd" d="M32.0635 27.3883C30.816 22.6137 22.4011 12.2506 17.4434 12.6547C6.75163 13.5242 18.618 27.1295 27.6059 28.0367C30.5863 28.3391 32.1623 27.7546 32.0635 27.3883Z" fill="#FBBF04"/>
<path fill-rule="evenodd" clip-rule="evenodd" d="M87.751 214.412C87.7307 210.283 97.4222 203.122 99.6001 211.636C100.432 214.904 100.545 216.98 100.173 218.213C95.9887 217.195 90.2459 215.331 87.751 214.412Z" fill="#BECA22"/>
</svg>
