<svg width="180" height="225" viewBox="0 0 180 225" fill="none" xmlns="http://www.w3.org/2000/svg">
<path fill-rule="evenodd" clip-rule="evenodd" d="M47.3043 45.9525C46.0058 26.8477 36.8444 15.4226 17.5405 22.2702C-0.817193 28.7799 7.18727 67.691 37.9389 59.5405C39.2165 59.2026 47.4921 48.684 47.3043 45.9525" fill="#F0882E"/>
<path fill-rule="evenodd" clip-rule="evenodd" d="M114.833 38.5085C121.95 20.7811 134.163 12.7938 150.364 25.2957C165.779 37.187 146.199 71.6161 119.533 54.313C118.425 53.5928 113.815 41.0396 114.833 38.5085" fill="#F0882E"/>
<path fill-rule="evenodd" clip-rule="evenodd" d="M121.626 38.7533C126.365 26.9482 134.497 21.6296 145.296 29.9548C155.559 37.8769 142.518 60.8064 124.756 49.281C124.019 48.8056 120.946 40.443 121.626 38.7533Z" fill="#FBCF9E"/>
<path fill-rule="evenodd" clip-rule="evenodd" d="M39.9772 43.3563C39.1146 30.626 33.0115 23.0186 20.1539 27.5751C7.92703 31.9149 13.2556 57.8346 33.742 52.4041C34.593 52.178 40.1024 45.1743 39.9772 43.3563" fill="#FBCF9E"/>
<path fill-rule="evenodd" clip-rule="evenodd" d="M17.4456 185.979C11.1802 187.103 -2.79963 212.195 32.2997 212.983C35.5042 213.053 70.3091 211.233 73.1612 221.947C73.4046 222.858 71.5194 224.112 70.0424 224.229C37.9088 226.764 11.6394 223.553 2.21356 206.988C-1.6101 200.26 -0.960814 189.41 7.98502 182.966C13.7309 178.819 16.4903 177.043 17.0375 185.42L17.4456 185.979" fill="#F0882E"/>
<path fill-rule="evenodd" clip-rule="evenodd" d="M119.225 105.267C114.915 106.966 124.997 122.405 134.497 163.302C138.939 182.423 151.892 191.634 162.533 190.797C169.118 190.282 177.436 188.296 179.474 182.903C182.922 173.771 168.488 163.684 163.236 170.051C146.907 156.592 136.271 98.5245 119.225 105.267Z" fill="#EE7A00"/>
<path fill-rule="evenodd" clip-rule="evenodd" d="M128.211 122.102C140.058 134.538 161.566 182.285 143.888 188.664C135.455 191.708 132.542 200.019 117.456 202.166C94.7277 205.389 90.6281 203.702 68.7992 202.646C43.5037 201.413 42.0103 201.411 25.1459 187.543C16.4783 180.421 22.0318 159.994 27.5412 147.28C43.3251 110.865 104.617 80.347 128.211 122.102" fill="#F0882E"/>
<path fill-rule="evenodd" clip-rule="evenodd" d="M106.452 137.724C46.039 108.066 0.73942 204.676 61.9365 210.494C89.421 213.109 132.149 216.395 133.849 174.894C134.579 157.174 120.901 144.819 106.452 137.724" fill="#FBCF9E"/>
<path fill-rule="evenodd" clip-rule="evenodd" d="M12.6571 157.065C38.7016 142.869 62.3578 186.227 42.5809 204.837C19.8337 226.245 -8.51567 168.604 12.6571 157.065Z" fill="#E07200"/>
<path fill-rule="evenodd" clip-rule="evenodd" d="M21.6521 172.76C38.6951 163.777 52.3249 190.51 39.829 201.779C25.7424 214.482 8.69708 179.586 21.6521 172.76Z" fill="#F4AFB3"/>
<path fill-rule="evenodd" clip-rule="evenodd" d="M8.95537 169.44C13.688 167.123 17.514 173.8 14.4509 176.506C9.38439 180.981 3.92131 171.898 8.95537 169.44Z" fill="#F4AFB3"/>
<path fill-rule="evenodd" clip-rule="evenodd" d="M18.1843 161.298C22.9146 158.984 26.7452 165.659 23.6797 168.37C18.6109 172.84 13.1502 163.762 18.1843 161.298Z" fill="#F4AFB3"/>
<path fill-rule="evenodd" clip-rule="evenodd" d="M32.0253 158.74C26.931 160.057 28.3153 167.639 32.394 167.704C39.137 167.811 37.4443 157.342 32.0253 158.74Z" fill="#F4AFB3"/>
<path fill-rule="evenodd" clip-rule="evenodd" d="M77.9729 161.621C80.8018 159.698 83.8696 163.637 82.1421 165.656C79.2923 168.996 74.9608 163.663 77.9729 161.621Z" fill="#31302F"/>
<path fill-rule="evenodd" clip-rule="evenodd" d="M150.819 173.417C126.363 152.951 92.2471 189.056 109.594 211.755C128.571 236.6 169.328 188.907 150.819 173.417Z" fill="#E07200"/>
<path fill-rule="evenodd" clip-rule="evenodd" d="M138.078 186.228C123.096 170.694 103.266 193.167 113.04 209.519C122.786 225.829 148.267 196.791 138.078 186.228Z" fill="#F4AFB3"/>
<path fill-rule="evenodd" clip-rule="evenodd" d="M150.473 186.811C146.501 183.343 141.085 188.79 143.343 192.205C147.083 197.85 154.698 190.496 150.473 186.811Z" fill="#F4AFB3"/>
<path fill-rule="evenodd" clip-rule="evenodd" d="M145.344 176.997C141.372 173.529 135.949 178.98 138.214 182.393C141.954 188.035 149.567 180.689 145.344 176.997Z" fill="#F4AFB3"/>
<path fill-rule="evenodd" clip-rule="evenodd" d="M132.364 170.606C136.944 173.207 133.651 180.167 129.696 179.167C123.154 177.517 127.49 167.842 132.364 170.606Z" fill="#F4AFB3"/>
<path fill-rule="evenodd" clip-rule="evenodd" d="M82.0323 131.884C55.8441 132.639 34.9125 128.015 25.4148 109.646C8.69875 77.3125 36.8487 22.5292 75.7833 20.1869C139.417 16.3599 184.645 128.926 82.0323 131.884" fill="#F4A261"/>
<path fill-rule="evenodd" clip-rule="evenodd" d="M86.4199 115.909C86.4408 116.322 86.4409 116.627 86.4154 116.855C87.6907 116.746 90.0025 116.482 92.9381 115.893C92.7433 118.557 88.1173 118.983 84.4907 118.624C82.2601 118.403 77.8869 116.722 77.9634 114.564C77.9634 114.527 81.4486 115.988 83.9807 116.641C84.238 114.886 85.1029 109.511 85.0403 108.635C85.0032 108.034 84.544 102.083 85.0078 102.121C87.6767 102.335 86.2576 112.611 86.4199 115.909" fill="#31302F"/>
<path fill-rule="evenodd" clip-rule="evenodd" d="M84.4019 84.6657C73.8283 85.0899 63.1527 95.1725 84.5364 107.887C91.1055 111.797 114.632 83.4328 84.4019 84.6657Z" fill="#8E6334"/>
<path fill-rule="evenodd" clip-rule="evenodd" d="M122.491 90.1849C118.802 92.4434 115.614 86.7937 118.313 85.069C123.184 81.9598 125.475 88.3623 122.491 90.1849Z" fill="#31302F"/>
<path fill-rule="evenodd" clip-rule="evenodd" d="M48.0925 90.8257C45.0178 92.9116 42.4092 87.7677 44.6538 86.1759C48.7232 83.2998 50.5806 89.1359 48.0925 90.8257Z" fill="#31302F"/>
<path fill-rule="evenodd" clip-rule="evenodd" d="M110.862 106.127C120.828 111.609 129.549 101.433 122.275 97.2841C109.121 89.7839 102.807 101.694 110.862 106.127Z" fill="#F4AFB3"/>
<path fill-rule="evenodd" clip-rule="evenodd" d="M53.9123 108.29C42.7497 110.395 37.5951 97.9998 45.7943 96.3241C60.6113 93.2941 62.9416 106.586 53.9123 108.29Z" fill="#F4AFB3"/>
<path fill-rule="evenodd" clip-rule="evenodd" d="M50.0752 33.6556C49.6764 33.7465 68.2266 59.2421 69.1425 59.6826C69.0729 54.646 70.2114 49.5767 64.2823 33.8701C59.137 20.2447 51.4154 33.348 50.0752 33.6556" fill="#525051"/>
<path fill-rule="evenodd" clip-rule="evenodd" d="M109.939 32.1572C110.34 32.2504 91.7902 57.7414 90.872 58.1865C90.9369 53.1499 89.8031 48.0805 95.7299 32.3716C100.873 18.7439 108.594 31.8495 109.939 32.1572Z" fill="#525051"/>
<path fill-rule="evenodd" clip-rule="evenodd" d="M81.038 57.5386C78.7378 53.0683 75.3524 49.134 73.2168 32.4764C71.9368 22.501 80.0525 19.3686 84.5161 24.4588C89.3809 30.0176 84.6135 44.2489 81.038 57.5386" fill="#525051"/>
<path fill-rule="evenodd" clip-rule="evenodd" d="M127.4 126.36C124.548 127.991 118.999 142.435 119.013 143.029C121.577 141.68 124.476 140.952 130.994 133.783C136.645 127.565 128.093 125.964 127.4 126.36Z" fill="#525051"/>
<path fill-rule="evenodd" clip-rule="evenodd" d="M145.045 161.931C142.866 162.588 132.932 158.756 132.466 158.397C135.067 157.122 136.287 155.428 141.231 154.619C149.504 153.263 145.806 161.698 145.045 161.931Z" fill="#525051"/>
<path fill-rule="evenodd" clip-rule="evenodd" d="M125.523 149.606C126.882 147.712 127.795 145.481 134.214 141.106C138.056 138.487 141.047 141.214 139.881 144.134C138.612 147.32 131.747 148.315 125.523 149.606" fill="#525051"/>
<path fill-rule="evenodd" clip-rule="evenodd" d="M42.5394 130.951C44.9533 132.336 49.6511 144.56 49.6418 145.061C47.4691 143.919 45.0182 143.302 39.5018 137.235C34.7135 131.974 41.9528 130.618 42.5394 130.951" fill="#525051"/>
<path fill-rule="evenodd" clip-rule="evenodd" d="M43.8794 151.878C42.6157 150.123 41.7717 148.051 35.8148 143.991C32.2531 141.565 29.4775 144.089 30.5558 146.802C31.7383 149.757 38.1034 150.68 43.8794 151.878Z" fill="#525051"/>
<path fill-rule="evenodd" clip-rule="evenodd" d="M72.6365 23.6666C71.8411 22.5875 70.5404 21.6063 68.8987 20.7625C68.4187 25.8365 62.2948 28.5261 62.3991 25.5917C62.4524 24.0348 66.2529 21.0142 67.825 20.3943C67.8853 20.371 67.955 20.3569 68.0245 20.343C66.3318 19.5785 64.3469 18.9493 62.209 18.4994C62.8142 23.6177 57.4068 27.6498 56.834 24.7201C56.5256 23.1562 59.6073 19.2616 61.0333 18.2664C58.7934 17.8725 56.426 17.6673 54.0933 17.6953C55.5959 22.2355 51.5056 26.9575 50.3972 24.4054C49.8128 23.0723 51.7282 19.0518 52.8505 17.7349C52.7368 17.7396 52.6139 17.7442 52.498 17.7536C50.7752 17.8561 49.0801 18.1544 47.4593 18.56C49.5578 22.3777 46.4297 27.2092 45.1428 25.072C44.468 23.9509 45.7643 20.0609 46.5851 18.8956C46.6176 18.849 46.6616 18.8023 46.7126 18.7604C45.0593 19.2219 43.4988 19.793 42.0936 20.3896C43.9695 23.2587 41.8872 27.2652 40.7046 25.6826C40.0948 24.8669 40.7603 21.8113 41.3168 20.7299C39.2485 21.6528 37.5604 22.6038 36.4636 23.2634C36.4914 23.4405 36.4357 23.7109 36.3384 23.8554C35.6937 24.8017 33.1478 26.8666 32.1229 26.6685C30.1635 26.2956 32.9159 22.5735 36.3569 23.1049C37.0062 22.6084 37.6671 22.1469 38.3442 21.718C36.9321 21.7973 34.539 21.5106 34.0173 20.7951C32.8556 19.1916 37.3076 18.3619 39.4826 21.0352C40.8809 20.2405 42.3302 19.5738 43.8026 19.0261C42.409 18.9329 39.9881 18.3199 39.5592 17.5252C38.6108 15.7678 43.2135 15.551 44.9851 18.5669C44.9967 18.5809 44.9967 18.5926 45.0014 18.6089C46.2141 18.2104 47.4453 17.8864 48.6696 17.6346C47.3039 17.2361 45.2796 16.2643 45.0176 15.4602C44.4031 13.5747 48.8737 14.1666 50.1304 17.3666C52.106 17.0473 54.0677 16.9098 55.9367 16.9192C54.0538 15.8004 51.2667 13.4254 51.2041 12.0736C51.0557 9.01806 57.4578 11.7263 58.0421 16.9937C60.3493 17.1499 62.471 17.5415 64.2773 18.1078L64.4072 18.1474C62.6588 16.6465 60.143 13.577 60.3354 12.1389C60.7713 8.90159 67.0482 13.0781 66.4964 18.7604C66.4871 18.7954 66.4778 18.8257 66.457 18.849C68.4071 19.5739 70.3084 20.4735 72.0035 21.6668C75.2915 23.9789 73.2996 24.5732 72.6365 23.6666" fill="#759D35"/>
<path fill-rule="evenodd" clip-rule="evenodd" d="M106.118 24.9551C106.913 23.8784 108.214 22.8949 109.856 22.0535C110.338 27.1298 116.457 29.8171 116.36 26.8804C116.302 25.3258 112.499 22.3028 110.929 21.6828C110.872 21.6595 110.804 21.6455 110.728 21.6339C112.425 20.8694 114.412 20.2401 116.548 19.788C115.943 24.9039 121.345 28.9384 121.918 26.011C122.229 24.4471 119.147 20.5525 117.721 19.5596C119.963 19.1587 122.329 18.9535 124.661 18.9838C123.159 23.5241 127.249 28.2461 128.362 25.6963C128.942 24.3609 127.029 20.3404 125.904 19.0236C126.022 19.0282 126.141 19.0328 126.257 19.0398C127.982 19.1424 129.677 19.4384 131.295 19.8509C129.201 23.6663 132.325 28.4978 133.612 26.3629C134.286 25.2418 132.993 21.3496 132.172 20.1843C132.137 20.1376 132.093 20.091 132.047 20.0491C133.695 20.5129 135.253 21.0839 136.659 21.6805C134.787 24.5496 136.865 28.5561 138.05 26.9736C138.66 26.1555 137.992 23.1023 137.435 22.0162C139.506 22.9438 141.194 23.8923 142.291 24.5566C142.268 24.7291 142.321 24.9994 142.416 25.1439C143.058 26.0925 145.604 28.1576 146.636 27.9595C148.591 27.5842 145.841 23.862 142.4 24.3934H142.398C141.753 23.897 141.09 23.4379 140.413 23.0067C141.822 23.0883 144.218 22.7969 144.737 22.0838C145.901 20.4779 141.449 19.6528 139.277 22.3262C137.876 21.5267 136.427 20.8648 134.954 20.3171C136.35 20.2215 138.766 19.6085 139.195 18.8161C140.144 17.0541 135.539 16.842 133.767 19.8603C133.763 19.8696 133.758 19.8813 133.758 19.8976C132.541 19.499 131.309 19.175 130.085 18.9256C131.453 18.5247 133.48 17.5552 133.739 16.7465C134.354 14.8632 129.883 15.4552 128.629 18.6553C126.648 18.336 124.691 18.1961 122.82 18.2054C124.703 17.0867 127.49 14.714 127.551 13.3599C127.697 10.3067 121.299 13.0126 120.712 18.28C118.408 18.4431 116.281 18.8324 114.475 19.3964L114.347 19.436C116.096 17.9327 118.614 14.8679 118.419 13.4321C117.985 10.1925 111.706 14.3668 112.265 20.0537C112.267 20.084 112.274 20.112 112.298 20.1376C110.347 20.8648 108.451 21.7621 106.749 22.9578C103.463 25.2675 105.455 25.8641 106.118 24.9551" fill="#759D35"/>
<path fill-rule="evenodd" clip-rule="evenodd" d="M62.3463 15.0963C56.5053 12.7819 57.1198 -4.03417 69.0081 3.18868C72.3565 6.56587 71.4452 8.61458 71.8858 7.80582C74.0863 3.71544 77.103 -0.160464 81.5921 0.00501562C85.7497 0.163504 92.5066 6.85264 86.4476 14.3529C84.7225 16.4808 90.2226 13.4065 93.9164 18.8371C100.873 29.0712 86.807 26.7848 87.3612 28.1972C88.9844 32.3296 89.5757 35.6927 87.4935 37.5596C85.766 39.1096 77.6502 37.5061 76.3957 35.3781C73.9726 41.0884 57.9221 44.1671 61.9869 27.8942C56.4752 28.1505 52.408 23.2561 54.43 19.7973C56.3638 16.4831 61.8895 15.2059 62.3463 15.0963" fill="#FBBF04"/>
<path fill-rule="evenodd" clip-rule="evenodd" d="M65.85 16.8419C63.4153 17.709 66.8193 21.8763 68.1224 19.6319C69.0778 17.991 66.752 16.5226 65.85 16.8419Z" fill="#EE7A00"/>
<path fill-rule="evenodd" clip-rule="evenodd" d="M72.2292 15.9959C68.6652 19.7414 75.9462 22.2842 75.2042 17.2825C75.0836 16.4458 72.577 15.6323 72.2292 15.9959Z" fill="#EE7A00"/>
<path fill-rule="evenodd" clip-rule="evenodd" d="M69.4905 21.5013C67.9044 19.8325 71.1391 18.7067 70.8145 20.9302C70.7565 21.3008 69.6435 21.6621 69.4905 21.5013Z" fill="#EE7A00"/>
<path fill-rule="evenodd" clip-rule="evenodd" d="M75.2853 22.3729C73.8871 24.5567 79.1228 25.7524 78.7819 23.177C78.5361 21.2985 75.8024 21.5664 75.2853 22.3729Z" fill="#EE7A00"/>
<path fill-rule="evenodd" clip-rule="evenodd" d="M78.0722 17.7746C77.5366 22.9347 84.8361 20.4549 81.2026 16.9565C80.5974 16.3692 78.1232 17.2711 78.0722 17.7746Z" fill="#EE7A00"/>
<path fill-rule="evenodd" clip-rule="evenodd" d="M79.259 23.811C76.9935 23.4684 78.8625 20.5853 79.957 22.5455C80.1402 22.8718 79.4839 23.8436 79.259 23.811Z" fill="#EE7A00"/>
<path fill-rule="evenodd" clip-rule="evenodd" d="M79.4147 27.5098C77.8264 25.8457 81.0634 24.713 80.7365 26.9388C80.6808 27.3094 79.5678 27.6706 79.4147 27.5098Z" fill="#EE7A00"/>
<path fill-rule="evenodd" clip-rule="evenodd" d="M74.861 12.6518C74.3277 17.8096 81.6295 15.3321 77.996 11.8338C77.3885 11.2511 74.9097 12.1507 74.861 12.6518Z" fill="#EE7A00"/>
<path fill-rule="evenodd" clip-rule="evenodd" d="M73.7886 26.4029C72.2026 24.7412 75.4396 23.6084 75.1104 25.8296C75.0593 26.2072 73.9417 26.5661 73.7886 26.4029Z" fill="#EE7A00"/>
<path fill-rule="evenodd" clip-rule="evenodd" d="M69.8638 24.9298C68.2778 23.261 71.5147 22.1352 71.1878 24.3587C71.1298 24.7293 70.0192 25.0883 69.8638 24.9298Z" fill="#EE7A00"/>
<path fill-rule="evenodd" clip-rule="evenodd" d="M69.0907 17.2243C67.5024 15.5602 70.7371 14.4298 70.4125 16.651C70.3545 17.0239 69.2414 17.3875 69.0907 17.2243Z" fill="#EE7A00"/>
<path fill-rule="evenodd" clip-rule="evenodd" d="M69.7314 13.3951C68.143 11.7287 71.3824 10.6006 71.0531 12.8218C70.9998 13.1924 69.8844 13.5583 69.7314 13.3951Z" fill="#EE7A00"/>
<path fill-rule="evenodd" clip-rule="evenodd" d="M54.8777 27.8102C54.5763 33.6976 60.6816 39.6525 61.9941 37.9348C63.0862 36.5084 60.4799 32.5905 58.3767 28.1365C57.1037 25.4352 57.6904 27.2415 59.3994 28.5933C62.9007 31.3692 70.5851 32.9285 65.1917 28.6446C63.441 27.2555 60.3825 26.1368 59.3275 25.3536C77.5785 28.1225 63.339 23.3073 60.6399 22.6524C62.3651 21.4474 66.0798 15.3853 65.2543 13.805C64.2688 11.9242 60.5054 14.3574 57.4957 20.8904C58.6759 7.91067 55.2372 5.03224 54.0361 18.555C48.1417 7.85472 46.5835 14.481 48.5405 17.0331C48.9741 17.5995 51.7149 20.5454 51.7288 20.5804C47.1469 19.9767 42.7923 20.8228 42.8642 21.4148C43.001 22.5452 51.6407 24.2256 51.5202 24.3026C47.2861 27.1157 47.0937 33.1079 47.9052 33.0986C50.8965 33.0613 54.7409 30.4952 54.8777 27.8102" fill="#4CBAC9"/>
<path fill-rule="evenodd" clip-rule="evenodd" d="M58.0678 21.802C58.1397 21.8207 61.059 25.2467 57.1263 25.354C54.8029 25.4146 52.8088 20.3407 58.0678 21.802Z" fill="#FBBF04"/>
<path fill-rule="evenodd" clip-rule="evenodd" d="M92.1448 24.9066C87.5606 26.7199 88.0475 39.907 97.369 34.2457C99.9938 31.5934 99.282 29.9852 99.6229 30.6238C101.353 33.8262 103.715 36.8701 107.238 36.7396C110.498 36.6207 115.799 31.372 111.043 25.4893C109.693 23.8182 114.006 26.2258 116.905 21.9723C122.361 13.943 111.328 15.7376 111.764 14.6282C113.039 11.3885 113.57 8.66861 111.868 7.28417C107.421 3.68323 104.147 9.83626 103.166 11.505C102.095 5.35198 88.6782 2.10069 91.8619 14.8683C87.5397 14.6632 84.3514 18.5041 85.9351 21.2171C87.4539 23.8158 91.7901 24.818 92.1448 24.9066" fill="#EA5C05"/>
<path fill-rule="evenodd" clip-rule="evenodd" d="M103.266 16.4039C103.407 16.4272 109.241 20.3522 103.514 25.2443C97.9094 30.0363 92.9496 14.6839 103.266 16.4039Z" fill="#FBBF04"/>
<path fill-rule="evenodd" clip-rule="evenodd" d="M113.783 22.303C111.063 18.6368 112.457 12.1551 114.036 12.6958C115.348 13.1456 115.348 16.8002 115.898 20.5806C116.229 22.8717 115.84 21.4546 116.361 19.8464C117.426 16.5415 121.718 12.2111 120.076 17.306C119.541 18.9585 118.05 21.0048 117.699 21.965C128.285 12.2856 121.164 21.5478 119.703 23.1397C121.335 23.1677 126.325 25.4728 126.464 26.8479C126.638 28.4887 123.167 28.547 118.43 25.6383C124.746 33.4951 123.765 36.842 117.199 28.6379C117.978 38.0866 114.138 34.4879 114.305 31.9964C114.342 31.444 114.847 28.3582 114.845 28.3279C112.151 30.7052 108.976 32.043 108.767 31.6281C108.373 30.8357 113.226 26.0204 113.12 26.0204C109.18 26.0344 106.493 22.2564 107.021 21.9091C108.965 20.6389 112.545 20.6319 113.783 22.303" fill="#4CBAC9"/>
<path fill-rule="evenodd" clip-rule="evenodd" d="M118.41 24.7995C118.449 24.7575 118.864 21.2824 116.286 22.9162C114.758 23.8811 115.646 28.0158 118.41 24.7995Z" fill="#FBBF04"/>
</svg>
