<svg width="128" height="225" viewBox="0 0 128 225" fill="none" xmlns="http://www.w3.org/2000/svg">
<path fill-rule="evenodd" clip-rule="evenodd" d="M11.8887 110.07C-0.428582 136.493 0.118381 177.077 16.0499 194.923C17.1947 196.205 19.0072 223.845 32.0537 224.936C35.0137 225.183 41.4485 224.754 42.8025 222.96C45.9099 218.853 42.9017 216.22 41.6898 216.029C38.3813 215.501 38.0595 206.155 39.3036 206.509C60.1765 212.41 69.0082 211.345 82.7572 204.077C83.4275 203.725 85.0577 210.426 83.3927 211.332C78.159 211.193 76.6495 215.919 76.8533 218.298C77.2903 223.427 82.674 223.652 84.9611 223.545C87.5591 223.419 94.2165 222.25 96.4499 219.426C109.759 202.61 112.473 143.742 106.424 121.878C104.236 113.984 104.105 113.831 100.59 107.228C93.7633 94.401 83.4141 82.8746 68.5765 84.0275C36.9387 86.4888 28.3965 77.3996 13.7467 106.241C13.1273 107.464 12.508 108.74 11.8887 110.07Z" fill="#8E6334"/>
<path fill-rule="evenodd" clip-rule="evenodd" d="M6.84068 73.7241C20.2814 113.175 84.994 124.012 107.663 91.1034C114.578 81.0651 120.123 57.9025 122.989 37.5015C135.807 21.7685 122.091 -0.664879 101.48 18.4331C87.836 6.57427 45.3905 5.68417 28.7029 12.8563C25.3729 6.06222 22.807 4.14782 18.9622 1.75086C5.32581 -6.7538 -6.80385 17.8137 4.40878 30.635C3.56689 46.4968 2.41944 60.7392 6.84068 73.7241Z" fill="#BC8039"/>
<path fill-rule="evenodd" clip-rule="evenodd" d="M23.9302 71.7187C27.1181 74.0325 30.4348 69.1528 28.1102 67.3967C23.9008 64.2222 21.3482 69.8472 23.9302 71.7187Z" fill="#31302F"/>
<path fill-rule="evenodd" clip-rule="evenodd" d="M21.7178 80.9097C16.3742 89.2374 31.2815 94.6426 35.3756 88.5403C42.7729 77.5127 26.0371 74.1746 21.7178 80.9097Z" fill="#FBCF9E"/>
<path fill-rule="evenodd" clip-rule="evenodd" d="M41.2425 187.917C76.2585 219.475 115.83 147.887 70.2849 128.385C54.4982 121.625 -1.89205 149.048 41.2425 187.917Z" fill="#FFF3D5"/>
<path fill-rule="evenodd" clip-rule="evenodd" d="M61.8208 173.364C63.0032 174.316 64.2391 172.313 63.3704 171.592C61.81 170.289 60.8555 172.597 61.8208 173.364Z" fill="#694926"/>
<path fill-rule="evenodd" clip-rule="evenodd" d="M64.4593 59.179C40.1224 59.179 32.9422 80.8642 42.2753 90.2429C77.4522 125.607 107.873 59.179 69.5482 59.179C67.8537 59.179 66.1538 59.179 64.4593 59.179" fill="#FFF3D5"/>
<path fill-rule="evenodd" clip-rule="evenodd" d="M63.9256 83.9661C63.8854 84.2691 63.8667 84.4943 63.8721 84.6659C62.9283 84.5077 61.2312 84.1726 59.0782 83.5586C59.0621 85.5427 62.4778 86.1379 65.1992 86.0896C66.8695 86.0601 70.221 85.0788 70.2934 83.4755C70.2961 83.4487 67.6177 84.3201 65.6926 84.6525C65.6122 83.3388 65.2878 79.3143 65.3843 78.6708C65.4486 78.2231 66.1484 73.8528 65.7998 73.8528C63.7997 73.8528 64.242 81.5343 63.9256 83.9661" fill="#31302F"/>
<path fill-rule="evenodd" clip-rule="evenodd" d="M99.486 73.5147C102.521 75.9385 105.679 70.8174 103.465 68.9755C99.4618 65.6455 97.0274 71.5495 99.486 73.5147Z" fill="#31302F"/>
<path fill-rule="evenodd" clip-rule="evenodd" d="M90.16 81.2312C84.8164 89.5616 99.7264 94.9614 103.821 88.8618C111.221 77.8315 94.4847 74.4934 90.16 81.2312Z" fill="#FBCF9E"/>
<path fill-rule="evenodd" clip-rule="evenodd" d="M66.6949 57.3503C74.5292 58.3021 81.8677 66.3939 65.2123 74.5232C60.0912 77.0193 44.2911 54.6262 66.6949 57.3503Z" fill="#694926"/>
<path fill-rule="evenodd" clip-rule="evenodd" d="M32.5181 14.3653C32.7111 14.9713 43.0845 40.563 45.3206 35.6913C45.8193 34.5947 39.5346 18.2933 38.0841 16.6041C37.143 15.5075 37.2824 15.5907 36.1242 14.3332C35.2367 13.376 32.4752 14.2366 32.5181 14.3653Z" fill="#CA9862"/>
<path fill-rule="evenodd" clip-rule="evenodd" d="M52.2388 11.1028C52.2468 11.7249 54.6894 38.4856 58.3197 34.1501C59.1321 33.1769 57.8933 16.189 56.9871 14.2853C56.3972 13.044 56.5099 13.1539 55.7565 11.7195C55.18 10.6336 52.2388 10.9688 52.2388 11.1028" fill="#CA9862"/>
<path fill-rule="evenodd" clip-rule="evenodd" d="M79.1333 12.3197C79.0126 12.9363 71.87 39.1849 69.0387 34.5036C68.4006 33.4499 72.6341 16.7543 73.8674 14.9659C74.6691 13.805 74.5404 13.8962 75.5378 12.5583C76.2993 11.5394 79.1601 12.1883 79.1333 12.3197Z" fill="#CA9862"/>
<path fill-rule="evenodd" clip-rule="evenodd" d="M99.0565 18.288C98.7777 18.8725 84.8517 43.4212 83.3154 38.394C82.9695 37.2599 91.525 21.5938 93.2061 20.0387C94.292 19.0279 94.1446 19.1004 95.4799 17.9501C96.4907 17.0734 99.1155 18.1646 99.0565 18.288Z" fill="#CA9862"/>
<path fill-rule="evenodd" clip-rule="evenodd" d="M60.0083 109.982C59.1182 106.102 51.1793 103.053 48.1577 104.582C44.3504 106.504 47.9753 117.097 49.4929 119.784C50.2034 121.049 55.3029 131.619 57.3942 131.458C61.5902 131.136 69.851 119.953 71.5508 116.486C82.1468 94.833 61.7162 107.207 60.0083 109.982" fill="#F4AFB3"/>
<path fill-rule="evenodd" clip-rule="evenodd" d="M17.8386 96.3292C6.4249 105.115 -17.0059 158.109 24.4047 141.794C31.6144 138.952 50.9564 126.208 50.9564 115.58C50.9564 96.3104 24.5307 113.692 22.9086 119.449C20.2972 119.449 36.5156 105.426 21.3965 95.7983C20.6217 95.3076 18.407 95.8894 17.8386 96.3292" fill="#BC8039"/>
<path fill-rule="evenodd" clip-rule="evenodd" d="M99.8369 104.308C109.521 114.971 123.225 171.267 85.3478 147.895C78.7522 143.825 61.9654 127.862 63.8422 117.4C67.2473 98.4386 90.19 120.215 90.7637 126.17C93.335 126.631 79.8461 109.962 96.4317 103.157C97.2817 102.806 99.3569 103.774 99.8369 104.308" fill="#BC8039"/>
</svg>
