<svg width="256" height="255" viewBox="0 0 256 255" fill="none" xmlns="http://www.w3.org/2000/svg">
<path d="M219.438 35.5604V0.000410902H35.5637L35.5605 35.562L219.438 35.5604Z" fill="#BE90C0"/>
<path d="M219.441 254.997V219.437H35.5655L35.564 254.999L219.441 254.997Z" fill="#A45DA4"/>
<path d="M219.439 219.438H254.999V35.5621L219.438 35.5605L219.439 219.438Z" fill="#A45DA4"/>
<path d="M0.00157199 219.438H35.5616V35.5621L0 35.5605L0.00157199 219.438Z" fill="#BE90C0"/>
<path d="M35.5649 219.438H219.439V35.5632H35.5649V219.438Z" fill="#B57FB7"/>
<path d="M35.5642 -0.000183664L0.000976562 35.563H35.561L35.5642 -0.000183664Z" fill="#C9A3CC"/>
<path d="M255.002 35.562L219.438 0.000410902V35.5604L255.002 35.562Z" fill="#B57FB7"/>
<path d="M219.438 255L255.002 219.437H219.442L219.438 255Z" fill="#953993"/>
<path d="M0.000976562 219.438L35.5642 255V219.439L0.000976562 219.438Z" fill="#B57FB7"/>
<g opacity="0.5">
<g opacity="0.5">
<g opacity="0.5">
<g opacity="0.5">
<g opacity="0.5">
<g opacity="0.5">
<path opacity="0.5" d="M35.5605 -9.16631e-05V6.04736H219.435L219.436 -9.16631e-05H35.5605Z" fill="url(#paint0_linear)"/>
</g>
</g>
</g>
</g>
</g>
</g>
<g opacity="0.5">
<g opacity="0.5">
<g opacity="0.5">
<g opacity="0.5">
<g opacity="0.5">
<g opacity="0.5">
<path opacity="0.5" d="M219.436 219.437H35.5605V225.865H219.436V219.437Z" fill="url(#paint1_linear)"/>
</g>
</g>
</g>
</g>
</g>
</g>
<g opacity="0.5">
<g opacity="0.5">
<g opacity="0.5">
<g opacity="0.5">
<g opacity="0.5">
<g opacity="0.5">
<path opacity="0.5" d="M225.484 35.5615H219.436V219.437L225.484 219.439V35.5615Z" fill="url(#paint2_linear)"/>
</g>
</g>
</g>
</g>
</g>
</g>
<g opacity="0.5">
<g opacity="0.5">
<g opacity="0.5">
<g opacity="0.5">
<g opacity="0.5">
<g opacity="0.5">
<path opacity="0.5" d="M6.42786 35.5632H0V219.438H6.42786V35.5632Z" fill="url(#paint3_linear)"/>
</g>
</g>
</g>
</g>
</g>
</g>
<defs>
<linearGradient id="paint0_linear" x1="219.437" y1="3.02351" x2="35.5602" y2="3.02351" gradientUnits="userSpaceOnUse">
<stop stop-color="white"/>
<stop offset="0.5" stop-color="white"/>
<stop offset="1" stop-color="white"/>
</linearGradient>
<linearGradient id="paint1_linear" x1="219.437" y1="222.651" x2="35.5617" y2="222.651" gradientUnits="userSpaceOnUse">
<stop stop-color="white"/>
<stop offset="0.5" stop-color="white"/>
<stop offset="1" stop-color="white"/>
</linearGradient>
<linearGradient id="paint2_linear" x1="222.46" y1="219.439" x2="222.46" y2="35.5617" gradientUnits="userSpaceOnUse">
<stop stop-color="white"/>
<stop offset="0.5" stop-color="white"/>
<stop offset="1" stop-color="white"/>
</linearGradient>
<linearGradient id="paint3_linear" x1="3.2133" y1="219.437" x2="3.2133" y2="35.5626" gradientUnits="userSpaceOnUse">
<stop stop-color="white"/>
<stop offset="0.5" stop-color="white"/>
<stop offset="1" stop-color="white"/>
</linearGradient>
</defs>
</svg>
