<svg width="256" height="255" viewBox="0 0 256 255" fill="none" xmlns="http://www.w3.org/2000/svg">
<path d="M83.4717 255L0 171.529L171.531 7.49667e-06L255.001 83.4694L83.4717 255Z" fill="url(#paint0_linear)"/>
<path d="M83.4714 220.227L34.7734 171.529L171.53 34.7723L220.228 83.4691L83.4714 220.227Z" fill="url(#paint1_linear)"/>
<path d="M34.7737 171.529H0L83.4717 255V220.227L34.7737 171.529ZM220.229 83.4694H255.001L171.531 7.49667e-06V34.7726L220.229 83.4694Z" fill="url(#paint2_linear)"/>
<g opacity="0.699997">
<g opacity="0.699997">
<g opacity="0.699997">
<g opacity="0.699997">
<g opacity="0.699997">
<g opacity="0.699997">
<path opacity="0.699997" d="M32.166 168.923L34.7734 171.529L171.53 34.7724L168.925 32.1661L32.166 168.923Z" fill="url(#paint3_linear)"/>
</g>
</g>
</g>
</g>
</g>
</g>
<g opacity="0.699997">
<g opacity="0.699997">
<g opacity="0.699997">
<g opacity="0.699997">
<g opacity="0.699997">
<g opacity="0.699997">
<path opacity="0.699997" d="M174.137 32.1666L171.53 34.773L220.228 83.4697L222.833 80.8634L174.137 32.1666Z" fill="url(#paint4_linear)"/>
</g>
</g>
</g>
</g>
</g>
</g>
<g opacity="0.699997">
<g opacity="0.699997">
<g opacity="0.699997">
<g opacity="0.699997">
<g opacity="0.699997">
<g opacity="0.699997">
<path opacity="0.699997" d="M5.21277 171.53L2.60645 174.136L80.8644 252.395L83.4718 249.788L5.21277 171.53Z" fill="url(#paint5_linear)"/>
</g>
</g>
</g>
</g>
</g>
</g>
<g opacity="0.699997">
<g opacity="0.699997">
<g opacity="0.699997">
<g opacity="0.699997">
<g opacity="0.699997">
<g opacity="0.699997">
<path opacity="0.699997" d="M83.4712 249.788L86.0764 252.395L251.851 86.618L249.246 84.0116L83.4712 249.788Z" fill="url(#paint6_linear)"/>
</g>
</g>
</g>
</g>
</g>
</g>
<defs>
<linearGradient id="paint0_linear" x1="41.7354" y1="213.265" x2="213.266" y2="41.7345" gradientUnits="userSpaceOnUse">
<stop stop-color="#967D58"/>
<stop offset="0.144681" stop-color="#BC9B6C"/>
<stop offset="0.19632" stop-color="#BC9B6C"/>
<stop offset="0.420121" stop-color="#9D835C"/>
<stop offset="0.5" stop-color="#9D835C"/>
<stop offset="0.699997" stop-color="#BC9B6C"/>
<stop offset="0.778909" stop-color="#BC9B6C"/>
<stop offset="1" stop-color="#967D58"/>
</linearGradient>
<linearGradient id="paint1_linear" x1="127.501" y1="34.7731" x2="127.501" y2="220.227" gradientUnits="userSpaceOnUse">
<stop stop-color="#AC8E64"/>
<stop offset="0.144681" stop-color="#CBB18A"/>
<stop offset="0.19632" stop-color="#CBB18A"/>
<stop offset="0.420121" stop-color="#AC8E64"/>
<stop offset="0.5" stop-color="#AC8E64"/>
<stop offset="0.699997" stop-color="#CCB28C"/>
<stop offset="0.778909" stop-color="#CCB28C"/>
<stop offset="1" stop-color="#AC8E64"/>
</linearGradient>
<linearGradient id="paint2_linear" x1="85.7657" y1="85.7655" x2="169.236" y2="169.236" gradientUnits="userSpaceOnUse">
<stop stop-color="#BC9B6C"/>
<stop offset="0.366221" stop-color="#A58960"/>
<stop offset="0.496933" stop-color="#A58960"/>
<stop offset="0.629258" stop-color="#A58960"/>
<stop offset="1" stop-color="#BC9B6C"/>
</linearGradient>
<linearGradient id="paint3_linear" x1="33.4687" y1="170.225" x2="170.226" y2="33.4681" gradientUnits="userSpaceOnUse">
<stop stop-color="white"/>
<stop offset="0.5" stop-color="white"/>
<stop offset="1" stop-color="white"/>
</linearGradient>
<linearGradient id="paint4_linear" x1="172.833" y1="33.4681" x2="221.531" y2="82.1657" gradientUnits="userSpaceOnUse">
<stop stop-color="white"/>
<stop offset="0.5" stop-color="white"/>
<stop offset="1" stop-color="white"/>
</linearGradient>
<linearGradient id="paint5_linear" x1="3.90928" y1="172.831" x2="82.1677" y2="251.09" gradientUnits="userSpaceOnUse">
<stop stop-color="white"/>
<stop offset="0.5" stop-color="white"/>
<stop offset="1" stop-color="white"/>
</linearGradient>
<linearGradient id="paint6_linear" x1="84.772" y1="251.091" x2="250.548" y2="85.3145" gradientUnits="userSpaceOnUse">
<stop stop-color="white"/>
<stop offset="0.5" stop-color="white"/>
<stop offset="1" stop-color="white"/>
</linearGradient>
</defs>
</svg>
