<svg width="348" height="255" viewBox="0 0 348 255" fill="none" xmlns="http://www.w3.org/2000/svg">
<path d="M0 65.7354H54.9306L56.7736 27.3894L0 65.7354Z" fill="#91D9F8"/>
<path d="M124.897 0.000151775H61.2733L56.7739 27.3892L124.897 0.000151775Z" fill="#91D9F8"/>
<path d="M222.156 0.000625809H173.527L213.042 25.1992L222.156 0.000625809Z" fill="#82D4F7"/>
<path d="M54.9312 65.7354H173.526L134.011 25.199L54.9312 65.7354Z" fill="#73D0F6"/>
<path d="M173.526 0.000625809H124.897L134.011 25.1992L173.526 0.000625809Z" fill="#91D9F8"/>
<path d="M285.777 0.000151775H222.155L276.387 27.3892L285.777 0.000151775Z" fill="#73D0F6"/>
<path d="M173.526 65.7354H278.227L213.041 25.199L173.526 65.7354Z" fill="#4FC9F5"/>
<path d="M278.229 65.7354H347.053L276.387 27.3894L278.229 65.7354Z" fill="#00C2F3"/>
<path d="M61.2734 0.000425878L0.000488281 65.7354L56.7741 27.3894L61.2734 0.000425878Z" fill="#73D0F6"/>
<path d="M124.897 0.000425878L56.7731 27.3894L54.9302 65.7354L134.01 25.199L124.897 0.000425878Z" fill="#BBE6FB"/>
<path d="M276.387 27.3894L347.053 65.7354L285.777 0.000425878L276.387 27.3894Z" fill="#23B9EC"/>
<path d="M222.155 0.000425878L213.042 25.199L278.228 65.7354L276.386 27.3894L222.155 0.000425878Z" fill="#91D9F8"/>
<path d="M173.527 0.000425878L134.012 25.199L173.527 65.7354L213.042 25.199L173.527 0.000425878Z" fill="#AEE2FA"/>
<path d="M0 65.7353H54.9306L174.002 255L0 65.7353Z" fill="#73D0F6"/>
<path d="M54.9312 65.7353H173.526L174.002 255L54.9312 65.7353Z" fill="#91D9F8"/>
<path d="M173.526 65.7353H278.227L174.002 255L173.526 65.7353Z" fill="#73D0F6"/>
<path d="M278.228 65.7353H347.053L174.003 255L278.228 65.7353Z" fill="#4FC9F5"/>
<path d="M0 65.7353H27.7202L174.002 255L0 65.7353Z" fill="#AEE2FA"/>
<path d="M102.886 65.7353H173.526L174.002 255L102.886 65.7353Z" fill="#73D0F6"/>
<path d="M173.526 65.7353H230.274L174.002 255L173.526 65.7353Z" fill="#91D9F8"/>
<path d="M305.44 65.7353H347.053L174.002 255L305.44 65.7353Z" fill="#23B9EC"/>
<g opacity="0.5">
<g opacity="0.5">
<g opacity="0.5">
<g opacity="0.5">
<g opacity="0.5">
<g opacity="0.5">
<path opacity="0.5" d="M340.823 72.7476H6.22705V65.7347H340.823V72.7476Z" fill="url(#paint0_linear)"/>
</g>
</g>
</g>
</g>
</g>
</g>
<g opacity="0.5">
<g opacity="0.5">
<g opacity="0.5">
<g opacity="0.5">
<g opacity="0.5">
<g opacity="0.5">
<path opacity="0.5" d="M285.256 6.42822H61.7969V-9.1743e-05H285.256V6.42822Z" fill="url(#paint1_linear)"/>
</g>
</g>
</g>
</g>
</g>
</g>
<defs>
<linearGradient id="paint0_linear" x1="6.22686" y1="69.2416" x2="340.824" y2="69.2416" gradientUnits="userSpaceOnUse">
<stop stop-color="white"/>
<stop offset="0.5" stop-color="white"/>
<stop offset="1" stop-color="white"/>
</linearGradient>
<linearGradient id="paint1_linear" x1="61.7961" y1="3.21444" x2="285.255" y2="3.21444" gradientUnits="userSpaceOnUse">
<stop stop-color="white"/>
<stop offset="0.5" stop-color="white"/>
<stop offset="1" stop-color="white"/>
</linearGradient>
</defs>
</svg>
