<svg width="168" height="255" viewBox="0 0 168 255" fill="none" xmlns="http://www.w3.org/2000/svg">
<path d="M83.6184 209.705C78.5799 205.875 72.9074 201.051 67.3242 195.245C66.8304 194.731 66.368 194.206 65.8846 193.686L54.666 235.558C70.5058 248.638 83.6195 255.002 83.6195 255V209.704L83.6184 209.705Z" fill="#89BE48"/>
<path d="M120.936 164.816L149.294 193.176C153.228 186.469 156.74 179.202 159.589 171.361L125.677 151.782C124.442 156.211 122.862 160.556 120.936 164.816Z" fill="#9DCC49"/>
<path d="M101.354 193.685L112.573 235.555C119.462 229.865 126.863 222.904 133.93 214.642L113.207 178.746C109.803 183.876 105.847 188.856 101.354 193.685Z" fill="#89BE48"/>
<path d="M46.3035 164.816L17.9434 193.176C22.6017 201.118 27.8534 208.266 33.308 214.643L54.0321 178.748C51.0255 174.216 48.4524 169.569 46.3035 164.816Z" fill="#9DCC49"/>
<path d="M128.988 127.502C128.988 131.54 128.703 135.517 128.189 139.442L165.391 149.41C166.577 142.462 167.237 135.167 167.237 127.502V127.5H128.988V127.502Z" fill="#C1D83F"/>
<path d="M120.934 90.1851L149.294 61.825C144.636 53.8842 139.384 46.7362 133.93 40.359L113.205 76.2554C116.212 80.7862 118.785 85.4317 120.934 90.1851Z" fill="#9DCC49"/>
<path d="M125.676 103.218C126.804 107.263 127.64 111.378 128.189 115.557L165.39 105.588C164.066 97.8315 162.086 90.5131 159.588 83.6387L125.676 103.218Z" fill="#C1D83F"/>
<path d="M65.8862 61.3168L54.6664 19.4454C47.778 25.1353 40.3762 32.0967 33.3105 40.3597L54.0335 76.2549C57.4366 71.126 61.3936 66.1455 65.8862 61.3168Z" fill="#89BE48"/>
<path d="M99.8299 59.6712C100.353 60.2148 100.842 60.7688 101.352 61.3159L112.572 19.4457C96.7375 6.37024 83.6284 0.00463882 83.6191 2.54132e-06V45.2976C88.6333 49.1086 94.2745 53.9037 99.8299 59.6712Z" fill="#89BE48"/>
<path d="M39.0483 139.442L1.8457 149.41C3.16936 157.167 5.15021 164.487 7.648 171.361L41.5612 151.781C40.4323 147.736 39.5966 143.621 39.0483 139.442Z" fill="#C1D83F"/>
<path d="M46.3044 90.1847L17.9443 61.8258C14.0104 68.531 10.4996 75.7983 7.64941 83.6395L41.5615 103.217C42.7959 98.7896 44.378 94.4443 46.3044 90.1847Z" fill="#9DCC49"/>
<path d="M39.049 115.556L1.8464 105.588C0.661827 112.537 0 119.833 0 127.5H38.2493C38.2493 123.46 38.5356 119.482 39.049 115.556Z" fill="#C1D83F"/>
<path d="M67.4077 59.6727C72.9631 53.904 78.6043 49.1101 83.6184 45.2979V0.000304531C83.6184 0.000304531 70.5047 6.36591 54.666 19.446L65.8858 61.3174C66.3946 60.7703 66.8849 60.2163 67.4077 59.6727Z" fill="#84B746"/>
<path d="M113.207 178.746L133.931 214.642C139.386 208.264 144.638 201.116 149.295 193.176L120.936 164.816C118.786 169.569 116.212 174.214 113.207 178.746Z" fill="#90C84B"/>
<path d="M99.8299 195.33C94.2745 201.098 88.6344 205.893 83.6191 209.704V254.999C83.6284 254.994 96.7386 248.63 112.573 235.556L101.353 193.685C100.844 194.233 100.354 194.787 99.8299 195.33Z" fill="#84B746"/>
<path d="M125.678 151.781L159.59 171.36C162.088 164.486 164.068 157.168 165.392 149.41L128.189 139.442C127.641 143.622 126.807 147.736 125.678 151.781Z" fill="#A9D046"/>
<path d="M54.0308 178.748L33.3066 214.643C40.3746 222.906 47.7753 229.868 54.6648 235.558L65.8846 193.687C61.3909 188.859 57.4338 183.877 54.0308 178.748Z" fill="#90C84B"/>
<path d="M128.988 127.499H167.237C167.237 119.834 166.577 112.537 165.39 105.588L128.189 115.557C128.703 119.482 128.988 123.46 128.988 127.499Z" fill="#CBDC4F"/>
<path d="M54.0331 76.2554L33.309 40.3602C27.8544 46.7362 22.6026 53.8842 17.9443 61.825L46.3044 90.1851C48.4545 85.4317 51.0265 80.7862 54.0331 76.2554Z" fill="#90C84B"/>
<path d="M113.205 76.2554L133.93 40.359C126.862 32.096 119.462 25.1358 112.572 19.4459L101.353 61.3161C105.846 66.1448 109.802 71.1265 113.205 76.2554Z" fill="#90C84B"/>
<path d="M125.677 103.218L159.589 83.6388C156.738 75.7988 153.228 68.5315 149.294 61.8251L120.934 90.1852C122.86 94.4436 124.443 98.789 125.677 103.218Z" fill="#A9D046"/>
<path d="M38.2493 127.502V127.5H0V127.502C0 135.167 0.661829 142.463 1.8464 149.41L39.0479 139.442C38.5344 135.517 38.2493 131.54 38.2493 127.502Z" fill="#CBDC4F"/>
<path d="M41.5622 103.217L7.65014 83.6382C5.15234 90.5126 3.1715 97.8322 1.84668 105.589L39.0493 115.557C39.5976 111.377 40.4333 107.262 41.5622 103.217Z" fill="#A9D046"/>
<path d="M41.5616 151.782L7.64844 171.361C10.4986 179.202 14.0094 186.469 17.9433 193.176L46.3034 164.816C44.3782 160.556 42.7949 156.211 41.5616 151.782Z" fill="#A9D046"/>
<path d="M83.6186 45.2976C78.6045 49.1098 72.9633 53.9037 67.4079 59.6724C48.0584 79.7614 38.248 102.583 38.248 127.502C38.248 152.385 48.0318 175.178 67.3233 195.245C72.9065 201.051 78.579 205.876 83.6175 209.705C88.6328 205.894 94.274 201.099 99.8294 195.33C119.179 175.243 128.988 152.422 128.988 127.502C128.988 102.581 119.178 79.7602 99.8294 59.6712C94.274 53.9037 88.6328 49.1086 83.6186 45.2976Z" fill="#90C84B"/>
<g opacity="0.600006">
<g opacity="0.600006">
<g opacity="0.600006">
<g opacity="0.600006">
<g opacity="0.600006">
<g opacity="0.600006">
<path opacity="0.600006" d="M99.8298 59.6717C94.2744 53.9042 88.6332 49.1091 83.6191 45.2981C82.11 46.4444 93.4063 56.956 98.0959 61.8252C116.367 80.7969 125.676 104.132 125.676 127.503C125.676 150.872 115.794 174.205 97.5221 193.176C92.8279 198.047 82.1088 208.558 83.6179 209.705C88.6332 205.894 94.2744 201.099 99.8298 195.33C119.179 175.244 128.989 152.423 128.989 127.503C128.989 102.582 119.178 79.7607 99.8298 59.6717" fill="url(#paint0_linear)"/>
</g>
</g>
</g>
</g>
</g>
</g>
<g opacity="0.5">
<g opacity="0.5">
<g opacity="0.5">
<g opacity="0.5">
<g opacity="0.5">
<g opacity="0.5">
<path opacity="0.5" d="M92.0534 4.84287L4.75928 92.137C3.58399 96.2494 2.59182 100.502 1.81641 104.902L98.0307 8.68632C95.8413 7.2143 93.8372 5.93819 92.0534 4.84287" fill="url(#paint1_linear)"/>
</g>
</g>
</g>
</g>
</g>
</g>
<g opacity="0.5">
<g opacity="0.5">
<g opacity="0.5">
<g opacity="0.5">
<g opacity="0.5">
<g opacity="0.5">
<path opacity="0.5" d="M59.7305 239.705C64.0573 243.022 68.063 245.794 71.5054 248.022L164.061 155.466C165.668 148.206 166.692 140.535 166.991 132.445L59.7305 239.705Z" fill="url(#paint2_linear)"/>
</g>
</g>
</g>
</g>
</g>
</g>
<g opacity="0.5">
<g opacity="0.5">
<g opacity="0.5">
<g opacity="0.5">
<g opacity="0.5">
<g opacity="0.5">
<path opacity="0.5" d="M137.801 45.2513L8.6543 174.401C15.8382 192.71 26.5874 207.793 37.7156 219.755L162.866 94.6033C157.702 75.037 148.341 58.6235 137.801 45.2513Z" fill="url(#paint3_linear)"/>
</g>
</g>
</g>
</g>
</g>
</g>
<defs>
<linearGradient id="paint0_linear" x1="106.231" y1="209.705" x2="106.231" y2="45.2978" gradientUnits="userSpaceOnUse">
<stop stop-color="white"/>
<stop offset="0.5" stop-color="white"/>
<stop offset="1" stop-color="white"/>
</linearGradient>
<linearGradient id="paint1_linear" x1="-0.639486" y1="102.447" x2="95.5754" y2="6.23192" gradientUnits="userSpaceOnUse">
<stop stop-color="white"/>
<stop offset="0.5" stop-color="white"/>
<stop offset="1" stop-color="white"/>
</linearGradient>
<linearGradient id="paint2_linear" x1="64.7529" y1="244.728" x2="172.013" y2="137.468" gradientUnits="userSpaceOnUse">
<stop stop-color="white"/>
<stop offset="0.5" stop-color="white"/>
<stop offset="1" stop-color="white"/>
</linearGradient>
<linearGradient id="paint3_linear" x1="19.1116" y1="201.151" x2="156.406" y2="63.8561" gradientUnits="userSpaceOnUse">
<stop stop-color="white"/>
<stop offset="0.5" stop-color="white"/>
<stop offset="1" stop-color="white"/>
</linearGradient>
</defs>
</svg>
