<svg width="255" height="255" viewBox="0 0 255 255" fill="none" xmlns="http://www.w3.org/2000/svg">
<path d="M83.4706 255L0 171.529L171.529 7.49667e-06L255 83.4694L83.4706 255Z" fill="url(#paint0_linear)"/>
<path d="M83.4709 220.228L34.7729 171.53L171.53 34.7728L220.228 83.4696L83.4709 220.228Z" fill="url(#paint1_linear)"/>
<path d="M34.7726 171.529H0L83.4706 255V220.227L34.7726 171.529ZM220.227 83.4694H255L171.529 7.49667e-06V34.7726L220.227 83.4694Z" fill="url(#paint2_linear)"/>
<g opacity="0.800003">
<g opacity="0.800003">
<g opacity="0.800003">
<g opacity="0.800003">
<g opacity="0.800003">
<g opacity="0.800003">
<path opacity="0.800003" d="M32.1665 168.923L34.7728 171.53L171.53 34.7729L168.924 32.1665L32.1665 168.923Z" fill="url(#paint3_linear)"/>
</g>
</g>
</g>
</g>
</g>
</g>
<g opacity="0.800003">
<g opacity="0.800003">
<g opacity="0.800003">
<g opacity="0.800003">
<g opacity="0.800003">
<g opacity="0.800003">
<path opacity="0.800003" d="M174.136 32.1665L171.529 34.7729L220.227 83.4697L222.832 80.8633L174.136 32.1665Z" fill="url(#paint4_linear)"/>
</g>
</g>
</g>
</g>
</g>
</g>
<g opacity="0.800003">
<g opacity="0.800003">
<g opacity="0.800003">
<g opacity="0.800003">
<g opacity="0.800003">
<g opacity="0.800003">
<path opacity="0.800003" d="M5.21131 171.53L2.60498 174.136L80.864 252.395L83.4703 249.788L5.21131 171.53Z" fill="url(#paint5_linear)"/>
</g>
</g>
</g>
</g>
</g>
</g>
<g opacity="0.800003">
<g opacity="0.800003">
<g opacity="0.800003">
<g opacity="0.800003">
<g opacity="0.800003">
<g opacity="0.800003">
<path opacity="0.800003" d="M83.4707 249.788L86.0759 252.395L251.852 86.6179L249.245 84.0116L83.4707 249.788Z" fill="url(#paint6_linear)"/>
</g>
</g>
</g>
</g>
</g>
</g>
<defs>
<linearGradient id="paint0_linear" x1="41.7337" y1="213.265" x2="213.264" y2="41.7344" gradientUnits="userSpaceOnUse">
<stop stop-color="#CAAB56"/>
<stop offset="0.144681" stop-color="#E8C35F"/>
<stop offset="0.19632" stop-color="#E8C35F"/>
<stop offset="0.420121" stop-color="#CAAB56"/>
<stop offset="0.5" stop-color="#CAAB56"/>
<stop offset="0.699997" stop-color="#E8C35F"/>
<stop offset="0.778909" stop-color="#E8C35F"/>
<stop offset="1" stop-color="#CAAB56"/>
</linearGradient>
<linearGradient id="paint1_linear" x1="127.5" y1="34.7734" x2="127.5" y2="220.228" gradientUnits="userSpaceOnUse">
<stop stop-color="#E8C35F"/>
<stop offset="0.144681" stop-color="#ECCF86"/>
<stop offset="0.19632" stop-color="#ECCF86"/>
<stop offset="0.420121" stop-color="#E8C35F"/>
<stop offset="0.5" stop-color="#E8C35F"/>
<stop offset="0.699997" stop-color="#ECCE82"/>
<stop offset="0.778909" stop-color="#ECCE82"/>
<stop offset="1" stop-color="#E8C35F"/>
</linearGradient>
<linearGradient id="paint2_linear" x1="85.7645" y1="85.7642" x2="169.235" y2="169.235" gradientUnits="userSpaceOnUse">
<stop stop-color="#E8C35F"/>
<stop offset="0.368482" stop-color="#CAAB56"/>
<stop offset="0.5" stop-color="#CAAB56"/>
<stop offset="0.631518" stop-color="#CAAB56"/>
<stop offset="1" stop-color="#E8C35F"/>
</linearGradient>
<linearGradient id="paint3_linear" x1="33.4692" y1="170.227" x2="170.226" y2="33.4698" gradientUnits="userSpaceOnUse">
<stop stop-color="white"/>
<stop offset="0.5" stop-color="white"/>
<stop offset="1" stop-color="white"/>
</linearGradient>
<linearGradient id="paint4_linear" x1="172.832" y1="33.4679" x2="221.53" y2="82.1654" gradientUnits="userSpaceOnUse">
<stop stop-color="white"/>
<stop offset="0.5" stop-color="white"/>
<stop offset="1" stop-color="white"/>
</linearGradient>
<linearGradient id="paint5_linear" x1="3.90894" y1="172.832" x2="82.1673" y2="251.09" gradientUnits="userSpaceOnUse">
<stop stop-color="white"/>
<stop offset="0.5" stop-color="white"/>
<stop offset="1" stop-color="white"/>
</linearGradient>
<linearGradient id="paint6_linear" x1="84.7716" y1="251.09" x2="250.548" y2="85.3139" gradientUnits="userSpaceOnUse">
<stop stop-color="white"/>
<stop offset="0.5" stop-color="white"/>
<stop offset="1" stop-color="white"/>
</linearGradient>
</defs>
</svg>
