<svg width="255" height="255" viewBox="0 0 255 255" fill="none" xmlns="http://www.w3.org/2000/svg">
<path d="M83.471 255L0 171.53L171.531 9.26599e-06L255 83.4698L83.471 255Z" fill="url(#paint0_linear)"/>
<path d="M83.4711 220.229L34.7729 171.53L171.531 34.7729L220.227 83.4699L83.4711 220.229Z" fill="url(#paint1_linear)"/>
<path d="M34.7728 171.53H0L83.471 255V220.228L34.7728 171.53ZM220.227 83.4698H255L171.531 9.26599e-06V34.7728L220.227 83.4698Z" fill="url(#paint2_linear)"/>
<g opacity="0.899994">
<g opacity="0.899994">
<g opacity="0.899994">
<g opacity="0.899994">
<g opacity="0.899994">
<g opacity="0.899994">
<path opacity="0.899994" d="M32.1655 168.924L34.773 171.53L171.532 34.7728L168.925 32.1665L32.1655 168.924Z" fill="url(#paint3_linear)"/>
</g>
</g>
</g>
</g>
</g>
</g>
<g opacity="0.899994">
<g opacity="0.899994">
<g opacity="0.899994">
<g opacity="0.899994">
<g opacity="0.899994">
<g opacity="0.899994">
<path opacity="0.899994" d="M174.136 32.1664L171.531 34.7727L220.227 83.4697L222.835 80.8634L174.136 32.1664Z" fill="url(#paint4_linear)"/>
</g>
</g>
</g>
</g>
</g>
</g>
<g opacity="0.899994">
<g opacity="0.899994">
<g opacity="0.899994">
<g opacity="0.899994">
<g opacity="0.899994">
<g opacity="0.899994">
<path opacity="0.899994" d="M5.21168 171.53L2.60645 174.137L80.8635 252.395L83.4711 249.789L5.21168 171.53Z" fill="url(#paint5_linear)"/>
</g>
</g>
</g>
</g>
</g>
</g>
<g opacity="0.899994">
<g opacity="0.899994">
<g opacity="0.899994">
<g opacity="0.899994">
<g opacity="0.899994">
<g opacity="0.899994">
<path opacity="0.899994" d="M83.4712 249.789L86.0752 252.395L251.853 86.6184L249.248 84.012L83.4712 249.789Z" fill="url(#paint6_linear)"/>
</g>
</g>
</g>
</g>
</g>
</g>
<defs>
<linearGradient id="paint0_linear" x1="41.7333" y1="213.265" x2="213.265" y2="41.7341" gradientUnits="userSpaceOnUse">
<stop stop-color="#E7E8E9"/>
<stop offset="0.100006" stop-color="#F1F2F2"/>
<stop offset="0.260056" stop-color="#DDDEDF"/>
<stop offset="0.411041" stop-color="#DDDEDF"/>
<stop offset="0.490114" stop-color="#DDDEDF"/>
<stop offset="0.711655" stop-color="#F5F6F6"/>
<stop offset="0.7875" stop-color="#F5F6F6"/>
<stop offset="1" stop-color="#DDDEDF"/>
</linearGradient>
<linearGradient id="paint1_linear" x1="127.5" y1="34.7723" x2="127.5" y2="220.228" gradientUnits="userSpaceOnUse">
<stop stop-color="#F1F2F2"/>
<stop offset="0.100006" stop-color="#F8F8F9"/>
<stop offset="0.260056" stop-color="#F0F0F1"/>
<stop offset="0.411041" stop-color="#F0F0F1"/>
<stop offset="0.490114" stop-color="#F0F0F1"/>
<stop offset="0.711655" stop-color="#FAFBFB"/>
<stop offset="0.7875" stop-color="#FAFBFB"/>
<stop offset="1" stop-color="#EDEEEE"/>
</linearGradient>
<linearGradient id="paint2_linear" x1="85.7649" y1="85.7655" x2="169.235" y2="169.236" gradientUnits="userSpaceOnUse">
<stop stop-color="#D2D4D5"/>
<stop offset="0.368482" stop-color="#E7E8E9"/>
<stop offset="0.5" stop-color="#E7E8E9"/>
<stop offset="0.631518" stop-color="#E7E8E9"/>
<stop offset="1" stop-color="#D2D4D5"/>
</linearGradient>
<linearGradient id="paint3_linear" x1="33.4694" y1="170.227" x2="170.227" y2="33.4692" gradientUnits="userSpaceOnUse">
<stop stop-color="white"/>
<stop offset="0.5" stop-color="white"/>
<stop offset="1" stop-color="white"/>
</linearGradient>
<linearGradient id="paint4_linear" x1="172.834" y1="33.4681" x2="221.532" y2="82.1659" gradientUnits="userSpaceOnUse">
<stop stop-color="white"/>
<stop offset="0.5" stop-color="white"/>
<stop offset="1" stop-color="white"/>
</linearGradient>
<linearGradient id="paint5_linear" x1="3.90928" y1="172.833" x2="82.168" y2="251.092" gradientUnits="userSpaceOnUse">
<stop stop-color="white"/>
<stop offset="0.5" stop-color="white"/>
<stop offset="1" stop-color="white"/>
</linearGradient>
<linearGradient id="paint6_linear" x1="84.7721" y1="251.093" x2="250.55" y2="85.3145" gradientUnits="userSpaceOnUse">
<stop stop-color="white"/>
<stop offset="0.5" stop-color="white"/>
<stop offset="1" stop-color="white"/>
</linearGradient>
</defs>
</svg>
