<svg width="193" height="255" viewBox="0 0 193 255" fill="none" xmlns="http://www.w3.org/2000/svg">
<path d="M50.4465 115.233L12.9326 105.181C9.82507 112.401 7.14873 119.854 5.05078 127.5H45.2596C46.7884 123.363 48.5328 119.269 50.4465 115.233Z" fill="#F47F64"/>
<path d="M154.202 163.585C154.202 170.236 153.06 176.491 150.94 182.213L179.415 210.688C184.7 202.066 188.549 192.437 190.637 182.007L154.14 160.936C154.167 161.819 154.202 162.702 154.202 163.585Z" fill="#F26D53"/>
<path d="M62.4749 93.7476L34.8399 66.1138C30.666 72.1607 26.6405 78.5276 22.8955 85.1611L56.0964 104.33C58.1167 100.736 60.2506 97.204 62.4749 93.7476Z" fill="#F26D53"/>
<path d="M96.2257 216.75C87.9649 216.75 80.265 215.392 73.3453 212.895L63.4443 249.844C73.6768 253.198 84.7136 255 96.2257 255H96.2268V216.75H96.2257Z" fill="#E55F4A"/>
<path d="M41.5115 182.214L13.0361 210.689C18.6647 219.873 25.9171 227.909 34.4375 234.519L53.8279 200.936C48.3791 195.715 44.1692 189.388 41.5115 182.214Z" fill="#F26D53"/>
<path d="M40.7941 142.353L0.448568 153.164C0.163433 156.613 0 160.087 0 163.586C0 169.957 0.635178 176.106 1.81513 182.008L38.3114 160.938C38.5049 154.732 39.3708 148.521 40.7941 142.353Z" fill="#F47F64"/>
<path d="M136.354 104.332C138.363 107.908 140.254 111.546 142.004 115.233L179.519 105.182C176.55 98.2794 173.188 91.5938 169.557 85.162L136.354 104.332Z" fill="#F47F64"/>
<path d="M129.976 93.7505L157.611 66.1143C152.829 59.1876 147.859 52.6794 142.908 46.6428L122.229 82.4598C124.892 86.1179 127.488 89.8849 129.976 93.7505Z" fill="#F26D53"/>
<path d="M111.865 69.1343L123.653 25.1423C108.183 9.26738 96.2347 0.00742665 96.2266 0.000472125V51.6946C101.299 56.9256 106.606 62.7848 111.865 69.1343Z" fill="#E55F4A"/>
<path d="M119.107 212.895L129.008 249.843C139.686 246.343 149.477 241.141 158.013 234.518L138.625 200.935C133.237 206.099 126.639 210.176 119.107 212.895Z" fill="#E55F4A"/>
<path d="M151.658 142.352L192.002 153.163C191.279 144.422 189.69 135.847 187.399 127.5H147.19C149.002 132.401 150.507 137.362 151.658 142.352Z" fill="#F47F64"/>
<path d="M80.5855 69.1287L68.7987 25.1413C62.7494 31.3482 56.1681 38.5658 49.5439 46.6424L70.2209 82.457C73.5985 77.8184 77.0792 73.3628 80.5855 69.1287Z" fill="#E55F4A"/>
<path d="M154.14 160.936L190.636 182.007C191.817 176.105 192.452 169.956 192.452 163.586C192.452 160.088 192.287 156.614 192.002 153.162L151.657 142.353C153.079 148.52 153.945 154.73 154.14 160.936Z" fill="#F3775C"/>
<path d="M147.19 127.5H187.399C185.302 119.854 182.624 112.401 179.519 105.181L142.003 115.233C143.918 119.27 145.662 123.363 147.19 127.5Z" fill="#F5886C"/>
<path d="M138.625 200.936L158.014 234.519C166.535 227.909 173.787 219.873 179.414 210.689L150.94 182.214C148.283 189.388 144.073 195.715 138.625 200.936Z" fill="#F1624C"/>
<path d="M96.2217 51.6906C96.2229 51.6918 96.2252 51.6929 96.2263 51.6941V0.00105116L96.2252 -0.000107291C96.2252 -0.000107291 84.2727 9.26101 68.7988 25.1405L80.5856 69.1279C85.8444 62.7784 91.1519 56.9181 96.2217 51.6906Z" fill="#DC5B47"/>
<path d="M56.0969 104.331L22.8948 85.162C19.2645 91.5938 15.902 98.2794 12.9336 105.181L50.4475 115.233C52.1977 111.546 54.0882 107.907 56.0969 104.331Z" fill="#F3775C"/>
<path d="M70.2208 82.4562L49.5439 46.6427C44.5934 52.6781 39.6232 59.1864 34.8408 66.1131L62.4746 93.748C64.962 89.8813 67.5572 86.1131 70.2208 82.4562Z" fill="#F1624C"/>
<path d="M122.23 82.46L142.908 46.643C136.284 38.5676 129.701 31.3488 123.653 25.1419L111.865 69.1339C115.371 73.3681 118.852 77.8236 122.23 82.46Z" fill="#F1624C"/>
<path d="M136.353 104.332L169.556 85.1619C165.81 78.5284 161.784 72.1627 157.611 66.1146L129.976 93.7507C132.199 97.206 134.334 100.738 136.353 104.332Z" fill="#F3775C"/>
<path d="M45.2607 127.5H5.05196C2.76276 135.847 1.17249 144.422 0.449219 153.163L40.7936 142.352C41.9446 137.362 43.4491 132.401 45.2607 127.5Z" fill="#F5886C"/>
<path d="M53.8279 200.936L34.4375 234.519C42.9753 241.142 52.7662 246.343 63.4437 249.844L73.3446 212.894C65.8129 210.177 59.2142 206.099 53.8279 200.936Z" fill="#F1624C"/>
<path d="M38.2492 163.586C38.2492 162.703 38.2829 161.82 38.3118 160.937L1.81445 182.008C3.90197 192.439 7.7513 202.067 13.0356 210.69L41.5109 182.215C39.3898 176.491 38.2492 170.237 38.2492 163.586Z" fill="#F3775C"/>
<path d="M96.2266 216.75V255C107.739 255 118.775 253.198 129.008 249.843L119.107 212.895C112.187 215.392 104.487 216.75 96.2266 216.75Z" fill="#DC5B47"/>
<path d="M96.222 51.6907C70.3453 78.374 38.249 121.338 38.249 163.586C38.249 194.391 62.6328 216.75 96.2255 216.75C129.819 216.75 154.202 194.391 154.202 163.586C154.202 121.35 122.124 78.3984 96.222 51.6907Z" fill="#F48166"/>
<g opacity="0.5">
<g opacity="0.5">
<g opacity="0.5">
<g opacity="0.5">
<g opacity="0.5">
<g opacity="0.5">
<path opacity="0.5" d="M96.2218 51.6907C95.4256 52.5125 94.6211 53.3505 93.8144 54.2024C115.112 76.1811 150.726 119.531 150.726 163.586C150.726 192.376 127.805 213.272 96.2253 213.272H92.748V216.663C93.8967 216.716 95.0535 216.75 96.2253 216.75C129.819 216.75 154.203 194.391 154.203 163.586C154.203 121.35 122.124 78.3973 96.2218 51.6907Z" fill="url(#paint0_linear)"/>
</g>
</g>
</g>
</g>
</g>
</g>
<g opacity="0.399994">
<g opacity="0.399994">
<g opacity="0.399994">
<g opacity="0.399994">
<g opacity="0.399994">
<g opacity="0.399994">
<path opacity="0.399994" d="M109.187 11.1294L11.3568 108.959C9.35508 113.91 7.5643 118.964 6.02734 124.11L114.269 15.8678C112.476 14.1604 110.776 12.5794 109.187 11.1294" fill="url(#paint1_linear)"/>
</g>
</g>
</g>
</g>
</g>
</g>
<g opacity="0.399994">
<g opacity="0.399994">
<g opacity="0.399994">
<g opacity="0.399994">
<g opacity="0.399994">
<g opacity="0.399994">
<path opacity="0.399994" d="M155.515 63.1205L11.1543 207.483C19.8196 223.078 33.0588 235.609 49.1736 243.88L181.951 111.103C175.148 93.6452 165.686 77.4457 155.515 63.1205Z" fill="url(#paint2_linear)"/>
</g>
</g>
</g>
</g>
</g>
</g>
<g opacity="0.399994">
<g opacity="0.399994">
<g opacity="0.399994">
<g opacity="0.399994">
<g opacity="0.399994">
<g opacity="0.399994">
<path opacity="0.399994" d="M192.383 159.454L96.8486 254.987C104.648 254.943 112.223 254.072 119.476 252.453L190.795 181.134C191.866 175.498 192.453 169.645 192.453 163.587C192.453 162.206 192.428 160.828 192.383 159.454" fill="url(#paint3_linear)"/>
</g>
</g>
</g>
</g>
</g>
</g>
<defs>
<linearGradient id="paint0_linear" x1="123.475" y1="216.75" x2="123.475" y2="51.6906" gradientUnits="userSpaceOnUse">
<stop stop-color="white"/>
<stop offset="0.5" stop-color="white"/>
<stop offset="1" stop-color="white"/>
</linearGradient>
<linearGradient id="paint1_linear" x1="3.57179" y1="121.655" x2="111.814" y2="13.4128" gradientUnits="userSpaceOnUse">
<stop stop-color="white"/>
<stop offset="0.5" stop-color="white"/>
<stop offset="1" stop-color="white"/>
</linearGradient>
<linearGradient id="paint2_linear" x1="27.3759" y1="228.469" x2="174.12" y2="81.7246" gradientUnits="userSpaceOnUse">
<stop stop-color="white"/>
<stop offset="0.5" stop-color="white"/>
<stop offset="1" stop-color="white"/>
</linearGradient>
<linearGradient id="paint3_linear" x1="101.872" y1="260.011" x2="197.406" y2="164.477" gradientUnits="userSpaceOnUse">
<stop stop-color="white"/>
<stop offset="0.5" stop-color="white"/>
<stop offset="1" stop-color="white"/>
</linearGradient>
</defs>
</svg>
