<svg width="255" height="255" viewBox="0 0 255 255" fill="none" xmlns="http://www.w3.org/2000/svg">
<path d="M163.416 40.7937L127.5 55.6696L178.292 76.709L163.416 40.7937Z" fill="#F8C3DA"/>
<path d="M40.7935 91.5847L55.6694 127.5L76.7087 76.7088L40.7935 91.5847Z" fill="#F8C3DA"/>
<path d="M91.5849 214.207L127.5 199.329L76.709 178.291L91.5849 214.207Z" fill="#F8C3DA"/>
<path d="M199.33 127.5L178.291 178.291L214.206 163.416L199.33 127.5Z" fill="#F6B0CE"/>
<path d="M91.5849 40.7937L76.709 76.709L127.499 55.6696L91.5849 40.7937Z" fill="#F8C3DA"/>
<path d="M40.7935 163.416L76.7087 178.292L55.6694 127.499L40.7935 163.416Z" fill="#F8C3DA"/>
<path d="M163.415 214.207L178.29 178.291L127.5 199.329L163.415 214.207Z" fill="#F6B0CE"/>
<path d="M214.206 91.5847L178.292 76.7088L199.33 127.5L214.206 91.5847Z" fill="#F8C3DA"/>
<path d="M163.416 40.7935L127.499 55.6694L91.585 40.7935L127.5 -0.000197774L163.416 40.7935Z" fill="#F6B0CE"/>
<path d="M214.206 91.5845L178.291 76.7086L163.416 40.7945L217.655 37.345L214.206 91.5845Z" fill="#F6B0CE"/>
<path d="M214.206 163.416L199.329 127.499L214.206 91.5854L254.999 127.501L214.206 163.416Z" fill="#F49DC3"/>
<path d="M163.414 214.207L178.291 178.292L214.204 163.416L217.654 217.657L163.414 214.207Z" fill="#F49DC3"/>
<path d="M40.7923 163.416L76.7076 178.291L91.5835 214.206L37.3428 217.656L40.7923 163.416Z" fill="#F6B0CE"/>
<path d="M40.7925 91.5847L55.6696 127.5L40.7925 163.414L0 127.5L40.7925 91.5847Z" fill="#F6B0CE"/>
<path d="M91.5849 40.7933L76.7078 76.7086L40.7937 91.5845L37.3442 37.345L91.5849 40.7933Z" fill="#F6B0CE"/>
<path d="M91.5849 40.793L127.5 0.00050255C92.292 0.00050255 60.4178 14.2711 37.3442 37.3447L91.5849 40.793Z" fill="#F49DC3"/>
<path d="M163.415 40.7939L217.656 37.3457V37.3444C194.582 14.2721 162.708 0.000243332 127.5 0.000243332V0.00148303L163.415 40.7939Z" fill="#F49DC3"/>
<path d="M214.206 91.5844V91.5857L255 127.501V127.5C255 92.2915 240.729 60.4173 217.657 37.345H217.656L214.206 91.5844Z" fill="#F38BB9"/>
<path d="M214.206 163.416H214.204L217.653 217.657H217.656C240.729 194.583 255 162.709 255 127.501H254.999L214.206 163.416Z" fill="#F38BB9"/>
<path d="M163.413 214.208V214.206L127.498 255H127.501C162.708 255 194.58 240.729 217.654 217.656L163.413 214.208Z" fill="#F38BB9"/>
<path d="M127.498 255L91.5837 214.208V214.206L37.3418 217.656C60.4154 240.728 92.2908 255 127.498 255Z" fill="#F38BB9"/>
<path d="M37.3427 217.655L40.791 163.415L40.7922 163.414L0.000976562 127.499C0.000976563 162.707 14.2716 194.582 37.3427 217.655Z" fill="#F49DC3"/>
<path d="M0 127.5L40.7925 91.5847H40.7937L37.3442 37.3453C14.2718 60.4176 0 92.2917 0 127.5Z" fill="#F49DC3"/>
<path d="M91.585 214.207L127.499 199.331L163.413 214.207L127.498 255L91.585 214.207Z" fill="#F49DC3"/>
<path d="M178.292 76.7096L127.499 55.6702L76.7093 76.7096L55.6699 127.5L76.7093 178.292L127.5 199.33L178.29 178.292L199.33 127.5L178.292 76.7096Z" fill="#FBD6E6"/>
<g opacity="0.5">
<g opacity="0.5">
<g opacity="0.5">
<g opacity="0.5">
<g opacity="0.5">
<g opacity="0.5">
<path opacity="0.5" d="M195.527 19.6543L19.6553 195.528C29.7979 211.575 43.4235 225.202 59.4728 235.346L235.345 59.4719C225.203 43.4238 211.575 29.7994 195.527 19.6543" fill="url(#paint0_linear)"/>
</g>
</g>
</g>
</g>
</g>
</g>
<g opacity="0.5">
<g opacity="0.5">
<g opacity="0.5">
<g opacity="0.5">
<g opacity="0.5">
<g opacity="0.5">
<path opacity="0.5" d="M108.563 1.40294L1.4005 108.566C0.828686 112.414 0.429284 116.317 0.208496 120.268L120.266 0.208434C116.314 0.429222 112.412 0.829881 108.563 1.40294" fill="url(#paint1_linear)"/>
</g>
</g>
</g>
</g>
</g>
</g>
<g opacity="0.5">
<g opacity="0.5">
<g opacity="0.5">
<g opacity="0.5">
<g opacity="0.5">
<g opacity="0.5">
<path opacity="0.5" d="M255 127.499C255 124.79 254.905 122.101 254.739 119.433L119.433 254.739C122.102 254.905 124.79 255 127.501 255C132.21 255 136.858 254.737 141.435 254.238L254.238 141.436C254.737 136.858 255 132.209 255 127.499" fill="url(#paint2_linear)"/>
</g>
</g>
</g>
</g>
</g>
</g>
<defs>
<linearGradient id="paint0_linear" x1="37.3486" y1="217.651" x2="217.65" y2="37.3494" gradientUnits="userSpaceOnUse">
<stop stop-color="white"/>
<stop offset="0.5" stop-color="white"/>
<stop offset="1" stop-color="white"/>
</linearGradient>
<linearGradient id="paint1_linear" x1="-2.41882" y1="117.64" x2="117.64" y2="-2.41864" gradientUnits="userSpaceOnUse">
<stop stop-color="white"/>
<stop offset="0.5" stop-color="white"/>
<stop offset="1" stop-color="white"/>
</linearGradient>
<linearGradient id="paint2_linear" x1="124.809" y1="260.116" x2="260.115" y2="124.809" gradientUnits="userSpaceOnUse">
<stop stop-color="white"/>
<stop offset="0.5" stop-color="white"/>
<stop offset="1" stop-color="white"/>
</linearGradient>
</defs>
</svg>
