<svg width="418" height="254" viewBox="0 0 418 254" fill="none" xmlns="http://www.w3.org/2000/svg">
<path d="M371.864 105.549C385.016 91.9365 394.923 66.4606 381.501 50.9676C386.071 49.169 390.99 45.332 393.371 43.6625C404.944 35.6011 410.63 23.332 416.944 11.246C417.851 9.53206 416.621 8.24809 415.069 7.91402C415.374 5.80491 413.691 4.16592 412.077 3.09916C408.511 0.765877 402.824 -0.702977 398.629 0.342857C396.528 0.853998 394.286 2.3604 394.33 4.76258L394.635 6.66319C393.92 7.67587 393.44 8.94677 393.022 10.1287C390.414 17.5053 388.522 23.8091 384.213 30.6441C382.6 33.1824 375.666 38.579 372.972 43.5604C357.361 25.182 334.066 16.183 309.743 20.0436C308.391 20.2521 306.865 22.2416 308.295 23.386L309.778 24.5479C305.129 24.5959 300.455 25.6042 295.676 26.4834C283.614 28.7016 271.745 31.0087 259.858 34.0337C236.747 39.8978 213.845 46.3377 189.949 48.0238C166.681 49.6627 143.229 47.3286 120.04 45.8431C100.242 44.5792 80.3058 42.6576 60.7442 46.7598C21.5773 54.9407 -1.69959 90.6491 0.0969722 129.529C1.92842 168.518 31.1707 206.43 60.6309 229.851C82.5647 247.296 107.751 254.769 135.624 253.106C163.994 251.43 192.016 239.624 216.958 226.798C245.695 212.029 272.015 192.934 297.08 172.658C309.856 162.303 322.336 151.553 334.555 140.524C346.956 129.318 359.89 118.762 371.288 106.468L371.864 105.549" fill="#1B181A"/>
<path d="M403.36 5.5831C404.738 5.83867 406.177 6.23382 407.433 6.79294C408.436 7.2596 408.933 7.57969 409.517 8.21382L408.384 8.52697C406.657 8.78952 403.944 8.46939 401.843 7.52561L400.578 5.40954C401.18 5.3511 402.479 5.4165 403.36 5.5831" fill="#7ACC43"/>
<path d="M395.857 16.8275C396.162 15.0865 396.136 12.2176 396.607 9.7605C397.322 10.4862 398.15 11.1273 399.014 11.6481C399.999 12.2752 401.508 11.9411 402.319 11.1439C404.656 12.2517 407.316 12.7689 409.497 12.6328L410.43 12.5133C406.025 26.2452 392.124 43.5368 377.812 47.5466L376.557 47.6765C375.379 47.1889 378.065 43.6938 378.623 43.0972C380.089 41.4652 381.938 40.0548 383.568 38.5964C386.743 35.7441 388.792 31.4238 390.912 27.7472C392.769 24.5478 395.237 20.5276 395.857 16.8275" fill="#7ACC43"/>
<path d="M309.109 155.927C290.559 171.622 271.416 186.599 251.244 200.144C214.58 224.775 168.34 248.584 122.955 246.813C98.6663 245.859 77.6745 235.726 59.7698 219.698C43.9583 205.517 29.6643 188.232 19.4954 169.577C-2.09828 129.92 4.09365 75.6635 48.5892 55.1071C68.2555 46.0173 90.4247 48.3986 111.329 49.6084C133.978 50.9203 156.514 53.2475 179.215 52.9099C202.17 52.5523 224.33 47.85 246.465 42.0783C258.735 38.8719 270.98 35.5468 283.381 32.9056C293.001 30.8444 305.402 26.7658 315.545 28.2617C322.88 32.3779 331.06 34.8926 339.101 37.662C336.851 37.6934 334.575 37.8836 332.211 38.3066C325.819 39.458 316.862 42.0303 312.24 46.8791C307.932 51.4244 315.972 56.0073 318.964 57.5642C326.839 61.6865 336.694 63.7956 345.86 64.3923C340.732 69.0091 336.31 73.912 335.272 75.9426C331.444 83.4763 340.784 85.2173 346.34 84.5186C351.206 83.9159 355.933 81.4492 360.215 79.2031C361.68 78.4373 363.302 77.6366 364.925 76.7608C364.445 83.3193 365.814 89.9362 364.602 96.4581C363.983 99.7596 363.782 102.839 365.064 105.695C347.91 123.795 328.104 139.853 309.109 155.927" fill="#755BB3"/>
<path d="M364.602 96.4581C365.797 90.0287 364.48 83.5103 364.898 77.0469C361.166 82.577 355.872 87.4085 351.302 91.1905C338.107 102.148 323.377 111.027 308.664 119.791C269.985 142.844 237.83 177.401 195.707 194.573C158.424 209.759 111.05 214.788 75.6424 192.058C39.8331 169.083 20.4982 119.791 35.6818 78.958C39.0133 69.9494 43.6705 61.9185 49.3306 54.787L48.5892 55.1071C4.09365 75.6635 -2.09828 129.92 19.4954 169.577C29.6643 188.232 43.9583 205.517 59.7698 219.698C77.6744 235.726 98.6663 245.859 122.955 246.813C168.34 248.584 214.58 224.775 251.244 200.144C271.416 186.599 290.559 171.622 309.109 155.927C328.104 139.853 347.909 123.795 365.064 105.695C363.782 102.839 363.983 99.7596 364.602 96.4581" fill="#6954A5"/>
<path d="M368.839 102.561C368.203 99.0718 369.755 94.373 369.825 91.3096V90.3693C369.188 83.2753 368.264 76.0451 369.04 68.9546C364.514 70.2193 360.45 73.5924 356.342 75.759C353.385 77.3099 350.315 78.6209 347.106 79.4906C342.615 80.7169 338.455 79.3065 342.344 74.8187C343.696 73.2688 345.161 71.7763 346.67 70.3075C350.586 63.7961 356.377 57.9938 363.493 55.2645L364.165 54.9409C361.662 52.9819 355.932 56.1813 350.22 60.6996C344.429 59.5168 338.551 58.8391 332.777 57.5097C328.53 56.5389 310.704 51.0873 320.855 46.781C329.167 43.251 337.347 41.537 345.955 41.346C349.522 40.8043 353.132 40.7023 356.691 41.1619L356.22 40.1841C352.653 39.2543 349.269 38.5042 345.859 38.0681L345.275 36.9472C337.303 32.4193 327.649 30.8719 319.599 26.5386L318.884 26.0065L318.439 25.8704C317.367 25.2398 316.32 24.5621 315.317 23.8093C326.812 23.5128 338.141 24.9912 348.754 29.8941C354.345 32.4734 359.037 36.5346 363.511 40.6778C364.226 41.339 369.153 45.7892 371.988 48.0614C372.214 49.1692 372.886 50.1985 374.185 51.0673C375.345 51.8436 376.749 52.011 378.293 51.82C388.811 67.497 381.441 89.6706 368.839 102.561" fill="#7ACC43"/>
<path d="M313.968 35.8222C290.351 32.9499 272.115 43.9316 250.495 51.5089C239.646 55.3189 228.779 58.5279 217.45 60.5585C206.06 62.6031 193.807 61.9419 182.775 65.3803C179.653 66.3511 179.644 71.2715 182.932 71.9693C193.598 74.2285 205.45 72.0312 216.212 71.0055C228.116 69.8672 240.212 68.0442 251.759 64.8317C263.838 61.4587 274.975 55.7751 286.217 50.3715C292.025 47.5776 297.746 44.1663 303.991 42.4191C308.116 41.2634 311.36 40.5926 314.587 37.6994C315.372 37.0015 315.005 35.9487 313.968 35.8222" fill="white"/>
<path d="M146.344 65.2135C125.387 63.8615 102.573 54.3818 82.4529 64.8393C79.4267 66.4163 80.7175 71.1352 84.2321 70.1339C105.102 64.2086 125.178 68.8901 146.397 67.6087C147.923 67.5136 147.844 65.3164 146.344 65.2135" fill="white"/>
</svg>
