<svg width="271" height="288" viewBox="0 0 271 288" fill="none" xmlns="http://www.w3.org/2000/svg">
<path d="M257.308 142.002C240.311 117.436 205.016 112.287 177.919 107.613C158.593 104.28 139.59 100.723 134.531 78.8082C129.717 57.97 134.819 37.7425 142.938 18.5791C143.366 17.5498 142.555 16.9915 141.77 17.1921L139.738 17.3404C134.165 21.2307 130.615 25.9583 128.104 31.2006C128.278 26.0804 128.304 20.9428 128.339 15.9099C128.391 10.7549 129.857 4.53567 126.386 0.15695L125.322 3.85323e-06L123.891 0.880989C119.574 13.1274 117.856 25.0337 117.455 37.4633C115.484 31.7239 113.06 26.1415 110.443 20.6463C108.961 17.5498 106.606 12.7436 103.187 10.6939L102.594 9.87388C101.495 9.70815 100.379 9.42905 99.2626 9.56861L98.1377 10.5455L98.6172 11.5748C103.091 24.7633 106.022 37.9169 109.118 51.2624C108.333 49.9017 107.53 48.5147 106.589 47.154C101.321 39.391 96.0185 36.5038 87.4805 33.5731L86.1548 34.4802V34.5063L86.6518 35.4135L86.9309 35.5706C99.315 50.7391 109.405 66.2739 106.022 86.9115C102.559 108.283 85.867 118.444 67.3606 125.975C39.4353 137.348 8.97219 148.711 1.28882 181.403C-5.41778 209.843 15.2166 239.861 36.1823 256.813C48.8368 267.048 63.968 273.416 79.7447 276.98C95.6347 280.561 110.827 279.195 126.508 276.574C125.557 277.695 124.694 278.891 124.109 280.244C123.342 282.057 123.429 285.13 126.072 285.188C127.676 285.215 128.801 283.903 128.819 282.36L128.889 281.688L129.22 281C130.188 279.488 131.4 278.124 132.682 276.877C134.025 275.566 135.473 274.421 137.008 273.423C134.426 279.004 131.95 286.656 137.06 287.021C138.735 287.14 140.854 285.512 140.505 283.665L140.008 282.162L140.217 280.268C140.819 276.823 141.901 273.297 143.017 269.968L143.383 270.015L143.933 270.519C144.046 273.399 144.02 276.281 145.494 278.875C147.159 281.763 151.468 278.124 149.854 275.395C149.209 274.285 148.773 273.112 148.407 271.91C149.348 272.121 150.273 272.38 151.005 272.857C154.049 274.86 155.331 279.6 159.561 279.177C160.887 279.048 162.073 277.242 161.506 276.008C160.773 274.346 159.395 273.59 158.131 272.349L157.729 271.927C159.927 272.993 162.108 274.046 164.515 274.108C165.901 274.149 167.663 272.196 166.468 270.878C164.567 268.758 161.706 267.385 158.663 266.516C163.939 265.736 169.346 265.498 174.64 264.581C185.698 262.656 196.739 259.943 207.493 256.792C224.168 251.909 242.744 243.143 254.543 229.98C275.945 206.113 275.099 167.74 257.308 142.002Z" fill="#1B181A"/>
<path d="M201.546 254.523C194.465 256.314 187.287 258.087 180.049 259.449C181.627 258.907 183.197 258.341 184.741 257.728C195.389 253.472 204.285 245.21 210.137 235.51C211.018 234.038 208.82 233.012 207.86 234.252C201.119 242.982 193.715 249.817 183.712 254.682C178.156 257.388 172.025 258.716 166.173 260.587C165.153 260.904 164.019 261.299 162.824 261.739C159.493 262.025 156.214 262.373 153.004 263.142C160.539 256.243 163.321 244.917 161.272 234.6L160.635 234.808C162.842 247.64 157.783 257.728 147.806 264.232C131.419 265.664 117.256 258.604 105.186 247.701L105.142 247.731C114.055 256.975 127.024 266.577 140.568 267.391L140.106 267.796C138.292 267.494 136.294 268.281 134.428 269.453C115.189 273.378 92.3571 273.79 76.6938 260.75L76.3363 261.217C84.7523 268.56 97.5374 273.643 110.41 275.048L109.041 275.255C97.9038 276.867 85.9644 274.669 75.1763 271.936C59.295 267.933 44.8266 259.753 32.7041 248.822C6.18299 224.923 -4.02091 182.691 23.2241 155.306C44.3643 134.066 77.3915 132.325 98.0782 111.03C117.369 91.1764 113.724 57.9696 94.1449 39.914C97.7468 42.3912 100.843 45.2521 103.843 49.343C108.849 56.1815 111.334 63.8922 113.148 72.0216C116.968 89.048 119.968 105.936 114.055 122.88C113.689 123.984 115.137 124.485 115.573 123.435C121.87 108.321 120.248 88.6991 116.89 73.0334C116.122 69.3961 115.207 65.9333 114.108 62.5926C114.675 45.1301 106.59 27.0656 99.3951 11.5308V11.4523L99.3776 11.1209L100.145 11.1819C105.474 12.7606 108.247 22.7131 110.079 27.1616C113.096 34.5234 115.808 41.894 117.509 49.6832C117.954 51.733 120.614 50.1804 120.649 48.6627C120.849 39.9402 120.614 31.1303 122.166 22.5124C123.282 16.3718 125.358 10.3968 126.108 4.21256C127.242 9.18441 125.576 15.831 125.21 20.4104C124.695 26.7342 124.381 33.3459 124.939 39.6959C123.16 45.7406 122.061 52.1516 120.518 58.5976L121.137 58.7285C122.968 53.1373 124.678 47.2496 126.858 41.5974L127.521 40.6204L127.591 39.7569C129.073 36.1283 130.826 32.6394 132.98 29.4644C128.358 39.1028 126.457 50.4159 125.864 60.5254C124.957 76.6097 128.759 90.8711 141.021 101.581C151.958 111.132 169.88 111.745 183.537 114.11C199.305 116.828 215.047 120.229 229.637 126.993C264.479 143.184 278.058 189.233 256.228 221.386C244.054 239.384 221.841 249.381 201.546 254.523" fill="#F8A24E"/>
<path d="M201.546 254.523C194.465 256.314 187.287 258.087 180.049 259.449C181.627 258.907 183.197 258.341 184.741 257.728C195.389 253.472 204.285 245.21 210.137 235.51C211.018 234.038 208.82 233.012 207.86 234.252C201.119 242.982 193.715 249.817 183.712 254.682C178.156 257.388 172.025 258.716 166.173 260.587C165.153 260.904 164.019 261.299 162.824 261.739C159.493 262.025 156.214 262.373 153.004 263.142C160.539 256.243 163.321 244.917 161.272 234.6L160.635 234.808C162.842 247.64 157.783 257.728 147.806 264.232C131.419 265.664 117.256 258.604 105.186 247.701L105.142 247.731C114.055 256.975 127.024 266.577 140.568 267.391L140.106 267.796C138.292 267.494 136.294 268.281 134.428 269.453C115.189 273.378 92.3571 273.79 76.6938 260.75L76.3363 261.217C84.7523 268.56 97.5374 273.643 110.41 275.048L109.041 275.255C97.9038 276.867 85.9644 274.669 75.1763 271.936C59.295 267.933 44.8266 259.753 32.7041 248.822C6.18299 224.923 -4.02091 182.691 23.2241 155.306C44.3643 134.066 77.3915 132.325 98.0782 111.03C117.369 91.1764 113.724 57.9696 94.1449 39.914C97.7468 42.3912 100.843 45.2521 103.843 49.343C108.849 56.1815 111.334 63.8922 113.148 72.0216C116.968 89.048 119.968 105.936 114.055 122.88C113.689 123.984 115.137 124.485 115.573 123.435C121.87 108.321 120.248 88.6991 116.89 73.0334C116.122 69.3961 115.207 65.9333 114.108 62.5926C114.675 45.1301 106.59 27.0656 99.3951 11.5308V11.4523L99.3776 11.1209L100.145 11.1819C105.474 12.7606 108.247 22.7131 110.079 27.1616C113.096 34.5234 115.808 41.894 117.509 49.6832C117.954 51.733 120.614 50.1804 120.649 48.6627C120.849 39.9402 120.614 31.1303 122.166 22.5124C123.282 16.3718 125.358 10.3968 126.108 4.21256C127.242 9.18441 125.576 15.831 125.21 20.4104C124.695 26.7342 124.381 33.3459 124.939 39.6959C123.16 45.7406 122.061 52.1516 120.518 58.5976L121.137 58.7285C122.968 53.1373 124.678 47.2496 126.858 41.5974L127.521 40.6204L127.591 39.7569C129.073 36.1283 130.826 32.6394 132.98 29.4644C128.358 39.1028 126.457 50.4159 125.864 60.5254C124.957 76.6097 128.759 90.8711 141.021 101.581C151.958 111.132 169.88 111.745 183.537 114.11C199.305 116.828 215.047 120.229 229.637 126.993C264.479 143.184 278.058 189.233 256.228 221.386C244.054 239.384 221.841 249.381 201.546 254.523" fill="#F8A24E"/>
<path d="M101.061 275.804C101.052 275.804 101.035 275.804 101.026 275.804C101.035 275.804 101.052 275.804 101.061 275.804ZM101.078 275.804C103.764 275.801 106.424 275.634 109.041 275.256L110.41 275.048L109.041 275.256C106.424 275.634 103.764 275.801 101.078 275.804ZM76.7374 272.329C76.4409 272.254 76.1443 272.183 75.8478 272.108C76.1443 272.183 76.4409 272.254 76.7374 272.329ZM75.3681 271.985C75.3071 271.971 75.2373 271.954 75.1763 271.937C59.295 267.934 44.8266 259.753 32.7041 248.822C44.8266 259.753 59.295 267.934 75.1763 271.937C75.2373 271.954 75.3071 271.971 75.3681 271.985ZM112.294 271.862C112.285 271.862 112.268 271.862 112.259 271.862C112.268 271.862 112.285 271.862 112.294 271.862ZM112.311 271.862C119.279 271.862 126.291 271.027 132.919 269.754C126.291 271.027 119.279 271.862 112.311 271.862ZM132.954 269.747C133.05 269.726 133.146 269.709 133.242 269.688C133.146 269.709 133.05 269.726 132.954 269.747ZM133.451 269.647C133.643 269.61 133.844 269.572 134.036 269.532C133.844 269.572 133.643 269.61 133.451 269.647ZM134.489 269.416C134.55 269.375 134.62 269.334 134.69 269.293C134.62 269.334 134.55 269.375 134.489 269.416ZM134.69 269.293C134.759 269.248 134.829 269.208 134.899 269.167C134.829 269.208 134.759 269.248 134.69 269.293ZM135.021 269.099C135.038 269.085 135.065 269.071 135.091 269.058C135.065 269.071 135.038 269.085 135.021 269.099ZM135.187 269.003C136.539 268.254 137.925 267.746 139.251 267.733C137.925 267.746 136.539 268.254 135.187 269.003ZM140.105 267.797C140.088 267.794 140.071 267.791 140.053 267.787C140.071 267.791 140.088 267.794 140.105 267.797L140.568 267.391L140.105 267.797ZM139.312 267.733H139.303H139.312ZM143.611 264.417C143.594 264.417 143.585 264.417 143.568 264.417C143.585 264.417 143.594 264.417 143.611 264.417ZM143.62 264.417C144.998 264.417 146.394 264.356 147.806 264.233C156.231 258.744 161.141 250.703 161.141 240.621C161.141 250.703 156.231 258.744 147.806 264.233C146.394 264.356 144.998 264.417 143.62 264.417ZM76.3363 261.218L76.6937 260.751C76.7461 260.802 76.8071 260.85 76.8681 260.901C76.8071 260.85 76.7461 260.802 76.6937 260.751L76.3363 261.218Z" fill="#403E3C"/>
<path d="M32.5808 248.716C32.5459 248.685 32.5112 248.655 32.485 248.624C32.5112 248.655 32.5459 248.685 32.5808 248.716ZM32.4588 248.607C26.8162 243.479 21.9235 237.52 17.9814 231.049C21.9235 237.52 26.8162 243.479 32.4588 248.607Z" fill="#403E3C"/>
<path d="M207.901 234.209C208.18 233.865 208.572 233.708 208.947 233.701C208.572 233.708 208.18 233.865 207.901 234.209ZM209.052 233.701C209.035 233.701 209.008 233.698 208.991 233.698C209.008 233.698 209.035 233.701 209.052 233.701ZM17.9095 230.935C17.9008 230.924 17.8921 230.917 17.8921 230.907C17.8921 230.917 17.9008 230.924 17.9095 230.935ZM229.634 126.993C229.573 126.965 229.521 126.945 229.468 126.918C229.521 126.945 229.573 126.969 229.634 126.993Z" fill="#403E3C"/>
<path d="M229.393 126.881C229.367 126.867 229.341 126.857 229.314 126.847C229.341 126.857 229.367 126.867 229.393 126.881Z" fill="#403E3C"/>
<path d="M229.216 126.802C229.198 126.791 229.173 126.781 229.155 126.771C229.173 126.781 229.198 126.791 229.216 126.802Z" fill="#403E3C"/>
<path d="M229.059 126.731C229.033 126.717 229.015 126.706 228.989 126.697C229.015 126.706 229.033 126.717 229.059 126.731Z" fill="#403E3C"/>
<path d="M228.896 126.656C228.879 126.645 228.853 126.635 228.835 126.625C228.853 126.635 228.879 126.645 228.896 126.656Z" fill="#403E3C"/>
<path d="M228.74 126.581C228.713 126.57 228.696 126.56 228.67 126.55C228.696 126.56 228.713 126.57 228.74 126.581Z" fill="#403E3C"/>
<path d="M228.573 126.509C228.547 126.495 228.53 126.485 228.504 126.475C228.53 126.485 228.547 126.498 228.573 126.509Z" fill="#403E3C"/>
<path d="M228.416 126.438C228.381 126.42 228.346 126.407 228.312 126.39C228.346 126.407 228.381 126.42 228.416 126.438Z" fill="#403E3C"/>
<path d="M228.26 126.366C228.199 126.342 228.147 126.318 228.095 126.295C228.147 126.318 228.199 126.342 228.26 126.366Z" fill="#403E3C"/>
<path d="M228.059 126.277C228.016 126.257 227.972 126.24 227.929 126.22C227.972 126.24 228.016 126.257 228.059 126.277Z" fill="#403E3C"/>
<path d="M227.885 126.202C227.841 126.182 227.806 126.161 227.763 126.145C227.797 126.161 227.841 126.182 227.885 126.202Z" fill="#403E3C"/>
<path d="M227.714 126.127C227.671 126.107 227.627 126.086 227.584 126.066C227.627 126.086 227.671 126.107 227.714 126.127Z" fill="#403E3C"/>
<path d="M227.559 126.055C227.507 126.035 227.464 126.014 227.412 125.991C227.464 126.014 227.507 126.035 227.559 126.055Z" fill="#403E3C"/>
<path d="M227.396 125.984C226.192 125.46 224.989 124.959 223.776 124.475C224.989 124.959 226.192 125.46 227.396 125.984Z" fill="#403E3C"/>
<path d="M223.758 124.468C223.723 124.454 223.697 124.444 223.662 124.43C223.697 124.444 223.723 124.454 223.758 124.468Z" fill="#403E3C"/>
<path d="M101.061 275.804C101.052 275.804 101.035 275.804 101.026 275.804C92.863 275.797 84.5343 274.24 76.7376 272.329C76.4411 272.254 76.1445 272.183 75.848 272.108C75.691 272.067 75.534 272.026 75.3683 271.985C75.3073 271.971 75.2375 271.954 75.1765 271.937C59.2952 267.934 44.8268 259.753 32.7043 248.822C32.6607 248.788 32.6257 248.754 32.5821 248.716C32.5472 248.686 32.5124 248.655 32.4863 248.625C32.4776 248.621 32.4688 248.614 32.4601 248.607C26.8175 243.479 21.9248 237.52 17.9828 231.05C17.9567 231.012 17.9306 230.972 17.9132 230.935C17.9045 230.924 17.8957 230.917 17.8957 230.907C4.36918 208.596 2.18005 180.275 19.7445 159.16C11.7123 177.44 12.5234 197.693 21.515 216.539C21.8028 217.138 22.3871 217.394 23.0237 217.394C24.2534 217.394 25.6575 216.447 25.4046 215.224C19.5265 186.933 32.7217 163.927 51.6554 145.484C43.8936 156.169 37.9892 168.07 34.0908 181.045C33.742 182.198 34.6578 182.705 35.6694 182.705C36.4282 182.705 37.248 182.412 37.623 181.887C49.2047 165.185 61.5365 149.266 77.2957 136.771C51.2455 167.777 30.7943 210.794 56.1293 247.797C56.4956 248.325 57.1498 248.566 57.8127 248.566C59.0162 248.566 60.2808 247.776 60.0104 246.468C54.6818 219.206 59.522 188.722 75.4294 165.614C74.9323 175.894 71.9846 186.02 71.9846 196.365C71.9584 208.807 75.9265 222.842 80.6185 234.277C80.8888 234.935 81.4034 235.2 81.9703 235.2C83.1302 235.2 84.5168 234.103 84.5168 232.948C84.6128 210.75 87.1593 187.707 97.773 167.952C99.6481 194.947 103.808 222.402 127.661 239.139C127.922 239.323 128.236 239.405 128.568 239.405C129.745 239.405 131.114 238.331 130.94 237.177C128.934 222.801 127.469 208.396 127.425 193.891C130.591 201.918 132.387 210.505 136.347 218.236C136.661 218.836 137.254 219.09 137.873 219.09C138.763 219.09 139.722 218.577 140.053 217.796C146.742 202.317 141.667 186.194 141.091 170.112C153.423 181.942 153.85 202.375 163.627 216.062C163.923 216.477 164.324 216.648 164.752 216.648C165.79 216.648 166.985 215.663 167.237 214.829C173.342 194.814 164.307 176.653 160.112 157.467C175.322 176.913 176.621 202.859 187.017 224.989C187.296 225.605 187.845 225.854 188.447 225.854C189.346 225.854 190.357 225.289 190.732 224.549C202 202.045 192.825 179.556 182.691 158.506C187.087 164.238 190.985 170.344 193.514 177.049C197.552 187.632 197.823 199.124 203.901 208.944C204.259 209.517 204.904 209.796 205.567 209.796C206.247 209.796 206.936 209.499 207.329 208.916C219.678 190.637 205.515 169.948 196.837 151.989C202.916 158.166 207.695 165.587 213.434 172.156C213.774 172.537 214.201 172.698 214.637 172.698C215.666 172.698 216.774 171.822 217.044 170.912C219.407 163.287 215.248 156.606 210.983 150.414C228.809 159.382 236.239 183.591 248.065 198.338C248.362 198.712 248.789 198.872 249.243 198.872C250.289 198.872 251.501 198.034 251.676 197.087C257.885 162.756 234.042 139.6 209.422 119.701C214.253 121.034 219.006 122.584 223.664 124.431C223.698 124.445 223.724 124.454 223.759 124.468C223.768 124.472 223.768 124.472 223.777 124.475C224.989 124.959 226.193 125.46 227.396 125.984C227.396 125.988 227.405 125.988 227.414 125.991C227.466 126.015 227.51 126.036 227.562 126.056C227.571 126.059 227.579 126.063 227.588 126.066C227.632 126.086 227.675 126.107 227.719 126.127C227.736 126.134 227.745 126.138 227.762 126.145C227.806 126.161 227.841 126.182 227.885 126.202C227.902 126.206 227.911 126.213 227.928 126.22C227.972 126.24 228.015 126.257 228.059 126.277C228.076 126.284 228.085 126.288 228.094 126.295C228.146 126.318 228.199 126.342 228.26 126.366C228.277 126.373 228.295 126.383 228.312 126.39C228.347 126.407 228.382 126.42 228.417 126.438C228.443 126.451 228.478 126.461 228.504 126.475C228.53 126.486 228.547 126.495 228.573 126.509C228.608 126.522 228.643 126.536 228.669 126.55C228.696 126.56 228.713 126.57 228.739 126.581C228.765 126.595 228.8 126.611 228.835 126.625C228.853 126.635 228.879 126.645 228.896 126.656C228.931 126.669 228.957 126.683 228.992 126.697C229.018 126.706 229.036 126.717 229.062 126.731C229.088 126.744 229.123 126.758 229.158 126.772C229.175 126.781 229.201 126.792 229.219 126.802C229.254 126.815 229.28 126.829 229.315 126.847C229.341 126.856 229.367 126.867 229.393 126.881C229.42 126.894 229.446 126.904 229.472 126.918C229.524 126.945 229.577 126.965 229.638 126.993C252.976 137.842 266.772 162.088 266.781 186.579C266.781 198.647 263.441 210.773 256.228 221.387C244.054 239.384 221.841 249.381 201.546 254.523C194.465 256.315 187.287 258.087 180.049 259.45C181.627 258.908 183.197 258.342 184.741 257.729C195.389 253.473 204.285 245.211 210.137 235.511C210.146 235.5 210.146 235.493 210.154 235.486C210.172 235.456 210.181 235.432 210.198 235.402C210.669 234.467 209.901 233.736 209.056 233.701C209.038 233.701 209.012 233.698 208.994 233.698C208.977 233.698 208.968 233.698 208.951 233.701C208.576 233.708 208.183 233.865 207.904 234.209C207.887 234.222 207.878 234.236 207.861 234.253C201.119 242.982 193.715 249.817 183.712 254.683C178.156 257.388 172.025 258.717 166.173 260.588C165.153 260.905 164.019 261.3 162.824 261.739C159.493 262.025 156.214 262.373 153.004 263.143C158.952 257.698 161.935 249.497 161.926 241.214C161.917 239 161.699 236.778 161.272 234.601L160.635 234.808C160.976 236.815 161.15 238.754 161.141 240.621C161.141 250.703 156.231 258.744 147.807 264.233C146.394 264.356 144.998 264.417 143.62 264.417C143.612 264.417 143.612 264.417 143.612 264.417C143.594 264.417 143.585 264.417 143.568 264.417C128.969 264.404 116.201 257.654 105.186 247.701L105.143 247.732C114.056 256.976 127.024 266.578 140.568 267.391L140.106 267.797C140.088 267.794 140.071 267.791 140.053 267.787C139.809 267.75 139.565 267.733 139.312 267.733H139.303C139.286 267.733 139.268 267.733 139.251 267.733C137.925 267.746 136.539 268.254 135.187 269.003C135.152 269.024 135.126 269.041 135.091 269.058C135.065 269.071 135.039 269.085 135.021 269.099C134.978 269.123 134.943 269.143 134.899 269.167C134.829 269.208 134.76 269.248 134.69 269.293C134.62 269.334 134.55 269.375 134.489 269.416C134.463 269.429 134.446 269.44 134.428 269.453C134.297 269.481 134.167 269.508 134.036 269.532C133.844 269.572 133.643 269.61 133.452 269.647C133.443 269.651 133.434 269.651 133.425 269.654C133.364 269.668 133.303 269.679 133.242 269.688C133.146 269.709 133.05 269.726 132.954 269.747C132.946 269.747 132.928 269.75 132.919 269.754C126.291 271.027 119.28 271.862 112.311 271.862C112.303 271.862 112.294 271.862 112.294 271.862C112.285 271.862 112.268 271.862 112.259 271.862C99.4301 271.859 86.7494 269.024 76.8683 260.901C76.8073 260.85 76.7463 260.802 76.694 260.751L76.3365 261.218C84.7524 268.56 97.5375 273.644 110.41 275.048L109.041 275.256C106.425 275.634 103.764 275.801 101.078 275.804C101.07 275.804 101.07 275.804 101.061 275.804" fill="#F9B261"/>
<path d="M20.0061 199.881C21.0091 172.817 38.8962 150.789 60.0713 133.5C49.0651 138.206 38.0502 142.98 28.6662 150.452C18.9944 165.836 16.0206 182.852 20.0061 199.881Z" fill="#F8A24E"/>
<path d="M112.729 78.3809L112.066 78.599C114.308 96.7262 99.3767 113.241 87.9606 125.821C76.8149 138.124 63.4977 148.033 51.8637 159.822C31.6043 180.384 21.008 209.257 37.0638 235.67C37.901 237.084 40.0638 235.47 39.5492 234.134C32.3804 215.513 31.2989 198.592 41.058 180.63C48.5669 166.769 61.5354 156.241 73.2044 146.023C84.2019 136.414 94.3009 125.791 102.342 113.569C109.118 103.252 116.27 91.0112 112.729 78.3809Z" fill="#1B181A"/>
<path d="M187.24 130.986C172.867 124.843 157.64 120.707 144.366 112.11C129.715 102.61 125.075 86.6932 122.677 70.3209L122.022 70.4518C123.505 82.2272 125.956 93.898 132.68 103.881C139.735 114.385 152.599 120.083 163.754 124.979C178.362 131.371 193.318 136.263 206.505 145.457C213.682 150.469 220.119 156.325 225.351 163.362C230.235 169.863 231.831 178.496 233.881 186.176C234.299 187.761 236.497 186.66 236.445 185.342C234.979 157.487 210.804 141.048 187.24 130.986" fill="#1B181A"/>
<path d="M110.409 106.641C106.449 116.058 99.2982 123.694 92.3909 131.033C84.7337 139.16 77.4166 147.865 70.8146 156.861C59.0235 172.919 54.5234 194.947 57.9858 214.351C58.4393 217.009 61.9975 216.027 61.8667 213.608C60.6631 190.548 65.4946 170.653 79.9021 152.253C86.0767 144.39 92.7399 136.924 99.2372 129.33C104.836 122.798 110.383 115.595 112.092 106.999C112.328 105.888 110.81 105.718 110.409 106.641Z" fill="#FCFCD1"/>
<path d="M83.5052 123.354C76.5282 130.175 66.2285 134.093 58.0219 139.398C49.0478 145.191 40.7365 152.435 33.1927 159.971C20.6255 172.513 10.535 189.072 10.4565 207.267C10.4565 208.991 12.8723 208.494 13.1078 207.1C16.6661 187.706 24.8552 172.513 39.2015 158.936C46.1785 152.328 53.7572 146.298 61.6324 140.829C69.2547 135.541 78.4382 131.575 84.6477 124.546L83.5052 123.354Z" fill="#FCFCD1"/>
<path d="M40.0345 162.326C23.2027 177.369 19.2695 201.761 24.9295 222.879C25.4527 224.863 28.1476 223.258 27.7813 221.544C23.5167 200.91 26.1766 179.086 40.6274 162.939L40.0345 162.326" fill="#FCFCD1"/>
<path d="M117.57 244.75C109.085 226.654 102.727 209.155 101.898 188.961C101.497 178.909 102.265 168.582 103.738 158.643C105.369 147.59 109.765 138.326 113.689 128.056C114.012 127.221 112.878 126.836 112.547 127.627C108.439 137.266 103.738 146.005 101.227 156.268C98.7324 166.363 97.9476 177.222 97.6685 187.594C97.1976 207.816 101.532 230.608 113.96 246.996C115.329 248.822 118.503 246.741 117.57 244.75" fill="#FCFCD1"/>
<path d="M94.5688 154.145C88.9435 169.106 90.2255 184.599 93.6705 199.911C94.0193 201.376 96.0688 200.201 95.8159 198.919C92.9204 184.214 91.1065 169.195 96.1824 154.748C96.6097 153.565 94.9874 153.024 94.5688 154.145" fill="#FCFCD1"/>
<path d="M197.269 202.357C190.309 182.476 177.96 164.844 164.634 148.693C158.46 141.205 151.866 134.233 145.064 127.313C137.302 119.398 129.435 110.41 127.368 99.1454C127.133 97.857 125.284 98.3411 125.458 99.5195C128.267 118.662 145.727 132.022 157.212 146.281C171.629 164.182 183.524 183.434 193.623 204.061C194.722 206.351 198.062 204.583 197.269 202.357" fill="#FCFCD1"/>
<path d="M173.891 137.171C173.045 136.383 171.859 137.961 172.661 138.769C183.231 149.385 191.185 161.849 196.601 175.815C201.999 189.805 203.831 204.617 205.688 219.387C206.011 221.919 209.203 220.829 209.273 218.702C210.171 187.952 196.313 157.88 173.891 137.171Z" fill="#FCFCD1"/>
<path d="M223.016 190.729C222.763 189.512 220.853 190.306 221.01 191.372C223.034 205.802 219.545 217.588 213.528 230.504C212.603 232.464 215.106 233.619 216.362 232.089C225.467 221.067 225.781 204.044 223.016 190.729" fill="#FCFCD1"/>
<path d="M256.488 170.499C256.226 169.409 254.526 170.125 254.674 171.096C256.122 180.78 256.654 190.252 254.238 199.847C252.476 206.855 248.683 213.332 245.107 219.731C248.002 211.53 250.13 203.062 251.055 194.375C252.232 183.383 249.912 172.606 246.45 162.224C240.362 143.92 227.15 129.449 209.106 122.584C208.155 122.226 207.422 123.753 208.373 124.223C225.336 132.554 235.854 146.721 241.906 164.34C245.499 174.814 246.965 185.342 245.77 196.364C244.653 206.671 241.191 216.548 238.461 226.502C237.781 228.92 241.331 229.333 242.176 227.316L242.238 227.196C242.874 227.895 244.139 228.021 244.854 227.002C250.61 218.6 255.537 210.051 258.197 200.136C260.814 190.398 258.799 180.074 256.488 170.499Z" fill="#FCFCD1"/>
</svg>
