<svg width="304" height="305" viewBox="0 0 304 305" fill="none" xmlns="http://www.w3.org/2000/svg">
<path d="M229.896 214.16L229.904 214.146C234.099 213.42 238.311 212.964 242.489 212.8C238.311 212.978 234.099 213.427 229.896 214.16ZM232.686 213.682C237.265 213.005 241.992 212.671 246.797 212.671C241.992 212.671 237.256 213.005 232.686 213.682ZM240.745 213.087C241.32 213.042 241.896 213.001 242.471 212.967C241.896 213.001 241.32 213.042 240.745 213.087ZM246.928 212.671C246.884 212.671 246.841 212.671 246.797 212.671C246.841 212.671 246.884 212.671 246.928 212.671Z" fill="#1A110F"/>
<path d="M247.879 101.35C259.103 96.1517 271.295 91.1362 283.243 87.9002C289.592 86.1731 312.564 77.311 298.845 67.6813C288.833 60.6596 272.891 67.2016 262.801 71.057C261.292 71.6327 259.792 72.2345 258.309 72.8538C259.26 72.156 260.21 71.4495 261.144 70.7255C264.658 68.039 298.889 47.5235 284.638 39.5685C272.106 32.5731 252.64 48.9627 243.056 55.6006C237.029 59.7699 230.898 64.4888 225.003 69.6438C230.279 62.7618 235.39 55.7053 240.562 48.8058C245.463 42.2639 268.984 23.9639 256.469 15.2413C243.588 6.25713 231.177 29.8604 226.041 36.882C219.831 45.4127 213.918 54.1526 208.215 63.0235L207.648 63.9481C209.593 59.9357 211.476 55.8884 213.238 51.7714C218.366 39.804 225.483 27.2 226.599 14.029C227.122 7.836 223.041 -2.29092 214.834 0.465408C205.023 3.76253 203.592 14.8227 202.773 24.5571C201.961 21.9229 200.357 19.9865 197.575 19.3497C187.763 17.0993 183.316 27.7844 183.394 35.6696C183.586 54.7981 178.44 74.4239 169.109 91.302L169.074 92.1219L168.69 92.0259C163.693 90.8658 158.356 91.7207 153.358 92.2789C141.306 93.6222 129.977 98.5155 119.581 104.56C94.8957 118.961 74.1175 144.134 56.9306 166.447C38.671 190.181 23.9541 217.424 11.5333 244.587C4.63749 259.637 -9.23097 290.639 9.1315 302.912C14.7793 306.683 22.0938 303.031 27.0475 300.023C37.7135 293.552 47.4603 284.035 56.56 275.575C62.1058 270.417 66.6059 264.291 72.9358 260.039C78.5296 256.277 83.8913 252.283 89.3116 248.27C102.156 238.713 115.552 229.901 128.642 220.695C153.097 203.512 179.33 187.285 200.191 165.644C211.694 153.72 216.395 137.008 211.154 122.651L211.188 122.642C223.791 116.048 234.919 107.36 247.879 101.35" fill="#1B181A"/>
<path d="M237.572 66.1634C243.72 61.1915 250.392 56.8477 256.976 52.4515C261.293 49.5906 265.776 47.1046 270.477 44.9502C272.901 43.8686 275.431 43.0487 278.021 42.473C280.881 47.3402 280.48 51.117 276.791 53.7599C270.852 59.9442 262.401 63.8606 255.616 69.0244C247.819 74.947 239.386 80.102 231.415 85.7978C222.85 91.9123 209.306 100.356 203.271 110.142L202.478 109.331C200.986 107.875 199.451 106.374 197.855 104.9C209.062 90.4906 223.478 77.5201 237.572 66.1634" fill="#67C648"/>
<path d="M232.222 36.411C233.661 34.588 234.873 32.4422 236.164 30.5058C237.803 27.8629 239.705 25.4206 241.841 23.1702C246.62 17.1342 250.484 18.146 253.406 26.1795C249.987 33.7593 241.632 39.4988 236.704 46.1628C231.332 53.4374 225.724 60.5376 220.265 67.7424C211.579 79.1777 201.811 89.7755 195.497 102.746C193.63 101.071 191.703 99.4489 189.68 97.9573L189.758 97.8701L190.691 97.0589L191.459 95.5848C200.189 83.5564 207.14 70.333 215.852 58.2523C221.189 50.873 226.649 43.5984 232.222 36.411" fill="#A9D934"/>
<path d="M206.698 15.6161C207.282 8.34153 212.925 6.91977 223.608 11.377C225.169 21.2073 218.105 32.4157 214.329 41.0859C206.148 59.8481 196.546 77.5636 187.345 95.8199L187.232 96.2386C185.619 95.1745 183.979 94.1975 182.27 93.3689C191.366 81.7505 195.142 63.25 199.511 49.6864C200.61 46.3195 203.462 37.3527 203.471 29.9909C204.465 27.3828 205.128 24.8969 205.616 22.001C205.93 19.8727 206.288 17.7444 206.698 15.6161" fill="#67C648"/>
<path d="M183.003 66.0238C186.5 55.7399 188.166 45.9968 187.582 35.1634C187.146 31.5435 188.009 28.2638 190.189 25.3069L198.474 24.9929C199.399 28.0719 199.626 31.1946 199.137 34.3784C198.553 41.3826 195.998 48.5176 193.695 55.0769C189.282 67.681 184.529 79.9101 179.166 92.078C177.011 91.3017 174.779 90.7609 172.459 90.5341C177.535 83.5997 180.308 73.9438 183.003 66.0238" fill="#A6D936"/>
<path d="M201.963 150.205C197.009 161.544 186.064 170.066 176.698 177.663L174.36 179.495C172.904 175.989 169.747 173.215 166.59 170.973L165.674 171.758C168.683 174.837 170.828 177.611 171.997 181.344C162.587 188.689 152.793 195.576 143.034 202.401C121.789 217.264 99.9598 231.622 79.9682 248.116C78.7761 249.105 77.5909 250.038 76.4152 250.985C74.6675 248.644 71.7651 246.767 70.1979 244.597L69.0947 245.158C70.641 247.877 72.9163 249.918 74.4765 252.512C68.4641 257.261 62.6663 261.752 57.3106 267.657C48.5754 277.333 38.0219 285.484 28.0361 293.831C23.3589 297.733 11.2077 306.427 7.71926 293.105C6.41108 288.131 6.98666 282.87 7.76983 277.875C9.59605 265.984 14.4468 254.692 19.4179 243.83C20.2115 242.079 21.0322 240.327 21.8572 238.576C24.2206 238.797 26.5753 239.063 28.7722 239.952C33.2043 241.744 36.9012 244.706 40.7674 247.466C41.738 248.161 43.6567 246.862 42.5866 245.868C39.2411 242.794 35.4806 240.409 31.3851 238.457C28.6161 237.128 25.6823 236.906 22.7119 236.773C29.8083 221.863 37.6844 207.151 46.3882 193.018C59.3208 191.715 71.9221 198.847 82.834 205.154C84.2948 206.003 86.4071 204.125 84.7614 202.997C74.3579 195.962 61.1532 188.523 48.2074 190.049C51.8564 184.223 55.6579 178.518 59.5929 172.953C68.6246 160.201 78.613 147.344 89.4901 135.473C99.7854 138.255 109.701 140.994 118.876 146.821C120.123 147.614 121.894 146.018 120.524 144.971C111.742 138.264 101.347 136.118 90.7983 134.059C97.1255 127.256 103.719 120.784 110.626 114.887C113.277 115.053 115.902 114.974 118.641 115.131C123.664 115.402 129.551 117.984 134.278 119.728C143.723 123.191 151.79 128.678 159.717 134.705C160.476 135.298 161.95 134.251 161.148 133.475C148.014 121.185 130.048 113.71 112.161 113.605L113.539 112.445C122.652 104.97 133.092 99.335 144.237 95.5582C151.075 93.238 158.357 92.165 165.543 92.4529C167.069 92.5139 168.456 92.8105 169.791 93.2205L170.488 93.5781L172.66 94.276C174.09 94.8691 175.503 95.497 176.968 96.0553C186.012 100.382 193.809 107.831 200.489 115.001C209.489 124.639 206.664 139.459 201.963 150.205" fill="#F8A023"/>
<path d="M201.963 150.205C206.664 139.459 209.489 124.639 200.489 115.001C193.809 107.831 186.012 100.382 176.968 96.0553C175.503 95.497 174.09 94.8691 172.66 94.2759L170.488 93.5781L169.791 93.2204C168.456 92.8105 167.07 92.5139 165.543 92.4528C161.505 92.2958 157.45 92.6099 153.447 93.2815C159.447 94.2934 165.142 96.3867 169.991 100.015C181.599 108.694 186.282 122.572 182.89 136.58C179.663 149.847 168.16 160.358 157.616 168.103C143.601 178.413 128.862 187.79 114.55 197.682C94.2702 211.709 74.0134 226.385 56.8981 244.266C42.6206 259.183 29.8528 277.637 13.2721 290.165C11.5034 291.5 9.69463 292.655 7.8623 293.599C11.5243 306.182 23.434 297.667 28.0361 293.831C38.0219 285.484 48.5754 277.333 57.3106 267.656C62.6663 261.752 68.4641 257.261 74.4765 252.512C72.9163 249.918 70.641 247.877 69.0947 245.158L70.1979 244.597C71.7651 246.767 74.6675 248.644 76.4153 250.985C77.5909 250.038 78.7761 249.105 79.9683 248.116C99.9599 231.622 121.789 217.264 143.034 202.401C152.793 195.576 162.587 188.689 171.997 181.344C170.828 177.611 168.683 174.837 165.674 171.758L166.59 170.973C169.747 173.215 172.904 175.989 174.36 179.495L176.698 177.663C186.064 170.066 197.009 161.544 201.963 150.205" fill="#F57C26"/>
<path d="M209.573 119.039C208.614 117.138 207.515 115.306 206.172 113.536C208.5 110.343 212.669 107.595 215.486 105.022C216.55 104.054 217.632 103.103 218.695 102.17C229.658 93.8139 241.083 86.1816 253.685 80.2328C264.7 75.0255 278.706 68.5534 291.099 69.1116C299.68 69.4954 297.936 77.8342 291.657 80.6952C288.971 81.925 286.014 82.6403 283.171 83.3991C275.148 85.5536 267.351 88.7199 259.58 91.6681C251.365 94.7908 243.359 98.3932 235.554 102.423C226.396 107.151 218.608 114.068 209.573 119.039" fill="#A9D934"/>
</svg>
