<svg width="315" height="255" viewBox="0 0 315 255" fill="none" xmlns="http://www.w3.org/2000/svg">
<path d="M305.713 106.095C300.63 94.7682 292.701 84.8375 282.69 76.8422C277.533 72.7166 271.466 69.712 264.964 68.1941C261.84 67.4733 258.495 67.4536 255.33 67.4954C252.108 67.534 248.566 69.238 245.483 69.1257C229.79 59.9421 210.629 57.0146 192.927 62.4916L192.492 62.7835C190.82 62.1045 189.114 61.4961 187.392 60.9573C181.596 54.0575 178.382 47.549 176.832 38.5958C174.954 27.7426 177.299 17.1371 180.932 7.0277C181.522 6.33559 181.563 5.30073 180.415 4.80133C173.421 1.85741 165.927 0.736394 158.425 0.18533C155.063 -0.0647807 149.882 -0.548619 148.029 2.59704C147.471 3.53598 148.726 4.62174 149.693 4.09691L149.873 4.01984C159.106 10.4866 163.033 19.6866 163.877 30.3503C164.714 40.9722 163.213 52.7348 155.022 60.1857L154.711 60.8646C153.063 61.4961 151.415 62.2005 149.726 62.9631C145.52 60.7785 131.532 62.4662 129.843 62.6326C128.777 62.7163 127.744 62.8639 126.695 62.9852C120.603 61.5436 115.191 60.4161 108.698 60.1119C100.621 59.7182 92.5535 60.0963 84.5922 61.0861C70.1938 62.8795 56.5719 67.9022 44.3757 74.9397C20.0572 88.9992 3.59508 112.687 0.54912 139.694C-2.38451 165.673 6.42292 193.746 27.2953 212.411C46.2049 229.299 71.4327 242.192 97.432 244.867C99.7852 245.715 102.196 246.452 104.688 247.035C111.83 248.717 119.553 248.839 126.842 249.197C131.089 249.422 135.443 249.357 139.575 248.557C142.822 250.335 146.299 251.808 150.021 252.913C161.278 256.245 171.929 255.373 181.571 251.817C186.163 252.523 190.82 251.273 195.288 250.078L195.895 250.809L196.264 250.783C198.543 250.687 200.511 251.183 202.692 251.84C204.34 252.33 206.004 252.657 207.685 252.897C230.93 254.627 254.756 244.29 272.802 232.201C293.218 218.539 304.689 194.851 310.567 172.307C316.216 150.704 315.159 127.089 305.713 106.095" fill="#1B181A"/>
<path d="M151.788 3.35613C154.486 2.78621 157.609 3.2856 160.266 3.51029C166.776 4.06135 172.802 5.80967 179.05 7.61046L179.37 7.64245C173.737 18.0594 171.974 29.4562 173.639 41.3082C174.237 45.6782 176.025 53.7662 179.755 59.048C177.41 58.5995 175.049 58.2698 172.688 58.0615C167.891 57.6679 163.751 58.1574 159.782 59.2112C166.637 53.5062 167.711 41.1967 167.924 33.5498C168.285 20.7401 163.324 9.84917 151.788 3.35613" fill="#4E4115"/>
<path d="M33.0177 212.139C11.5426 194.178 2.32519 167.691 4.13145 141.692C5.95083 115.605 20.3886 93.2945 42.5647 78.4444C54.4115 70.5032 68.1868 65.5412 82.6114 63.1483C90.3514 61.8543 98.2962 61.5787 106.184 61.7264C111.743 61.819 116.941 62.6907 122.238 63.5682C109.193 65.5223 96.7384 69.3502 85.2843 75.4939C59.1997 89.5083 41.0527 113.158 37.5107 141.663C33.7736 171.761 44.3299 201.215 66.4543 223.914C71.7583 229.366 77.5551 234.28 83.9315 238.268C65.4196 233.383 48.2819 224.904 33.0177 212.139" fill="#F47228"/>
<path d="M125.691 245.828C123.264 245.705 120.821 245.555 118.377 245.379L118.009 245.369L117.525 245.322C116.557 245.235 115.59 245.177 114.622 245.081L115.508 245.011L114.77 244.873L113.532 244.841L112.638 244.552C110.392 244.376 108.186 244.136 105.989 243.623C103.463 243.04 100.995 242.278 98.5931 241.333C97.6994 241.198 96.7975 241.054 95.912 240.894C84.9662 236.48 75.6635 228.706 67.6374 220.477C47.4349 199.778 38.6397 173.263 40.4877 145.982C42.2784 119.818 58.625 97.5865 80.6453 82.9833C91.3369 75.8875 103.513 71.2978 116.311 68.4851C118.033 68.1005 140.031 64.2406 146.886 64.2857C125.601 72.883 113.425 96.19 105.095 116.15C93.7064 143.458 94.6739 172.322 104.111 200.553C109.744 217.392 119.501 235.276 135.087 245.818C131.988 246.051 128.848 245.978 125.691 245.828" fill="#F47228"/>
<path d="M153.272 249.559C150.418 248.909 147.729 248.022 145.163 246.913L145.286 246.852L143.187 246.115C140.883 245.177 138.964 243.927 137.21 242.502C120.36 230.971 110.882 209.358 105.815 191.567C98.4442 165.62 99.8627 140.055 110.112 115.492C120.369 90.9013 135.668 66.4569 166.12 62.5879L166.759 62.1746C167.833 62.0877 168.932 62.0623 170.088 62.0877C178.82 62.2509 187.601 64.9644 195.39 68.789C210.419 76.189 220.193 89.5589 226.416 103.961C240.149 135.677 237.066 173.347 223.234 203.611C211.51 229.202 186.929 257.071 153.272 249.559" fill="#F47228"/>
<path d="M190.455 247.685C201.089 241.647 210.141 232.537 216.946 222.898C239.74 190.603 245.495 146.919 233.049 109.058C227.187 91.2373 215.864 74.8268 198.211 65.4447C197.277 64.9543 196.326 64.4804 195.358 64.0318C220.513 59.2207 245.602 68.7733 261.607 88.505C276.775 107.225 280.62 131.429 278.431 153.836C276.218 176.406 267.756 197.897 252.383 215.059C244.339 224.029 234.279 231.287 223.333 236.913C216.946 240.205 209.977 242.486 202.983 244.44C198.99 245.571 194.735 246.794 190.455 247.685" fill="#F47228"/>
<path d="M273.695 226.582C255.576 240.548 227.608 252.288 203.011 248.086C209.226 246.436 215.293 244.376 221.156 241.909C233.241 236.839 243.974 228.728 252.968 219.788C271.162 201.69 280.197 177.207 282.641 152.391C284.961 128.771 279.705 104.118 263.766 84.665C259.347 79.2732 254.124 74.6638 248.36 70.9064C249.959 70.9613 251.615 70.849 253.263 70.7399C255.313 70.6021 257.363 70.4644 259.29 70.6407C267.185 71.3648 274.015 75.2755 280.099 79.9079C289.757 87.2915 296.776 97.1729 301.728 107.725C310.772 126.97 311.346 148.704 307.058 168.664C302.491 189.869 291.537 212.843 273.695 226.582" fill="#F47228"/>
<path d="M83.9356 238.268C65.4237 233.383 48.286 224.904 33.0217 212.139C28.8287 208.641 25.1071 204.809 21.8472 200.726C25.1104 204.809 28.832 208.637 33.0217 212.139C48.286 224.904 65.4237 233.383 83.9356 238.268V238.268ZM55.0281 210.159C49.5125 202.298 45.1859 193.89 42.1334 185.12L42.1489 185.125C45.1982 193.893 49.5191 202.302 55.0281 210.159Z" fill="#1A1212"/>
<path d="M83.9321 238.268C65.4202 233.383 48.2825 224.904 33.0182 212.139C28.8285 208.637 25.1069 204.809 21.8437 200.726C13.1895 189.882 7.76421 177.223 5.375 164.004C14.9573 173.168 28.694 179.731 41.3255 184.824L42.1299 185.12C45.1824 193.89 49.509 202.298 55.0246 210.159C58.3968 214.967 62.2111 219.567 66.4549 223.914C71.7589 229.366 77.5557 234.28 83.9321 238.268" fill="#E75621"/>
<path d="M130.793 245.968C130.785 245.968 130.776 245.968 130.768 245.968C130.776 245.968 130.785 245.968 130.793 245.968ZM130.834 245.968C131.941 245.968 133.047 245.939 134.154 245.878C133.047 245.939 131.941 245.968 130.834 245.968ZM134.491 245.859C134.687 245.846 134.892 245.834 135.089 245.818C134.892 245.834 134.687 245.846 134.491 245.859ZM126.283 245.853C126.086 245.843 125.89 245.836 125.693 245.827C123.266 245.705 120.823 245.555 118.379 245.379L118.01 245.369L117.527 245.321C116.559 245.234 115.592 245.177 114.624 245.081C115.592 245.177 116.559 245.234 117.527 245.321L118.01 245.369L118.379 245.379C120.823 245.555 123.266 245.705 125.693 245.827C125.89 245.836 126.086 245.843 126.283 245.853ZM104.113 200.552C103.982 200.168 103.851 199.78 103.728 199.396C103.736 199.399 103.736 199.399 103.744 199.399L104.113 200.552Z" fill="#1A1212"/>
<path d="M130.789 245.968C130.781 245.968 130.773 245.968 130.765 245.968C129.273 245.968 127.78 245.92 126.28 245.853C126.083 245.843 125.886 245.836 125.69 245.827C123.263 245.705 120.819 245.555 118.376 245.379L118.007 245.369L117.523 245.321C116.556 245.234 115.588 245.177 114.621 245.081L115.506 245.011L114.768 244.873L113.53 244.841L112.637 244.552C110.39 244.376 108.184 244.136 105.987 243.623C103.462 243.04 100.994 242.278 98.5916 241.333C97.6979 241.198 96.796 241.054 95.9105 240.894C84.9647 236.48 75.662 228.706 67.6359 220.477C57.8003 210.399 50.681 198.941 46.1748 186.682C64.7572 193.653 84.1447 197.913 103.724 199.396C103.847 199.78 103.978 200.168 104.11 200.552C109.742 217.392 119.499 235.276 135.086 245.818C134.889 245.834 134.684 245.846 134.487 245.859C134.372 245.866 134.258 245.872 134.151 245.878C133.044 245.939 131.937 245.968 130.83 245.968C130.814 245.968 130.806 245.968 130.789 245.968" fill="#E75621"/>
<path d="M164.351 250.802C191.703 250.786 211.913 227.392 222.515 205.145C211.913 227.392 191.703 250.789 164.351 250.802ZM222.581 205.008C222.605 204.963 222.63 204.918 222.646 204.873C222.63 204.918 222.605 204.963 222.581 205.008ZM222.744 204.662C222.826 204.502 222.9 204.342 222.974 204.185C222.9 204.342 222.826 204.502 222.744 204.662Z" fill="#1A1212"/>
<path d="M164.325 250.802C160.758 250.802 157.077 250.408 153.272 249.559C150.419 248.909 147.73 248.022 145.163 246.913L145.286 246.852L143.187 246.115C140.883 245.177 138.965 243.927 137.21 242.502C122.854 232.672 113.859 215.55 108.382 199.681C112.031 199.877 115.696 199.973 119.353 199.973C127.913 199.973 136.481 199.44 144.999 198.345C180.124 193.848 211.24 176.864 235.198 153.295C234.534 170.816 230.286 188.175 223.235 203.611C223.145 203.801 223.063 203.992 222.973 204.185C222.899 204.342 222.825 204.502 222.743 204.662C222.71 204.732 222.678 204.803 222.645 204.873C222.628 204.918 222.604 204.963 222.579 205.008C222.563 205.053 222.538 205.101 222.514 205.145C211.912 227.392 191.701 250.786 164.349 250.802C164.341 250.802 164.333 250.802 164.325 250.802" fill="#E75621"/>
<path d="M216.95 222.899C217.007 222.822 217.056 222.745 217.114 222.668C217.056 222.745 217.007 222.822 216.95 222.899ZM217.155 222.617C217.196 222.553 217.237 222.489 217.286 222.425C217.245 222.489 217.196 222.553 217.155 222.617ZM217.319 222.383C217.425 222.223 217.54 222.062 217.647 221.899C217.54 222.059 217.425 222.223 217.319 222.383ZM217.655 221.886C232.249 200.732 239.62 174.836 239.473 148.951C239.473 148.948 239.481 148.945 239.481 148.941C239.628 174.84 232.249 200.735 217.655 221.886" fill="#1A1212"/>
<path d="M190.455 247.685C201.089 241.647 210.141 232.537 216.946 222.898C217.004 222.821 217.053 222.744 217.11 222.668C217.119 222.651 217.135 222.632 217.151 222.616C217.192 222.552 217.241 222.488 217.282 222.424C217.291 222.408 217.299 222.395 217.315 222.382C217.422 222.222 217.537 222.058 217.643 221.899C217.651 221.895 217.651 221.889 217.651 221.885C232.246 200.734 239.625 174.839 239.477 148.941C244.831 143.294 249.792 137.319 254.318 131.07C260.82 122.091 266.379 112.17 270.044 101.686C278.161 117.873 280.129 136.388 278.431 153.836C276.218 176.406 267.756 197.897 252.383 215.059C244.34 224.029 234.279 231.287 223.333 236.913C216.946 240.205 209.977 242.486 202.983 244.44C198.99 245.571 194.735 246.794 190.455 247.685" fill="#E75621"/>
<path d="M213.529 248.95H213.521H213.529ZM213.57 248.95C234.962 248.938 257.435 238.893 272.981 227.127C257.435 238.893 234.962 248.938 213.57 248.95ZM273.12 227.021C273.128 227.014 273.145 227.005 273.153 226.999C273.145 227.005 273.128 227.014 273.12 227.021ZM273.317 226.871C273.383 226.826 273.44 226.777 273.497 226.733C273.44 226.777 273.383 226.826 273.317 226.871ZM282.639 152.391C282.639 152.318 282.647 152.248 282.656 152.177C282.647 152.248 282.639 152.318 282.639 152.391ZM282.656 152.161C284.402 134.021 281.664 115.276 273.063 98.756C281.672 115.272 284.402 134.018 282.656 152.161ZM273.005 98.6568C272.997 98.6404 272.997 98.6281 272.981 98.6117C272.989 98.6281 272.997 98.6404 273.005 98.6568Z" fill="#1A1212"/>
<path d="M213.531 248.95H213.522C209.98 248.95 206.463 248.675 203.011 248.086C209.226 246.436 215.293 244.376 221.156 241.91C233.241 236.839 243.974 228.728 252.968 219.788C271.162 201.69 280.198 177.207 282.641 152.391C282.641 152.318 282.649 152.248 282.657 152.177C282.657 152.171 282.657 152.167 282.657 152.161C284.404 134.018 281.673 115.272 273.064 98.756C273.048 98.724 273.032 98.6887 273.007 98.6567C272.999 98.6403 272.99 98.6281 272.982 98.6117C272.581 97.84 272.162 97.0708 271.736 96.309C273.581 89.7553 274.63 83.022 274.679 76.173C276.557 77.3194 278.361 78.5913 280.099 79.9083C289.758 87.2919 296.776 97.1733 301.728 107.726C307.279 119.526 309.632 132.265 309.64 144.957C309.649 152.962 308.714 160.944 307.058 168.664C302.491 189.869 291.537 212.843 273.696 226.582C273.63 226.634 273.564 226.682 273.499 226.733C273.441 226.777 273.384 226.826 273.318 226.871C273.261 226.915 273.212 226.954 273.154 226.999C273.146 227.005 273.13 227.014 273.122 227.021C273.081 227.056 273.031 227.092 272.982 227.127C257.437 238.893 234.963 248.938 213.572 248.95C213.555 248.95 213.539 248.95 213.531 248.95" fill="#E75621"/>
<path d="M157.543 71.3198C142.276 74.9394 133.06 89.0818 126.263 101.376C125.14 103.394 128.518 104.794 129.699 103.048C137.275 91.9101 145.096 78.7198 157.715 72.0275L157.543 71.3198Z" fill="white"/>
<path d="M85.6205 86.6184C62.4826 104.291 51.8845 131.727 50.0561 159.538C49.979 160.72 51.7787 160.749 51.9427 159.679C56.0742 131.779 64.5357 107.164 86.178 87.2917L85.6205 86.6184" fill="white"/>
<path d="M43.4293 82.7263C39.8808 86.4328 35.5057 89.1102 31.8514 92.6659C27.7649 96.648 24.7862 101.417 22.0346 106.302C16.4428 116.262 13.6945 127.678 12.0161 138.841C11.8439 140.001 13.7076 140.011 13.8609 138.986C15.5491 127.771 18.4704 116.995 23.4473 106.767C28.2995 96.7792 36.8126 91.1956 43.7556 82.9313L43.4293 82.7263Z" fill="white"/>
<path d="M238.177 97.1376C235.463 90.9971 231.938 85.4906 226.838 80.7984L226.33 81.1666C231.306 85.8719 234.726 91.3752 237.341 97.4746L238.177 97.1376" fill="white"/>
<path d="M166.169 5.73351C165.53 4.82983 163.784 5.82944 164.284 6.77412C166.071 10.1092 167.055 13.8986 167.596 17.5404C167.785 18.8442 169.9 18.6392 169.999 17.451C170.326 13.2705 168.662 9.23752 166.169 5.73351Z" fill="white"/>
</svg>
