<svg width="239" height="255" viewBox="0 0 239 255" fill="none" xmlns="http://www.w3.org/2000/svg">
<path d="M116.756 172.597C113.799 174.11 110.693 175.296 107.586 176.411C105.85 177.036 104.092 177.59 102.333 178.08C96.6801 179.713 99.5695 172.668 100.015 171.191C101.945 164.79 105.131 158.538 108.751 152.921C110.453 150.284 112.577 147.742 114.004 144.886C116.985 145.127 119.863 144.69 122.215 143.213C121.199 150.316 124.99 158.016 130.369 163.718C126.269 167.426 121.69 170.077 116.756 172.597V172.597ZM57.3269 153.71C57.7495 147.608 59.2454 141.53 60.2618 135.498C61.2211 129.837 61.8379 123.72 60.9128 117.991L60.2047 115.689C61.6322 115.44 63.0254 114.979 64.3501 114.324C64.864 117.549 66.4173 120.739 68.8954 123.126C72.4813 126.62 77.3689 128.057 82.211 127.856C76.9692 135.789 71.4762 143.681 65.6634 151.231C64.1332 153.233 62.2945 155.067 60.6386 156.977L59.2226 158.704C56.9957 161.425 57.2813 154.143 57.3269 153.71V153.71ZM209.532 171.856C221.489 171.388 231.059 163.945 235.878 152.921C238.71 146.452 239.019 139.479 236.997 132.777C236.107 129.837 234.725 126.37 232.852 123.929C231.836 122.618 230.956 121.57 230.043 120.669C236.095 116.421 231.459 105.9 227.85 101.305C222.837 94.9297 213.37 87.8436 204.645 89.0314C204.245 87.5546 203.674 86.184 203.057 85.1537C201.858 83.0921 200.294 81.0979 198.455 79.4783C211.131 70.4791 200.431 52.0456 191.923 44.3588C186.613 39.5502 175.295 33.7366 167.872 34.9816C166.822 35.13 162.151 36.0894 160.061 37.5742C157.686 35.0729 153.289 33.4624 150.742 32.503C148.641 31.692 146.22 31.1552 143.799 31.0981C146.962 18.1801 132.596 10.379 121.884 8.62009C115.306 7.53503 107.643 8.16325 101.465 10.6418C100.026 11.2243 97.8336 12.7777 96.0293 14.6622C94.5104 9.94506 90.3992 7.3866 85.4429 6.24442C79.1848 4.80528 73.9087 6.91833 68.6555 9.8423C60.9127 -1.51091 42.7779 -2.44748 31.4721 3.99437C20.1435 10.4591 12.926 24.8276 18.6017 37.2545C19.7437 39.7216 16.2378 39.436 14.365 39.7558C13.0859 40.0071 11.6469 41.0693 10.5392 41.7432C6.89619 43.9362 4.39523 47.7967 2.55661 51.5088C-0.972166 58.5674 -0.618063 67.0126 2.21409 74.1912C6.72499 85.6129 21.1256 95.7942 33.5049 92.185C31.9518 98.1277 37.0335 104.437 41.1105 108.791L43.2119 110.745C43.6116 113.311 43.2347 116.064 43.2119 118.593C43.1662 122.346 42.7093 126.005 42.1269 129.703C40.7108 138.675 37.9586 147.344 35.1264 155.955C31.6205 166.636 27.3723 177.099 23.5124 187.655C21.4454 189.971 19.3098 192.228 17.2884 194.543C13.3257 199.148 8.09538 203.329 5.06909 208.642C3.26473 211.855 5.13756 216.151 6.3024 219.221C8.87189 225.918 13.2344 231.508 17.9166 236.822C25.7278 245.701 36.8965 253.606 48.9446 254.891C60.5587 256.119 69.9231 246.731 76.8094 238.718L76.7295 237.268C88.001 225.753 99.2268 214.246 111.914 204.19C120.125 197.658 128.919 191.844 138.123 186.852C141.972 184.768 145.855 182.725 149.76 180.766C152.558 179.379 155.413 178.285 157.96 176.554L158.816 177.612C159.993 178.62 161.5 179.245 162.836 180.026C163.91 180.659 165.189 181.101 166.536 181.382C171.116 190.318 185.254 189.261 193.168 186.54C198.524 184.715 203.206 182.109 206.792 177.684C207.968 176.242 209.178 173.932 209.532 171.856" fill="#1B181A"/>
<path d="M147.207 179.209C142.502 181.257 137.888 183.648 133.354 186.058C124.344 190.844 115.939 196.689 107.934 202.975C91.957 215.499 77.3737 230.334 64.4349 245.954L64.1265 246.865C59.7983 250.478 52.364 251.665 47.0308 250.469C36.376 248.051 27.2857 240.52 20.2053 232.601C16.5395 228.496 13.4903 224.084 11.0122 219.176C8.19145 213.496 7.7575 210.369 11.8801 205.484C15.1462 201.637 18.3439 197.698 21.3702 193.634C20.1711 197.122 19.0176 200.625 17.9898 204.15L18.0126 204.921C20.3766 200.459 22.6034 195.935 25.093 191.541C26.3263 188.953 27.5255 186.36 28.7589 183.769C32.7216 172.909 36.3303 161.885 39.7106 150.931C42.2001 142.819 44.3357 134.611 45.2037 126.152C45.6034 122.203 46.0943 116.697 45.0894 112.124C48.9379 114.693 53.5858 116.207 58.0967 115.938C59.3529 118.967 58.4508 127.819 58.1996 129.836C56.9206 139.58 50.9365 152.127 54.4424 161.831C56.9205 168.791 67.838 153.988 68.7059 153.028C72.76 148.481 75.9462 142.95 79.3721 137.925C81.816 134.347 84.9452 131.264 86.4297 127.208C88.0171 126.784 89.593 126.129 90.9406 125.241C91.7286 129.872 94.4237 134.423 98.3864 138.103C101.527 140.991 106.849 143.762 112.102 144.654C108.082 150.173 103.799 155.402 100.476 161.496C98.7632 164.654 91.9799 176.733 96.1367 180.288C100.842 184.309 109.978 179.16 114.728 177.201C120.096 174.992 129.22 171.365 132.646 165.927L133.08 166.311C138.745 171.191 148.395 175.212 156.811 174.479L157.119 174.971C154.002 176.787 150.541 177.768 147.207 179.209Z" fill="#99D874"/>
<path d="M192.952 183.193C185.369 186.07 178.277 185.696 172.122 181.515C175.376 180.878 180.55 178.535 181.737 175.189C178.665 176.808 175.251 177.599 171.471 177.839L170.306 178.022C167.714 178.191 165.361 177.241 163.054 176.184C161.65 175.523 160.976 174.939 159.971 173.98C162.997 173.221 165.749 171.722 167.953 169.26C157.299 173.27 146.073 172.775 136.023 165.218C130.484 161.059 124.843 155.526 124.512 148.134C124.238 142.508 125.928 137.279 128.703 132.527L128.623 132.558C126.75 134.057 125.323 135.676 124.283 137.403L123.45 137.537C120.024 138.929 117.363 140.603 113.514 140.429C109.3 140.25 105.235 137.872 102.072 135.248L101.969 135.15L101.535 134.945C96.1446 130.912 93.5637 123.849 94.4431 117.202C94.7171 115.091 95.1168 112.82 95.8363 110.71C93.0612 113.445 91.4966 116.519 90.9256 119.686C85.9237 123.961 80.4763 125.518 74.1953 122.024C69.1135 119.218 66.0644 111.838 68.2456 106.663L68.965 103.941L69.9016 102.309C66.407 104.048 64.6026 107.257 64.2486 110.782C57.0197 113.913 49.4712 112.186 43.864 106.641C40.5293 103.357 35.6758 98.0166 36.6693 93.0858C36.3724 91.2252 36.361 89.3658 36.8292 87.7096L36.1669 87.8753C22.7827 95.6158 7.27442 81.4722 3.92836 68.9574C1.90703 61.3505 4.27086 52.9933 9.10151 46.9968C10.746 44.9638 12.5276 44.05 14.4461 43.3647C17.0042 41.4345 19.9505 39.8697 22.9654 38.7161L22.9997 38.5905C23.3308 36.98 21.3096 34.0446 20.9099 32.5027C20.2018 29.7843 20.4644 26.9631 21.0012 24.2562C22.2231 17.94 26.7226 12.4918 31.7017 8.72266C37.2746 4.53088 44.5719 3.08027 51.3668 4.24529C54.9755 4.8849 58.3331 6.55252 61.4165 8.42568C62.4671 9.0653 63.5977 9.59072 64.6826 10.1618C65.9388 10.8357 65.9958 12.2634 67.2178 12.8345L69.479 12.1377C71.9572 7.52336 79.2888 7.10068 83.7311 7.48902C88.9044 7.94589 93.1754 10.9613 95.1397 15.6556C93.6437 17.4488 92.6159 19.4248 92.8785 21.0923C93.8949 19.8931 94.9798 18.8308 96.1561 17.8942C98.8512 14.7075 104.001 12.7088 107.176 12.092C112.018 11.2011 117.5 11.3382 122.342 12.2405C126.956 13.0857 131.364 15.0616 134.95 18.0656C139.244 21.6862 139.677 26.2778 140.317 31.3833C138.216 31.7945 136.263 32.6968 134.698 34.2388L134.459 35.0154C139.837 33.1423 145.422 33.9646 150.972 36.2718C155.106 37.9736 158.292 40.0867 161.238 42.6337L161.684 41.6743L161.056 38.9217C162.278 38.3506 164.779 37.9737 165.429 37.848C168.433 37.197 171.105 37.7681 174.086 38.5676C180.561 40.2923 187.036 43.9587 191.638 48.87C195.361 52.8448 198.262 57.7333 199.769 62.9565C201.448 68.8021 199.644 73.1789 195.989 77.6174C193.888 76.3462 191.536 75.5786 189 75.6506C190.222 76.337 191.387 77.1183 192.483 77.984C195.67 79.4654 198.216 82.2135 199.781 85.4573L201.551 87.8216C203.127 90.0306 204.634 92.9076 204.954 95.7094C205.399 94.1789 205.354 92.364 205.034 90.6016C216.602 92.8231 234.623 105.673 227.737 118.74C226.732 118.017 225.59 117.366 224.174 116.648L222.701 116.844C226.275 120.561 230.649 123.234 232.385 128.86C232.979 130.81 233.424 132.799 233.63 134.78C234.726 139.028 234.76 143.333 233.755 147.919C231.072 160.225 221.753 168.518 209.545 169.679C209.042 166.372 207.044 164.008 206.21 160.747L204.714 161.028C204.817 162.594 205.091 163.896 205.628 165.373C207.101 169.398 206.245 172.574 203.881 175.961C201.311 179.642 197.029 181.653 192.952 183.193" fill="#7ACC43"/>
<path d="M205.628 165.373C205.091 163.896 204.817 162.594 204.714 161.028L206.21 160.747C207.044 164.008 209.042 166.372 209.545 169.679C221.753 168.518 231.072 160.225 233.755 147.919C234.76 143.333 234.726 139.027 233.63 134.78C233.424 132.799 232.979 130.81 232.385 128.86C231.026 124.425 227.977 121.806 225.019 119.084C220.657 125.553 211.498 130.662 206.381 123.961C191.284 135.213 165.909 129.631 163.522 109.977C153.964 119.374 140.603 128.191 127.367 121.721C118.528 117.394 108.124 106.993 110.682 96.7225C95.6307 101.844 76.1596 92.7295 75.9083 76.096C61.8275 84.4978 44.7547 85.8273 34.1456 70.3006C25.6148 57.8247 33.7117 43.8216 45.7712 38.6133C34.4996 32.0458 26.7568 19.8016 34.294 7.05497L31.7017 8.72264C26.7226 12.4918 22.2231 17.94 21.0012 24.2562C20.4644 26.9631 20.2018 29.7843 20.9099 32.5026C21.3096 34.0446 23.3308 36.98 22.9997 38.5904L22.9654 38.7161C19.9505 39.8697 17.0042 41.4345 14.4461 43.3647C12.5276 44.05 10.746 44.9638 9.10151 46.9968C4.27086 52.9932 1.90703 61.3505 3.92836 68.9574C7.27442 81.4722 22.7827 95.6158 36.1669 87.8753L36.8292 87.7096C36.361 89.3658 36.3724 91.2252 36.6693 93.0858C35.6758 98.0166 40.5293 103.357 43.864 106.641C49.4712 112.186 57.0197 113.913 64.2486 110.782C64.6026 107.257 66.407 104.048 69.9016 102.309L68.965 103.941L68.2456 106.663C66.0644 111.838 69.1135 119.218 74.1953 122.024C80.4763 125.518 85.9237 123.961 90.9256 119.686C91.4966 116.519 93.0612 113.445 95.8363 110.71C95.1168 112.82 94.7171 115.091 94.4431 117.202C93.5637 123.849 96.1446 130.912 101.535 134.945L101.969 135.15L102.072 135.248C105.235 137.872 109.3 140.25 113.514 140.429C117.363 140.603 120.024 138.929 123.45 137.537L124.283 137.403C125.323 135.676 126.75 134.057 128.623 132.558L128.703 132.527C125.928 137.279 124.238 142.508 124.512 148.134C124.843 155.526 130.484 161.059 136.023 165.218C146.073 172.775 157.299 173.27 167.953 169.26C165.749 171.722 162.997 173.221 159.971 173.98C160.976 174.939 161.65 175.523 163.054 176.184C165.361 177.241 167.714 178.191 170.306 178.022L171.471 177.839C175.251 177.599 178.665 176.808 181.737 175.189C180.55 178.535 175.376 180.878 172.122 181.515C178.277 185.696 185.369 186.07 192.952 183.193C197.029 181.653 201.311 179.642 203.881 175.961C206.245 172.574 207.101 169.398 205.628 165.373" fill="#4FBF4F"/>
<path d="M31.3273 202.891C37.5169 191.781 41.2741 177.647 44.209 165.311C47.5551 151.243 49.1538 136.569 50.2615 122.18L49.6562 122.145C47.2923 136.413 45.6707 150.917 41.8679 164.895C38.3734 177.7 30.0025 189.323 27.5244 202.244C27.079 204.515 30.4822 204.403 31.3273 202.891" fill="white"/>
<path d="M85.2283 145.719C86.6558 143.395 87.9235 141.017 88.9627 138.496L87.6038 138.103C85.0114 142.48 80.1236 146.772 79.13 151.89C78.913 152.97 80.4662 153.037 80.9915 152.439C82.7502 150.463 83.8579 147.95 85.2283 145.719Z" fill="white"/>
<path d="M134.781 173.855C135.41 172.49 133.228 171.835 132.475 172.865C130.716 175.283 127.473 176.162 124.972 177.67C123.442 178.607 125.177 180.61 126.605 179.892C129.7 178.37 133.228 177.215 134.781 173.855" fill="white"/>
<path d="M123.76 16.3986L122.435 16.0103L122.401 16.0788L122.218 15.9188C121.282 15.2221 120.357 14.8567 119.226 14.594C117.308 14.1486 115.309 14.6511 113.505 15.2793C109.417 16.6613 106.219 20.3963 105.134 24.451C104.643 26.3356 107.578 26.1871 108.286 25.0106C110.342 21.527 113.322 18.2261 117.456 17.5179C120.117 17.061 122.572 19.631 123.76 16.3986" fill="white"/>
<path d="M87.0922 17.3693C81.3023 14.868 74.3018 16.5013 72.6688 23.2744C72.3262 24.5993 74.5987 25.0104 75.204 24.0281C76.3574 22.1436 77.4195 20.2248 79.3723 19.0826C81.5421 17.7919 84.2829 17.849 86.6811 18.3287L87.0922 17.3693" fill="white"/>
<path d="M54.4955 9.53359C51.9489 8.1744 49.5622 8.10588 46.9242 9.25948C44.4003 10.3674 42.0934 12.8345 41.9906 15.6556C41.9335 16.8321 43.6579 17.0149 44.0805 16.0212C45.7935 12.0807 49.5622 8.51702 54.1759 10.0704L54.4955 9.53359" fill="white"/>
<path d="M59.8801 54.0218C59.1834 47.3172 60.668 36.8664 70.0095 39.402L70.489 38.2712C60.2682 34.3078 54.1016 46.0951 57.3106 54.8327C57.8131 56.169 60.0057 55.3239 59.8801 54.0218Z" fill="white"/>
<path d="M37.2187 61.2309C36.248 58.0534 36.9331 55.2208 38.9887 52.6509L37.8581 51.9769C35.3686 54.6839 33.964 58.2247 35.5057 61.7574L37.2187 61.2309Z" fill="white"/>
<path d="M180.629 47.7623C176.7 42.5312 169.848 44.233 165.737 48.3448L167.336 49.5898C171.219 46.9743 175.821 44.7927 179.898 48.3448L180.629 47.7623" fill="white"/>
</svg>
