<svg width="371" height="261" viewBox="0 0 371 261" fill="none" xmlns="http://www.w3.org/2000/svg">
<path d="M370.382 205.274C369.981 193.583 366.239 182.339 362.132 171.501C360.832 168.076 359.481 164.751 358.303 161.33C355.626 155.487 353.576 149.398 352.94 143.125C352.312 140.191 352.111 137.326 352.922 134.924L353.009 134.539L353.027 134.31L352.756 133.21C353.062 132.201 353.428 131.231 353.777 130.253C355.103 124.378 357.222 118.624 360.283 113.428C361.312 111.687 362.411 109.946 363.51 108.184C365.472 103.734 367.225 99.1822 368.359 94.3063C373.33 73.0861 360.318 59.7257 340.791 55.0338C318.142 49.6032 294.211 54.07 272.391 44.5607C247.893 33.8852 226.386 18.7332 202.691 6.70921C185.571 -1.96536 166.995 -3.23971 152.814 11.5651C139.166 25.8238 137.57 53.0338 140.169 71.4261C142.855 90.3506 148.288 108.334 155.823 125.373C150.032 130.433 138.625 129.735 131.726 129.983C120.694 130.362 109.854 129.489 98.9175 127.983C79.1378 125.254 59.2099 120.678 39.2122 124.045C1.01338 130.508 -7.94345 177.484 6.56862 208.125C14.4439 224.739 27.0809 238.712 43.8692 246.515C62.393 255.125 84.0828 256.685 104.185 255.759C107.176 255.612 110.185 255.332 113.133 254.964C120.311 255.22 127.497 253.902 131.892 251.704L132.939 250.852C143.587 247.751 153.852 243.363 163.594 237.989C173.266 232.657 182.153 226.167 190.743 219.257C196.481 214.656 204.836 210.367 209.092 204.03C211.046 206.173 213.069 208.306 215.075 210.398C245.329 241.826 295.441 274.096 340.277 255.561C360.135 247.376 371.097 226.156 370.382 205.274" fill="#1B181A"/>
<path d="M40.7924 237.026C24.9634 227.754 14.0185 210.663 8.90786 193.43C3.63154 175.719 6.60533 154.386 18.1435 139.851C32.4811 121.84 59.7087 125.731 79.5843 128.573C82.2791 128.948 84.9915 129.354 87.6863 129.749C82.6716 129.527 77.6744 129.354 72.6772 129.49C67.3485 129.647 61.2088 130.474 57.6506 134.777C54.7377 138.266 59.229 142.686 61.9239 144.26C64.8803 146.011 68.02 147.401 71.1509 148.897C74.8749 150.683 73.4098 155.568 69.6509 156.247C67.0346 156.723 64.2438 156.778 61.6013 157.041C52.1301 157.977 33.0218 162.339 32.0712 174.506C30.7456 191.3 49.2346 194.466 61.9675 194.53C69.4677 194.564 76.9767 193.988 84.4595 193.767H86.5438C89.195 193.297 90.5382 194.755 90.5818 198.166C89.0905 198.98 87.1718 199.392 85.5584 199.917C82.8286 200.775 80.2036 201.866 77.6918 203.212C64.9415 210.077 75.808 220.953 85.4624 223.26C89.038 224.112 92.9364 224.381 96.5819 224.415C97.4889 224.429 105.478 225.7 104.701 226.467C102.757 228.374 98.6228 229.563 96.1024 230.868C90.9482 233.526 88.7068 239.217 91.0266 244.436C92.0731 246.781 93.7824 248.672 95.9278 250.17C77.0202 250.052 57.2144 246.627 40.7924 237.026" fill="#CCB487"/>
<path d="M183.873 221.485C175.702 226.61 167.094 231.27 158.442 235.57C143.363 243.036 127.822 247.717 111.461 249.428C108.758 249.114 106.08 248.583 103.516 247.946C95.2923 245.857 91.0886 237.959 100.194 232.6C103.298 230.773 106.316 229.563 109.011 227.11L109.045 224.81C105.208 220.48 99.522 220.483 93.705 220.487C87.1467 220.487 80.4226 220.49 75.9922 214.292C69.2071 204.79 92.5014 203.048 95.7544 198.35C100.473 191.559 88.2891 190.224 84.5303 190.05C80.3703 189.856 76.2102 190.002 72.059 190.145C64.5587 190.404 57.0934 190.667 49.6455 188.935C41.7441 187.106 33.7206 179.378 38.9446 171.054C42.1889 165.858 50.1163 163.548 55.5845 161.933C61.4626 160.199 76.2626 160.717 78.6348 153.568C80.3354 148.492 65.8843 144.171 63.0935 142.549C61.1313 135.96 62.4482 132.457 67.0006 132.035C68.8408 131.677 70.7333 131.445 72.6345 131.36C75.0764 131.176 77.5447 131.179 79.9953 131.183C80.6058 131.183 81.2074 131.186 81.8179 131.183C84.6087 131.17 87.3995 131.279 90.1816 131.388C93.6875 131.524 97.1848 131.66 100.691 131.551C110.956 132.852 121.211 133.758 131.677 133.388C138.95 133.118 150.916 133.633 157.091 128.174C169.562 155.415 187.371 180.206 207.726 202.554C203.496 210.415 190.78 217.171 183.873 221.485" fill="#CCA663"/>
<path d="M85.4592 223.26C85.4418 223.257 85.4158 223.25 85.3983 223.246C85.4158 223.25 85.4418 223.257 85.4592 223.26ZM85.3809 223.243C85.3722 223.239 85.3547 223.236 85.3372 223.232C85.3547 223.236 85.3722 223.239 85.3809 223.243ZM85.3198 223.23C85.3111 223.226 85.2936 223.223 85.2849 223.219C85.2936 223.223 85.3111 223.226 85.3198 223.23ZM85.2674 223.212C85.25 223.209 85.2327 223.205 85.224 223.202C85.2327 223.205 85.25 223.209 85.2674 223.212ZM85.2065 223.198C85.1891 223.196 85.1803 223.192 85.1629 223.189C85.1803 223.192 85.1891 223.196 85.2065 223.198ZM85.1454 223.182C85.128 223.178 85.1192 223.175 85.1018 223.171C85.1192 223.175 85.128 223.178 85.1454 223.182ZM85.0843 223.168C85.0669 223.164 85.0581 223.161 85.0494 223.158C85.0581 223.161 85.0669 223.164 85.0843 223.168ZM85.0232 223.151C85.0145 223.148 84.9972 223.144 84.9885 223.141C84.9972 223.144 85.0145 223.148 85.0232 223.151ZM84.9623 223.134C84.9536 223.13 84.9449 223.13 84.9361 223.127C84.9449 223.13 84.9536 223.13 84.9623 223.134ZM84.9012 223.121C84.8925 223.117 84.8838 223.114 84.875 223.114C84.8838 223.114 84.8925 223.117 84.9012 223.121ZM84.8401 223.1C84.8314 223.1 84.8314 223.1 84.8227 223.096C84.8314 223.1 84.8314 223.1 84.8401 223.1ZM84.7792 223.087L84.7705 223.083L84.7792 223.087Z" fill="#1A1717"/>
<path d="M95.926 250.17C77.0185 250.052 57.2127 246.627 40.7907 237.026C24.9617 227.754 14.0168 210.663 8.90615 193.43L8.63574 192.445C20.9675 200.262 33.3864 206.214 42.9535 209.437C52.4509 212.65 62.5764 214.2 72.7889 214.245C74.7948 218.221 79.853 221.71 84.7718 223.083L84.7805 223.087C84.798 223.09 84.8065 223.093 84.824 223.097C84.8327 223.1 84.8327 223.1 84.8414 223.1C84.8501 223.103 84.8676 223.107 84.8763 223.114C84.8851 223.114 84.8938 223.117 84.9025 223.121C84.9112 223.121 84.92 223.124 84.9374 223.127C84.9462 223.131 84.9549 223.131 84.9636 223.134C84.9724 223.138 84.9811 223.141 84.9898 223.141C84.9985 223.144 85.0158 223.148 85.0245 223.151C85.0332 223.155 85.042 223.155 85.0507 223.158C85.0594 223.161 85.0682 223.165 85.0856 223.168C85.0944 223.168 85.0944 223.172 85.1031 223.172C85.1205 223.175 85.1293 223.178 85.1467 223.182C85.1555 223.185 85.1555 223.185 85.1642 223.189C85.1816 223.192 85.1904 223.196 85.2078 223.199C85.2078 223.199 85.2166 223.202 85.2253 223.202C85.234 223.206 85.2513 223.209 85.2687 223.213C85.2687 223.216 85.2775 223.216 85.2862 223.219C85.2949 223.223 85.3124 223.226 85.3211 223.23C85.3298 223.23 85.3386 223.23 85.3386 223.233C85.356 223.236 85.3735 223.24 85.3822 223.243C85.391 223.243 85.391 223.247 85.3997 223.247C85.4171 223.25 85.4431 223.257 85.4606 223.26C89.0363 224.112 92.9346 224.381 96.5801 224.415C97.4435 224.429 104.743 225.584 104.752 226.358C104.752 226.394 104.734 226.432 104.7 226.467C102.755 228.375 98.621 229.563 96.1006 230.868C92.3156 232.821 90.1003 236.405 90.109 240.242C90.1178 241.628 90.4143 243.049 91.0248 244.436C92.0714 246.781 93.7806 248.672 95.926 250.17" fill="#C1A576"/>
<path d="M109.041 224.81C108.971 224.735 108.902 224.657 108.832 224.585C108.902 224.657 108.971 224.735 109.041 224.81ZM108.788 224.535C108.762 224.51 108.745 224.483 108.718 224.463C108.745 224.483 108.762 224.51 108.788 224.535ZM93.308 220.487C93.2905 220.487 93.282 220.487 93.2645 220.487C93.282 220.487 93.2905 220.487 93.308 220.487ZM76.4849 214.953C76.4501 214.912 76.4238 214.872 76.3889 214.831C76.4238 214.872 76.4501 214.912 76.4849 214.953ZM76.2145 214.602C76.1622 214.531 76.1099 214.459 76.0576 214.388C76.1099 214.459 76.1622 214.531 76.2145 214.602ZM153.109 130.641C153.109 130.637 153.109 130.637 153.109 130.634C153.798 130.337 154.461 130.004 155.08 129.629C154.461 130.004 153.798 130.341 153.109 130.641V130.641ZM155.098 129.619C155.115 129.609 155.124 129.602 155.141 129.595C155.124 129.602 155.115 129.609 155.098 129.619ZM155.185 129.568C155.194 129.561 155.202 129.557 155.211 129.55C155.202 129.557 155.194 129.561 155.185 129.568ZM155.359 129.459C155.368 129.452 155.377 129.448 155.377 129.445C155.377 129.448 155.368 129.455 155.359 129.459ZM155.438 129.407C155.446 129.404 155.455 129.4 155.455 129.393C155.455 129.4 155.446 129.404 155.438 129.407ZM155.525 129.353C155.534 129.346 155.551 129.336 155.56 129.325C155.551 129.336 155.534 129.346 155.525 129.353ZM155.595 129.305C155.612 129.295 155.63 129.284 155.647 129.275C155.63 129.284 155.612 129.295 155.595 129.305ZM155.656 129.264C156.162 128.93 156.633 128.566 157.086 128.174C156.641 128.566 156.162 128.93 155.656 129.264Z" fill="#1A1617"/>
<path d="M111.459 249.428C108.755 249.114 106.078 248.583 103.514 247.946C98.5517 246.685 95.0544 243.308 95.0631 239.653C95.0631 237.25 96.5807 234.725 100.191 232.6C103.296 230.773 106.313 229.563 109.008 227.11L109.043 224.81C108.973 224.735 108.904 224.657 108.834 224.585C108.816 224.569 108.799 224.548 108.79 224.535C108.764 224.51 108.747 224.483 108.721 224.463C104.962 220.562 99.5807 220.487 94.0428 220.487C93.9294 220.487 93.8161 220.487 93.7028 220.487C93.5719 220.487 93.4409 220.487 93.3101 220.487C93.2927 220.487 93.2841 220.487 93.2667 220.487C87.0921 220.483 80.8216 220.364 76.4872 214.953C76.4523 214.912 76.426 214.872 76.3911 214.831C76.3301 214.756 76.2778 214.681 76.2168 214.602C76.1644 214.531 76.1122 214.459 76.0598 214.388C76.0337 214.357 76.0074 214.323 75.99 214.292L75.9551 214.211C99.7552 213.584 123.756 204.837 141.408 189.788C151.419 181.232 158.484 169.606 159.452 156.318C160.106 147.285 157.341 138.604 153.111 130.641C153.8 130.341 154.463 130.004 155.082 129.629C155.091 129.626 155.1 129.622 155.1 129.619C155.117 129.609 155.126 129.602 155.143 129.595C155.161 129.585 155.17 129.578 155.187 129.568C155.196 129.561 155.205 129.558 155.213 129.551C155.266 129.52 155.318 129.49 155.361 129.459C155.37 129.456 155.379 129.449 155.379 129.445C155.405 129.431 155.422 129.421 155.44 129.408C155.448 129.404 155.457 129.401 155.457 129.394C155.483 129.38 155.501 129.367 155.527 129.353C155.536 129.347 155.553 129.336 155.562 129.326C155.579 129.319 155.588 129.312 155.597 129.306C155.614 129.295 155.632 129.285 155.649 129.275C155.649 129.271 155.658 129.268 155.658 129.264C156.164 128.93 156.643 128.566 157.088 128.174C169.559 155.415 187.368 180.206 207.723 202.554C203.494 210.415 190.778 217.171 183.871 221.485C175.699 226.61 167.091 231.27 158.44 235.57C143.361 243.036 127.82 247.717 111.459 249.428" fill="#C19552"/>
<path d="M324.66 255.016C300.075 260.655 270.728 246.9 250.591 234.01C226.024 218.296 205.59 195.233 188.296 172.063C171.01 148.962 157.527 123.37 150.289 95.3795C144.079 71.41 141.384 38.8601 156.175 17.2927C174.255 -9.09646 207.709 15.1016 226.538 26.6659C247.164 39.3311 269.586 52.1218 293.848 55.6204C317.596 59.0589 363.662 53.1642 362.903 88.2113C362.598 101.983 355.045 114.75 350.684 127.483C350.152 129.067 349.664 130.72 349.202 132.386L348.966 132.536C348.565 134.777 348.216 136.969 347.885 139.054C347.056 144.107 346.577 149.136 346.385 154.169C346.455 157.858 346.821 161.521 347.562 165.072L348.338 164.997C347.937 159.524 348.269 153.926 349.132 148.383C350.048 152.025 350.92 155.661 351.713 159.388C354.243 171.396 360.67 182.49 363.313 194.626C366.112 207.573 364.351 220.504 358.193 232.198C351.382 245.189 338.466 251.854 324.66 255.016" fill="#BA7B5E"/>
<path d="M363.313 194.626C362.824 192.391 362.17 190.203 361.481 188.023L360.984 188.084C349.917 190.789 348.897 199.863 345.74 209.199C343.489 215.843 340.516 220.954 334.803 225.233C322.873 234.164 310.227 233.844 298.087 225.4C290.988 220.477 284.56 214.657 278.22 208.831C273.327 204.361 268.836 198.081 262.74 195.222C257.315 192.707 251.821 190.578 245.882 189.726C241.111 189.048 235.974 188.776 231.405 187.107C223.102 184.047 214.677 179.062 208.965 172.216C204.369 166.741 203.313 159.29 203.209 152.4C203.061 143.695 201.84 135.265 201.36 126.625C200.584 112.375 192.307 106.566 183.708 96.8624C178.476 90.9337 175.432 84.8348 177.15 76.8206C179.261 67.0077 188.514 64.7486 194.854 58.5512C202.346 51.1877 201.63 40.6595 197.828 31.862C194.025 23.095 194.523 16.553 203.392 12.948C186.7 4.4915 168.097 -0.107883 156.175 17.2927C141.384 38.8601 144.079 71.41 150.289 95.3795C157.527 123.37 171.01 148.962 188.296 172.063C205.59 195.233 226.024 218.296 250.591 234.01C270.728 246.9 300.075 260.655 324.669 255.016C338.466 251.858 351.382 245.189 358.193 232.198C364.351 220.504 366.112 207.573 363.313 194.626" fill="#90614B"/>
<path d="M292.774 78.7043C277.294 78.7043 261.491 76.3301 248.776 66.8714C244.808 63.9371 249.238 59.9883 252.735 59.9883C252.988 59.9883 253.241 60.0093 253.476 60.0529C270.675 63.1983 287.472 69.3206 305.115 69.3206C307.025 69.3206 308.952 69.2456 310.888 69.093C314.752 68.779 321.319 67.9852 328.034 67.9852C337.784 67.9852 347.831 69.6652 350.317 76.9598L349.13 78.2787C344.534 78.2613 340.409 75.9341 335.787 75.6035C333.877 75.4674 331.976 75.3959 330.083 75.3959C327.24 75.3959 324.415 75.5598 321.589 75.934C313.269 77.0244 305.132 78.4357 296.699 78.6564C295.399 78.6878 294.082 78.7043 292.774 78.7043" fill="#D3A996"/>
<path d="M223.972 44.019C223.152 44.019 222.324 43.8621 221.504 43.5454C219.533 42.7752 217.204 42.0591 216.193 40.0529C215.155 38.0049 216.829 36.4819 218.757 36.4819C218.966 36.4819 219.175 36.4985 219.385 36.536C221.452 36.9111 222.394 38.2465 223.649 39.7764C224.208 40.4751 224.783 41.0778 225.725 41.1528C226.928 41.2557 227.87 42.9758 226.405 43.555C225.594 43.8655 224.783 44.019 223.972 44.019Z" fill="#D3A996"/>
<path d="M129.981 143.654C131.891 140.996 127.609 138.727 125.551 140.533C124.033 141.872 122.053 142.035 120.109 141.991L118.347 141.735L118.242 141.96C116.777 141.967 115.355 142.086 113.847 142.383C111.649 142.802 111.073 145.654 113.114 146.727C118.443 149.527 126.257 148.867 129.981 143.654" fill="#BA7B5E"/>
<path d="M102.435 153.234C100.926 153.405 99.3824 153.579 97.8911 153.745C96.5131 153.902 94.9783 154.206 93.9143 155.163C92.92 156.083 93.5304 157.279 94.6293 157.684C97.2806 158.655 100.787 157.108 103.377 156.458C105.845 155.845 104.65 152.982 102.435 153.234" fill="#BA7B5E"/>
<path d="M111.058 170.502C110.709 169.385 109.541 169.027 108.511 169.177C107.308 169.351 106.113 169.487 104.901 169.644C103.985 169.749 103.122 169.981 102.197 169.947C100.122 169.851 99.4413 172.86 101.622 173.283C104.334 173.801 106.907 173.306 109.549 172.717C110.552 172.509 111.354 171.549 111.058 170.502" fill="#BA7B5E"/>
<path d="M70.3239 171.76C68.7541 172.032 67.1233 172.803 65.5186 172.581L63.9401 173.92C63.9139 174.786 64.7075 175.222 65.475 175.303C67.3849 175.505 69.2077 174.629 71.0565 174.244C72.9315 173.855 72.0768 171.467 70.3239 171.76Z" fill="#BA7B5E"/>
<path d="M63.5257 179.003C62.5228 179.641 61.0576 179.436 59.9587 180.141C59.0692 180.69 58.5286 181.655 59.1652 182.632C59.8977 183.787 61.4065 183.753 62.4094 183.065L62.6187 183.048L63.6564 182.837C64.4936 182.663 65.2088 182.332 65.9414 181.855C67.8687 180.57 65.2699 177.9 63.5257 179.003" fill="#BA7B5E"/>
<path d="M50.2306 146.751C47.3962 147.293 44.8321 148.925 41.9018 149.044C40.4715 149.089 39.9482 150.976 41.4919 151.381C43.2536 151.827 44.7885 151.739 46.5154 151.143C48.0154 150.612 49.4631 149.831 51.0242 149.487C53.0737 149.017 52.1493 146.386 50.2306 146.751" fill="#BA7B5E"/>
<path d="M44.0535 139.378C44.0797 138.559 43.3385 138.148 42.6321 138.076C40.4518 137.821 38.7773 139.084 37.129 140.341C35.6813 141.432 37.8267 143.058 39.0826 142.116C40.164 141.319 41.1582 140.441 42.5884 140.621L44.0535 139.378" fill="#BA7B5E"/>
<path d="M23.1816 164.035C25.2223 162.219 22.4141 159.316 20.3035 160.645C17.4866 162.41 13.9807 164.256 13.283 167.807C12.8731 169.906 15.6116 171.501 17.2337 169.906C19.2047 167.947 21.0972 165.895 23.1816 164.035Z" fill="#BA7B5E"/>
<path d="M19.1365 191.57C20.1133 189.668 21.4649 188.022 22.4504 186.125C23.5667 183.954 20.0696 182.333 19.0492 184.312C18.0724 186.19 16.6944 187.845 15.7264 189.733C14.5926 191.917 18.09 193.545 19.1365 191.57" fill="#BA7B5E"/>
<path d="M33.58 204.121C31.827 205.249 29.4549 205.076 27.5799 206.03C25.7833 206.936 26.8124 208.967 28.4869 209.133C30.9725 209.396 34.1381 208.663 36.2138 207.246C38.3156 205.815 35.455 202.895 33.58 204.121Z" fill="#BA7B5E"/>
<path d="M52.1305 219.175C51.0665 218.204 49.5577 218.323 48.4414 219.103L46.2611 219.798C45.0837 219.972 44.0808 220.091 43.0168 220.698C41.4906 221.557 41.5255 223.959 43.4616 224.286C46.453 224.803 49.584 224.18 52.0696 222.429C53.1684 221.659 53.0549 220.009 52.1305 219.175" fill="#BA7B5E"/>
<path d="M104.044 137.82C101.785 137.279 99.8405 136.665 97.5207 136.73C95.5584 136.784 93.5699 137.033 91.6164 136.992C88.3547 136.92 87.2994 141.496 90.7181 142.253C92.7414 142.693 94.5294 142.706 96.5615 142.491C98.8028 142.246 101.166 141.633 103.373 141.657C105.762 141.694 106.512 138.434 104.044 137.82" fill="#BA7B5E"/>
<path d="M132.531 163.851L131.45 164.4L132.531 163.851Z" fill="#BA7B5E"/>
<path d="M160.697 143.408C160.714 141.83 159.267 140.954 157.871 140.836C156.859 140.75 155.857 140.972 154.906 141.292L153.964 141.633L153.641 141.735L152.883 141.905L152.647 141.95C151.548 141.98 150.432 142.509 150.048 143.619C149.63 144.92 150.598 146.25 151.862 146.536C153.127 146.818 154.295 146.686 155.543 146.334L156.807 145.946L157.304 145.848L157.784 145.864C159.171 146.028 160.662 144.822 160.697 143.408" fill="#BA7B5E"/>
</svg>
