<svg width="201" height="255" viewBox="0 0 201 255" fill="none" xmlns="http://www.w3.org/2000/svg">
<path d="M199.942 144.357C199.541 125.426 192.164 105.034 180.44 90.7864C165.826 73.007 145.506 63.3843 123.639 60.798C125.41 55.1748 126.492 49.2788 126.316 43.3906C125.945 30.5675 126.054 18.6355 129.013 6.07805L128.661 5.20761C128.932 3.65667 127.116 2.13929 125.744 1.48664C122.231 -0.200691 116.7 -0.317815 112.963 0.468367C112.316 0.60261 111.496 1.82654 112.218 2.18357C109.784 14.7718 113.76 27.9626 114.472 40.5901C114.729 45.1672 114.022 52.8819 111.981 60.0761C111.067 60.0704 110.16 60.0482 109.248 60.0561C94.7994 56.3216 79.8035 55.2169 65.0419 58.628C45.0705 63.228 27.9107 75.9583 15.1239 91.6062C2.25846 107.341 -2.48789 125.404 1.2268 144.377C1.29391 152.011 2.12495 159.571 3.75347 167.199C6.38366 179.509 12.2652 191.421 16.7495 203.153C21.0418 214.341 28.2177 225.311 36.049 234.335C43.3692 242.778 52.7348 246.025 63.6947 245.782L64.727 245.378C70.7506 251.631 78.275 254.811 88.8229 254.992C100.315 255.182 112.403 251.994 122.596 246.053C125.995 249.595 129.694 251.417 133.517 251.96C149.243 255.201 169.951 231.579 177.289 221.281C191.999 200.67 204.145 170.666 199.942 144.357" fill="#040606"/>
<path d="M119.598 39.0245L119.564 38.7768C118.309 27.4353 116.101 16.3474 114.893 5.02309C116.237 6.01064 117.939 6.52118 119.955 6.88107C121.55 7.15955 124.411 7.74293 126.456 7.21239C123.427 19.285 123.265 30.5036 123.048 42.6284C123.605 56.9039 123.179 71.208 108.788 78.4093C107.809 78.8977 106.867 77.3582 107.516 76.602C116.703 65.749 119.779 52.5246 119.598 39.0245" fill="#732418"/>
<path d="M196.221 158.214C193.993 159.975 190.445 161.648 188.468 162.722C180.994 166.803 172.178 168.136 163.979 170.014C151.705 172.834 140.514 174.619 127.922 174.462C127.25 174.451 126.725 175.782 127.562 175.84C133.934 176.281 140.237 176.568 146.624 176.262C155.576 175.826 164.696 172.314 173.367 170.326C179.555 168.895 189.121 166.521 195.563 162.287L195.281 163.785L194.958 165.244C182.824 174.686 165.747 178.652 151.236 181.759C150.759 181.865 150.439 182.705 151.122 182.683C160.228 182.51 168.578 180.777 176.986 177.266C182.135 175.115 188.789 172.602 194.015 169.14C193.441 171.35 192.808 173.525 192.164 175.67C181.951 182.914 167.362 184.671 155.448 186.635C141.185 188.998 125.928 190.169 111.796 186.471C111.066 186.275 110.424 187.572 111.281 187.812C127.671 192.451 145.369 190.529 161.862 187.611C169.493 186.266 183.264 184.769 191.031 179.396L190.708 180.423C185.208 184.398 180.043 188.339 173.417 190.626C163.477 194.055 151.432 196.977 140.837 196.4L140.628 196.942C151.705 198.548 163.187 196.319 173.726 192.922C178.077 191.533 184.16 189.485 188.789 186.379C188.566 187.056 188.351 187.722 188.12 188.373C173.958 196.551 160.206 202.163 143.551 203.385L143.453 204.087C153.621 203.993 162.629 203.37 172.025 199.264C176.713 197.22 181.956 195.786 186.29 193.056C185.772 194.255 185.191 195.463 184.575 196.679C176.44 202.634 167.382 207.248 157.082 208.18C156.538 208.216 156.268 209.136 156.962 209.136C164.361 209.103 173.977 207.284 181.133 202.88C180.043 204.81 178.961 206.718 177.887 208.589C160.189 215.351 142.326 217.097 123.398 214.015L123.033 214.966C139.97 218.366 160.013 219.144 176.15 211.596C174.892 213.761 173.589 215.872 172.257 217.976C161.678 221.791 150.495 224.739 139.161 221.147L138.617 221.964C147.592 226.31 159.793 225.588 169.657 221.919C168.453 223.668 167.234 225.409 165.923 227.136C164.068 227.813 162.311 228.633 160.304 229.069C159.215 229.325 158.075 229.481 156.929 229.593C155.788 229.66 154.642 229.743 153.465 229.813C150.495 229.886 147.5 229.735 144.68 229.607C140.232 229.423 133.642 228.767 128.574 226.907C127.687 226.413 126.809 225.878 126.003 225.241H125.08L124.419 224.815L123.766 225.618C127.141 229.783 132.964 232.145 139.44 233.144C146.761 234.619 154.723 234.393 161.165 232.954L160.694 233.501C155.886 238.817 148.484 243.23 141.944 245.908L141.124 246.198C136.57 246.814 132.018 245.852 127.66 242.733C129.517 241.386 131.307 239.958 132.964 238.407C133.653 237.763 133.892 236.988 133.829 236.321C123.806 242.979 112.413 247.358 100.496 249.017C97.9806 249.547 95.3419 249.924 92.5675 250.083C86.0691 250.46 80.1204 249.377 74.7408 247.079C67.8048 244.541 60.7967 240.329 57.6281 234.876L57.561 235.406C58.819 237.665 60.1384 239.721 61.5356 241.578C56.6072 240.686 51.8216 240.178 47.273 237.47C42.6687 234.73 38.9426 230.343 35.6349 226.223C28.8973 217.844 23.3835 207.625 19.4875 197.625C17.5769 192.744 15.6978 187.932 13.9129 183.14L13.4974 182.71C6.44142 165.994 2.02921 147.06 3.95616 128.846C3.87549 123.588 4.54231 118.291 6.13157 113.028C13.1097 90.0495 35.4178 71.6824 56.9977 63.1551C71.3132 57.4954 86.6909 57.197 101.684 59.8919C104.857 59.8083 108.441 60.9687 110.681 62.4553C111.328 62.8902 111.242 63.7156 110.698 63.9784C107.22 73.3305 101.132 80.4882 91.418 76.2702L90.3528 76.3767C88.7157 74.2174 87.4663 71.5932 86.476 68.4799C86.1469 67.4366 84.5798 68.2707 84.3735 68.974C77.7473 92.468 113.492 90.1195 126.558 87.0347C127.263 86.8698 127.813 85.3053 126.792 85.2803C118.66 85.1182 110.193 85.0789 102.211 83.383L100.87 83.026C110.753 81.8464 119.357 72.7785 122.637 63.7692C124.377 64.1455 126.053 64.7003 127.71 65.3501C137.282 67.3088 146.354 70.6163 154.926 75.4255C152.324 81.4165 146.295 84.3235 140.581 87.0676C139.326 87.6645 139.286 90.0495 140.882 89.3133C147.053 86.4456 154.251 83.1238 157.174 76.6859C158.477 77.4756 159.751 78.2704 161.025 79.1158C160.471 82.0363 157.913 84.8311 156.073 86.8505C153.844 89.3019 151.081 91.1178 148.543 93.2242C147.782 93.849 148.493 94.7916 149.329 94.3646C153.027 92.4595 156.103 89.3247 158.691 86.1279C160.2 84.2592 161.862 82.1613 162.183 79.9327C164.939 81.8214 167.652 83.8543 170.293 86.1086C162.596 96.5853 149.728 103.29 137.591 107.02C136.944 107.215 136.944 108.278 137.733 108.077C145.012 106.149 152.453 103.165 158.895 99.2487C162.807 96.8781 165.502 93.1178 169.152 90.4344C170.349 89.5668 171.216 88.6107 171.897 87.5032C173.057 88.5521 174.164 89.6482 175.235 90.7864C163.661 102.967 147.023 112.384 130.337 114.559L130.248 115.287C146.875 114.063 165.454 104.97 176.799 92.518C178.191 94.1275 179.499 95.8291 180.743 97.575L179.585 98.4147C179.067 103.02 173.503 106.097 170.455 109.073C166.138 113.296 160.635 117.837 154.845 119.667L154.893 120.027C161.678 118.038 167.945 114.004 173.026 109.126C176.44 105.848 180.517 103.327 181.159 98.2333L181.15 98.147C182.564 100.194 183.875 102.326 185.093 104.526C181.825 107.438 179.028 110.861 175.709 113.756C170.915 117.974 164.785 120.891 158.781 122.913C158.03 123.158 158.017 124.369 158.945 124.143C170.192 121.496 178.782 115.321 186.279 106.771C187.33 108.833 188.3 110.956 189.199 113.126C185.492 119.106 177.569 123.655 172.002 126.67C165.29 130.325 157.969 132.625 151.198 136.115C150.428 136.506 150.635 137.752 151.585 137.465C160.498 134.826 169.317 130.84 177.288 126.043C181.011 123.797 187.077 119.686 190.005 115.081C191.065 117.842 191.999 120.676 192.808 123.535C186.845 131.895 175.728 137.002 166.991 141.485C154.888 147.699 142.284 152.357 128.613 153.258C127.124 153.353 126.424 155.98 128.27 155.883C142.449 155.063 155.518 150.254 168.121 143.908C176.186 139.845 187.648 134.352 193.547 126.344C193.811 127.384 194.015 128.436 194.238 129.485L194.113 129.577C189.316 134.196 184.653 140.91 178.18 143.211L178.261 143.791C184.519 141.908 190.239 136.536 194.757 131.803C195.106 133.699 195.426 135.591 195.678 137.49C192.933 141.147 188.37 143.674 184.606 145.992C179.923 148.86 175.137 151.523 169.841 153.06C169.262 153.233 169.063 154.432 169.841 154.268C176.122 152.948 181.579 150.089 187.138 146.985C190.016 145.373 193.547 143.42 196.087 140.857C196.165 141.607 196.252 142.341 196.319 143.094C183.825 152.611 166.877 161.746 151.214 162.842L151.053 163.503C160.178 163.997 169.967 160.471 178.277 157.068C183.875 154.77 191.525 151.239 196.544 146.722C196.642 148.658 196.681 150.58 196.654 152.455C196.623 154.343 196.467 156.273 196.221 158.214" fill="#D22336"/>
<path d="M196.221 158.214C193.993 159.975 190.445 161.648 188.468 162.722C180.994 166.803 172.178 168.136 163.979 170.014C151.705 172.834 140.514 174.619 127.922 174.462C127.25 174.451 126.725 175.782 127.562 175.84C133.934 176.281 140.237 176.568 146.624 176.262C155.576 175.826 164.696 172.314 173.367 170.326C179.555 168.895 189.121 166.521 195.563 162.287L195.281 163.785L194.958 165.244C182.824 174.686 165.747 178.652 151.236 181.759C150.759 181.865 150.439 182.705 151.122 182.683C160.228 182.51 168.578 180.777 176.986 177.266C182.135 175.115 188.789 172.602 194.015 169.14C193.441 171.35 192.808 173.525 192.164 175.67C181.951 182.914 167.362 184.671 155.448 186.635C141.185 188.998 125.928 190.169 111.796 186.471C111.066 186.275 110.424 187.572 111.281 187.812C127.671 192.451 145.369 190.529 161.862 187.611C169.493 186.266 183.264 184.769 191.031 179.396L190.708 180.423C185.208 184.398 180.043 188.339 173.417 190.626C163.477 194.055 151.432 196.977 140.837 196.4L140.628 196.942C151.705 198.548 163.187 196.319 173.726 192.922C178.077 191.533 184.16 189.485 188.789 186.379C188.566 187.056 188.351 187.722 188.12 188.373C173.958 196.551 160.206 202.163 143.551 203.385L143.453 204.087C153.621 203.993 162.629 203.37 172.025 199.264C176.713 197.22 181.956 195.786 186.29 193.056C185.772 194.255 185.191 195.463 184.575 196.679C176.44 202.634 167.382 207.248 157.082 208.18C156.538 208.216 156.268 209.136 156.962 209.136C164.361 209.103 173.977 207.284 181.133 202.88C180.043 204.81 178.961 206.718 177.887 208.589C160.189 215.351 142.326 217.097 123.398 214.015L123.033 214.966C139.97 218.366 160.013 219.144 176.15 211.596C174.892 213.761 173.589 215.872 172.257 217.976C161.678 221.791 150.495 224.739 139.161 221.147L138.617 221.964C147.592 226.31 159.793 225.588 169.657 221.919C168.453 223.668 167.234 225.409 165.923 227.136C164.068 227.813 162.311 228.633 160.304 229.069C159.215 229.325 158.075 229.481 156.929 229.593C155.788 229.66 154.642 229.743 153.465 229.813C150.495 229.886 147.5 229.735 144.68 229.607C140.232 229.423 133.642 228.767 128.574 226.907C127.687 226.413 126.809 225.878 126.003 225.241H125.08L124.419 224.815L123.766 225.618C127.141 229.783 132.964 232.145 139.44 233.144C146.761 234.619 154.723 234.393 161.165 232.954L160.694 233.501C155.886 238.817 148.484 243.23 141.944 245.908L141.124 246.198C136.57 246.814 132.018 245.852 127.66 242.733C129.517 241.386 131.307 239.958 132.964 238.407C133.653 237.763 133.892 236.988 133.829 236.321C123.806 242.979 112.413 247.358 100.496 249.017C97.9806 249.547 95.3419 249.924 92.5675 250.083C86.0691 250.46 80.1204 249.377 74.7408 247.079C67.8048 244.541 60.7967 240.329 57.6281 234.876L57.561 235.406C58.819 237.665 60.1384 239.721 61.5356 241.578C56.6072 240.686 51.8216 240.178 47.273 237.47C42.6687 234.73 38.9426 230.343 35.6349 226.223C28.8973 217.844 23.3835 207.625 19.4875 197.625C17.5769 192.744 15.6978 187.932 13.9129 183.14L13.4974 182.71C6.44142 165.994 2.02921 147.06 3.95616 128.846C3.87549 123.588 4.54231 118.291 6.13157 113.028C13.1097 90.0495 35.4178 71.6824 56.9977 63.1551C71.3132 57.4954 86.6909 57.197 101.684 59.8919C104.857 59.8083 108.441 60.9687 110.681 62.4553C111.328 62.8902 111.242 63.7156 110.698 63.9784C107.22 73.3305 101.132 80.4882 91.418 76.2702L90.3528 76.3767C88.7157 74.2174 87.4663 71.5932 86.476 68.4799C86.1469 67.4366 84.5798 68.2707 84.3735 68.974C77.7473 92.468 113.492 90.1195 126.558 87.0347C127.263 86.8698 127.813 85.3053 126.792 85.2803C118.66 85.1182 110.193 85.0789 102.211 83.383L100.87 83.026C110.753 81.8464 119.357 72.7785 122.637 63.7692C124.377 64.1455 126.053 64.7003 127.71 65.3501C137.282 67.3088 146.354 70.6163 154.926 75.4255C152.324 81.4165 146.295 84.3235 140.581 87.0676C139.326 87.6645 139.286 90.0495 140.882 89.3133C147.053 86.4456 154.251 83.1238 157.174 76.6859C158.477 77.4756 159.751 78.2704 161.025 79.1158C160.471 82.0363 157.913 84.8311 156.073 86.8505C153.844 89.3019 151.081 91.1178 148.543 93.2242C147.782 93.849 148.493 94.7916 149.329 94.3646C153.027 92.4595 156.103 89.3247 158.691 86.1279C160.2 84.2592 161.862 82.1613 162.183 79.9327C164.939 81.8214 167.652 83.8543 170.293 86.1086C162.596 96.5853 149.728 103.29 137.591 107.02C136.944 107.215 136.944 108.278 137.733 108.077C145.012 106.149 152.453 103.165 158.895 99.2487C162.807 96.8781 165.502 93.1178 169.152 90.4344C170.349 89.5668 171.216 88.6107 171.897 87.5032C173.057 88.5521 174.164 89.6482 175.235 90.7864C163.661 102.967 147.023 112.384 130.337 114.559L130.248 115.287C146.875 114.063 165.454 104.97 176.799 92.518C178.191 94.1275 179.499 95.8291 180.743 97.575L179.585 98.4147C179.067 103.02 173.503 106.097 170.455 109.073C166.138 113.296 160.635 117.837 154.845 119.667L154.893 120.027C161.678 118.038 167.945 114.004 173.026 109.126C176.44 105.848 180.517 103.327 181.159 98.2333L181.15 98.147C182.564 100.194 183.875 102.326 185.093 104.526C181.825 107.438 179.028 110.861 175.709 113.756C170.915 117.974 164.785 120.891 158.781 122.913C158.03 123.158 158.017 124.369 158.945 124.143C170.192 121.496 178.782 115.321 186.279 106.771C187.33 108.833 188.3 110.956 189.199 113.126C185.492 119.106 177.569 123.655 172.002 126.67C165.29 130.325 157.969 132.625 151.198 136.115C150.428 136.506 150.635 137.752 151.585 137.465C160.498 134.826 169.317 130.84 177.288 126.043C181.011 123.797 187.077 119.686 190.005 115.081C191.065 117.842 191.999 120.676 192.808 123.535C186.845 131.895 175.728 137.002 166.991 141.485C154.888 147.699 142.284 152.357 128.613 153.258C127.124 153.353 126.424 155.98 128.27 155.883C142.449 155.063 155.518 150.254 168.121 143.908C176.186 139.845 187.648 134.352 193.547 126.344C193.811 127.384 194.015 128.436 194.238 129.485L194.113 129.577C189.316 134.196 184.653 140.91 178.18 143.211L178.261 143.791C184.519 141.908 190.239 136.536 194.757 131.803C195.106 133.699 195.426 135.591 195.678 137.49C192.933 141.147 188.37 143.674 184.606 145.992C179.923 148.86 175.137 151.523 169.841 153.06C169.262 153.233 169.063 154.432 169.841 154.268C176.122 152.948 181.579 150.089 187.138 146.985C190.016 145.373 193.547 143.42 196.087 140.857C196.165 141.607 196.252 142.341 196.319 143.094C183.825 152.611 166.877 161.746 151.214 162.842L151.053 163.503C160.178 163.997 169.967 160.471 178.277 157.068C183.875 154.77 191.525 151.239 196.544 146.722C196.642 148.658 196.681 150.58 196.654 152.455C196.623 154.343 196.467 156.273 196.221 158.214" fill="#D22336"/>
<path d="M117.685 81.0872C121.035 76.4744 123.177 68.6083 124.973 63.3114C126.853 57.7439 126.713 51.203 125.567 45.4877C125.316 44.2495 123.631 44.7765 123.35 45.7305C122.466 48.7317 122.525 50.726 122.759 53.925C123.183 60.0703 121.035 64.7588 118.484 70.1142C118.241 70.6027 117.95 71.3303 117.602 72.1479C115.611 73.6988 113.812 75.5454 111.932 77.1963L111.72 77.392L111.486 77.5398C110.602 78.0417 109.696 78.5245 108.803 79.0122C107.874 79.3471 106.907 79.5677 105.813 79.5199C104.781 79.4756 103.783 80.5324 103.538 81.47C101.854 81.4164 100.255 81.2993 98.9442 81.1101C97.7533 80.9537 97.1458 82.2254 97.3464 83.0152L97.4549 83.3665L98.5844 84.2312C99.1705 84.6354 99.7924 84.9231 100.442 85.1181C102.051 85.6929 103.817 86.025 105.278 86.4205C108.248 87.2296 111.428 87.2103 114.545 86.9761L114.891 87.2017C117.861 88.7077 121.024 87.0146 124.05 87.0289L124.594 85.9857C123.389 84.5911 121.286 84.0663 119.562 83.6257L118.221 83.4808L117.217 83.2994L117.608 81.5007L117.685 81.0872" fill="#040606"/>
<path d="M21.934 175.809C21.2929 175.809 20.6739 175.505 20.2298 174.769C7.37871 153.517 7.22592 125.485 18.4064 103.751C28.9315 83.3078 47.2043 75.6902 68.2602 69.7099L68.3408 70.3404C49.9787 78.5907 33.957 91.2239 25.6823 109.984C21.1979 120.129 20.841 129.426 20.2805 140.338C19.7001 151.634 23.9502 161.433 24.9855 172.437C25.1411 174.089 23.4655 175.809 21.934 175.809Z" fill="#F0385F"/>
<path d="M30.03 201.206C29.6145 201.203 29.2075 201.106 28.8248 200.888C26.5188 199.558 25.6399 196.942 25.1965 194.445C24.9545 193.07 24.7981 191.714 24.6889 190.325C24.6111 189.238 24.806 187.851 24.5026 186.836C24.3126 186.208 24.9067 185.148 25.632 185.148C25.7798 185.148 25.9305 185.193 26.084 185.29C28.058 186.626 29.1097 187.94 29.9436 190.227C30.7496 192.425 31.5914 193.898 33.2592 195.499C35.3346 197.502 32.5731 201.206 30.03 201.206" fill="#F0385F"/>
<path d="M140.961 231.094C138.029 231.091 135.332 230.128 133.575 228.302C137.491 229.124 141.599 229.479 144.681 229.607C145.462 229.643 146.257 229.679 147.06 229.713C145.071 230.645 142.963 231.094 140.961 231.094ZM153.031 224.951C147.897 224.951 142.89 224.034 138.618 221.964L139.161 221.147C142.773 222.293 146.368 222.773 149.935 222.773C152.409 222.773 154.865 222.541 157.304 222.143C156.335 223.125 155.334 224.056 154.294 224.935C153.873 224.946 153.452 224.951 153.031 224.951V224.951ZM146.535 217.445C142.054 217.445 137.572 217.139 133.196 216.609C133.403 216.143 133.612 215.686 133.83 215.231C136.275 215.398 138.704 215.484 141.12 215.484C149.14 215.484 157.013 214.55 164.811 212.665C164.075 213.791 163.313 214.896 162.521 215.97C157.309 217.002 151.923 217.445 146.535 217.445V217.445ZM156.963 209.136C156.67 209.136 156.547 208.971 156.547 208.782C156.547 208.517 156.768 208.199 157.083 208.18C161.291 207.798 165.291 206.801 169.106 205.354C168.638 206.232 168.158 207.108 167.664 207.979C163.933 208.756 160.231 209.122 156.963 209.136ZM143.454 204.087L143.551 203.385C154.562 202.576 164.303 199.851 173.735 195.733C173.228 196.883 172.706 198.041 172.159 199.206C172.115 199.226 172.07 199.245 172.026 199.264C162.63 203.37 153.622 203.993 143.454 204.087ZM148.234 197.474C147.066 197.474 145.894 197.438 144.728 197.365C144.915 197.059 145.099 196.755 145.283 196.448C154.707 196.163 164.844 193.583 173.417 190.626C174.438 190.275 175.425 189.882 176.382 189.455C176.218 189.873 176.05 190.286 175.877 190.699C175.637 191.282 175.391 191.87 175.141 192.464C174.653 192.624 174.179 192.777 173.727 192.922C165.583 195.546 156.879 197.474 148.234 197.474V197.474ZM148.915 189.572C149.218 188.888 149.509 188.199 149.781 187.494C151.683 187.235 153.575 186.945 155.449 186.635C162.865 185.413 171.315 184.269 179.101 181.834C178.811 182.758 178.507 183.673 178.192 184.588C172.243 186.069 166.105 186.863 161.863 187.611C157.613 188.361 153.282 189.048 148.915 189.572V189.572ZM151.483 182.677C151.597 182.328 151.711 181.979 151.823 181.634C161.355 179.586 171.947 177.143 181.489 173.018C181.287 173.905 181.075 174.789 180.85 175.67C179.502 176.228 178.203 176.755 176.987 177.266C168.687 180.73 160.449 182.462 151.483 182.677V182.677ZM153.664 175.372C153.959 174.25 154.239 173.129 154.501 172.002C157.616 171.422 160.758 170.753 163.98 170.014C170.249 168.58 176.881 167.459 183 165.188C182.852 166.106 182.699 167.023 182.531 167.938C179.198 168.948 175.983 169.72 173.367 170.326C166.961 171.796 160.309 174.094 153.664 175.372V175.372ZM156.121 163.394C156.176 163.004 156.23 162.613 156.283 162.223C165.832 160.583 175.624 156.327 184.411 151.122C184.364 152.231 184.297 153.339 184.222 154.446C182.13 155.445 180.096 156.321 178.278 157.068C171.49 159.846 163.718 162.708 156.121 163.394ZM169.706 154.281C169.443 154.281 169.329 154.087 169.329 153.852C169.331 153.537 169.532 153.152 169.842 153.06C175.113 151.532 179.882 148.885 184.542 146.034C184.536 146.835 184.525 147.635 184.506 148.433C179.834 150.957 175.127 153.158 169.842 154.268C169.795 154.279 169.747 154.281 169.706 154.281ZM157.019 148.985C156.999 148.103 156.966 147.222 156.921 146.338C156.918 146.293 156.916 146.245 156.913 146.198C160.318 144.776 163.673 143.189 166.992 141.485C172.316 138.754 178.518 135.792 183.903 132.003C184.007 133 184.093 133.984 184.166 134.958C178.867 138.592 172.898 141.501 168.121 143.908C164.465 145.749 160.77 147.462 157.019 148.985V148.985ZM178.262 143.791L178.181 143.211C180.459 142.402 182.512 141.046 184.425 139.426C184.444 139.883 184.462 140.338 184.475 140.793C182.487 142.09 180.406 143.147 178.262 143.791ZM155.898 136.081C155.789 135.401 155.674 134.721 155.549 134.043C161.032 131.594 166.707 129.554 172.003 126.67C175.018 125.039 178.724 122.955 182.077 120.439C182.23 121.142 182.375 121.85 182.512 122.554C180.632 123.957 178.775 125.148 177.288 126.043C170.603 130.065 163.327 133.515 155.898 136.081V136.081ZM158.729 124.171C158.394 124.171 158.235 123.937 158.232 123.666C158.232 123.37 158.422 123.031 158.781 122.913C164.786 120.891 170.916 117.974 175.71 113.756C176.929 112.69 178.077 111.558 179.204 110.403C179.52 111.262 179.815 112.135 180.096 113.017C174.073 118.331 167.229 122.194 158.946 124.143C158.868 124.163 158.795 124.171 158.729 124.171V124.171ZM154.894 120.027L154.846 119.667C160.636 117.837 166.139 113.296 170.455 109.073C172.104 107.463 174.486 105.826 176.41 103.932C176.655 104.414 176.895 104.9 177.126 105.394C175.824 106.657 174.374 107.832 173.027 109.126C167.946 114.004 161.679 118.038 154.894 120.027V120.027ZM145.275 112.253C144.893 111.884 144.5 111.524 144.093 111.176C153.775 107.698 162.951 102.096 170.559 95.3129C171.091 95.8963 171.605 96.5011 172.101 97.1316C164.585 103.765 155.055 109.095 145.275 112.253ZM138.964 107.743C138.947 107.734 138.933 107.725 138.916 107.717C138.442 107.475 137.965 107.257 137.486 107.061C137.519 107.045 137.555 107.031 137.591 107.02C147.635 103.932 158.179 98.8111 165.879 91.1963C166.297 91.4862 166.71 91.7904 167.112 92.1053C164.407 94.5296 162.047 97.3379 158.896 99.2488C152.816 102.945 145.847 105.81 138.964 107.743V107.743ZM148.909 94.471C148.513 94.471 148.217 94.1725 148.22 93.8183C148.223 93.6227 148.318 93.4078 148.543 93.2243C151.081 91.1178 153.845 89.3019 156.073 86.8505C156.182 86.7306 156.293 86.6078 156.408 86.4821C156.91 86.6692 157.409 86.8698 157.903 87.079C155.485 89.9381 152.66 92.6494 149.33 94.3646C149.184 94.4403 149.042 94.471 148.909 94.471V94.471ZM140.339 89.4554C139.878 89.4554 139.663 89.0791 139.661 88.6157C139.658 88.0494 139.982 87.3525 140.581 87.0676C142.235 86.27 143.917 85.4638 145.534 84.5684C145.852 84.5577 146.173 84.5491 146.494 84.5491C147.338 84.5491 148.203 84.5991 149.087 84.7026C149.257 84.7219 149.427 84.7448 149.598 84.7669C146.826 86.5578 143.743 87.9859 140.883 89.3133C140.673 89.4111 140.492 89.4554 140.339 89.4554" fill="#040606"/>
<path d="M147.063 229.713C146.26 229.679 145.466 229.643 144.685 229.607C141.602 229.478 137.495 229.124 133.579 228.302C131.507 226.148 130.743 222.793 132.458 218.394C132.692 217.791 132.941 217.197 133.2 216.609C137.576 217.139 142.057 217.445 146.539 217.445C151.927 217.445 157.312 217.001 162.525 215.97C160.91 218.168 159.173 220.245 157.307 222.143C154.869 222.541 152.412 222.773 149.939 222.773C146.372 222.773 142.777 222.293 139.165 221.147L138.622 221.964C142.894 224.034 147.9 224.951 153.034 224.951C153.456 224.951 153.877 224.945 154.298 224.935C152.22 226.686 149.994 228.214 147.602 229.45C147.423 229.543 147.245 229.629 147.063 229.713V229.713ZM141.123 215.484C138.708 215.484 136.279 215.398 133.833 215.231C136.84 208.943 141.065 203.34 144.732 197.365C145.898 197.438 147.069 197.474 148.237 197.474C156.883 197.474 165.587 195.546 173.73 192.922C174.182 192.777 174.656 192.623 175.145 192.464C174.693 193.538 174.224 194.631 173.739 195.733C164.307 199.85 154.566 202.575 143.555 203.384L143.457 204.087C153.625 203.993 162.633 203.37 172.03 199.264C172.074 199.245 172.119 199.226 172.163 199.206C171.209 201.254 170.194 203.312 169.11 205.354C165.294 206.801 161.295 207.797 157.087 208.179C156.772 208.199 156.551 208.517 156.551 208.782C156.551 208.971 156.674 209.136 156.967 209.136C160.235 209.122 163.936 208.756 167.667 207.979C166.764 209.568 165.813 211.136 164.814 212.664C157.017 214.55 149.144 215.484 141.123 215.484V215.484ZM145.287 196.447C146.614 194.233 147.855 191.957 148.918 189.572C153.286 189.047 157.616 188.361 161.867 187.611C166.109 186.863 172.247 186.068 178.195 184.587C177.632 186.222 177.03 187.845 176.385 189.454C175.429 189.881 174.442 190.275 173.421 190.626C164.848 193.582 154.711 196.163 145.287 196.447ZM149.785 187.494C149.894 187.217 149.997 186.939 150.101 186.657C150.583 185.335 151.046 184.007 151.486 182.677C160.453 182.462 168.691 180.729 176.991 177.265C178.207 176.755 179.506 176.228 180.853 175.67C180.329 177.74 179.746 179.798 179.105 181.834C171.319 184.269 162.868 185.413 155.452 186.635C153.578 186.945 151.687 187.234 149.785 187.494V187.494ZM151.827 181.633C152.496 179.555 153.11 177.469 153.668 175.372C160.313 174.094 166.965 171.796 173.371 170.325C175.987 169.72 179.202 168.947 182.535 167.938C182.226 169.636 181.877 171.332 181.492 173.017C171.951 177.143 161.359 179.586 151.827 181.633ZM154.504 172.002C155.165 169.154 155.712 166.284 156.124 163.394C163.721 162.708 171.494 159.846 178.282 157.068C180.1 156.321 182.133 155.444 184.225 154.446C183.971 158.044 183.567 161.628 183.004 165.188C176.885 167.459 170.253 168.58 163.983 170.013C160.762 170.752 157.619 171.422 154.504 172.002ZM156.286 162.222C156.852 157.863 157.117 153.453 157.022 148.984C160.774 147.462 164.469 145.749 168.125 143.908C172.902 141.501 178.871 138.592 184.17 134.957C184.211 135.481 184.247 136.003 184.278 136.519C184.34 137.49 184.39 138.458 184.429 139.426C182.515 141.046 180.463 142.402 178.185 143.21L178.265 143.791C180.41 143.147 182.49 142.089 184.479 140.793C184.535 142.539 184.557 144.284 184.546 146.034C179.886 148.884 175.117 151.531 169.846 153.059C169.536 153.152 169.335 153.536 169.332 153.852C169.332 154.086 169.447 154.281 169.709 154.281C169.751 154.281 169.799 154.278 169.846 154.268C175.13 153.157 179.838 150.957 184.51 148.432C184.487 149.331 184.457 150.226 184.415 151.121C175.627 156.326 165.835 160.583 156.286 162.222V162.222ZM156.917 146.198C156.741 142.926 156.437 139.504 155.901 136.081C163.331 133.515 170.607 130.065 177.292 126.043C178.779 125.148 180.636 123.956 182.515 122.553C183.137 125.736 183.592 128.918 183.907 132.003C178.522 135.791 172.32 138.753 166.996 141.485C163.676 143.188 160.322 144.776 156.917 146.198V146.198ZM155.552 134.043C154.038 125.856 151.079 117.876 145.279 112.252C155.059 109.095 164.589 103.764 172.105 97.1313C173.728 99.1871 175.158 101.477 176.413 103.932C174.489 105.826 172.107 107.463 170.459 109.073C166.142 113.296 160.639 117.836 154.85 119.666L154.898 120.026C161.682 118.038 167.949 114.004 173.031 109.125C174.378 107.832 175.828 106.657 177.13 105.394C177.892 107.008 178.583 108.682 179.208 110.403C178.081 111.558 176.932 112.69 175.714 113.755C170.919 117.973 164.789 120.891 158.785 122.913C158.425 123.03 158.235 123.37 158.235 123.666C158.238 123.936 158.397 124.171 158.732 124.171C158.799 124.171 158.872 124.163 158.949 124.143C167.233 122.193 174.077 118.33 180.1 113.016C180.876 115.443 181.531 117.934 182.081 120.439C178.728 122.955 175.022 125.038 172.007 126.67C166.711 129.554 161.036 131.593 155.552 134.043V134.043ZM144.096 111.175C142.573 109.867 140.869 108.713 138.967 107.742C145.85 105.809 152.819 102.944 158.899 99.2485C162.051 97.3377 164.41 94.5293 167.116 92.1051C168.343 93.0676 169.492 94.1416 170.562 95.3126C162.955 102.096 153.779 107.697 144.096 111.175V111.175ZM109.363 107.829C108.382 107.829 107.397 107.781 106.421 107.672C96.61 106.607 87.5321 101.452 83.0785 92.4207C82.6544 91.5695 83.5611 90.6098 84.4143 90.6098C84.6428 90.6098 84.8662 90.6798 85.0611 90.839C90.55 95.3269 98.0743 97.3491 105.596 97.3491C111.344 97.3491 117.088 96.1695 121.925 94.0044C129.814 90.4591 136.809 84.9509 145.538 84.5681C143.921 85.4636 142.239 86.2698 140.585 87.0674C139.985 87.3523 139.662 88.0492 139.665 88.6154C139.667 89.0788 139.882 89.4552 140.342 89.4552C140.496 89.4552 140.677 89.4109 140.886 89.3131C143.747 87.9856 146.829 86.5575 149.602 84.7667C151.916 85.0816 154.203 85.6649 156.412 86.4818C156.297 86.6075 156.186 86.7303 156.077 86.8503C153.849 89.3016 151.085 91.1175 148.547 93.224C148.321 93.4075 148.227 93.6224 148.224 93.8181C148.221 94.1723 148.516 94.4707 148.913 94.4707C149.046 94.4707 149.188 94.44 149.334 94.3643C152.664 92.6492 155.489 89.9379 157.906 87.0788C158.947 87.5222 159.962 88.0192 160.949 88.5654C162.715 89.2545 164.355 90.1414 165.883 91.196C158.183 98.8108 147.638 103.932 137.595 107.02C137.559 107.031 137.523 107.045 137.489 107.061C134.851 105.99 132.16 105.611 129.435 105.611C126.138 105.611 122.795 106.166 119.439 106.721C116.082 107.276 112.71 107.829 109.363 107.829" fill="#B01C28"/>
</svg>
