<svg width="292" height="255" viewBox="0 0 292 255" fill="none" xmlns="http://www.w3.org/2000/svg">
<path d="M290.505 142.702C285.913 121.234 272.226 102.384 254.841 89.3711C245.997 82.7682 235.834 78.104 225.394 74.6508C219.746 72.7738 209.671 67.6984 202.263 68.1345C207.147 62.0964 208.922 52.3674 208.943 45.6213C208.943 43.8559 206.598 43.0809 205.403 44.2513C199.518 50.0083 189.658 53.3486 181.861 55.1546C176.546 56.4011 171.103 58.1244 165.685 59.5561L165.02 59.5404C163.429 59.9712 161.858 60.4441 160.289 60.8394C158.833 61.1573 157.396 61.4344 155.954 61.6551L155.549 61.86L153.979 62.0964C151.839 62.3473 147.366 62.1056 144.678 60.4795C146.309 50.4956 146.125 40.2687 144.448 30.2073C143.16 22.4091 140.805 10.6796 134.106 4.87396C134.013 2.91685 132.351 1.22248 128.175 0.31617C120.28 -1.3651 103.946 3.75749 103.505 13.3329L103.704 13.8715L103.796 15.3426L103.761 15.4345C101.602 20.2288 109.086 26.7042 111.616 29.879C120.475 40.9412 129.725 54.7027 122.537 68.3355L122.122 68.2068C112.59 71.9056 101.648 70.8693 92.1317 67.6328C83.0254 64.5133 76.3158 57.5045 68.4202 52.3529L65.7057 53.2657C63.5624 59.5561 63.5624 65.3696 65.1108 70.4594C61.3403 72.2813 56.2618 72.6504 52.3574 73.9232C47.577 75.4823 42.9397 77.7297 38.7017 80.4184C29.1541 86.4776 21.3164 94.1746 14.5083 103.143C2.54022 118.93 -2.3229 137.905 1.04176 157.411C8.46055 200.418 49.1516 226.499 86.893 240.614C132.736 257.746 182.943 261.63 228.262 240.916C264.106 224.539 299.565 185.026 290.505 142.702" fill="#1B181A"/>
<path d="M106.049 13.1498L106.388 12.4011L106.803 11.613C109.916 7.85642 113.785 5.99128 118.889 4.82227C124.138 3.627 134.438 4.66463 125.451 9.97115C120.198 13.0579 114.292 12.296 108.543 12.493L106.049 13.1498" fill="#5BC248"/>
<path d="M68.2506 56.7141C76.9867 62.4711 84.5131 69.1201 95.1114 71.5067C103.796 73.4664 113.969 72.5115 122.157 69.0229L120.09 72.1371L120.685 72.9988C130.934 66.673 131.155 49.813 125.492 40.2848C121.352 33.3325 115.836 27.3614 110.83 21.0041C108.424 17.9831 108.306 16.9717 112.308 17.1424C116.248 17.3263 120.577 16.6301 124.214 15.1722C127.631 13.8061 131.596 10.8113 133.285 7.81654C138.552 15.1064 140.282 25.9691 141.564 34.1391C143.627 47.165 141.262 59.9624 139.23 72.8202C138.989 74.2821 141.066 74.6407 141.523 73.3022C142.672 69.9463 143.571 66.5141 144.242 63.0662C148.618 66.4576 157.837 64.8972 163.187 62.9125C170.472 62.0968 177.895 60.3564 184.841 58.884C191.13 57.5298 198.457 54.8213 204.109 50.9058C203.13 59.3621 199.278 63.9028 192.362 69.4077C190.489 67.7658 188.659 66.0268 186.781 64.2614C184.975 62.5631 182.897 65.6157 183.764 67.3088C187.801 75.3697 195.075 80.2848 203.248 83.5948C206.074 84.7231 209.101 85.4415 212.086 85.9906C213.779 86.2979 217.083 86.2979 219.495 86.8522C217.638 88.7818 214.801 90.4131 213.062 91.7778C207.316 96.3133 198.236 97.2118 191.229 97.0989C181.768 96.9504 166.352 91.7477 161.731 82.5269C161.11 81.2699 159.387 82.7069 159.673 83.7997C160.479 86.6736 161.863 89.1417 163.644 91.2906L163.491 91.8041C162.67 99.1151 162.135 106.247 160.197 113.399C159.662 115.303 159.002 117.135 158.262 118.971C155.835 124.986 151.486 120.777 148.926 117.493C145.592 113.205 142.821 108.018 140.897 102.994C138.394 96.4263 139.241 90.27 138.753 83.5489C138.665 82.3483 137.153 82.7424 136.927 83.6513C136.019 87.3711 135.366 90.7363 135.126 93.9951L133.781 94.3799C120.172 104.883 105.992 111.757 90.4939 118.849C87.4681 120.239 85.3024 121.224 86.8061 116.658C88.0314 112.887 89.2121 109.157 90.8077 105.534C95.0865 95.7604 102.576 89.6343 110.066 82.5269L109.317 81.4394C105.706 84.241 101.817 85.5953 98.3697 88.284C90.9916 87.0322 83.779 85.9551 77.357 81.7887C69.862 76.9301 66.4396 65.5342 68.2506 56.7141" fill="#5BC248"/>
<path d="M284.873 168.536C276.43 222.522 214.776 248.89 166.344 250.269C140.017 251.019 113.72 244.559 89.0956 235.704C65.9593 227.355 43.3353 215.046 26.8167 196.529C12.0172 179.946 2.74661 157.894 5.62009 135.488C8.77987 110.885 29.0992 89.3463 50.9996 79.5923C55.8168 77.4368 61.7673 76.4884 66.3849 73.7682C71.2283 84.0765 82.8273 90.7004 95.385 91.1313C91.8299 95.0153 89.0391 99.2539 86.6542 103.989C85.0323 107.191 77.7737 121.762 82.1444 125.164C86.5557 128.587 101.131 119.618 104.917 117.925C116.018 112.943 126.463 106.653 135.056 98.0219C135.23 101.891 136.087 105.765 137.938 110.126C140.314 115.724 145.131 124.949 151.02 127.576C164.954 133.804 167.791 106.832 167.761 95.211C174.716 100.479 184.556 102.743 192.708 102.886C202.999 103.06 222.118 97.7093 225.996 86.3646L225.36 83.1268C222.056 80.4184 215.177 80.957 211.165 80.0231C206.21 78.858 202.085 76.7394 198.289 74.0874L199.171 73.7945C203.11 71.7165 210.57 76.139 214.423 77.5655C220.005 79.6185 225.611 81.4955 231.085 83.8309C241.925 88.4478 251.626 94.8104 260.224 102.856C278.132 119.592 288.695 144.056 284.873 168.536" fill="#EE2333"/>
<path d="M260.331 102.963C260.449 108.705 260.089 114.487 259.228 120.228C253.733 156.252 229.652 187.258 199.237 206.632C165.497 228.109 125.667 231.271 87.4885 220.726C53.6095 211.378 20.1362 190.111 8.38884 155.256C6.97836 151.049 5.89491 146.734 5.13057 142.342C4.72608 162.353 13.5238 181.639 26.8104 196.529C43.329 215.046 65.9531 227.355 89.0894 235.704C113.714 244.559 140.011 251.019 166.337 250.269C214.77 248.89 276.424 222.522 284.867 168.536C288.685 144.097 278.168 119.716 260.331 102.963" fill="#BA212F"/>
<path d="M62.3831 82.3224C60.4854 83.6517 58.0991 82.7427 56.0937 83.7278C53.4054 85.0729 50.9995 86.6017 48.5633 88.3671C43.0475 92.3785 38.9645 98.5361 35.3477 104.195C29.0636 114 23.0513 128.079 25.8158 139.876C26.8782 144.426 32.5215 141.43 33.3213 138.444C34.9116 132.539 34.9681 126.464 36.8356 120.557C38.9395 113.938 42.6023 107.911 46.5776 102.267C49.8871 97.5813 54.724 91.9122 60.1768 89.6346C62.8913 88.505 64.4607 86.5755 64.8665 83.7278C65.0714 82.1845 63.5677 81.5225 62.3831 82.3224" fill="white"/>
<path d="M34.392 155.402C33.0366 153.965 31.3596 154.252 30.0673 155.622C28.5071 157.284 28.1946 159.347 28.7685 161.205C28.8814 162.749 29.605 164.16 31.1192 164.822L32.2986 165.073L34.4484 164.381L34.6271 164.247L35.7565 162.965L36.4696 161.153C36.8898 158.917 35.8839 156.971 34.392 155.402" fill="white"/>
</svg>
